<?xml version="1.0" encoding="UTF-8"?>
<svg xmlns="http://www.w3.org/2000/svg" xmlns:xlink="http://www.w3.org/1999/xlink" width="700" height="300" viewBox="0 0 700 300">
<defs>
<g>
<g id="glyph-0-0">
<path d="M 4.40625 -35 L 15.890625 -35 L 23.859375 -16.265625 L 31.875 -35 L 43.34375 -35 L 43.34375 0 L 34.8125 0 L 34.8125 -25.59375 L 26.75 -6.734375 L 21.03125 -6.734375 L 12.96875 -25.59375 L 12.96875 0 L 4.40625 0 Z M 4.40625 -35 "/>
</g>
<g id="glyph-0-1">
<path d="M 0.59375 -26.25 L 8.984375 -26.25 L 16.03125 -8.4375 L 22.03125 -26.25 L 30.421875 -26.25 L 19.390625 2.484375 C 18.273438 5.410156 16.976562 7.453125 15.5 8.609375 C 14.03125 9.773438 12.082031 10.359375 9.65625 10.359375 L 4.8125 10.359375 L 4.8125 4.859375 L 7.4375 4.859375 C 8.851562 4.859375 9.882812 4.628906 10.53125 4.171875 C 11.1875 3.722656 11.691406 2.910156 12.046875 1.734375 L 12.28125 1.015625 Z M 0.59375 -26.25 "/>
</g>
<g id="glyph-0-2">
<path d="M 23.53125 -19.109375 C 22.800781 -19.453125 22.070312 -19.703125 21.34375 -19.859375 C 20.613281 -20.023438 19.882812 -20.109375 19.15625 -20.109375 C 17 -20.109375 15.335938 -19.414062 14.171875 -18.03125 C 13.003906 -16.65625 12.421875 -14.675781 12.421875 -12.09375 L 12.421875 0 L 4.03125 0 L 4.03125 -26.25 L 12.421875 -26.25 L 12.421875 -21.9375 C 13.503906 -23.65625 14.742188 -24.910156 16.140625 -25.703125 C 17.535156 -26.492188 19.210938 -26.890625 21.171875 -26.890625 C 21.453125 -26.890625 21.753906 -26.875 22.078125 -26.84375 C 22.410156 -26.820312 22.890625 -26.773438 23.515625 -26.703125 Z M 23.53125 -19.109375 "/>
</g>
<g id="glyph-0-3">
<path d="M 4.03125 -26.25 L 12.421875 -26.25 L 12.421875 0 L 4.03125 0 Z M 4.03125 -36.46875 L 12.421875 -36.46875 L 12.421875 -29.625 L 4.03125 -29.625 Z M 4.03125 -36.46875 "/>
</g>
<g id="glyph-0-4">
<path d="M 15.796875 -11.8125 C 14.046875 -11.8125 12.726562 -11.515625 11.84375 -10.921875 C 10.96875 -10.328125 10.53125 -9.453125 10.53125 -8.296875 C 10.53125 -7.234375 10.882812 -6.398438 11.59375 -5.796875 C 12.300781 -5.203125 13.289062 -4.90625 14.5625 -4.90625 C 16.132812 -4.90625 17.457031 -5.46875 18.53125 -6.59375 C 19.613281 -7.726562 20.15625 -9.148438 20.15625 -10.859375 L 20.15625 -11.8125 Z M 28.625 -14.984375 L 28.625 0 L 20.15625 0 L 20.15625 -3.890625 C 19.03125 -2.296875 17.765625 -1.132812 16.359375 -0.40625 C 14.953125 0.320312 13.242188 0.6875 11.234375 0.6875 C 8.515625 0.6875 6.304688 -0.101562 4.609375 -1.6875 C 2.910156 -3.28125 2.0625 -5.34375 2.0625 -7.875 C 2.0625 -10.957031 3.117188 -13.21875 5.234375 -14.65625 C 7.359375 -16.09375 10.6875 -16.8125 15.21875 -16.8125 L 20.15625 -16.8125 L 20.15625 -17.46875 C 20.15625 -18.789062 19.628906 -19.757812 18.578125 -20.375 C 17.535156 -21 15.90625 -21.3125 13.6875 -21.3125 C 11.894531 -21.3125 10.222656 -21.128906 8.671875 -20.765625 C 7.128906 -20.410156 5.691406 -19.875 4.359375 -19.15625 L 4.359375 -25.546875 C 6.160156 -25.984375 7.96875 -26.316406 9.78125 -26.546875 C 11.59375 -26.773438 13.40625 -26.890625 15.21875 -26.890625 C 19.945312 -26.890625 23.363281 -25.953125 25.46875 -24.078125 C 27.570312 -22.210938 28.625 -19.179688 28.625 -14.984375 Z M 28.625 -14.984375 "/>
</g>
<g id="glyph-0-5">
<path d="M 21.890625 -22.40625 L 21.890625 -36.46875 L 30.328125 -36.46875 L 30.328125 0 L 21.890625 0 L 21.890625 -3.796875 C 20.734375 -2.253906 19.457031 -1.117188 18.0625 -0.390625 C 16.675781 0.328125 15.070312 0.6875 13.25 0.6875 C 10.007812 0.6875 7.347656 -0.597656 5.265625 -3.171875 C 3.191406 -5.742188 2.15625 -9.054688 2.15625 -13.109375 C 2.15625 -17.148438 3.191406 -20.457031 5.265625 -23.03125 C 7.347656 -25.601562 10.007812 -26.890625 13.25 -26.890625 C 15.0625 -26.890625 16.664062 -26.523438 18.0625 -25.796875 C 19.457031 -25.066406 20.734375 -23.9375 21.890625 -22.40625 Z M 16.359375 -5.421875 C 18.160156 -5.421875 19.53125 -6.078125 20.46875 -7.390625 C 21.414062 -8.703125 21.890625 -10.609375 21.890625 -13.109375 C 21.890625 -15.609375 21.414062 -17.515625 20.46875 -18.828125 C 19.53125 -20.140625 18.160156 -20.796875 16.359375 -20.796875 C 14.578125 -20.796875 13.210938 -20.140625 12.265625 -18.828125 C 11.328125 -17.515625 10.859375 -15.609375 10.859375 -13.109375 C 10.859375 -10.609375 11.328125 -8.703125 12.265625 -7.390625 C 13.210938 -6.078125 14.578125 -5.421875 16.359375 -5.421875 Z M 16.359375 -5.421875 "/>
</g>
<g id="glyph-0-6">
</g>
<g id="glyph-0-7">
<path d="M 4.40625 -35 L 19.390625 -35 C 23.835938 -35 27.253906 -34.007812 29.640625 -32.03125 C 32.023438 -30.050781 33.21875 -27.234375 33.21875 -23.578125 C 33.21875 -19.910156 32.023438 -17.085938 29.640625 -15.109375 C 27.253906 -13.128906 23.835938 -12.140625 19.390625 -12.140625 L 13.4375 -12.140625 L 13.4375 0 L 4.40625 0 Z M 13.4375 -28.453125 L 13.4375 -18.6875 L 18.421875 -18.6875 C 20.171875 -18.6875 21.519531 -19.109375 22.46875 -19.953125 C 23.425781 -20.804688 23.90625 -22.015625 23.90625 -23.578125 C 23.90625 -25.140625 23.425781 -26.34375 22.46875 -27.1875 C 21.519531 -28.03125 20.171875 -28.453125 18.421875 -28.453125 Z M 13.4375 -28.453125 "/>
</g>
<g id="glyph-0-8">
<path d="M 16.53125 -20.890625 C 14.664062 -20.890625 13.242188 -20.21875 12.265625 -18.875 C 11.296875 -17.539062 10.8125 -15.617188 10.8125 -13.109375 C 10.8125 -10.585938 11.296875 -8.660156 12.265625 -7.328125 C 13.242188 -5.992188 14.664062 -5.328125 16.53125 -5.328125 C 18.351562 -5.328125 19.75 -5.992188 20.71875 -7.328125 C 21.6875 -8.660156 22.171875 -10.585938 22.171875 -13.109375 C 22.171875 -15.617188 21.6875 -17.539062 20.71875 -18.875 C 19.75 -20.21875 18.351562 -20.890625 16.53125 -20.890625 Z M 16.53125 -26.890625 C 21.039062 -26.890625 24.566406 -25.671875 27.109375 -23.234375 C 29.648438 -20.796875 30.921875 -17.421875 30.921875 -13.109375 C 30.921875 -8.796875 29.648438 -5.414062 27.109375 -2.96875 C 24.566406 -0.53125 21.039062 0.6875 16.53125 0.6875 C 12 0.6875 8.453125 -0.53125 5.890625 -2.96875 C 3.335938 -5.414062 2.0625 -8.796875 2.0625 -13.109375 C 2.0625 -17.421875 3.335938 -20.796875 5.890625 -23.234375 C 8.453125 -25.671875 12 -26.890625 16.53125 -26.890625 Z M 16.53125 -26.890625 "/>
</g>
<g id="glyph-0-9">
<path d="M 18.09375 6.328125 L 11.140625 6.328125 C 8.742188 2.472656 6.972656 -1.191406 5.828125 -4.671875 C 4.691406 -8.148438 4.125 -11.601562 4.125 -15.03125 C 4.125 -18.445312 4.695312 -21.910156 5.84375 -25.421875 C 7 -28.929688 8.765625 -32.597656 11.140625 -36.421875 L 18.09375 -36.421875 C 16.09375 -32.722656 14.59375 -29.101562 13.59375 -25.5625 C 12.59375 -22.019531 12.09375 -18.523438 12.09375 -15.078125 C 12.09375 -11.617188 12.585938 -8.113281 13.578125 -4.5625 C 14.578125 -1.019531 16.082031 2.609375 18.09375 6.328125 Z M 18.09375 6.328125 "/>
</g>
<g id="glyph-0-10">
<path d="M 24.546875 -25.4375 L 24.546875 -19.0625 C 22.742188 -19.8125 21.003906 -20.375 19.328125 -20.75 C 17.660156 -21.125 16.085938 -21.3125 14.609375 -21.3125 C 13.015625 -21.3125 11.828125 -21.109375 11.046875 -20.703125 C 10.273438 -20.304688 9.890625 -19.695312 9.890625 -18.875 C 9.890625 -18.195312 10.179688 -17.675781 10.765625 -17.3125 C 11.359375 -16.957031 12.410156 -16.695312 13.921875 -16.53125 L 15.40625 -16.3125 C 19.695312 -15.769531 22.582031 -14.875 24.0625 -13.625 C 25.550781 -12.375 26.296875 -10.410156 26.296875 -7.734375 C 26.296875 -4.941406 25.265625 -2.835938 23.203125 -1.421875 C 21.140625 -0.015625 18.0625 0.6875 13.96875 0.6875 C 12.238281 0.6875 10.445312 0.546875 8.59375 0.265625 C 6.738281 -0.00390625 4.835938 -0.414062 2.890625 -0.96875 L 2.890625 -7.34375 C 4.554688 -6.53125 6.269531 -5.921875 8.03125 -5.515625 C 9.789062 -5.109375 11.578125 -4.90625 13.390625 -4.90625 C 15.023438 -4.90625 16.253906 -5.128906 17.078125 -5.578125 C 17.910156 -6.035156 18.328125 -6.707031 18.328125 -7.59375 C 18.328125 -8.34375 18.039062 -8.898438 17.46875 -9.265625 C 16.90625 -9.640625 15.769531 -9.925781 14.0625 -10.125 L 12.59375 -10.3125 C 8.851562 -10.78125 6.234375 -11.644531 4.734375 -12.90625 C 3.234375 -14.175781 2.484375 -16.101562 2.484375 -18.6875 C 2.484375 -21.46875 3.4375 -23.53125 5.34375 -24.875 C 7.25 -26.21875 10.171875 -26.890625 14.109375 -26.890625 C 15.660156 -26.890625 17.285156 -26.769531 18.984375 -26.53125 C 20.691406 -26.300781 22.546875 -25.9375 24.546875 -25.4375 Z M 24.546875 -25.4375 "/>
</g>
<g id="glyph-0-11">
<path d="M 13.203125 -33.703125 L 13.203125 -26.25 L 21.84375 -26.25 L 21.84375 -20.25 L 13.203125 -20.25 L 13.203125 -9.125 C 13.203125 -7.90625 13.441406 -7.078125 13.921875 -6.640625 C 14.410156 -6.210938 15.375 -6 16.8125 -6 L 21.125 -6 L 21.125 0 L 13.921875 0 C 10.609375 0 8.257812 -0.691406 6.875 -2.078125 C 5.5 -3.460938 4.8125 -5.8125 4.8125 -9.125 L 4.8125 -20.25 L 0.640625 -20.25 L 0.640625 -26.25 L 4.8125 -26.25 L 4.8125 -33.703125 Z M 13.203125 -33.703125 "/>
</g>
<g id="glyph-0-12">
<path d="M 30.234375 -13.203125 L 30.234375 -10.8125 L 10.625 -10.8125 C 10.820312 -8.84375 11.53125 -7.363281 12.75 -6.375 C 13.96875 -5.394531 15.671875 -4.90625 17.859375 -4.90625 C 19.628906 -4.90625 21.4375 -5.164062 23.28125 -5.6875 C 25.132812 -6.207031 27.039062 -7 29 -8.0625 L 29 -1.59375 C 27.007812 -0.84375 25.019531 -0.273438 23.03125 0.109375 C 21.050781 0.492188 19.070312 0.6875 17.09375 0.6875 C 12.34375 0.6875 8.648438 -0.519531 6.015625 -2.9375 C 3.378906 -5.351562 2.0625 -8.742188 2.0625 -13.109375 C 2.0625 -17.390625 3.351562 -20.753906 5.9375 -23.203125 C 8.53125 -25.660156 12.09375 -26.890625 16.625 -26.890625 C 20.75 -26.890625 24.046875 -25.644531 26.515625 -23.15625 C 28.992188 -20.675781 30.234375 -17.359375 30.234375 -13.203125 Z M 21.609375 -15.984375 C 21.609375 -17.578125 21.144531 -18.863281 20.21875 -19.84375 C 19.289062 -20.820312 18.078125 -21.3125 16.578125 -21.3125 C 14.953125 -21.3125 13.628906 -20.851562 12.609375 -19.9375 C 11.597656 -19.019531 10.96875 -17.703125 10.71875 -15.984375 Z M 21.609375 -15.984375 "/>
</g>
<g id="glyph-0-13">
<path d="M 28.359375 -21.890625 C 29.421875 -23.515625 30.679688 -24.753906 32.140625 -25.609375 C 33.609375 -26.460938 35.21875 -26.890625 36.96875 -26.890625 C 39.976562 -26.890625 42.269531 -25.957031 43.84375 -24.09375 C 45.425781 -22.238281 46.21875 -19.535156 46.21875 -15.984375 L 46.21875 0 L 37.78125 0 L 37.78125 -13.6875 C 37.800781 -13.894531 37.8125 -14.109375 37.8125 -14.328125 C 37.820312 -14.546875 37.828125 -14.859375 37.828125 -15.265625 C 37.828125 -17.117188 37.550781 -18.460938 37 -19.296875 C 36.457031 -20.140625 35.578125 -20.5625 34.359375 -20.5625 C 32.765625 -20.5625 31.535156 -19.90625 30.671875 -18.59375 C 29.804688 -17.28125 29.359375 -15.378906 29.328125 -12.890625 L 29.328125 0 L 20.890625 0 L 20.890625 -13.6875 C 20.890625 -16.59375 20.640625 -18.460938 20.140625 -19.296875 C 19.640625 -20.140625 18.75 -20.5625 17.46875 -20.5625 C 15.851562 -20.5625 14.609375 -19.898438 13.734375 -18.578125 C 12.859375 -17.253906 12.421875 -15.367188 12.421875 -12.921875 L 12.421875 0 L 3.984375 0 L 3.984375 -26.25 L 12.421875 -26.25 L 12.421875 -22.40625 C 13.453125 -23.894531 14.632812 -25.015625 15.96875 -25.765625 C 17.3125 -26.515625 18.785156 -26.890625 20.390625 -26.890625 C 22.203125 -26.890625 23.800781 -26.453125 25.1875 -25.578125 C 26.582031 -24.703125 27.640625 -23.472656 28.359375 -21.890625 Z M 28.359375 -21.890625 "/>
</g>
<g id="glyph-0-14">
<path d="M 3.84375 6.328125 C 5.84375 2.609375 7.34375 -1.019531 8.34375 -4.5625 C 9.34375 -8.113281 9.84375 -11.617188 9.84375 -15.078125 C 9.84375 -18.523438 9.34375 -22.019531 8.34375 -25.5625 C 7.34375 -29.101562 5.84375 -32.722656 3.84375 -36.421875 L 10.8125 -36.421875 C 13.1875 -32.597656 14.945312 -28.929688 16.09375 -25.421875 C 17.238281 -21.910156 17.8125 -18.445312 17.8125 -15.03125 C 17.8125 -11.601562 17.238281 -8.148438 16.09375 -4.671875 C 14.957031 -1.191406 13.195312 2.472656 10.8125 6.328125 Z M 3.84375 6.328125 "/>
</g>
<g id="glyph-1-0">
<path d="M 13.4375 -28.171875 L 13.4375 -6.828125 L 16.671875 -6.828125 C 20.359375 -6.828125 23.171875 -7.738281 25.109375 -9.5625 C 27.054688 -11.394531 28.03125 -14.050781 28.03125 -17.53125 C 28.03125 -21 27.0625 -23.640625 25.125 -25.453125 C 23.1875 -27.265625 20.367188 -28.171875 16.671875 -28.171875 Z M 4.40625 -35 L 13.921875 -35 C 19.234375 -35 23.191406 -34.617188 25.796875 -33.859375 C 28.398438 -33.097656 30.628906 -31.8125 32.484375 -30 C 34.128906 -28.425781 35.347656 -26.609375 36.140625 -24.546875 C 36.941406 -22.484375 37.34375 -20.144531 37.34375 -17.53125 C 37.34375 -14.894531 36.941406 -12.539062 36.140625 -10.46875 C 35.347656 -8.394531 34.128906 -6.570312 32.484375 -5 C 30.609375 -3.1875 28.359375 -1.898438 25.734375 -1.140625 C 23.109375 -0.378906 19.171875 0 13.921875 0 L 4.40625 0 Z M 4.40625 -35 "/>
</g>
<g id="glyph-1-1">
<path d="M 30.234375 -13.203125 L 30.234375 -10.8125 L 10.625 -10.8125 C 10.820312 -8.84375 11.53125 -7.363281 12.75 -6.375 C 13.96875 -5.394531 15.671875 -4.90625 17.859375 -4.90625 C 19.628906 -4.90625 21.4375 -5.164062 23.28125 -5.6875 C 25.132812 -6.207031 27.039062 -7 29 -8.0625 L 29 -1.59375 C 27.007812 -0.84375 25.019531 -0.273438 23.03125 0.109375 C 21.050781 0.492188 19.070312 0.6875 17.09375 0.6875 C 12.34375 0.6875 8.648438 -0.519531 6.015625 -2.9375 C 3.378906 -5.351562 2.0625 -8.742188 2.0625 -13.109375 C 2.0625 -17.390625 3.351562 -20.753906 5.9375 -23.203125 C 8.53125 -25.660156 12.09375 -26.890625 16.625 -26.890625 C 20.75 -26.890625 24.046875 -25.644531 26.515625 -23.15625 C 28.992188 -20.675781 30.234375 -17.359375 30.234375 -13.203125 Z M 21.609375 -15.984375 C 21.609375 -17.578125 21.144531 -18.863281 20.21875 -19.84375 C 19.289062 -20.820312 18.078125 -21.3125 16.578125 -21.3125 C 14.953125 -21.3125 13.628906 -20.851562 12.609375 -19.9375 C 11.597656 -19.019531 10.96875 -17.703125 10.71875 -15.984375 Z M 21.609375 -15.984375 "/>
</g>
<g id="glyph-1-2">
<path d="M 4.03125 -26.25 L 12.421875 -26.25 L 12.421875 -0.46875 C 12.421875 3.050781 11.578125 5.734375 9.890625 7.578125 C 8.203125 9.429688 5.757812 10.359375 2.5625 10.359375 L -1.59375 10.359375 L -1.59375 4.859375 L -0.140625 4.859375 C 1.453125 4.859375 2.546875 4.5 3.140625 3.78125 C 3.734375 3.0625 4.03125 1.644531 4.03125 -0.46875 Z M 4.03125 -36.46875 L 12.421875 -36.46875 L 12.421875 -29.625 L 4.03125 -29.625 Z M 4.03125 -36.46875 "/>
</g>
<g id="glyph-1-3">
<path d="M 15.796875 -11.8125 C 14.046875 -11.8125 12.726562 -11.515625 11.84375 -10.921875 C 10.96875 -10.328125 10.53125 -9.453125 10.53125 -8.296875 C 10.53125 -7.234375 10.882812 -6.398438 11.59375 -5.796875 C 12.300781 -5.203125 13.289062 -4.90625 14.5625 -4.90625 C 16.132812 -4.90625 17.457031 -5.46875 18.53125 -6.59375 C 19.613281 -7.726562 20.15625 -9.148438 20.15625 -10.859375 L 20.15625 -11.8125 Z M 28.625 -14.984375 L 28.625 0 L 20.15625 0 L 20.15625 -3.890625 C 19.03125 -2.296875 17.765625 -1.132812 16.359375 -0.40625 C 14.953125 0.320312 13.242188 0.6875 11.234375 0.6875 C 8.515625 0.6875 6.304688 -0.101562 4.609375 -1.6875 C 2.910156 -3.28125 2.0625 -5.34375 2.0625 -7.875 C 2.0625 -10.957031 3.117188 -13.21875 5.234375 -14.65625 C 7.359375 -16.09375 10.6875 -16.8125 15.21875 -16.8125 L 20.15625 -16.8125 L 20.15625 -17.46875 C 20.15625 -18.789062 19.628906 -19.757812 18.578125 -20.375 C 17.535156 -21 15.90625 -21.3125 13.6875 -21.3125 C 11.894531 -21.3125 10.222656 -21.128906 8.671875 -20.765625 C 7.128906 -20.410156 5.691406 -19.875 4.359375 -19.15625 L 4.359375 -25.546875 C 6.160156 -25.984375 7.96875 -26.316406 9.78125 -26.546875 C 11.59375 -26.773438 13.40625 -26.890625 15.21875 -26.890625 C 19.945312 -26.890625 23.363281 -25.953125 25.46875 -24.078125 C 27.570312 -22.210938 28.625 -19.179688 28.625 -14.984375 Z M 28.625 -14.984375 "/>
</g>
<g id="glyph-1-4">
<path d="M 0.234375 -35 L 9.3125 -35 L 18.59375 -9.171875 L 27.84375 -35 L 36.921875 -35 L 23.953125 0 L 13.203125 0 Z M 0.234375 -35 "/>
</g>
<g id="glyph-1-5">
<path d="M 3.75 -10.21875 L 3.75 -26.25 L 12.1875 -26.25 L 12.1875 -23.625 C 12.1875 -22.207031 12.175781 -20.421875 12.15625 -18.265625 C 12.144531 -16.117188 12.140625 -14.6875 12.140625 -13.96875 C 12.140625 -11.863281 12.191406 -10.34375 12.296875 -9.40625 C 12.410156 -8.476562 12.601562 -7.804688 12.875 -7.390625 C 13.21875 -6.835938 13.664062 -6.410156 14.21875 -6.109375 C 14.769531 -5.816406 15.40625 -5.671875 16.125 -5.671875 C 17.875 -5.671875 19.25 -6.34375 20.25 -7.6875 C 21.25 -9.03125 21.75 -10.898438 21.75 -13.296875 L 21.75 -26.25 L 30.140625 -26.25 L 30.140625 0 L 21.75 0 L 21.75 -3.796875 C 20.488281 -2.265625 19.148438 -1.132812 17.734375 -0.40625 C 16.316406 0.320312 14.757812 0.6875 13.0625 0.6875 C 10.03125 0.6875 7.71875 -0.242188 6.125 -2.109375 C 4.539062 -3.972656 3.75 -6.675781 3.75 -10.21875 Z M 3.75 -10.21875 "/>
</g>
<g id="glyph-1-6">
</g>
<g id="glyph-1-7">
<path d="M 28.765625 -33.890625 L 28.765625 -26.484375 C 26.835938 -27.347656 24.957031 -28 23.125 -28.4375 C 21.300781 -28.875 19.578125 -29.09375 17.953125 -29.09375 C 15.796875 -29.09375 14.203125 -28.796875 13.171875 -28.203125 C 12.140625 -27.609375 11.625 -26.6875 11.625 -25.4375 C 11.625 -24.5 11.972656 -23.765625 12.671875 -23.234375 C 13.367188 -22.710938 14.628906 -22.265625 16.453125 -21.890625 L 20.296875 -21.125 C 24.191406 -20.34375 26.957031 -19.15625 28.59375 -17.5625 C 30.238281 -15.96875 31.0625 -13.703125 31.0625 -10.765625 C 31.0625 -6.898438 29.914062 -4.023438 27.625 -2.140625 C 25.332031 -0.253906 21.835938 0.6875 17.140625 0.6875 C 14.921875 0.6875 12.691406 0.472656 10.453125 0.046875 C 8.222656 -0.378906 5.988281 -1.003906 3.75 -1.828125 L 3.75 -9.453125 C 5.988281 -8.265625 8.148438 -7.367188 10.234375 -6.765625 C 12.316406 -6.160156 14.328125 -5.859375 16.265625 -5.859375 C 18.234375 -5.859375 19.738281 -6.1875 20.78125 -6.84375 C 21.832031 -7.5 22.359375 -8.4375 22.359375 -9.65625 C 22.359375 -10.75 22.003906 -11.59375 21.296875 -12.1875 C 20.585938 -12.78125 19.171875 -13.3125 17.046875 -13.78125 L 13.546875 -14.5625 C 10.046875 -15.3125 7.488281 -16.503906 5.875 -18.140625 C 4.257812 -19.785156 3.453125 -22 3.453125 -24.78125 C 3.453125 -28.257812 4.578125 -30.9375 6.828125 -32.8125 C 9.078125 -34.6875 12.3125 -35.625 16.53125 -35.625 C 18.445312 -35.625 20.421875 -35.476562 22.453125 -35.1875 C 24.484375 -34.90625 26.585938 -34.472656 28.765625 -33.890625 Z M 28.765625 -33.890625 "/>
</g>
<g id="glyph-1-8">
<path d="M 30.421875 -15.984375 L 30.421875 0 L 21.984375 0 L 21.984375 -12.234375 C 21.984375 -14.503906 21.929688 -16.066406 21.828125 -16.921875 C 21.734375 -17.785156 21.5625 -18.421875 21.3125 -18.828125 C 20.976562 -19.367188 20.53125 -19.789062 19.96875 -20.09375 C 19.40625 -20.40625 18.765625 -20.5625 18.046875 -20.5625 C 16.296875 -20.5625 14.921875 -19.882812 13.921875 -18.53125 C 12.921875 -17.175781 12.421875 -15.304688 12.421875 -12.921875 L 12.421875 0 L 4.03125 0 L 4.03125 -26.25 L 12.421875 -26.25 L 12.421875 -22.40625 C 13.691406 -23.9375 15.035156 -25.066406 16.453125 -25.796875 C 17.878906 -26.523438 19.453125 -26.890625 21.171875 -26.890625 C 24.203125 -26.890625 26.5 -25.957031 28.0625 -24.09375 C 29.632812 -22.238281 30.421875 -19.535156 30.421875 -15.984375 Z M 30.421875 -15.984375 "/>
</g>
<g id="glyph-1-9">
<path d="M 24.546875 -25.4375 L 24.546875 -19.0625 C 22.742188 -19.8125 21.003906 -20.375 19.328125 -20.75 C 17.660156 -21.125 16.085938 -21.3125 14.609375 -21.3125 C 13.015625 -21.3125 11.828125 -21.109375 11.046875 -20.703125 C 10.273438 -20.304688 9.890625 -19.695312 9.890625 -18.875 C 9.890625 -18.195312 10.179688 -17.675781 10.765625 -17.3125 C 11.359375 -16.957031 12.410156 -16.695312 13.921875 -16.53125 L 15.40625 -16.3125 C 19.695312 -15.769531 22.582031 -14.875 24.0625 -13.625 C 25.550781 -12.375 26.296875 -10.410156 26.296875 -7.734375 C 26.296875 -4.941406 25.265625 -2.835938 23.203125 -1.421875 C 21.140625 -0.015625 18.0625 0.6875 13.96875 0.6875 C 12.238281 0.6875 10.445312 0.546875 8.59375 0.265625 C 6.738281 -0.00390625 4.835938 -0.414062 2.890625 -0.96875 L 2.890625 -7.34375 C 4.554688 -6.53125 6.269531 -5.921875 8.03125 -5.515625 C 9.789062 -5.109375 11.578125 -4.90625 13.390625 -4.90625 C 15.023438 -4.90625 16.253906 -5.128906 17.078125 -5.578125 C 17.910156 -6.035156 18.328125 -6.707031 18.328125 -7.59375 C 18.328125 -8.34375 18.039062 -8.898438 17.46875 -9.265625 C 16.90625 -9.640625 15.769531 -9.925781 14.0625 -10.125 L 12.59375 -10.3125 C 8.851562 -10.78125 6.234375 -11.644531 4.734375 -12.90625 C 3.234375 -14.175781 2.484375 -16.101562 2.484375 -18.6875 C 2.484375 -21.46875 3.4375 -23.53125 5.34375 -24.875 C 7.25 -26.21875 10.171875 -26.890625 14.109375 -26.890625 C 15.660156 -26.890625 17.285156 -26.769531 18.984375 -26.53125 C 20.691406 -26.300781 22.546875 -25.9375 24.546875 -25.4375 Z M 24.546875 -25.4375 "/>
</g>
<g id="glyph-1-10">
<path d="M 18.09375 6.328125 L 11.140625 6.328125 C 8.742188 2.472656 6.972656 -1.191406 5.828125 -4.671875 C 4.691406 -8.148438 4.125 -11.601562 4.125 -15.03125 C 4.125 -18.445312 4.695312 -21.910156 5.84375 -25.421875 C 7 -28.929688 8.765625 -32.597656 11.140625 -36.421875 L 18.09375 -36.421875 C 16.09375 -32.722656 14.59375 -29.101562 13.59375 -25.5625 C 12.59375 -22.019531 12.09375 -18.523438 12.09375 -15.078125 C 12.09375 -11.617188 12.585938 -8.113281 13.578125 -4.5625 C 14.578125 -1.019531 16.082031 2.609375 18.09375 6.328125 Z M 18.09375 6.328125 "/>
</g>
<g id="glyph-1-11">
<path d="M 21.3125 -36.46875 L 21.3125 -30.96875 L 16.671875 -30.96875 C 15.484375 -30.96875 14.65625 -30.75 14.1875 -30.3125 C 13.71875 -29.882812 13.484375 -29.140625 13.484375 -28.078125 L 13.484375 -26.25 L 20.65625 -26.25 L 20.65625 -20.25 L 13.484375 -20.25 L 13.484375 0 L 5.09375 0 L 5.09375 -20.25 L 0.921875 -20.25 L 0.921875 -26.25 L 5.09375 -26.25 L 5.09375 -28.078125 C 5.09375 -30.941406 5.890625 -33.054688 7.484375 -34.421875 C 9.078125 -35.785156 11.546875 -36.46875 14.890625 -36.46875 Z M 21.3125 -36.46875 "/>
</g>
<g id="glyph-1-12">
<path d="M 4.03125 -36.46875 L 12.421875 -36.46875 L 12.421875 0 L 4.03125 0 Z M 4.03125 -36.46875 "/>
</g>
<g id="glyph-1-13">
<path d="M 18 -5.421875 C 19.800781 -5.421875 21.171875 -6.078125 22.109375 -7.390625 C 23.054688 -8.703125 23.53125 -10.609375 23.53125 -13.109375 C 23.53125 -15.609375 23.054688 -17.515625 22.109375 -18.828125 C 21.171875 -20.140625 19.800781 -20.796875 18 -20.796875 C 16.207031 -20.796875 14.828125 -20.132812 13.859375 -18.8125 C 12.898438 -17.488281 12.421875 -15.585938 12.421875 -13.109375 C 12.421875 -10.617188 12.898438 -8.710938 13.859375 -7.390625 C 14.828125 -6.078125 16.207031 -5.421875 18 -5.421875 Z M 12.421875 -22.40625 C 13.578125 -23.9375 14.859375 -25.066406 16.265625 -25.796875 C 17.671875 -26.523438 19.289062 -26.890625 21.125 -26.890625 C 24.351562 -26.890625 27.003906 -25.601562 29.078125 -23.03125 C 31.160156 -20.457031 32.203125 -17.148438 32.203125 -13.109375 C 32.203125 -9.054688 31.160156 -5.742188 29.078125 -3.171875 C 27.003906 -0.597656 24.351562 0.6875 21.125 0.6875 C 19.289062 0.6875 17.671875 0.320312 16.265625 -0.40625 C 14.859375 -1.132812 13.578125 -2.265625 12.421875 -3.796875 L 12.421875 0 L 4.03125 0 L 4.03125 -36.46875 L 12.421875 -36.46875 Z M 12.421875 -22.40625 "/>
</g>
<g id="glyph-1-14">
<path d="M 25.25 -25.4375 L 25.25 -18.59375 C 24.101562 -19.375 22.957031 -19.953125 21.8125 -20.328125 C 20.664062 -20.703125 19.472656 -20.890625 18.234375 -20.890625 C 15.890625 -20.890625 14.066406 -20.203125 12.765625 -18.828125 C 11.460938 -17.460938 10.8125 -15.554688 10.8125 -13.109375 C 10.8125 -10.648438 11.460938 -8.738281 12.765625 -7.375 C 14.066406 -6.007812 15.890625 -5.328125 18.234375 -5.328125 C 19.546875 -5.328125 20.789062 -5.519531 21.96875 -5.90625 C 23.15625 -6.300781 24.25 -6.878906 25.25 -7.640625 L 25.25 -0.78125 C 23.9375 -0.289062 22.601562 0.0703125 21.25 0.3125 C 19.894531 0.5625 18.539062 0.6875 17.1875 0.6875 C 12.445312 0.6875 8.738281 -0.523438 6.0625 -2.953125 C 3.394531 -5.390625 2.0625 -8.773438 2.0625 -13.109375 C 2.0625 -17.429688 3.394531 -20.804688 6.0625 -23.234375 C 8.738281 -25.671875 12.445312 -26.890625 17.1875 -26.890625 C 18.5625 -26.890625 19.914062 -26.765625 21.25 -26.515625 C 22.582031 -26.273438 23.914062 -25.914062 25.25 -25.4375 Z M 25.25 -25.4375 "/>
</g>
<g id="glyph-1-15">
<path d="M 4.03125 -36.46875 L 12.421875 -36.46875 L 12.421875 -16.625 L 22.078125 -26.25 L 31.828125 -26.25 L 19.015625 -14.203125 L 32.84375 0 L 22.671875 0 L 12.421875 -10.953125 L 12.421875 0 L 4.03125 0 Z M 4.03125 -36.46875 "/>
</g>
<g id="glyph-1-16">
<path d="M 3.84375 6.328125 C 5.84375 2.609375 7.34375 -1.019531 8.34375 -4.5625 C 9.34375 -8.113281 9.84375 -11.617188 9.84375 -15.078125 C 9.84375 -18.523438 9.34375 -22.019531 8.34375 -25.5625 C 7.34375 -29.101562 5.84375 -32.722656 3.84375 -36.421875 L 10.8125 -36.421875 C 13.1875 -32.597656 14.945312 -28.929688 16.09375 -25.421875 C 17.238281 -21.910156 17.8125 -18.445312 17.8125 -15.03125 C 17.8125 -11.601562 17.238281 -8.148438 16.09375 -4.671875 C 14.957031 -1.191406 13.195312 2.472656 10.8125 6.328125 Z M 3.84375 6.328125 "/>
</g>
</g>
</defs>
<rect x="-70" y="-30" width="840" height="360" fill="rgb(100%, 100%, 100%)" fill-opacity="1"/>
<path fill-rule="nonzero" fill="rgb(0%, 36.470588%, 64.313725%)" fill-opacity="1" d="M 50 50 L 650 50 L 650 150 L 50 150 Z M 50 50 "/>
<g fill="rgb(100%, 100%, 100%)" fill-opacity="1">
<use xlink:href="#glyph-0-0" x="70" y="123.414062"/>
<use xlink:href="#glyph-0-1" x="117.765625" y="123.414062"/>
<use xlink:href="#glyph-0-2" x="149.054688" y="123.414062"/>
<use xlink:href="#glyph-0-3" x="172.726562" y="123.414062"/>
<use xlink:href="#glyph-0-4" x="189.179688" y="123.414062"/>
<use xlink:href="#glyph-0-5" x="221.570312" y="123.414062"/>
<use xlink:href="#glyph-0-6" x="255.929688" y="123.414062"/>
<use xlink:href="#glyph-0-7" x="272.640625" y="123.414062"/>
<use xlink:href="#glyph-0-2" x="307.820312" y="123.414062"/>
<use xlink:href="#glyph-0-8" x="331.492188" y="123.414062"/>
<use xlink:href="#glyph-0-6" x="364.46875" y="123.414062"/>
<use xlink:href="#glyph-0-9" x="381.179688" y="123.414062"/>
<use xlink:href="#glyph-0-10" x="403.117188" y="123.414062"/>
<use xlink:href="#glyph-0-3" x="431.6875" y="123.414062"/>
<use xlink:href="#glyph-0-10" x="448.140625" y="123.414062"/>
<use xlink:href="#glyph-0-11" x="476.710938" y="123.414062"/>
<use xlink:href="#glyph-0-12" x="499.65625" y="123.414062"/>
<use xlink:href="#glyph-0-13" x="532.210938" y="123.414062"/>
<use xlink:href="#glyph-0-4" x="582.226562" y="123.414062"/>
<use xlink:href="#glyph-0-14" x="614.617188" y="123.414062"/>
</g>
<path fill-rule="nonzero" fill="rgb(0%, 36.470588%, 64.313725%)" fill-opacity="1" d="M 50 180 L 650 180 L 650 280 L 50 280 Z M 50 180 "/>
<g fill="rgb(100%, 100%, 100%)" fill-opacity="1">
<use xlink:href="#glyph-1-0" x="70" y="253.414062"/>
<use xlink:href="#glyph-1-1" x="109.84375" y="253.414062"/>
<use xlink:href="#glyph-1-2" x="142.398438" y="253.414062"/>
<use xlink:href="#glyph-1-3" x="158.851562" y="253.414062"/>
<use xlink:href="#glyph-1-4" x="191.242188" y="253.414062"/>
<use xlink:href="#glyph-1-5" x="228.390625" y="253.414062"/>
<use xlink:href="#glyph-1-6" x="262.5625" y="253.414062"/>
<use xlink:href="#glyph-1-7" x="279.273438" y="253.414062"/>
<use xlink:href="#glyph-1-3" x="313.84375" y="253.414062"/>
<use xlink:href="#glyph-1-8" x="346.234375" y="253.414062"/>
<use xlink:href="#glyph-1-9" x="380.40625" y="253.414062"/>
<use xlink:href="#glyph-1-6" x="408.976562" y="253.414062"/>
<use xlink:href="#glyph-1-10" x="425.6875" y="253.414062"/>
<use xlink:href="#glyph-1-11" x="447.625" y="253.414062"/>
<use xlink:href="#glyph-1-3" x="468.507812" y="253.414062"/>
<use xlink:href="#glyph-1-12" x="500.898438" y="253.414062"/>
<use xlink:href="#glyph-1-12" x="517.351562" y="253.414062"/>
<use xlink:href="#glyph-1-13" x="533.804688" y="253.414062"/>
<use xlink:href="#glyph-1-3" x="568.164062" y="253.414062"/>
<use xlink:href="#glyph-1-14" x="600.554688" y="253.414062"/>
<use xlink:href="#glyph-1-15" x="629.007812" y="253.414062"/>
<use xlink:href="#glyph-1-16" x="660.929688" y="253.414062"/>
</g>
</svg>
