<?xml version="1.0" encoding="UTF-8" standalone="no"?>
<!-- Created with Inkscape (http://www.inkscape.org/) -->

<svg
   width="3275.8433"
   height="577.99707"
   viewBox="0 0 866.73353 152.92839"
   version="1.1"
   id="svg1"
   xml:space="preserve"
   sodipodi:docname="parada.svg"
   inkscape:version="1.3.2 (091e20e, 2023-11-25)"
   inkscape:export-filename="parada_horizonal.png"
   inkscape:export-xdpi="96"
   inkscape:export-ydpi="96"
   xmlns:inkscape="http://www.inkscape.org/namespaces/inkscape"
   xmlns:sodipodi="http://sodipodi.sourceforge.net/DTD/sodipodi-0.dtd"
   xmlns="http://www.w3.org/2000/svg"
   xmlns:svg="http://www.w3.org/2000/svg"><sodipodi:namedview
     id="namedview1"
     pagecolor="#ffffff"
     bordercolor="#666666"
     borderopacity="1.0"
     inkscape:showpageshadow="2"
     inkscape:pageopacity="0.0"
     inkscape:pagecheckerboard="0"
     inkscape:deskcolor="#d1d1d1"
     inkscape:zoom="0.031940335"
     inkscape:cx="4649.2938"
     inkscape:cy="2144.6237"
     inkscape:window-width="1776"
     inkscape:window-height="940"
     inkscape:window-x="78"
     inkscape:window-y="209"
     inkscape:window-maximized="0"
     inkscape:current-layer="layer2"
     showgrid="false" /><defs
     id="defs1"><marker
       style="overflow:visible"
       id="marker41"
       refX="0"
       refY="0"
       orient="auto-start-reverse"
       inkscape:stockid="Triangle arrow"
       markerWidth="1"
       markerHeight="1"
       viewBox="0 0 1 1"
       inkscape:isstock="true"
       inkscape:collect="always"
       preserveAspectRatio="xMidYMid"><path
         transform="scale(0.5)"
         style="fill:context-stroke;fill-rule:evenodd;stroke:context-stroke;stroke-width:1pt"
         d="M 5.77,0 -2.88,5 V -5 Z"
         id="path41" /></marker><marker
       style="overflow:visible"
       id="marker40"
       refX="0"
       refY="0"
       orient="auto-start-reverse"
       inkscape:stockid="Triangle arrow"
       markerWidth="1"
       markerHeight="1"
       viewBox="0 0 1 1"
       inkscape:isstock="true"
       inkscape:collect="always"
       preserveAspectRatio="xMidYMid"><path
         transform="scale(0.5)"
         style="fill:context-stroke;fill-rule:evenodd;stroke:context-stroke;stroke-width:1pt"
         d="M 5.77,0 -2.88,5 V -5 Z"
         id="path40" /></marker><marker
       style="overflow:visible"
       id="marker36"
       refX="0"
       refY="0"
       orient="auto-start-reverse"
       inkscape:stockid="Triangle arrow"
       markerWidth="1"
       markerHeight="1"
       viewBox="0 0 1 1"
       inkscape:isstock="true"
       inkscape:collect="always"
       preserveAspectRatio="xMidYMid"><path
         transform="scale(0.5)"
         style="fill:context-stroke;fill-rule:evenodd;stroke:context-stroke;stroke-width:1pt"
         d="M 5.77,0 -2.88,5 V -5 Z"
         id="path36" /></marker><marker
       style="overflow:visible"
       id="marker35"
       refX="0"
       refY="0"
       orient="auto-start-reverse"
       inkscape:stockid="Triangle arrow"
       markerWidth="1"
       markerHeight="1"
       viewBox="0 0 1 1"
       inkscape:isstock="true"
       inkscape:collect="always"
       preserveAspectRatio="xMidYMid"><path
         transform="scale(0.5)"
         style="fill:context-stroke;fill-rule:evenodd;stroke:context-stroke;stroke-width:1pt"
         d="M 5.77,0 -2.88,5 V -5 Z"
         id="path35" /></marker><marker
       style="overflow:visible"
       id="marker94"
       refX="0"
       refY="0"
       orient="auto-start-reverse"
       inkscape:stockid="Triangle arrow"
       markerWidth="1"
       markerHeight="1"
       viewBox="0 0 1 1"
       inkscape:isstock="true"
       inkscape:collect="always"
       preserveAspectRatio="xMidYMid"><path
         transform="scale(0.5)"
         style="fill:context-stroke;fill-rule:evenodd;stroke:context-stroke;stroke-width:1pt"
         d="M 5.77,0 -2.88,5 V -5 Z"
         id="path94" /></marker><linearGradient
       id="swatch14"
       inkscape:swatch="solid"><stop
         style="stop-color:#ffffff;stop-opacity:1;"
         offset="0"
         id="stop14" /></linearGradient></defs><g
     inkscape:groupmode="layer"
     id="layer1"
     inkscape:label="Plantilla"
     style="display:inline"
     transform="translate(-1833.3337,-1525.5273)"><g
       id="g14"
       transform="translate(2648.0553,-43.754053)"
       inkscape:export-filename="./rotulo_el_b_es_el_bus_grilla.png"
       inkscape:export-xdpi="96"
       inkscape:export-ydpi="96"
       style="display:inline"><g
         id="g19"
         inkscape:export-filename="rotulo_el_b_es_el_bus.png"
         inkscape:export-xdpi="96"
         inkscape:export-ydpi="96"><rect
           style="display:inline;fill:#ffffff;fill-opacity:1;stroke-width:1.05951;stroke-linecap:round"
           id="rect4"
           width="600"
           height="100"
           x="-646.88568"
           y="1622.208"
           rx="50"
           ry="50" /><g
           id="g18"
           transform="translate(-5.1773045)"><g
             id="g7"
             transform="matrix(2.0157479,0,0,2.0157479,-667.21285,1589.7023)"><g
               id="g5"
               transform="matrix(0.35714298,0,0,0.35714298,-22.87434,9.7475231)"><ellipse
                 style="fill:none;fill-opacity:1;stroke:#005da4;stroke-width:7.9375;stroke-dasharray:none;stroke-opacity:1"
                 id="ellipse4"
                 cx="267.53531"
                 cy="87.3125"
                 rx="51.593731"
                 ry="51.593735" /><text
                 xml:space="preserve"
                 style="font-style:normal;font-weight:normal;font-size:88.0721px;line-height:1.25;font-family:sans-serif;fill:#005da4;fill-opacity:1;stroke:none;stroke-width:2.20181"
                 x="242.43475"
                 y="118.0937"
                 id="text4"><tspan
                   id="tspan4"
                   style="font-style:italic;font-variant:normal;font-weight:bold;font-stretch:normal;font-family:'Myriad Pro';-inkscape-font-specification:'Myriad Pro Bold Italic';fill:#005da4;fill-opacity:1;stroke-width:2.20181"
                   x="242.43475"
                   y="118.0937">b</tspan></text></g><text
               xml:space="preserve"
               style="font-style:normal;font-weight:normal;font-size:22.018px;line-height:1.25;font-family:sans-serif;fill:#000000;fill-opacity:1;stroke:none;stroke-width:0.550453"
               x="28.6691"
               y="48.625862"
               id="text7"><tspan
                 id="tspan7"
                 style="font-style:normal;font-variant:normal;font-weight:bold;font-stretch:normal;font-family:'Myriad Pro';-inkscape-font-specification:'Myriad Pro Bold';stroke-width:0.550453"
                 x="28.6691"
                 y="48.625862"><tspan
   style="font-style:normal;font-variant:normal;font-weight:600;font-stretch:normal;font-family:'Myriad Pro';-inkscape-font-specification:'Myriad Pro Semi-Bold';stroke-width:0.550453"
   id="tspan5">el            es el <tspan
   style="font-style:normal;font-variant:normal;font-weight:900;font-stretch:normal;font-family:'Myriad Pro';-inkscape-font-specification:'Myriad Pro Heavy'"
   id="tspan15">bus</tspan> de la</tspan> <tspan
   style="font-style:normal;font-variant:normal;font-weight:900;font-stretch:normal;font-family:'Myriad Pro';-inkscape-font-specification:'Myriad Pro Heavy';stroke-width:0.550453"
   id="tspan6">U</tspan></tspan></text></g><g
             style="fill:#005da4;fill-opacity:1"
             id="g8"
             transform="matrix(3.7499802,0,0,3.7499802,-135.54666,1642.2083)"><path
               d="m 16,7 a 1,1 0 0 1 -1,1 v 3.5 c 0,0.818 -0.393,1.544 -1,2 v 2 A 0.5,0.5 0 0 1 13.5,16 h -2 A 0.5,0.5 0 0 1 11,15.5 V 14 H 5 v 1.5 A 0.5,0.5 0 0 1 4.5,16 h -2 A 0.5,0.5 0 0 1 2,15.5 v -2 a 2.5,2.5 0 0 1 -1,-2 V 8 A 1,1 0 0 1 0,7 V 5 A 1,1 0 0 1 1,4 V 2.64 C 1,1.452 1.845,0.408 3.064,0.268 A 44,44 0 0 1 8,0 c 2.1,0 3.792,0.136 4.936,0.268 C 14.155,0.408 15,1.452 15,2.64 V 4 a 1,1 0 0 1 1,1 z M 3.552,3.22 A 43,43 0 0 1 8,3 c 1.837,0 3.353,0.107 4.448,0.22 A 0.5,0.5 0 0 0 12.552,2.226 44,44 0 0 0 8,2 C 6.124,2 4.574,2.109 3.448,2.226 A 0.5,0.5 0 1 0 3.552,3.22 M 8,4 C 6.124,4 4.574,4.109 3.448,4.226 A 0.5,0.5 0 0 0 3,4.723 V 8.277 A 0.5,0.5 0 0 0 3.448,8.774 C 4.574,8.891 6.124,9 8,9 9.876,9 11.426,8.891 12.552,8.774 A 0.5,0.5 0 0 0 13,8.277 V 4.723 A 0.5,0.5 0 0 0 12.552,4.226 44,44 0 0 0 8,4 m -3,7 a 1,1 0 1 0 -2,0 1,1 0 0 0 2,0 m 8,0 a 1,1 0 1 0 -2,0 1,1 0 0 0 2,0 m -7,0 a 1,1 0 0 0 1,1 H 9 A 1,1 0 1 0 9,10 H 7 a 1,1 0 0 0 -1,1"
               id="path7"
               style="fill:#005da4;fill-opacity:1" /></g></g></g></g></g><g
     inkscape:groupmode="layer"
     id="layer2"
     inkscape:label="Medidas"
     style="display:inline"
     inkscape:highlight-color="#f3995a"
     transform="translate(-1833.3337,-1525.5273)"><path
       style="display:inline;fill:none;stroke:#000000;stroke-width:1.58751;stroke-linecap:butt;stroke-linejoin:miter;stroke-dasharray:none;stroke-opacity:1;marker-start:url(#marker35);marker-end:url(#marker36)"
       d="m 2006.8069,1552.2819 h 588.7252"
       id="path34" /><text
       xml:space="preserve"
       style="font-style:normal;font-weight:normal;font-size:25.4px;line-height:1.25;font-family:sans-serif;display:inline;fill:#000000;fill-opacity:1;stroke:none;stroke-width:0.264583"
       x="2269.6101"
       y="1542.3167"
       id="text39"><tspan
         sodipodi:role="line"
         id="tspan39"
         style="font-style:normal;font-variant:normal;font-weight:normal;font-stretch:normal;font-size:25.4px;font-family:'Myriad Pro';-inkscape-font-specification:'Myriad Pro';stroke-width:0.264583"
         x="2269.6101"
         y="1542.3167">60 cm</tspan></text><path
       style="display:inline;fill:none;stroke:#000000;stroke-width:1.5875;stroke-linecap:butt;stroke-linejoin:miter;stroke-dasharray:none;stroke-opacity:1;marker-start:url(#marker40);marker-end:url(#marker41)"
       d="m 2627.0688,1584.0895 v 88.7289"
       id="path39" /><text
       xml:space="preserve"
       style="font-style:normal;font-weight:normal;font-size:25.4px;line-height:1.25;font-family:sans-serif;display:inline;fill:#000000;fill-opacity:1;stroke:none;stroke-width:0.264583"
       x="2637.8118"
       y="1636.709"
       id="text41"><tspan
         sodipodi:role="line"
         id="tspan41"
         style="font-style:normal;font-variant:normal;font-weight:normal;font-stretch:normal;font-size:25.4px;font-family:'Myriad Pro';-inkscape-font-specification:'Myriad Pro';stroke-width:0.264583"
         x="2637.8118"
         y="1636.709">10 cm</tspan></text><circle
       style="display:inline;fill:#00c0f3;fill-opacity:0.8;stroke:none;stroke-width:12.983;stroke-linecap:round;stroke-linejoin:miter;stroke-dasharray:none;stroke-opacity:1"
       id="circle41"
       cx="2050.9717"
       cy="1628.3639"
       r="50" /><text
       xml:space="preserve"
       style="font-style:normal;font-weight:normal;font-size:35.2778px;line-height:1.25;font-family:sans-serif;display:inline;fill:#000000;fill-opacity:1;stroke:none;stroke-width:0.264583"
       x="1830.2827"
       y="1602.4517"
       id="text43"><tspan
         sodipodi:role="line"
         style="font-style:normal;font-variant:normal;font-weight:normal;font-stretch:normal;font-size:35.2778px;font-family:'Myriad Pro';-inkscape-font-specification:'Myriad Pro';stroke-width:0.264583"
         x="1830.2827"
         y="1602.4517"
         id="tspan43"><tspan
   style="font-size:50.8px"
   id="tspan42">⌀</tspan> 10 cm</tspan></text><path
       style="display:inline;fill:none;stroke:#000000;stroke-width:1.5875;stroke-linecap:butt;stroke-linejoin:miter;stroke-dasharray:none;stroke-opacity:1;marker-end:url(#marker94)"
       d="m 1967.4104,1603.3827 30.2947,8.8977"
       id="path43"
       sodipodi:nodetypes="cc" /></g></svg>
