<?xml version="1.0" encoding="UTF-8" standalone="no"?>
<!-- Created with Inkscape (http://www.inkscape.org/) -->

<svg
   width="1338.8379"
   height="1111.1812"
   viewBox="0 0 354.23419 294.00001"
   version="1.1"
   id="svg1"
   xml:space="preserve"
   sodipodi:docname="parada.svg"
   inkscape:version="1.3.2 (091e20e, 2023-11-25)"
   inkscape:export-filename="parada_horizonal.png"
   inkscape:export-xdpi="96"
   inkscape:export-ydpi="96"
   xmlns:inkscape="http://www.inkscape.org/namespaces/inkscape"
   xmlns:sodipodi="http://sodipodi.sourceforge.net/DTD/sodipodi-0.dtd"
   xmlns="http://www.w3.org/2000/svg"
   xmlns:svg="http://www.w3.org/2000/svg"><sodipodi:namedview
     id="namedview1"
     pagecolor="#ffffff"
     bordercolor="#666666"
     borderopacity="1.0"
     inkscape:showpageshadow="2"
     inkscape:pageopacity="0.0"
     inkscape:pagecheckerboard="0"
     inkscape:deskcolor="#d1d1d1"
     inkscape:zoom="0.12776134"
     inkscape:cx="9897.3602"
     inkscape:cy="5725.5192"
     inkscape:window-width="1776"
     inkscape:window-height="940"
     inkscape:window-x="78"
     inkscape:window-y="181"
     inkscape:window-maximized="0"
     inkscape:current-layer="layer1"
     showgrid="false" /><defs
     id="defs1"><marker
       style="overflow:visible"
       id="marker41"
       refX="0"
       refY="0"
       orient="auto-start-reverse"
       inkscape:stockid="Triangle arrow"
       markerWidth="1"
       markerHeight="1"
       viewBox="0 0 1 1"
       inkscape:isstock="true"
       inkscape:collect="always"
       preserveAspectRatio="xMidYMid"><path
         transform="scale(0.5)"
         style="fill:context-stroke;fill-rule:evenodd;stroke:context-stroke;stroke-width:1pt"
         d="M 5.77,0 -2.88,5 V -5 Z"
         id="path41" /></marker><marker
       style="overflow:visible"
       id="marker40"
       refX="0"
       refY="0"
       orient="auto-start-reverse"
       inkscape:stockid="Triangle arrow"
       markerWidth="1"
       markerHeight="1"
       viewBox="0 0 1 1"
       inkscape:isstock="true"
       inkscape:collect="always"
       preserveAspectRatio="xMidYMid"><path
         transform="scale(0.5)"
         style="fill:context-stroke;fill-rule:evenodd;stroke:context-stroke;stroke-width:1pt"
         d="M 5.77,0 -2.88,5 V -5 Z"
         id="path40" /></marker><linearGradient
       id="swatch14"
       inkscape:swatch="solid"><stop
         style="stop-color:#ffffff;stop-opacity:1;"
         offset="0"
         id="stop14" /></linearGradient><filter
       style="color-interpolation-filters:sRGB"
       inkscape:label="Drop Shadow"
       id="filter98"
       x="-0.48"
       y="-0.48"
       width="1.96"
       height="1.96"><feFlood
         result="flood"
         in="SourceGraphic"
         flood-opacity="0.498039"
         flood-color="rgb(0,0,0)"
         id="feFlood97" /><feGaussianBlur
         result="blur"
         in="SourceGraphic"
         stdDeviation="30.000000"
         id="feGaussianBlur97" /><feOffset
         result="offset"
         in="blur"
         dx="0.000000"
         dy="0.000000"
         id="feOffset97" /><feComposite
         result="comp1"
         operator="in"
         in="flood"
         in2="offset"
         id="feComposite97" /><feComposite
         result="comp2"
         operator="over"
         in="SourceGraphic"
         in2="comp1"
         id="feComposite98" /></filter></defs><g
     inkscape:groupmode="layer"
     id="layer3"
     inkscape:label="Ejemplos"
     style="display:inline"
     transform="translate(-4519.0723,-57.181168)"><g
       id="g97"
       style="filter:url(#filter98)"
       inkscape:export-filename="rotulo_bus_grilla.png"
       inkscape:export-xdpi="96"
       inkscape:export-ydpi="96"><rect
         style="fill:#ffffff;fill-opacity:1;stroke:none;stroke-width:1.52947;stroke-linecap:round"
         id="rect21"
         width="150"
         height="150"
         x="4626.6475"
         y="129.18117" /><g
         style="display:inline;fill:#005da4;fill-opacity:1"
         id="g23"
         transform="matrix(4.6875,0,0,4.6875,4664.1475,166.68137)"><path
           d="m 16,7 a 1,1 0 0 1 -1,1 v 3.5 c 0,0.818 -0.393,1.544 -1,2 v 2 A 0.5,0.5 0 0 1 13.5,16 h -2 A 0.5,0.5 0 0 1 11,15.5 V 14 H 5 v 1.5 A 0.5,0.5 0 0 1 4.5,16 h -2 A 0.5,0.5 0 0 1 2,15.5 v -2 a 2.5,2.5 0 0 1 -1,-2 V 8 A 1,1 0 0 1 0,7 V 5 A 1,1 0 0 1 1,4 V 2.64 C 1,1.452 1.845,0.408 3.064,0.268 A 44,44 0 0 1 8,0 c 2.1,0 3.792,0.136 4.936,0.268 C 14.155,0.408 15,1.452 15,2.64 V 4 a 1,1 0 0 1 1,1 z M 3.552,3.22 A 43,43 0 0 1 8,3 c 1.837,0 3.353,0.107 4.448,0.22 A 0.5,0.5 0 0 0 12.552,2.226 44,44 0 0 0 8,2 C 6.124,2 4.574,2.109 3.448,2.226 A 0.5,0.5 0 1 0 3.552,3.22 M 8,4 C 6.124,4 4.574,4.109 3.448,4.226 A 0.5,0.5 0 0 0 3,4.723 V 8.277 A 0.5,0.5 0 0 0 3.448,8.774 C 4.574,8.891 6.124,9 8,9 9.876,9 11.426,8.891 12.552,8.774 A 0.5,0.5 0 0 0 13,8.277 V 4.723 A 0.5,0.5 0 0 0 12.552,4.226 44,44 0 0 0 8,4 m -3,7 a 1,1 0 1 0 -2,0 1,1 0 0 0 2,0 m 8,0 a 1,1 0 1 0 -2,0 1,1 0 0 0 2,0 m -7,0 a 1,1 0 0 0 1,1 H 9 A 1,1 0 1 0 9,10 H 7 a 1,1 0 0 0 -1,1"
           id="path22"
           style="fill:#005da4;fill-opacity:1" /></g></g></g><g
     inkscape:groupmode="layer"
     id="layer2"
     inkscape:label="Medidas"
     style="display:inline"
     inkscape:highlight-color="#f3995a"
     transform="translate(-4519.0723,-57.181168)"><path
       style="display:inline;fill:none;stroke:#000000;stroke-width:1.5875;stroke-linecap:butt;stroke-linejoin:miter;stroke-dasharray:none;stroke-opacity:1;marker-start:url(#marker40);marker-end:url(#marker41)"
       d="M 4802.9599,134.81975 V 273.54259"
       id="path87"
       inkscape:export-filename="rotulo_bus_grilla.png"
       inkscape:export-xdpi="96"
       inkscape:export-ydpi="96" /><text
       xml:space="preserve"
       style="font-style:normal;font-weight:normal;font-size:25.4px;line-height:1.25;font-family:sans-serif;display:inline;fill:#000000;fill-opacity:1;stroke:none;stroke-width:0.264583"
       x="4811.0513"
       y="213.92966"
       id="text87"><tspan
         sodipodi:role="line"
         id="tspan87"
         style="font-style:normal;font-variant:normal;font-weight:normal;font-stretch:normal;font-size:25.4px;font-family:'Myriad Pro';-inkscape-font-specification:'Myriad Pro';stroke-width:0.264583"
         x="4811.0513"
         y="213.92966">15 cm</tspan></text><path
       style="display:inline;fill:none;stroke:#000000;stroke-width:1.5875;stroke-linecap:butt;stroke-linejoin:miter;stroke-dasharray:none;stroke-opacity:1;marker-start:url(#marker40);marker-end:url(#marker41)"
       d="m 4600.4528,172.31718 v 63.72798"
       id="path97" /><text
       xml:space="preserve"
       style="font-style:normal;font-weight:normal;font-size:25.4px;line-height:1.25;font-family:sans-serif;display:inline;fill:#000000;fill-opacity:1;stroke:none;stroke-width:0.264583"
       x="4517.6245"
       y="210.86137"
       id="text97"><tspan
         sodipodi:role="line"
         id="tspan97"
         style="font-style:normal;font-variant:normal;font-weight:normal;font-stretch:normal;font-size:25.4px;font-family:'Myriad Pro';-inkscape-font-specification:'Myriad Pro';stroke-width:0.264583"
         x="4517.6245"
         y="210.86137">7,5 cm</tspan></text></g></svg>
