<?xml version="1.0" encoding="UTF-8"?><svg id="Layer_1" xmlns="http://www.w3.org/2000/svg" xmlns:xlink="http://www.w3.org/1999/xlink" viewBox="0 0 341.83 196.58"><defs><style>.cls-1{clip-path:url(#clippath);}.cls-2{fill:none;}.cls-2,.cls-3,.cls-4,.cls-5{stroke-width:0px;}.cls-6{isolation:isolate;}.cls-3{fill:#231f20;}.cls-4{fill:#15bff1;}.cls-5{fill:#fff;}</style><clipPath id="clippath"><rect class="cls-2" x="1.8" y="-1010.02" width="666" height="383"/></clipPath></defs><g class="cls-1"><circle id="path932" class="cls-4" cx="115.32" cy="-435.52" r="520.57"/><g id="path1036"><path class="cls-5" d="M115.32,63.13c-133.2,0-258.42-51.87-352.6-146.05-94.18-94.18-146.05-219.41-146.05-352.6,0-133.2,51.87-258.42,146.05-352.6,94.18-94.18,219.41-146.05,352.6-146.05,133.2,0,258.42,51.87,352.6,146.05,94.18,94.18,146.05,219.41,146.05,352.6,0,133.19-51.87,258.42-146.05,352.6C373.73,11.26,248.51,63.13,115.32,63.13ZM115.32-901.21c-124.39,0-241.33,48.44-329.29,136.4-87.96,87.96-136.4,204.9-136.4,329.29,0,124.39,48.44,241.33,136.4,329.29C-126.02-18.28-9.07,30.16,115.32,30.16c124.39,0,241.33-48.44,329.29-136.4,87.96-87.96,136.4-204.9,136.4-329.29,0-124.39-48.44-241.33-136.4-329.29-87.96-87.96-204.9-136.4-329.29-136.4Z"/></g></g><circle id="path932-2" class="cls-3" cx="170.92" cy="98.29" r="86.89"/><g id="path1036-2"><path class="cls-5" d="M170.92,181.52c-22.23,0-43.13-8.66-58.85-24.38-15.72-15.72-24.38-36.62-24.38-58.85,0-22.23,8.66-43.13,24.38-58.85,15.72-15.72,36.62-24.38,58.85-24.38,22.23,0,43.13,8.66,58.85,24.38,15.72,15.72,24.38,36.62,24.38,58.85,0,22.23-8.66,43.13-24.38,58.85-15.72,15.72-36.62,24.38-58.85,24.38ZM170.92,20.56c-20.76,0-40.28,8.09-54.96,22.77-14.68,14.68-22.77,34.2-22.77,54.96,0,20.76,8.09,40.28,22.77,54.96,14.68,14.68,34.2,22.77,54.96,22.77,20.76,0,40.28-8.09,54.96-22.77,14.68-14.68,22.77-34.2,22.77-54.96,0-20.76-8.09-40.28-22.77-54.96-14.68-14.68-34.2-22.77-54.96-22.77Z"/></g><g class="cls-6"><path class="cls-5" d="M173.26,46.47l-8.4,40.43h.28c5.55-5.98,14.09-9.82,23.35-9.82,15.23,0,23.2,11.53,23.2,25.63,0,21.5-15.09,47.41-48.55,47.41-18.08,0-27.19-7.69-27.19-20.93,0-4.41.71-8.97,1.71-13.67l14.09-69.05h21.5ZM159.17,117.65c-.28,2.14-1,4.84-.71,8.11.14,5.27,3.56,7.97,8.83,7.97,12.53,0,21.92-14.24,21.92-27.19,0-6.98-3.56-12.39-10.39-12.39-8.26,0-16.51,7.69-19.22,21.35l-.43,2.14Z"/></g></svg>