<?xml version="1.0" encoding="UTF-8"?><svg id="Layer_1" xmlns="http://www.w3.org/2000/svg" viewBox="0 0 125.88 122.64"><defs><style>.cls-1{isolation:isolate;}.cls-2{fill:#231f20;}.cls-2,.cls-3{stroke-width:0px;}.cls-3{fill:#fff;}</style></defs><circle id="path932" class="cls-2" cx="63.09" cy="61.53" r="60.29"/><g id="path1036"><path class="cls-3" d="M63.09,119.29c-15.43,0-29.93-6.01-40.84-16.92-10.91-10.91-16.92-25.41-16.92-40.84,0-15.43,6.01-29.93,16.92-40.84C33.16,9.78,47.66,3.78,63.09,3.78c15.43,0,29.93,6.01,40.84,16.92,10.91,10.91,16.92,25.41,16.92,40.84s-6.01,29.93-16.92,40.84c-10.91,10.91-25.41,16.92-40.84,16.92ZM63.09,7.59c-14.41,0-27.95,5.61-38.14,15.8-10.19,10.19-15.8,23.73-15.8,38.14,0,14.41,5.61,27.95,15.8,38.14,10.19,10.19,23.73,15.8,38.14,15.8,14.41,0,27.95-5.61,38.14-15.8,10.19-10.19,15.8-23.73,15.8-38.14,0-14.41-5.61-27.95-15.8-38.14-10.19-10.19-23.73-15.8-38.14-15.8Z"/></g><g class="cls-1"><path class="cls-3" d="M64.72,25.57l-5.83,28.05h.2c3.85-4.15,9.78-6.82,16.2-6.82,10.57,0,16.1,8,16.1,17.78,0,14.92-10.47,32.9-33.69,32.9-12.55,0-18.87-5.33-18.87-14.52,0-3.06.49-6.22,1.19-9.48l9.78-47.91h14.92ZM54.94,74.97c-.2,1.48-.69,3.36-.49,5.63.1,3.66,2.47,5.53,6.12,5.53,8.69,0,15.21-9.88,15.21-18.87,0-4.84-2.47-8.59-7.21-8.59-5.73,0-11.46,5.33-13.34,14.82l-.3,1.48Z"/></g></svg>