<?xml version="1.0" encoding="UTF-8"?><svg id="Layer_1" xmlns="http://www.w3.org/2000/svg" xmlns:xlink="http://www.w3.org/1999/xlink" viewBox="0 0 341.83 196.58"><defs><style>.cls-1{clip-path:url(#clippath);}.cls-2,.cls-3,.cls-4{stroke-width:0px;}.cls-2,.cls-5{fill:none;}.cls-6{font-family:MyriadPro-Semibold, 'Myriad Pro';font-size:79.11px;font-weight:600;}.cls-6,.cls-7{fill:#231f20;}.cls-8{letter-spacing:0em;}.cls-7{font-family:MyriadPro-Regular, 'Myriad Pro';font-size:11.46px;}.cls-9{isolation:isolate;}.cls-3{fill:#15bff1;}.cls-4{fill:#fff;}.cls-5{stroke:#231f20;stroke-miterlimit:10;stroke-width:.25px;}</style><clipPath id="clippath"><rect class="cls-2" y="-751.92" width="666" height="383"/></clipPath></defs><g class="cls-1"><circle id="path932" class="cls-3" cx="113.52" cy="-177.42" r="520.57"/><g id="path1036"><path class="cls-4" d="M113.52,321.23c-133.2,0-258.42-51.87-352.6-146.05-94.18-94.18-146.05-219.41-146.05-352.6,0-133.2,51.87-258.42,146.05-352.6,94.18-94.18,219.41-146.05,352.6-146.05,133.2,0,258.42,51.87,352.6,146.05,94.18,94.18,146.05,219.41,146.05,352.6,0,133.19-51.87,258.42-146.05,352.6-94.18,94.18-219.41,146.05-352.6,146.05ZM113.52-643.11c-124.39,0-241.33,48.44-329.29,136.4-87.96,87.96-136.4,204.9-136.4,329.29,0,124.39,48.44,241.33,136.4,329.29C-127.81,239.82-10.87,288.26,113.52,288.26c124.39,0,241.33-48.44,329.29-136.4,87.96-87.96,136.4-204.9,136.4-329.29,0-124.39-48.44-241.33-136.4-329.29-87.96-87.96-204.9-136.4-329.29-136.4Z"/></g><g class="cls-9"><path class="cls-4" d="M127.59-487.88l-50.32,242.22h1.71c33.26-35.82,84.44-58.85,139.88-58.85,91.26,0,139.02,69.08,139.02,153.52,0,128.79-90.41,284.02-290.84,284.02-108.32,0-162.9-46.06-162.9-125.38,0-26.44,4.26-53.73,10.23-81.88L-1.2-487.88H127.59ZM43.15-61.43c-1.71,12.79-5.97,29-4.27,48.62.85,31.56,21.32,47.76,52.88,47.76,75.06,0,131.35-85.29,131.35-162.9,0-41.79-21.32-74.2-62.26-74.2-49.47,0-98.94,46.06-115.14,127.94l-2.56,12.79Z"/></g></g><circle id="path932-2" class="cls-3" cx="92.61" cy="98.29" r="53.27"/><g id="path1036-2"><path class="cls-4" d="M92.61,149.32c-13.63,0-26.44-5.31-36.08-14.95-9.64-9.64-14.95-22.45-14.95-36.08,0-13.63,5.31-26.44,14.95-36.08s22.45-14.95,36.08-14.95c13.63,0,26.44,5.31,36.08,14.95,9.64,9.64,14.95,22.45,14.95,36.08,0,13.63-5.31,26.44-14.95,36.08-9.64,9.64-22.45,14.95-36.08,14.95ZM92.61,50.64c-12.73,0-24.7,4.96-33.7,13.96-9,9-13.96,20.97-13.96,33.7,0,12.73,4.96,24.7,13.96,33.7,9,9,20.97,13.96,33.7,13.96,12.73,0,24.7-4.96,33.7-13.96,9-9,13.96-20.97,13.96-33.7,0-12.73-4.96-24.7-13.96-33.7-9-9-20.97-13.96-33.7-13.96Z"/></g><g class="cls-9"><path class="cls-4" d="M94.05,66.52l-5.15,24.79h.17c3.4-3.67,8.64-6.02,14.31-6.02,9.34,0,14.23,7.07,14.23,15.71,0,13.18-9.25,29.06-29.76,29.06-11.08,0-16.67-4.71-16.67-12.83,0-2.71.44-5.5,1.05-8.38l8.64-42.33h13.18ZM85.41,110.16c-.17,1.31-.61,2.97-.44,4.97.09,3.23,2.18,4.89,5.41,4.89,7.68,0,13.44-8.73,13.44-16.67,0-4.28-2.18-7.59-6.37-7.59-5.06,0-10.12,4.71-11.78,13.09l-.26,1.31Z"/></g><line class="cls-5" x1="145.88" y1="18.38" x2="145.88" y2="178.2"/><line class="cls-5" x1="172.52" y1="18.38" x2="172.52" y2="178.2"/><line class="cls-5" x1="12.71" y1="18.38" x2="12.71" y2="178.2"/><line class="cls-5" x1="119.25" y1="45.02" x2="119.25" y2="151.56"/><line class="cls-5" x1="92.61" y1="45.02" x2="92.61" y2="151.56"/><line class="cls-5" x1="65.98" y1="45.02" x2="65.98" y2="151.56"/><line class="cls-5" x1="39.34" y1="18.38" x2="39.34" y2="178.2"/><line class="cls-5" x1="172.52" y1="151.56" x2="12.71" y2="151.56"/><line class="cls-5" x1="172.52" y1="178.2" x2="12.71" y2="178.2"/><line class="cls-5" x1="172.52" y1="18.38" x2="12.71" y2="18.38"/><line class="cls-5" x1="145.88" y1="124.92" x2="39.34" y2="124.92"/><line class="cls-5" x1="145.88" y1="98.29" x2="39.34" y2="98.29"/><line class="cls-5" x1="145.88" y1="71.65" x2="39.34" y2="71.65"/><line class="cls-5" x1="172.52" y1="45.02" x2="12.71" y2="45.02"/><text class="cls-6" transform="translate(166.71 124.99)"><tspan class="cls-8" x="0" y="0">E</tspan><tspan x="40.98" y="0">scue</tspan></text><text class="cls-7" transform="translate(151.88 101.73)"><tspan x="0" y="0">1/4</tspan></text><text class="cls-7" transform="translate(17.95 101.73)"><tspan x="0" y="0">1/4</tspan></text><text class="cls-7" transform="translate(84.93 34.88)"><tspan x="0" y="0">1/4</tspan></text><text class="cls-7" transform="translate(84.93 169.72)"><tspan x="0" y="0">1/4</tspan></text></svg>