<?xml version="1.0" encoding="UTF-8"?><svg id="Layer_1" xmlns="http://www.w3.org/2000/svg" xmlns:xlink="http://www.w3.org/1999/xlink" viewBox="0 0 666 383"><defs><style>.cls-1{clip-path:url(#clippath);}.cls-2,.cls-3{fill:none;}.cls-2,.cls-4,.cls-5{stroke-width:0px;}.cls-3{stroke:#231f20;stroke-miterlimit:10;}.cls-6{isolation:isolate;}.cls-4{fill:#15bff1;}.cls-5{fill:#fff;}.cls-7{fill:#231f20;font-family:MyriadPro-Regular, 'Myriad Pro';font-size:18px;}</style><clipPath id="clippath"><rect class="cls-2" width="666" height="383"/></clipPath></defs><g class="cls-1"><circle id="path932" class="cls-4" cx="113.52" cy="574.5" r="520.57"/><g id="path1036"><path class="cls-5" d="M113.52,1073.15c-133.2,0-258.42-51.87-352.6-146.05-94.18-94.18-146.05-219.41-146.05-352.6,0-133.2,51.87-258.42,146.05-352.6C-144.9,127.72-19.68,75.85,113.52,75.85c133.2,0,258.42,51.87,352.6,146.05,94.18,94.18,146.05,219.41,146.05,352.6,0,133.19-51.87,258.42-146.05,352.6-94.18,94.18-219.41,146.05-352.6,146.05ZM113.52,108.82c-124.39,0-241.33,48.44-329.29,136.4-87.96,87.96-136.4,204.9-136.4,329.29,0,124.39,48.44,241.33,136.4,329.29,87.96,87.96,204.9,136.4,329.29,136.4,124.39,0,241.33-48.44,329.29-136.4,87.96-87.96,136.4-204.9,136.4-329.29,0-124.39-48.44-241.33-136.4-329.29C354.85,157.26,237.91,108.82,113.52,108.82Z"/></g><g class="cls-6"><path class="cls-5" d="M127.59,264.04l-50.32,242.22h1.71c33.26-35.82,84.44-58.85,139.88-58.85,91.26,0,139.02,69.08,139.02,153.52,0,128.79-90.41,284.02-290.84,284.02-108.32,0-162.9-46.06-162.9-125.38,0-26.44,4.26-53.73,10.23-81.88L-1.2,264.04H127.59ZM43.15,690.49c-1.71,12.79-5.97,29-4.27,48.62.85,31.56,21.32,47.76,52.88,47.76,75.06,0,131.35-85.29,131.35-162.9,0-41.79-21.32-74.2-62.26-74.2-49.47,0-98.94,46.06-115.14,127.94l-2.56,12.79Z"/></g></g><line class="cls-3" x1="113.52" y1="53.93" x2="503.02" y2="53.93"/><line class="cls-3" x1="113.52" y1="75.68" x2="503.02" y2="75.68"/><line class="cls-3" x1="113.52" y1="108.93" x2="503.02" y2="108.93"/><text class="cls-7" transform="translate(496.9 69.97)"><tspan x="0" y="0">1.3 cm</tspan></text><text class="cls-7" transform="translate(496.9 99.48)"><tspan x="0" y="0">1.9 cm</tspan></text></svg>