<?xml version="1.0" encoding="UTF-8"?><svg id="Layer_1" xmlns="http://www.w3.org/2000/svg" viewBox="0 0 3275 1448"><defs><style>.cls-1{letter-spacing:.01em;}.cls-2{letter-spacing:0em;}.cls-3{font-family:MyriadPro-Bold, 'Myriad Pro';font-size:60px;font-weight:700;}.cls-3,.cls-4{fill:#010101;}.cls-5{letter-spacing:.02em;}.cls-6{letter-spacing:0em;}.cls-4{font-family:MyriadPro-Regular, 'Myriad Pro';font-size:50px;}.cls-7,.cls-8{stroke-width:11px;}.cls-7,.cls-8,.cls-9,.cls-10{stroke-miterlimit:10;}.cls-7,.cls-8,.cls-9,.cls-11{fill:#fff;}.cls-7,.cls-9{stroke:#f79421;}.cls-8{stroke:#079247;}.cls-12{letter-spacing:-.02em;}.cls-13{letter-spacing:-.02em;}.cls-14{letter-spacing:0em;}.cls-15{letter-spacing:0em;}.cls-16{letter-spacing:0em;}.cls-17{letter-spacing:0em;}.cls-18{letter-spacing:0em;}.cls-19{letter-spacing:0em;}.cls-20{letter-spacing:0em;}.cls-21{letter-spacing:0em;}.cls-22{letter-spacing:0em;}.cls-23{letter-spacing:-.08em;}.cls-9,.cls-10{stroke-width:8px;}.cls-24{letter-spacing:-.03em;}.cls-25{letter-spacing:0em;}.cls-26{letter-spacing:0em;}.cls-27{letter-spacing:0em;}.cls-28{letter-spacing:0em;}.cls-29{letter-spacing:0em;}.cls-10{fill:none;stroke:#ccc;}.cls-30{letter-spacing:0em;}.cls-31{isolation:isolate;}.cls-32{letter-spacing:0em;}.cls-33{letter-spacing:0em;}.cls-34{fill:#f3f3f3;}.cls-34,.cls-35,.cls-36,.cls-37,.cls-11,.cls-38,.cls-39{stroke-width:0px;}.cls-35{fill:#088543;}.cls-36{fill:#15bff1;}.cls-37{fill:#f37024;}.cls-38{fill:#f79421;}.cls-39{fill:#035ea5;}.cls-40{letter-spacing:0em;}</style></defs><rect class="cls-11" width="3275" height="1448"/><rect class="cls-34" x="95.15" y="68" width="1017.7" height="937.86"/><text class="cls-3" transform="translate(508.05 173.68) scale(1.03 1)"><tspan class="cls-12" x="0" y="0">F</tspan><tspan x="30.42" y="0">in</tspan><tspan class="cls-15" x="82.02" y="0">c</tspan><tspan class="cls-28" x="109.32" y="0">a 1</tspan></text><rect class="cls-34" x="1231.85" y="66.79" width="1147" height="1311.5"/><text class="cls-3" transform="translate(1712.14 172.47)"><tspan class="cls-13" x="0" y="0">F</tspan><tspan x="30.42" y="0">in</tspan><tspan class="cls-14" x="82.02" y="0">c</tspan><tspan x="109.32" y="0">a 2</tspan></text><rect class="cls-34" x="2498.85" y="67.51" width="681" height="937.86"/><text class="cls-3" transform="translate(2746.14 173.68)"><tspan class="cls-13" x="0" y="0">F</tspan><tspan x="30.42" y="0">in</tspan><tspan class="cls-14" x="82.02" y="0">c</tspan><tspan x="109.32" y="0">a 3</tspan></text><line class="cls-10" x1="249.93" y1="553" x2="249.93" y2="765"/><line class="cls-10" x1="449.93" y1="553" x2="449.93" y2="836"/><line class="cls-10" x1="650.93" y1="553" x2="650.93" y2="836"/><line class="cls-10" x1="850.93" y1="553" x2="850.93" y2="836"/><line class="cls-10" x1="1291.92" y1="553" x2="1291.92" y2="909"/><line class="cls-10" x1="1491.92" y1="553" x2="1491.92" y2="909"/><line class="cls-10" x1="1692.92" y1="553" x2="1692.92" y2="909"/><line class="cls-10" x1="1959.93" y1="553" x2="1959.93" y2="836"/><line class="cls-10" x1="2226.93" y1="553" x2="2226.93" y2="836"/><line class="cls-10" x1="2563.92" y1="553" x2="2563.92" y2="909"/><line class="cls-10" x1="2763.92" y1="553" x2="2763.92" y2="909"/><line class="cls-10" x1="2964.92" y1="553" x2="2964.92" y2="909"/><polygon class="cls-35" points="511.47 703.94 456.11 703.94 462.63 693.44 456.11 682.94 511.47 682.94 517.99 693.44 511.47 703.94"/><polygon class="cls-35" points="579.54 703.94 524.18 703.94 530.69 693.44 524.18 682.94 579.54 682.94 586.05 693.44 579.54 703.94"/><polygon class="cls-35" points="647.6 703.94 592.24 703.94 598.75 693.44 592.24 682.94 647.6 682.94 654.11 693.44 647.6 703.94"/><polygon class="cls-35" points="715.66 703.94 660.3 703.94 666.82 693.44 660.3 682.94 715.66 682.94 722.18 693.44 715.66 703.94"/><polygon class="cls-35" points="783.72 703.94 728.36 703.94 734.88 693.44 728.36 682.94 783.72 682.94 790.24 693.44 783.72 703.94"/><polygon class="cls-35" points="851.79 703.94 796.43 703.94 802.94 693.44 796.43 682.94 851.79 682.94 858.3 693.44 851.79 703.94"/><polygon class="cls-35" points="919.85 703.94 864.49 703.94 871 693.44 864.49 682.94 919.85 682.94 926.36 693.44 919.85 703.94"/><polygon class="cls-35" points="987.91 703.94 932.55 703.94 939.07 693.44 932.55 682.94 987.91 682.94 994.43 693.44 987.91 703.94"/><polygon class="cls-35" points="1055.97 703.94 1000.61 703.94 1007.13 693.44 1000.61 682.94 1055.97 682.94 1062.49 693.44 1055.97 703.94"/><polygon class="cls-35" points="1124.04 703.94 1068.68 703.94 1075.19 693.44 1068.68 682.94 1124.04 682.94 1130.55 693.44 1124.04 703.94"/><polygon class="cls-35" points="1192.1 703.94 1136.74 703.94 1143.25 693.44 1136.74 682.94 1192.1 682.94 1198.61 693.44 1192.1 703.94"/><polygon class="cls-35" points="1260.16 703.94 1204.8 703.94 1211.32 693.44 1204.8 682.94 1260.16 682.94 1266.68 693.44 1260.16 703.94"/><polygon class="cls-35" points="1328.22 703.94 1272.86 703.94 1279.38 693.44 1272.86 682.94 1328.22 682.94 1334.74 693.44 1328.22 703.94"/><polygon class="cls-35" points="1396.29 703.94 1340.93 703.94 1347.44 693.44 1340.93 682.94 1396.29 682.94 1402.8 693.44 1396.29 703.94"/><polygon class="cls-35" points="1464.35 703.94 1408.99 703.94 1415.5 693.44 1408.99 682.94 1464.35 682.94 1470.86 693.44 1464.35 703.94"/><polygon class="cls-35" points="1532.41 703.94 1477.05 703.94 1483.57 693.44 1477.05 682.94 1532.41 682.94 1538.93 693.44 1532.41 703.94"/><polygon class="cls-35" points="1600.47 703.94 1545.11 703.94 1551.63 693.44 1545.11 682.94 1600.47 682.94 1606.99 693.44 1600.47 703.94"/><polygon class="cls-35" points="1668.54 703.94 1613.18 703.94 1619.69 693.44 1613.18 682.94 1668.54 682.94 1675.05 693.44 1668.54 703.94"/><polygon class="cls-35" points="1736.6 703.94 1681.24 703.94 1687.75 693.44 1681.24 682.94 1736.6 682.94 1743.11 693.44 1736.6 703.94"/><polygon class="cls-35" points="1804.66 703.94 1749.3 703.94 1755.82 693.44 1749.3 682.94 1804.66 682.94 1811.18 693.44 1804.66 703.94"/><polygon class="cls-35" points="1872.72 703.94 1817.36 703.94 1823.88 693.44 1817.36 682.94 1872.72 682.94 1879.24 693.44 1872.72 703.94"/><polygon class="cls-35" points="1940.79 703.94 1885.43 703.94 1891.94 693.44 1885.43 682.94 1940.79 682.94 1947.3 693.44 1940.79 703.94"/><polygon class="cls-35" points="2008.85 703.94 1953.49 703.94 1960 693.44 1953.49 682.94 2008.85 682.94 2015.36 693.44 2008.85 703.94"/><polygon class="cls-35" points="2076.91 703.94 2021.55 703.94 2028.07 693.44 2021.55 682.94 2076.91 682.94 2083.43 693.44 2076.91 703.94"/><polygon class="cls-35" points="2144.97 703.94 2089.61 703.94 2096.13 693.44 2089.61 682.94 2144.97 682.94 2151.49 693.44 2144.97 703.94"/><polygon class="cls-35" points="2213.04 703.94 2157.68 703.94 2164.19 693.44 2157.68 682.94 2213.04 682.94 2219.55 693.44 2213.04 703.94"/><polygon class="cls-35" points="2281.1 703.94 2225.74 703.94 2232.25 693.44 2225.74 682.94 2281.1 682.94 2287.61 693.44 2281.1 703.94"/><polygon class="cls-35" points="2349.16 703.94 2293.8 703.94 2300.32 693.44 2293.8 682.94 2349.16 682.94 2355.68 693.44 2349.16 703.94"/><polygon class="cls-35" points="2417.22 703.94 2361.86 703.94 2368.38 693.44 2361.86 682.94 2417.22 682.94 2423.74 693.44 2417.22 703.94"/><polygon class="cls-35" points="2485.29 703.94 2429.93 703.94 2436.44 693.44 2429.93 682.94 2485.29 682.94 2491.8 693.44 2485.29 703.94"/><polygon class="cls-35" points="2553.35 703.94 2497.99 703.94 2504.5 693.44 2497.99 682.94 2553.35 682.94 2559.86 693.44 2553.35 703.94"/><polygon class="cls-35" points="2621.41 703.94 2566.05 703.94 2572.57 693.44 2566.05 682.94 2621.41 682.94 2627.93 693.44 2621.41 703.94"/><polygon class="cls-35" points="2689.47 703.94 2634.11 703.94 2640.63 693.44 2634.11 682.94 2689.47 682.94 2695.99 693.44 2689.47 703.94"/><polygon class="cls-35" points="2757.54 703.94 2702.18 703.94 2708.69 693.44 2702.18 682.94 2757.54 682.94 2764.05 693.44 2757.54 703.94"/><polygon class="cls-35" points="2825.6 703.94 2770.24 703.94 2776.75 693.44 2770.24 682.94 2825.6 682.94 2832.11 693.44 2825.6 703.94"/><polygon class="cls-35" points="2893.66 703.94 2838.3 703.94 2844.82 693.44 2838.3 682.94 2893.66 682.94 2900.18 693.44 2893.66 703.94"/><polygon class="cls-35" points="2961.72 703.94 2906.36 703.94 2912.88 693.44 2906.36 682.94 2961.72 682.94 2968.24 693.44 2961.72 703.94"/><path class="cls-35" d="M574.65,702.24c-4.37-1.23-8.61-3-12.42-5.48-3.81-2.44-7.36-5.34-10.29-8.81-5.97-6.81-9.88-15.45-11.03-24.47,1.89.83,3.78,1.54,5.64,2.13,1.92.58,3.87,1.03,5.75,1.37,1.49-1.27,2.98-2.41,4.54-3.44,1.61-1.04,3.25-1.97,4.89-2.77.63,4.93,2.75,9.63,6.04,13.39,1.59,1.93,3.58,3.49,5.66,4.84,2.07,1.39,4.41,2.31,6.78,2.99.1,1.82.32,3.71.66,5.58.35,1.82.82,3.66,1.42,5.52-1.04,1.61-2.21,3.21-3.49,4.77-1.27,1.51-2.65,2.95-4.15,4.37Z"/><polygon class="cls-35" points="307.01 631.16 255.63 630.96 261.71 620.49 255.71 609.96 307.09 610.16 313.09 620.68 307.01 631.16"/><polygon class="cls-35" points="370.17 631.4 318.79 631.2 324.88 620.72 318.87 610.2 370.25 610.4 376.26 620.92 370.17 631.4"/><polygon class="cls-35" points="433.34 631.63 381.96 631.44 388.04 620.96 382.04 610.44 433.42 610.63 439.42 621.16 433.34 631.63"/><polygon class="cls-35" points="496.5 631.87 445.12 631.68 451.21 621.2 445.2 610.68 496.58 610.87 502.59 621.39 496.5 631.87"/><path class="cls-35" d="M539.1,649.24c-.97-2.86-2.43-5.57-4.37-7.92-1.93-2.35-4.29-4.35-6.9-5.87-2.62-1.53-5.49-2.58-8.47-3.1l-1.12-.17c-.37-.07-.75-.13-1.13-.12l-2.36-.12-6.42-.02,6.07-10.48-6.03-10.52,6.42.02c1.25.03,2.71.11,4.06.19.69.02,1.37.11,2.05.22l2.05.31c5.45.95,10.74,2.88,15.51,5.68,4.77,2.79,9.04,6.43,12.54,10.7,3.51,4.27,6.21,9.2,7.99,14.45-1.17,1.78-2.61,3.48-4.01,5.02-.71.77-1.42,1.5-2.15,2.2-.77.71-1.56,1.38-2.34,2.02-.94-.36-1.87-.68-2.8-.97-.97-.28-1.94-.52-2.9-.73-1.93-.41-3.73-.7-5.69-.79Z"/><line class="cls-10" x1="1891.93" y1="978" x2="1891.93" y2="1047"/><line class="cls-10" x1="2091.93" y1="978" x2="2091.93" y2="1047"/><line class="cls-10" x1="2292.93" y1="978" x2="2292.93" y2="1047"/><rect class="cls-35" x="618.28" y="1131.62" width="203.14" height="168.3" rx="38.66" ry="38.66"/><path class="cls-11" d="M646.57,1173.39h26.64v64.99h41.58v21.23h-68.22v-86.22Z"/><path class="cls-11" d="M793.13,1259.61h-71.87c.82-7.1,3.32-13.77,7.5-20.03,4.18-6.25,12.01-13.63,23.5-22.14,7.02-5.21,11.51-9.17,13.47-11.88,1.96-2.71,2.94-5.27,2.94-7.7,0-2.63-.97-4.87-2.91-6.73-1.94-1.86-4.38-2.79-7.32-2.79s-5.56.96-7.5,2.88c-1.94,1.92-3.24,5.31-3.91,10.17l-24-1.94c.94-6.74,2.67-12.01,5.18-15.79,2.51-3.78,6.05-6.68,10.62-8.7,4.57-2.02,10.89-3.03,18.97-3.03s14.99.96,19.67,2.88c4.68,1.92,8.37,4.87,11.06,8.85,2.69,3.98,4.03,8.44,4.03,13.38,0,5.25-1.54,10.27-4.62,15.06-3.08,4.78-8.67,10.04-16.79,15.76-4.82,3.33-8.05,5.67-9.67,7-1.63,1.33-3.54,3.08-5.73,5.23h37.41v19.53Z"/><rect class="cls-37" x="372.79" y="1131.7" width="203.14" height="168.3" rx="38.98" ry="38.98"/><path class="cls-11" d="M408.99,1173.48h26.64v64.99h41.58v21.23h-68.22v-86.22Z"/><path class="cls-11" d="M539.73,1172.01v87.69h-24.23v-57.46c-3.92,2.98-7.71,5.39-11.38,7.23-3.67,1.84-8.26,3.61-13.79,5.29v-19.64c8.15-2.63,14.49-5.78,19-9.47,4.51-3.69,8.04-8.23,10.59-13.64h19.82Z"/><path class="cls-38" d="M574.63,845.8c-4.37-1.23-8.61-3-12.42-5.48-3.81-2.44-7.36-5.34-10.29-8.81-5.97-6.81-9.88-15.45-11.03-24.47,1.89.83,3.77,1.54,5.64,2.13,1.92.58,3.86,1.03,5.75,1.37,1.49-1.27,2.98-2.41,4.54-3.44,1.61-1.04,3.25-1.97,4.89-2.77.63,4.93,2.75,9.63,6.04,13.39,1.59,1.93,3.58,3.49,5.66,4.84,2.07,1.39,4.41,2.31,6.78,2.99.1,1.82.32,3.71.66,5.58.35,1.82.82,3.66,1.42,5.52-1.04,1.61-2.21,3.21-3.49,4.77-1.27,1.51-2.65,2.95-4.15,4.37Z"/><path class="cls-38" d="M1747.63,898.5h3.82l.54.02,1.09.05,2.18.11c2.9.26,5.8.73,8.62,1.54,5.64,1.56,10.97,4.21,15.62,7.74,4.65,3.52,8.63,7.92,11.66,12.92,3.04,4.99,5.12,10.57,6.1,16.34-1.9-1.08-3.95-1.96-5.95-2.7-1-.37-1.99-.7-2.97-.99-1.03-.28-2.05-.52-3.06-.72-.64.8-1.29,1.56-1.96,2.28-.71.74-1.44,1.44-2.17,2.1-1.46,1.32-2.94,2.49-4.6,3.54-1.04-6.3-4.6-12.15-9.74-16.02-2.55-1.94-5.47-3.38-8.54-4.24-1.53-.45-3.12-.69-4.72-.84l-1.21-.06-.6-.04-.3-.02h-3.82l-6.39-10.5,6.39-10.5Z"/><polygon class="cls-38" points="1680.88 898.5 1735.17 898.5 1728.78 909 1735.17 919.5 1680.88 919.5 1674.49 909 1680.88 898.5"/><polygon class="cls-38" points="1614.13 898.5 1668.42 898.5 1662.03 909 1668.42 919.5 1614.13 919.5 1607.74 909 1614.13 898.5"/><polygon class="cls-38" points="1547.38 898.5 1601.67 898.5 1595.28 909 1601.67 919.5 1547.38 919.5 1540.99 909 1547.38 898.5"/><polygon class="cls-38" points="1480.63 898.5 1534.92 898.5 1528.54 909 1534.92 919.5 1480.63 919.5 1474.24 909 1480.63 898.5"/><polygon class="cls-38" points="1413.88 898.5 1468.18 898.5 1461.79 909 1468.18 919.5 1413.88 919.5 1407.5 909 1413.88 898.5"/><polygon class="cls-38" points="1347.14 898.5 1401.43 898.5 1395.04 909 1401.43 919.5 1347.14 919.5 1340.75 909 1347.14 898.5"/><polygon class="cls-38" points="1280.39 898.5 1334.68 898.5 1328.29 909 1334.68 919.5 1280.39 919.5 1274 909 1280.39 898.5"/><polygon class="cls-38" points="1213.64 898.5 1267.93 898.5 1261.54 909 1267.93 919.5 1213.64 919.5 1207.25 909 1213.64 898.5"/><polygon class="cls-38" points="1146.89 898.5 1201.18 898.5 1194.79 909 1201.18 919.5 1146.89 919.5 1140.5 909 1146.89 898.5"/><polygon class="cls-38" points="1080.14 898.5 1134.43 898.5 1128.04 909 1134.43 919.5 1080.14 919.5 1073.75 909 1080.14 898.5"/><polygon class="cls-38" points="1013.39 898.5 1067.68 898.5 1061.29 909 1067.68 919.5 1013.39 919.5 1007 909 1013.39 898.5"/><polygon class="cls-38" points="946.64 898.5 1000.93 898.5 994.55 909 1000.93 919.5 946.64 919.5 940.25 909 946.64 898.5"/><polygon class="cls-38" points="879.89 898.5 934.19 898.5 927.8 909 934.19 919.5 879.89 919.5 873.5 909 879.89 898.5"/><polygon class="cls-38" points="813.15 898.5 867.44 898.5 861.05 909 867.44 919.5 813.15 919.5 806.76 909 813.15 898.5"/><polygon class="cls-38" points="746.4 898.5 800.69 898.5 794.3 909 800.69 919.5 746.4 919.5 740.01 909 746.4 898.5"/><polygon class="cls-38" points="679.65 898.5 733.94 898.5 727.55 909 733.94 919.5 679.65 919.5 673.26 909 679.65 898.5"/><polygon class="cls-38" points="612.9 898.5 667.19 898.5 660.8 909 667.19 919.5 612.9 919.5 606.51 909 612.9 898.5"/><polygon class="cls-38" points="546.15 898.5 600.44 898.5 594.05 909 600.44 919.5 546.15 919.5 539.76 909 546.15 898.5"/><polygon class="cls-38" points="479.4 898.5 533.69 898.5 527.3 909 533.69 919.5 479.4 919.5 473.01 909 479.4 898.5"/><polygon class="cls-38" points="412.65 898.5 466.94 898.5 460.55 909 466.94 919.5 412.65 919.5 406.26 909 412.65 898.5"/><polygon class="cls-38" points="345.9 898.5 400.2 898.5 393.81 909 400.2 919.5 345.9 919.5 339.51 909 345.9 898.5"/><polygon class="cls-38" points="279.16 898.5 333.45 898.5 327.06 909 333.45 919.5 279.16 919.5 272.77 909 279.16 898.5"/><polygon class="cls-38" points="212.41 898.5 266.7 898.5 260.31 909 266.7 919.5 212.41 919.5 206.02 909 212.41 898.5"/><path class="cls-38" d="M158.02,888.9c4.01,5.04,9.95,8.44,16.28,9.3.4.05.79.15,1.19.17l1.21.05,1.21.07h1.69s6.79,0,6.79,0h13.57l-6.39,10.5,6.39,10.5h-22.06s-2.18-.1-2.18-.1l-2.18-.12c-.73-.05-1.45-.19-2.17-.29-5.79-.81-11.43-2.74-16.5-5.65-5.07-2.9-9.58-6.76-13.23-11.32.54-2.19,1.16-4.25,1.93-6.23.82-2.01,1.73-3.89,2.71-5.64,2.09.07,4.11.01,6.03-.17,1.97-.21,3.92-.61,5.72-1.08Z"/><path class="cls-38" d="M152.25,830.5l.11,27.15.06,13.57v1.7s.08,1.23.08,1.23l.05,1.22c0,.41.12.79.16,1.19.14.79.18,1.59.44,2.36.23.76.33,1.57.66,2.3-1.97-.13-3.77-.47-5.72-.92-.95-.24-1.97-.5-2.9-.82-.93-.32-1.87-.68-2.82-1.07-.78.66-1.56,1.35-2.33,2.08-.77.73-1.44,1.49-2.16,2.29-1.38,1.59-2.81,3.36-3.95,5.21-.55-1.36-.82-2.81-1.21-4.22-.41-1.41-.57-2.86-.8-4.31-.09-.72-.25-1.45-.28-2.17l-.12-2.17-.09-2.15v-1.7s-.06-13.57-.06-13.57l-.11-27.15,10.47-6.41,10.53,6.37Z"/><path class="cls-38" d="M164.76,779.24c-5.54,3.22-9.79,8.65-11.58,14.77-.17.78-.43,1.54-.57,2.33l-.35,2.38c-.02.8-.07,1.59-.12,2.39v3.36s.06,13.57.06,13.57l-10.53-6.37-10.47,6.41-.06-13.57v-3.43c.05-1.46.12-2.93.21-4.39.17-1.45.41-2.89.64-4.34.27-1.44.68-2.84,1.04-4.26,3.29-11.26,10.99-21.07,21.09-26.96,2.04.76,4.04,1.77,5.89,2.82.93.53,1.81,1.06,2.67,1.64.87.61,1.71,1.23,2.52,1.87-.2,1-.36,1.99-.48,2.97-.11,1.01-.18,2.02-.21,3.01-.07,1.98-.02,3.85.25,5.8Z"/><path class="cls-38" d="M225.3,775.69l-27.15.02h-13.57s-6.79.01-6.79.01l-2.46.12c-.8.05-1.58.24-2.38.33.43-1.81,1-3.72,1.74-5.55.75-1.78,1.65-3.58,2.7-5.39-1.08-1.7-2.3-3.39-3.68-5.07-1.38-1.62-2.9-3.13-4.58-4.64,1.44-.21,2.89-.49,4.34-.6,1.43-.08,2.96-.16,4.32-.2h6.79s13.57-.01,13.57-.01l27.15-.02,6.39,10.5-6.39,10.5Z"/><polygon class="cls-38" points="292.05 775.65 237.76 775.68 244.15 765.18 237.75 754.68 292.04 754.65 298.44 765.14 292.05 775.65"/><polygon class="cls-38" points="358.8 775.6 304.51 775.64 310.89 765.13 304.5 754.64 358.79 754.6 365.19 765.1 358.8 775.6"/><polygon class="cls-38" points="425.55 775.56 371.26 775.59 377.64 765.09 371.25 754.59 425.54 754.56 431.93 765.05 425.55 775.56"/><polygon class="cls-38" points="492.3 775.52 438.01 775.55 444.39 765.05 438 754.55 492.29 754.52 498.68 765.01 492.3 775.52"/><path class="cls-38" d="M538.92,792.36c-2.14-6.01-6.7-11.18-12.42-14.07-2.85-1.46-5.96-2.36-9.15-2.66-.81-.03-1.6-.07-2.42-.12h-3.39s-6.79,0-6.79,0l6.39-10.5-6.39-10.5h6.79s3.39,0,3.39,0c1.44.05,2.91.13,4.36.21,5.81.55,11.55,2.2,16.75,4.86,10.44,5.29,18.69,14.62,22.64,25.66-.59.94-1.19,1.85-1.81,2.72-.67.89-1.35,1.74-2.04,2.55-1.38,1.63-2.8,3.1-4.4,4.45-1.84-.77-3.83-1.35-5.75-1.79-.96-.22-1.91-.4-2.84-.54-.98-.13-1.95-.22-2.91-.28Z"/><path class="cls-38" d="M2395.37,970.5h5.22l1.27-.07,1.24-.05c.41,0,.81-.12,1.22-.17.81-.13,1.63-.2,2.41-.46,3.18-.77,6.21-2.16,8.87-4.09,5.35-3.84,9.1-9.81,10.19-16.27,1.66,1.07,3.09,2.26,4.57,3.62.72.68,1.48,1.4,2.14,2.15.66.74,1.31,1.52,1.94,2.34,1.01-.21,2.03-.45,3.06-.74,1.03-.28,1.99-.63,3-1.01,1.99-.76,4.09-1.66,5.99-2.76-1.02,5.9-3.21,11.61-6.4,16.68-3.18,5.07-7.34,9.51-12.19,13.02-4.85,3.51-10.39,6.07-16.22,7.48-1.44.42-2.93.62-4.41.84-.74.1-1.48.25-2.23.29l-2.24.12-2.21.09h-5.22l-6.55-10.5,6.55-10.5Z"/><polygon class="cls-38" points="2326.96 970.5 2382.6 970.5 2376.05 981 2382.6 991.5 2326.96 991.5 2320.41 981 2326.96 970.5"/><polygon class="cls-38" points="2258.55 970.5 2314.19 970.5 2307.65 981 2314.19 991.5 2258.55 991.5 2252 981 2258.55 970.5"/><polygon class="cls-38" points="2190.14 970.5 2245.78 970.5 2239.24 981 2245.78 991.5 2190.14 991.5 2183.59 981 2190.14 970.5"/><polygon class="cls-38" points="2121.73 970.5 2177.38 970.5 2170.83 981 2177.38 991.5 2121.73 991.5 2115.19 981 2121.73 970.5"/><polygon class="cls-38" points="2053.32 970.5 2108.97 970.5 2102.42 981 2108.97 991.5 2053.32 991.5 2046.78 981 2053.32 970.5"/><polygon class="cls-38" points="1984.91 970.5 2040.56 970.5 2034.01 981 2040.56 991.5 1984.91 991.5 1978.37 981 1984.91 970.5"/><polygon class="cls-38" points="1916.51 970.5 1972.15 970.5 1965.6 981 1972.15 991.5 1916.51 991.5 1909.96 981 1916.51 970.5"/><polygon class="cls-38" points="1848.1 970.5 1903.74 970.5 1897.19 981 1903.74 991.5 1848.1 991.5 1841.55 981 1848.1 970.5"/><path class="cls-38" d="M1799.57,953.85c2.25,6.15,7.04,11.38,12.97,14.17,2.96,1.41,6.18,2.22,9.46,2.4l1.24.07c.17.02.5.01.78.01h11.3l-6.55,10.5,6.55,10.5h-11.3c-.3,0-.54,0-.95-.02l-2.24-.1c-5.96-.33-11.9-1.83-17.31-4.4-10.85-5.12-19.51-14.56-23.65-25.84.58-.97,1.17-1.9,1.78-2.79.61-.89,1.32-1.78,2-2.61,1.39-1.67,2.75-3.17,4.36-4.56,1.84.79,3.87,1.38,5.78,1.83.97.22,1.88.42,2.87.55.98.13,1.95.23,2.91.28Z"/><path class="cls-38" d="M348.64,870.05c-.38,3.07-.15,6.44.68,9.52.82,3.11,2.25,6.06,4.19,8.64,3.86,5.2,9.75,8.83,16.1,9.88-1.06,1.66-2.23,3.12-3.56,4.59-.67.73-1.38,1.46-2.11,2.16-.73.66-1.49,1.31-2.3,1.95.2,1.01.45,2.03.73,3.06.29,1,.63,1.98,1,2.98.74,2,1.64,4.07,2.72,5.96-5.81-.99-11.43-3.11-16.45-6.19-5.02-3.08-9.43-7.11-12.95-11.83-3.52-4.71-6.14-10.11-7.66-15.81-1.51-5.72-1.95-11.61-1.22-17.59,1.96-1.16,3.88-2.17,5.84-3,2.03-.81,4.03-1.46,5.97-1.95,1.38,1.58,2.81,3,4.27,4.26,1.53,1.27,3.16,2.4,4.75,3.35Z"/><path class="cls-38" d="M389.26,847.5h-15.37s-1.15.08-1.15.08l-1.15.05-1.16.2-1.16.17-1.15.32-1.16.29-1.13.43c-6.06,2.23-11.5,6.99-14.51,12.71-1.25-1.52-2.25-3.1-3.23-4.84-.48-.86-.97-1.77-1.39-2.68-.4-.9-.79-1.83-1.15-2.8-1.02-.11-2.06-.2-3.13-.25-1.05-.05-2.07-.02-3.15.01-2.12.08-4.37.27-6.51.7,5.55-10.38,14.71-18.41,25.74-22.54l2.08-.76,2.15-.58,2.16-.56,2.22-.37,2.22-.34,2.26-.14,2.26-.11h1.73s13.68,0,13.68,0l6.44,10.5-6.44,10.5Z"/><polygon class="cls-38" points="456.54 847.5 401.82 847.5 408.26 837 401.82 826.5 456.54 826.5 462.98 837 456.54 847.5"/><polygon class="cls-38" points="523.81 847.5 469.09 847.5 475.53 837 469.09 826.5 523.81 826.5 530.25 837 523.81 847.5"/><polygon class="cls-38" points="591.09 847.5 536.37 847.5 542.81 837 536.37 826.5 591.09 826.5 597.53 837 591.09 847.5"/><polygon class="cls-38" points="658.36 847.5 603.64 847.5 610.08 837 603.64 826.5 658.36 826.5 664.8 837 658.36 847.5"/><polygon class="cls-38" points="725.64 847.5 670.92 847.5 677.36 837 670.92 826.5 725.64 826.5 732.08 837 725.64 847.5"/><polygon class="cls-38" points="792.91 847.5 738.19 847.5 744.63 837 738.19 826.5 792.91 826.5 799.35 837 792.91 847.5"/><polygon class="cls-38" points="860.19 847.49 805.47 847.5 811.91 837 805.47 826.5 860.19 826.49 866.63 836.99 860.19 847.49"/><polygon class="cls-38" points="927.46 847.49 872.74 847.49 879.18 836.99 872.74 826.49 927.46 826.49 933.9 836.99 927.46 847.49"/><polygon class="cls-38" points="994.74 847.49 940.02 847.49 946.46 836.99 940.02 826.49 994.74 826.49 1001.18 836.99 994.74 847.49"/><polygon class="cls-38" points="1062.01 847.49 1007.3 847.49 1013.73 836.99 1007.29 826.49 1062.01 826.49 1068.45 836.99 1062.01 847.49"/><polygon class="cls-38" points="1129.29 847.49 1074.57 847.49 1081.01 836.99 1074.57 826.49 1129.29 826.49 1135.73 836.99 1129.29 847.49"/><polygon class="cls-38" points="1196.56 847.49 1141.84 847.49 1148.28 836.99 1141.84 826.49 1196.56 826.49 1203 836.99 1196.56 847.49"/><polygon class="cls-38" points="1263.84 847.49 1209.12 847.49 1215.56 836.99 1209.12 826.49 1263.84 826.49 1270.28 836.99 1263.84 847.49"/><polygon class="cls-38" points="1331.11 847.49 1276.4 847.49 1282.84 836.99 1276.4 826.49 1331.11 826.49 1337.55 836.99 1331.11 847.49"/><polygon class="cls-38" points="1398.39 847.49 1343.67 847.49 1350.11 836.99 1343.67 826.49 1398.39 826.49 1404.83 836.99 1398.39 847.49"/><polygon class="cls-38" points="1465.66 847.49 1410.95 847.49 1417.38 836.99 1410.95 826.49 1465.66 826.49 1472.1 836.99 1465.66 847.49"/><polygon class="cls-38" points="1532.94 847.49 1478.22 847.49 1484.66 836.99 1478.22 826.49 1532.94 826.49 1539.38 836.99 1532.94 847.49"/><polygon class="cls-38" points="1600.21 847.49 1545.5 847.49 1551.94 836.99 1545.5 826.49 1600.21 826.49 1606.65 836.99 1600.21 847.49"/><polygon class="cls-38" points="1667.49 847.49 1612.77 847.49 1619.21 836.99 1612.77 826.49 1667.49 826.49 1673.93 836.99 1667.49 847.49"/><polygon class="cls-38" points="1734.77 847.49 1680.05 847.49 1686.49 836.99 1680.05 826.49 1734.76 826.49 1741.2 836.99 1734.77 847.49"/><polygon class="cls-38" points="1802.04 847.48 1747.32 847.49 1753.76 836.99 1747.32 826.49 1802.04 826.48 1808.48 836.98 1802.04 847.48"/><polygon class="cls-38" points="1869.32 847.48 1814.6 847.48 1821.04 836.98 1814.6 826.48 1869.32 826.48 1875.75 836.98 1869.32 847.48"/><polygon class="cls-38" points="1936.59 847.48 1881.87 847.48 1888.31 836.98 1881.87 826.48 1936.59 826.48 1943.03 836.98 1936.59 847.48"/><polygon class="cls-38" points="2003.87 847.48 1949.15 847.48 1955.59 836.98 1949.15 826.48 2003.87 826.48 2010.31 836.98 2003.87 847.48"/><polygon class="cls-38" points="2071.14 847.48 2016.42 847.48 2022.86 836.98 2016.42 826.48 2071.14 826.48 2077.58 836.98 2071.14 847.48"/><polygon class="cls-38" points="2138.42 847.48 2083.7 847.48 2090.14 836.98 2083.7 826.48 2138.42 826.48 2144.86 836.98 2138.42 847.48"/><polygon class="cls-38" points="2205.69 847.48 2150.97 847.48 2157.41 836.98 2150.97 826.48 2205.69 826.48 2212.13 836.98 2205.69 847.48"/><polygon class="cls-38" points="2272.97 847.48 2218.25 847.48 2224.69 836.98 2218.25 826.48 2272.97 826.48 2279.41 836.98 2272.97 847.48"/><polygon class="cls-38" points="2340.24 847.48 2285.52 847.48 2291.96 836.98 2285.52 826.48 2340.24 826.48 2346.68 836.98 2340.24 847.48"/><polygon class="cls-38" points="2407.52 847.48 2352.8 847.48 2359.24 836.98 2352.8 826.48 2407.52 826.48 2413.96 836.98 2407.52 847.48"/><polygon class="cls-38" points="2474.79 847.48 2420.07 847.48 2426.51 836.98 2420.07 826.48 2474.79 826.48 2481.23 836.98 2474.79 847.48"/><polygon class="cls-38" points="2542.07 847.48 2487.35 847.48 2493.79 836.98 2487.35 826.48 2542.07 826.48 2548.51 836.98 2542.07 847.48"/><polygon class="cls-38" points="2609.34 847.48 2554.62 847.48 2561.06 836.98 2554.62 826.48 2609.34 826.48 2615.78 836.98 2609.34 847.48"/><polygon class="cls-38" points="2676.62 847.47 2621.9 847.48 2628.34 836.98 2621.9 826.48 2676.62 826.47 2683.06 836.97 2676.62 847.47"/><polygon class="cls-38" points="2743.89 847.47 2689.17 847.47 2695.61 836.97 2689.17 826.47 2743.89 826.47 2750.33 836.97 2743.89 847.47"/><polygon class="cls-38" points="2811.17 847.47 2756.45 847.47 2762.89 836.97 2756.45 826.47 2811.17 826.47 2817.61 836.97 2811.17 847.47"/><polygon class="cls-38" points="2878.44 847.47 2823.72 847.47 2830.16 836.97 2823.72 826.47 2878.44 826.47 2884.88 836.97 2878.44 847.47"/><polygon class="cls-38" points="2945.72 847.47 2891 847.47 2897.44 836.97 2891 826.47 2945.72 826.47 2952.16 836.97 2945.72 847.47"/><polygon class="cls-38" points="3012.99 847.47 2958.27 847.47 2964.71 836.97 2958.27 826.47 3012.99 826.47 3019.43 836.97 3012.99 847.47"/><path class="cls-38" d="M3057.69,864.38c-.91-3.31-2.38-6.49-4.26-9.23-1.86-2.73-4.2-5.06-6.43-6.4-.54-.23-1.09-.65-1.57-.76-.24-.07-.49-.23-.7-.27-.21-.03-.41-.07-.6-.14-.11-.05-.19-.05-.26-.04-.08,0-.15,0-.23,0-.08,0-.15-.02-.23-.05h-.03s-.1,0-.1,0h-17.74s6.44-10.5,6.44-10.5l-6.44-10.5h13.68s3.42,0,3.42,0h.75s.18,0,.18,0l1.48.09,1.48.13c.5.04.98.11,1.42.22.91.2,1.82.42,2.72.65.89.24,1.67.59,2.51.9.83.32,1.65.65,2.36,1.05l2.21,1.19c5.58,3.41,9.69,7.81,12.99,12.57,3.27,4.78,5.65,10.01,7.17,15.48-2.68,3.52-5.63,6.56-8.88,9.12-3.7-1.72-7.57-2.87-11.35-3.5Z"/><path class="cls-38" d="M3033.96,898.43c6.49-.09,12.81-2.78,17.4-7.38,4.62-4.57,7.35-10.88,7.48-17.36,1.68.81,3.47,1.78,5.06,2.89,1.59,1.11,3.19,2.38,4.71,3.79,1.9-.7,3.79-1.56,5.71-2.57,1.92-1.01,3.66-2.2,5.5-3.53-.14,5.86-1.42,11.75-3.77,17.16-2.34,5.42-5.72,10.36-9.89,14.51-4.17,4.15-9.13,7.51-14.56,9.82-5.43,2.31-11.32,3.56-17.18,3.67l-1.04-1.27-.81-1.31-1.61-2.62-3.22-5.25,3.22-5.25,1.61-2.62.8-1.31c.2-.45.39-.9.57-1.35Z"/><polygon class="cls-38" points="2966.92 898.47 3021.64 898.47 3015.2 908.97 3021.64 919.47 2966.92 919.47 2960.48 908.97 2966.92 898.47"/><polygon class="cls-38" points="2899.64 898.48 2954.36 898.47 2947.92 908.98 2954.36 919.47 2899.65 919.48 2893.2 908.98 2899.64 898.48"/><polygon class="cls-38" points="2832.37 898.48 2887.09 898.48 2880.65 908.98 2887.09 919.48 2832.37 919.48 2825.93 908.98 2832.37 898.48"/><polygon class="cls-38" points="2765.09 898.48 2819.81 898.48 2813.37 908.98 2819.81 919.48 2765.09 919.48 2758.65 908.99 2765.09 898.48"/><polygon class="cls-38" points="2697.82 898.49 2752.54 898.49 2746.1 908.99 2752.54 919.49 2697.82 919.49 2691.38 908.99 2697.82 898.49"/><polygon class="cls-38" points="2630.54 898.49 2685.26 898.49 2678.82 908.99 2685.26 919.49 2630.54 919.49 2624.1 908.99 2630.54 898.49"/><polygon class="cls-38" points="2563.27 898.5 2617.99 898.49 2611.55 908.99 2617.99 919.49 2563.27 919.5 2556.83 909 2563.27 898.5"/><polygon class="cls-38" points="2495.99 898.5 2550.71 898.5 2544.27 909 2550.71 919.5 2495.99 919.5 2489.55 909 2495.99 898.5"/><path class="cls-38" d="M2429.03,929.12c4.01-11.11,12.39-20.48,22.96-25.71,5.27-2.63,11.07-4.24,16.93-4.72l2.2-.11,1.1-.05.53-.02h10.69s-6.44,10.5-6.44,10.5l6.44,10.5h-6.84s-3.42,0-3.42,0h-.43c-.13,0-.21.01-.32.02l-.61.04-1.22.06c-3.22.27-6.37,1.14-9.25,2.58-5.78,2.86-10.42,8.04-12.59,14.1-.95.06-1.92.15-2.91.28-.95.14-1.89.33-2.85.54-1.92.44-3.92,1.02-5.76,1.8-1.61-1.36-3-2.85-4.39-4.49-.69-.82-1.38-1.68-2.03-2.57-.62-.88-1.22-1.79-1.8-2.75Z"/><circle id="path932" class="cls-36" cx="2682.2" cy="1216.02" r="63.98"/><g id="path1036"><path class="cls-11" d="M2682.2,1276.67c-16.2,0-31.43-6.31-42.89-17.76-11.46-11.46-17.76-26.69-17.76-42.89s6.31-31.43,17.76-42.89c11.46-11.46,26.69-17.76,42.89-17.76s31.43,6.31,42.89,17.76c11.46,11.46,17.76,26.69,17.76,42.89s-6.31,31.43-17.76,42.89c-11.46,11.46-26.69,17.76-42.89,17.76ZM2682.2,1161.5c-14.56,0-28.25,5.67-38.55,15.97-10.3,10.3-15.97,23.99-15.97,38.55s5.67,28.25,15.97,38.55c10.3,10.3,23.99,15.97,38.55,15.97s28.25-5.67,38.55-15.97c10.3-10.3,15.97-23.99,15.97-38.55s-5.67-28.25-15.97-38.55c-10.3-10.3-23.99-15.97-38.55-15.97Z"/></g><g class="cls-31"><path class="cls-11" d="M2683.96,1180.22l-5.76,27.74h.2c3.81-4.1,9.67-6.74,16.02-6.74,10.45,0,15.92,7.91,15.92,17.58,0,14.75-10.35,32.52-33.3,32.52-12.4,0-18.65-5.27-18.65-14.36,0-3.03.49-6.15,1.17-9.38l9.67-47.37h14.75ZM2674.29,1229.06c-.2,1.46-.68,3.32-.49,5.57.1,3.61,2.44,5.47,6.06,5.47,8.59,0,15.04-9.77,15.04-18.65,0-4.79-2.44-8.5-7.13-8.5-5.66,0-11.33,5.27-13.19,14.65l-.29,1.46Z"/></g><path class="cls-39" d="M2783.14,1167.18v53.77c0,17.68,7.25,27.68,20.58,27.68s20.87-9.57,20.87-27.68v-53.77h23.04v53.04c0,31.74-17.1,46.38-44.93,46.38-26.09,0-42.61-13.48-42.61-46.81v-52.61h23.04Z"/><path class="cls-39" d="M2947.63,1261.82c-4.35,2.17-14.93,4.78-28.41,4.78-36.81,0-56.09-21.3-56.09-49.28,0-32.03,25.07-51.89,57.97-51.89,13.19,0,23.19,2.46,27.68,4.93l-4.93,17.97c-5.07-2.17-12.61-4.2-21.74-4.2-19.71,0-34.64,11.01-34.64,31.88,0,18.26,12.32,31.74,34.78,31.74,7.97,0,16.52-1.59,21.6-3.77l3.77,17.83Z"/><path class="cls-39" d="M2963.57,1168.48c7.54-1.16,18.99-2.17,32.17-2.17,15.94,0,26.38,2.46,33.48,7.83,5.8,4.49,9.57,11.45,9.57,20.58,0,13.04-10.15,21.45-17.97,23.91v.43c6.81,2.75,10.72,9.42,13.33,17.83,3.48,11.16,6.52,24.06,8.55,27.97h-23.62c-1.59-2.9-4.06-10-7.25-22.61-3.19-12.17-7.54-15.36-17.54-15.51h-7.83v38.12h-22.9v-96.38ZM2986.47,1210.22h10.44c11.74,0,18.99-5.22,18.99-13.62,0-9.13-7.1-13.33-17.68-13.33-6.52,0-10,.43-11.74.87v26.09Z"/><text class="cls-4" transform="translate(249.98 541.24) rotate(-45)"><tspan class="cls-27" x="0" y="0">E</tspan><tspan x="24.4" y="0">ducación</tspan></text><text class="cls-4" transform="translate(450.33 541.24) rotate(-45)"><tspan class="cls-2" x="0" y="0">A</tspan><tspan class="cls-5" x="30.45" y="0">r</tspan><tspan class="cls-18" x="48" y="0">t</tspan><tspan x="64.25" y="0">es </tspan><tspan class="cls-40" x="119.7" y="0">P</tspan><tspan x="146.05" y="0">lásticas</tspan></text><text class="cls-4" transform="translate(650.68 541.24) rotate(-45)"><tspan class="cls-6" x="0" y="0">C</tspan><tspan x="28.85" y="0">iencias de la </tspan><tspan class="cls-29" x="292.3" y="0">S</tspan><tspan x="317.09" y="0">alud</tspan></text><text class="cls-4" transform="translate(851.03 541.24) rotate(-45)"><tspan class="cls-1" x="0" y="0">M</tspan><tspan x="40.8" y="0">ic</tspan><tspan class="cls-32" x="74.9" y="0">r</tspan><tspan class="cls-19" x="90.75" y="0">obiolo</tspan><tspan class="cls-21" x="225.05" y="0">g</tspan><tspan x="252.7" y="0">ía</tspan></text><text class="cls-4" transform="translate(1291.38 541.24) rotate(-45)"><tspan x="0" y="0">LAN</tspan><tspan class="cls-26" x="87.1" y="0">A</tspan><tspan x="117.5" y="0">MME</tspan></text><text class="cls-4" transform="translate(1491.72 541.24) rotate(-45)"><tspan class="cls-25" x="0" y="0">I</tspan><tspan class="cls-33" x="12.45" y="0">ngenie</tspan><tspan class="cls-16" x="157.7" y="0">r</tspan><tspan x="174.25" y="0">ía</tspan></text><text class="cls-4" transform="translate(1692.07 541.24) rotate(-45)"><tspan class="cls-6" x="0" y="0">C</tspan><tspan x="28.85" y="0">iencias </tspan><tspan class="cls-22" x="181.95" y="0">S</tspan><tspan x="206.9" y="0">ociales</tspan></text><text class="cls-4" transform="translate(1958.25 541.24) rotate(-45)"><tspan x="0" y="0">INIE</tspan></text><text class="cls-4" transform="translate(2234.44 541.24) rotate(-45)"><tspan x="0" y="0">CICI</tspan><tspan class="cls-16" x="81.9" y="0">C</tspan><tspan class="cls-19" x="111.1" y="0">A</tspan></text><text class="cls-4" transform="translate(1831.92 1176.42) rotate(-45)"><tspan x="0" y="0">CIM</tspan><tspan class="cls-23" x="81.15" y="0">P</tspan><tspan class="cls-19" x="103.55" y="0">A</tspan></text><text class="cls-4" transform="translate(1885.01 1325.51) rotate(-45)"><tspan class="cls-24" x="0" y="0">P</tspan><tspan x="25.3" y="0">a</tspan><tspan class="cls-32" x="49.4" y="0">r</tspan><tspan x="65.25" y="0">queo </tspan><tspan class="cls-25" x="184.05" y="0">I</tspan><tspan class="cls-26" x="196.5" y="0">n</tspan><tspan class="cls-20" x="224.05" y="0">t</tspan><tspan x="240.3" y="0">e</tspan><tspan class="cls-18" x="265.35" y="0">g</tspan><tspan class="cls-30" x="293" y="0">r</tspan><tspan x="309.1" y="0">al</tspan></text><text class="cls-4" transform="translate(2193.58 1219.13) rotate(-45)"><tspan x="0" y="0">Nut</tspan><tspan class="cls-17" x="77" y="0">r</tspan><tspan x="93.55" y="0">ición</tspan></text><text class="cls-4" transform="translate(2560.62 541.24) rotate(-45)"><tspan class="cls-17" x="0" y="0">D</tspan><tspan class="cls-19" x="33.5" y="0">epo</tspan><tspan class="cls-5" x="114.45" y="0">r</tspan><tspan x="132" y="0">ti</tspan><tspan class="cls-26" x="160.25" y="0">v</tspan><tspan class="cls-19" x="184.1" y="0">as</tspan></text><text class="cls-4" transform="translate(2762.8 541.24) rotate(-45)"><tspan x="0" y="0">EDUFI</tspan></text><text class="cls-4" transform="translate(2964.98 541.24) rotate(-45)"><tspan class="cls-16" x="0" y="0">O</tspan><tspan x="34.65" y="0">do</tspan><tspan class="cls-26" x="90.3" y="0">n</tspan><tspan class="cls-21" x="117.85" y="0">t</tspan><tspan x="134.1" y="0">olo</tspan><tspan class="cls-21" x="200.8" y="0">g</tspan><tspan x="228.45" y="0">ía</tspan></text><rect class="cls-7" x="229.26" y="744.36" width="41.3" height="41.3" rx="20.65" ry="20.65" transform="translate(614.14 47.35) rotate(45)"/><rect class="cls-8" x="429.63" y="672.79" width="41.3" height="41.3" rx="20.65" ry="20.65" transform="translate(622.22 -115.29) rotate(45)"/><rect class="cls-9" x="429.26" y="816.36" width="41.3" height="41.3" rx="20.65" ry="20.65" transform="translate(723.63 -72.98) rotate(45)"/><rect class="cls-8" x="228.98" y="599.79" width="41.3" height="41.3" rx="20.65" ry="20.65" transform="translate(511.83 5.2) rotate(45)"/><rect class="cls-7" x="428.98" y="816.36" width="41.3" height="41.3" rx="20.65" ry="20.65" transform="translate(723.55 -72.79) rotate(45)"/><rect class="cls-7" x="630.13" y="816.36" width="41.3" height="41.3" rx="20.65" ry="20.65" transform="translate(782.46 -215.02) rotate(45)"/><rect class="cls-7" x="830.57" y="816.36" width="41.3" height="41.3" rx="20.65" ry="20.65" transform="translate(841.17 -356.75) rotate(45)"/><rect class="cls-7" x="1271.01" y="816.36" width="41.3" height="41.3" rx="20.65" ry="20.65" transform="translate(970.17 -668.19) rotate(45)"/><rect class="cls-7" x="1471.45" y="816.36" width="41.3" height="41.3" rx="20.65" ry="20.65" transform="translate(1028.88 -809.92) rotate(45)"/><rect class="cls-7" x="1271.01" y="888.36" width="41.3" height="41.3" rx="20.65" ry="20.65" transform="translate(1021.08 -647.1) rotate(45)"/><rect class="cls-7" x="1471.45" y="888.36" width="41.3" height="41.3" rx="20.65" ry="20.65" transform="translate(1079.79 -788.83) rotate(45)"/><rect class="cls-7" x="1671.89" y="816.36" width="41.3" height="41.3" rx="20.65" ry="20.65" transform="translate(1087.59 -951.65) rotate(45)"/><rect class="cls-7" x="1671.89" y="888.36" width="41.3" height="41.3" rx="20.65" ry="20.65" transform="translate(1138.5 -930.56) rotate(45)"/><rect class="cls-7" x="1938.99" y="816.36" width="41.3" height="41.3" rx="20.65" ry="20.65" transform="translate(1165.82 -1140.52) rotate(45)"/><rect class="cls-7" x="2206.1" y="816.36" width="41.3" height="41.3" rx="20.65" ry="20.65" transform="translate(1244.05 -1329.39) rotate(45)"/><rect class="cls-7" x="1871.89" y="960.36" width="41.3" height="41.3" rx="20.65" ry="20.65" transform="translate(1247.99 -1050.9) rotate(45)"/><rect class="cls-7" x="2072.32" y="960.36" width="41.3" height="41.3" rx="20.65" ry="20.65" transform="translate(1306.69 -1192.63) rotate(45)"/><rect class="cls-7" x="2272.76" y="960.36" width="41.3" height="41.3" rx="20.65" ry="20.65" transform="translate(1365.4 -1334.36) rotate(45)"/><rect class="cls-7" x="2543.2" y="816.36" width="41.3" height="41.3" rx="20.65" ry="20.65" transform="translate(1342.79 -1567.76) rotate(45)"/><rect class="cls-7" x="2743.64" y="816.36" width="41.3" height="41.3" rx="20.65" ry="20.65" transform="translate(1401.49 -1709.49) rotate(45)"/><rect class="cls-7" x="2944.08" y="816.36" width="41.3" height="41.3" rx="20.65" ry="20.65" transform="translate(1460.2 -1851.22) rotate(45)"/><rect class="cls-7" x="2543.2" y="888.36" width="41.3" height="41.3" rx="20.65" ry="20.65" transform="translate(1393.7 -1546.67) rotate(45)"/><rect class="cls-7" x="2743.64" y="888.36" width="41.3" height="41.3" rx="20.65" ry="20.65" transform="translate(1452.41 -1688.41) rotate(45)"/><rect class="cls-7" x="2944.08" y="888.36" width="41.3" height="41.3" rx="20.65" ry="20.65" transform="translate(1511.11 -1830.14) rotate(45)"/><rect class="cls-8" x="1271.01" y="673.36" width="41.3" height="41.3" rx="20.65" ry="20.65" transform="translate(869.06 -710.07) rotate(45)"/><rect class="cls-8" x="1471.45" y="673.36" width="41.3" height="41.3" rx="20.65" ry="20.65" transform="translate(927.76 -851.8) rotate(45)"/><rect class="cls-8" x="1671.89" y="673.36" width="41.3" height="41.3" rx="20.65" ry="20.65" transform="translate(986.47 -993.53) rotate(45)"/><rect class="cls-8" x="1938.99" y="673.36" width="41.3" height="41.3" rx="20.65" ry="20.65" transform="translate(1064.7 -1182.41) rotate(45)"/><rect class="cls-8" x="2206.1" y="673.36" width="41.3" height="41.3" rx="20.65" ry="20.65" transform="translate(1142.94 -1371.28) rotate(45)"/><rect class="cls-8" x="2543.2" y="673.36" width="41.3" height="41.3" rx="20.65" ry="20.65" transform="translate(1241.67 -1609.65) rotate(45)"/><rect class="cls-8" x="2743.64" y="673.36" width="41.3" height="41.3" rx="20.65" ry="20.65" transform="translate(1300.38 -1751.38) rotate(45)"/><rect class="cls-8" x="2944.08" y="673.36" width="41.3" height="41.3" rx="20.65" ry="20.65" transform="translate(1359.08 -1893.11) rotate(45)"/></svg>