<?xml version="1.0" encoding="UTF-8"?><svg id="Layer_1" xmlns="http://www.w3.org/2000/svg" viewBox="0 0 341.83 196.58"><defs><style>.cls-1{isolation:isolate;}.cls-2{fill:#231f20;stroke-width:0px;}</style></defs><g id="path1036"><path class="cls-2" d="M170.92,183.87c-22.86,0-44.35-8.9-60.51-25.07-16.16-16.16-25.07-37.65-25.07-60.51,0-22.86,8.9-44.35,25.07-60.51,16.16-16.16,37.65-25.07,60.51-25.07,22.86,0,44.35,8.9,60.51,25.07,16.16,16.16,25.07,37.65,25.07,60.51,0,22.86-8.9,44.35-25.07,60.51-16.16,16.16-37.65,25.07-60.51,25.07ZM170.92,18.37c-21.35,0-41.42,8.31-56.51,23.41-15.1,15.1-23.41,35.17-23.41,56.51,0,21.35,8.31,41.42,23.41,56.51,15.1,15.1,35.17,23.41,56.51,23.41,21.35,0,41.42-8.31,56.51-23.41,15.1-15.1,23.41-35.17,23.41-56.51,0-21.35-8.31-41.42-23.41-56.51-15.1-15.1-35.17-23.41-56.51-23.41Z"/></g><g class="cls-1"><path class="cls-2" d="M173.33,45.01l-8.64,41.57h.29c5.71-6.15,14.49-10.1,24.01-10.1,15.66,0,23.86,11.86,23.86,26.35,0,22.1-15.52,48.74-49.91,48.74-18.59,0-27.96-7.9-27.96-21.52,0-4.54.73-9.22,1.76-14.05l14.49-70.99h22.1ZM158.84,118.2c-.29,2.2-1.02,4.98-.73,8.34.15,5.42,3.66,8.2,9.08,8.2,12.88,0,22.54-14.64,22.54-27.96,0-7.17-3.66-12.73-10.69-12.73-8.49,0-16.98,7.9-19.76,21.96l-.44,2.2Z"/></g></svg>