<?xml version="1.0" encoding="UTF-8"?><svg id="Layer_1" xmlns="http://www.w3.org/2000/svg" xmlns:xlink="http://www.w3.org/1999/xlink" viewBox="0 0 1966 433.9"><defs><style>.cls-1{letter-spacing:0em;}.cls-2{clip-path:url(#clippath);}.cls-3{fill:none;}.cls-3,.cls-4,.cls-5,.cls-6,.cls-7,.cls-8,.cls-9,.cls-10,.cls-11{stroke-width:0px;}.cls-12{opacity:.1;}.cls-13{clip-path:url(#clippath-1);}.cls-14{letter-spacing:0em;}.cls-15{letter-spacing:.02em;}.cls-16{letter-spacing:-.05em;}.cls-17{letter-spacing:0em;}.cls-18{font-size:117.38px;}.cls-18,.cls-19{font-family:MyriadPro-BoldSemiExt, 'Myriad Pro';font-weight:700;}.cls-18,.cls-9{fill:#fff;}.cls-20{letter-spacing:0em;}.cls-19{font-size:40px;}.cls-19,.cls-11{fill:#010101;}.cls-4{fill:#088543;}.cls-5{fill:#4277b6;}.cls-6{fill:#15bff1;}.cls-7{fill:#b6c3e0;}.cls-8{fill:#f37024;}.cls-10{fill:#00c1e7;}.cls-21{letter-spacing:0em;}</style><clipPath id="clippath"><rect class="cls-3" x="-.48" y="-716.13" width="1966.77" height="534.42"/></clipPath><clipPath id="clippath-1"><rect class="cls-3" x="1333.05" y="-539.71" width="780.81" height="754.66"/></clipPath></defs><g class="cls-2"><g class="cls-12"><g class="cls-13"><path class="cls-6" d="M2113.15-176.64c-.17-9.77-8.87-27.94-40.92-28.73-11.18-.28-22.65-.96-33.74-1.62-3.9-.23-7.84-.47-11.8-.68,13.69-9.31,30.14-18.75,42.76-21.1l.95-.18.91-.33c9.04-3.31,14.25-9.51,14.05-16.67,4.1-1.96,6.96-4.77,8.55-8.44,1.54-3.56,2.95-10.68-4.5-18.97-1.37-1.89-4.33-5.4-9.5-9.05,2.52-8.88-5.53-14.76-9.86-17.92-1.07-.79-2.17-1.55-3.29-2.28,10.75-14.13,18.96-30.43,13.05-42.84-2.63-5.73-11.13-15.06-27.1-15.06-4.35,0-9.02.69-13.97,2.07,1.9-3.3,2.43-6.85,1.47-10.44-1.98-7.42-8.69-10.11-14.92-11.09.12-1.01.12-2.05,0-3.11-1.41-12.71-17.79-15-28.13-16.26-1.96-.47-5.72-1.14-11.26-1.14-9.27,0-22.45,1.82-39.57,8.51,13.05-24.76,16.51-42.93,10.89-55.96h0c-1.23-2.82-7.89-15.19-29.68-15.29-2.81-.89-5.57-.89-6.97-.89-2.3,0-5.31.13-9.19.4-2.4-.08-8.22.04-17.07,2.62,5.45-14.68,6.59-21.72,6.61-26.05.35-3.21.36-10.04-4.54-15.98-2.99-3.63-8.76-7.96-19.25-7.96-4.11,0-8.62.64-13.77,1.94-3.7.88-29.86,8.17-54.77,42.41-1.98-16.24-5.7-37.91-19.75-52.8-3.22-3.41-15.09-14.83-27.87-13.8-13.31,1.12-26.24,14.64-31.04,27.08l-.26.76c-.11.37-1.43,4.72-3.17,11.99-7.07-9.87-15.23-17.9-24.43-24.03l-.78-.47c-1.19-.66-11.96-6.46-24.25-6.46-4.53,0-8.77.78-12.62,2.33-1.54-.53-3.31-.9-5.29-.9-.83,0-1.96.07-3.26.35-7.07-8.09-17.07-17.01-26.74-17.01-1.86,0-3.67.3-5.38.89-.49-.05-1-.08-1.52-.08-15.34,0-18.42,19.64-19.43,26.36-.39,2.21-3.26,19.13-3.1,42.08-6.93-5.69-14.16-10.4-21.66-14.09l-.49-.23c-2.57-1.12-15.91-6.69-26.34-6.69-9.34,0-14.98,4.52-17.33,10.13-2.41.83-4.54,2.36-6.14,4.48-3.53,4.67-4.06,11.21-1.44,23.12-.44.37-.83.75-1.18,1.13-2.03.84-4.15,2.13-6.08,4.09-2.6,2.64-5.65,7.4-5.47,15.06l.05.79c.06.67,1.13,11.75,4.38,27.8-5.44-2.14-10.92-3.92-16.3-5.68-3.52-1.15-7.06-2.3-10.61-3.56-6.47-2.31-15.32-5.47-24.3-5.47-6.78,0-12.76,1.77-17.8,5.25l-1.77,1.12-1.23,1.93c-.41.59-1.21,1.32-1.68,1.57-1.52-.35-6.88-1.5-11.76-1.5-8.05,0-12.25,3.19-14.44,6.41-2.27,1.14-4.21,2.89-5.58,5.12-4.72,7.65-2.35,18.6,8.75,40.33.26.6.76,1.7,1.53,3.22l-2.03,3.55c-3.05,5.35-5.61,14.07-1,25.62,1.85,10.92,7,25.45,19.74,41.83-2.97-1.18-5.57-2.48-7.8-3.89-8.04-4.92-21.05-14.4-24.8-20.06l-1.12-1.7-1.64-1.21c-2.19-1.61-5.66-3.53-9.71-3.53-4.32,0-8.25,2.15-10.49,5.76-4.13,6.63-.44,13.99,1.34,17.52l.61,1.22.88,1.04c1.25,1.47,2.45,2.99,3.59,4.54-8.88,1.05-18.27,4.48-23.45,11.31-2.43,1.02-4.47,2.72-5.89,5-.61.97-1.17,2.15-1.54,3.55-1.26,1.44-2.26,3.18-2.84,5.22-.38,1.36-.84,3.92-.08,6.98-.19.74-.33,1.52-.44,2.35-1.19,9.49,3.84,20.78,15.37,34.52l.22.26c.54.61,9.87,10.95,26.95,22.23-8.27,2.95-16.22,6.48-23.78,10.55-12.99,5.83-41.86,20.99-40.78,40.15.28,6.85,5.06,17.94,19.75,23.4-3.12,2.33-5.15,5.47-5.8,9.2-2.17,12.52,12.49,19.83,18.75,22.95,8.49,4.23,17.86,6.28,28.66,6.28,7.08,0,14.01-.86,20.95-2.06.1.17.2.35.31.52,1.54,2.42,3.3,4.58,5.25,6.48-11.1,9.33-17.44,16.36-17.78,16.74-21.25,23.56-16.93,44.78-16.36,47.12l.43,1.4c3.11,8.14,6.64,17.36,16.08,17.36,1.7,0,3.37-.37,4.91-1.06-2.42,6.14-3.41,9.91-3.51,10.32l-.08.34c-1.74,7.82-.71,14.14,3.05,18.8,1.51,1.87,3.41,3.35,5.55,4.38,2.39,2.94,5.75,4.53,9.03,4.88,1.29,10.47,4.11,17.29,4.29,17.73l.31.68c1.7,3.4,5.7,11.35,14.22,11.35,3.29,0,7.19-1.37,9.84-4.89.04,12.06,1.36,22.27,1.61,24.14l.34,2.47,1.35,2.11c1.25,1.96,3.62,5.66,7.38,7.92,2.66,4.04,6.28,6.07,10.81,6.07,1.9,0,4.47-.4,6.97-2.07.39,2.25.94,4.43,1.64,6.55l.37.96c.77,1.77,8.02,17.33,23.57,17.33,6.93,0,13.64-3.2,19.95-9.52.31-.28.88-.78,1.65-1.48.21,4.74.77,9.25,1.68,13.5l.12.51c1.56,5.91,10.36,35.6,31.21,40.33l1.19.27c3.11,2.04,8.13,4.34,14.99,4.34,10.14,0,20.68-5.02,31.27-14.89.44-.4,7.69-7.14,17.54-18.74l.69,2.23.9.53c-.42,8.58-.33,37.16,18.89,44.82,1.2.48,3.23,1.09,5.86,1.09,9.67,0,17.97-7.13,24.73-21.21,5.94,10.72,13.39,19.71,22.31,26.9,5.59,5.69,13.72,12.18,21.63,12.18,6.67,0,14.12-4.75,14.71-15.19.03-.48.06-.97.08-1.45.66.47,1.32.93,1.98,1.38l.78.48c1.21.68,12.23,6.65,24.76,6.65,4.23,0,8.21-.68,11.86-2.01,1.61.59,3.49,1.01,5.6,1.01,2.82,0,6.67-.71,10.21-3.76,5.93,5.56,12.84,10.06,19.68,10.06,1.73,0,3.43-.26,5.03-.78.58.07,1.18.11,1.81.11,15.1,0,18.56-19.36,19.7-25.97.43-2.17,3.64-19.04,3.96-42,6.8,5.83,13.93,10.68,21.36,14.54l.49.24c2.62,1.21,16.26,7.24,26.78,7.24,8.96,0,14.49-4.35,16.91-9.77,2.48-.79,4.69-2.32,6.34-4.46,3.55-4.59,4.2-11.09,1.85-22.96.5-.39.92-.79,1.27-1.16,6.61-2.68,11.88-9.05,11.88-18.86l-.03-.83c-.05-.67-.9-11.76-3.8-27.86,5.46,2.28,10.97,4.2,16.38,6.08,3.44,1.2,6.91,2.4,10.4,3.72,6.62,2.52,15.68,5.97,24.93,5.97,6.44,0,12.19-1.65,17.09-4.89l1.78-1.08,1.28-1.9c.46-.62,1.36-1.41,1.64-1.56,1.67.43,7.3,1.77,12.44,1.77,7.83,0,11.89-3.31,13.92-6.12,2.35-1.12,4.37-2.88,5.8-5.14,4.77-7.56,2.6-18.52-8-40.4-.42-1.01-1.55-3.57-3.48-7.24,3.72-3.4,5.07-7.49,5.51-9.31.29-1.16,2.66-11.85-2.23-27.93-3.1-10.18-8.3-20.25-15.55-30.13,2.78,1.21,5.37,2.56,7.61,4.09,7.68,5.08,20.07,14.82,23.58,20.55l1.05,1.71,1.58,1.25c2.22,1.77,5.75,3.88,9.98,3.88s8.08-2.09,10.34-5.58c4.16-6.44.75-13.83-.89-17.38l-.54-1.18-.79-1.02c-3.12-4.03-5.84-8.19-7.89-12.04-2.15-4.04-3.44-8.87-4.77-13.99,2.18,1.1,4.4,2.3,6.71,3.56l1.58.86c10.91,6.04,15.9,6.82,19.03,6.82h0c4.8,0,8.94-2.17,11.36-5.96.59-.93,1.15-2.06,1.53-3.4,1.29-1.42,2.33-3.14,2.96-5.18.41-1.35.92-3.91.21-6.99.2-.73.36-1.51.49-2.34,1.39-9.46-3.41-20.84-14.66-34.81l-.21-.25c-.47-.55-8.52-9.87-23.46-20.65,6.58-2.5,12.96-5.36,19.09-8.57,13.69-5.92,44.21-21.39,43.5-41.44"/><path class="cls-9" d="M1519.26,42.96l-.23.33c-.33.4-33.09,40.22-23.81,68.19.01,0,3.5,7.66,9.41,8.72,3.55.63,7.48-1.22,11.71-5.54.47-.42,35.61-31.78,45.56-45.21,11.1-13.29,40.39-49.18,43.66-56.95,1.05-1.97,2.51-5.52,2.39-7.55,0-.42.16-6.37,4.43-10.59l-13.23-9.01.22,2.35c-.51.05-51.12,5.23-80.12,55.24"/><path class="cls-10" d="M1614.37-4.28l-1.6-1.75c-.14.13-.24.27-.37.4-4.27,4.22-4.43,10.17-4.43,10.59.12,2.03-1.35,5.58-2.39,7.55-3.27,7.77-32.56,43.66-43.66,56.95-9.95,13.43-45.09,44.79-45.56,45.21-4.23,4.31-8.16,6.17-11.71,5.54-5.91-1.07-9.4-8.72-9.41-8.72-9.28-27.97,23.48-67.79,23.81-68.19l.23-.33c29-50.01,79.61-55.19,80.12-55.24l-.22-2.35-.21-2.35c-.53.05-53.42,5.37-83.71,57.41-2.66,3.23-34.42,42.71-24.46,72.74.18.41,4.52,10.14,12.98,11.69.76.14,1.52.21,2.29.21,4.48,0,9.06-2.37,13.59-6.98,1.46-1.3,35.86-32,46.01-45.71,1.64-1.96,40.09-48.03,44.2-57.83.32-.59,3.09-5.83,2.86-9.68,0-.04.13-4.57,3.25-7.4l-1.6-1.75Z"/><path class="cls-9" d="M1745.16,188.27s14.27,7.81,25.28,3.46c.49-.6,1.3-1.33,2.53-1.7,1.09-.32,2.85-.42,5.05.89l.39.29s1.39,1.17,2.58.74c.71-.26,3.14-1.82,4.45-10.95.28-1.28,24.34-110.03-40.4-163.75l1.52-1.81-49.44,3.39,2.35.3c-.16,1.28-15.57,128.13,45.68,169.16"/><path class="cls-10" d="M1748.08,13.61l-1.52,1.81-1.53,1.81c64.74,53.72,40.69,162.47,40.4,163.75-1.31,9.13-3.74,10.69-4.45,10.95-1.2.44-2.58-.74-2.58-.74l-.39-.29c-2.2-1.31-3.96-1.21-5.05-.89-1.23.36-2.04,1.09-2.53,1.7-11,4.35-25.26-3.46-25.28-3.46-61.25-41.04-45.84-167.89-45.68-169.16l-2.35-.3-2.37-.3c-.04.33-4.11,32.97-.35,70.37,5.02,49.87,21.64,85.59,48.25,103.41.52.29,9.96,5.49,20.27,5.49,3.34,0,6.78-.54,10.03-1.98l.74-.42.39-.62c.07-.11.28-.44,1.31.12,1.37,1.14,4.19,2.57,7.16,1.52,3.87-1.37,6.35-6.19,7.55-14.55.26-1.12,24.96-112.65-42.03-168.24"/><path class="cls-9" d="M1542.84,133.72c.04.16,6.96,25.84,19.83,30.01.89-.56,2.17-1.07,3.55-.65.86.26,1.93.93,2.5,2.64,2.06,1.68,12.04,8.03,29.94-8.65.75-.69,74.69-69.87,69.97-150.41l2.37-.14-62.48-35.49,1.84,1.5c-.81.98-80.85,98.86-67.52,161.19"/><path class="cls-10" d="M1673.38,6.38l-2.38.14-2.37.14c4.71,80.54-69.22,149.71-69.97,150.41-17.9,16.67-27.87,10.33-29.94,8.65-.56-1.7-1.64-2.38-2.5-2.64-1.38-.41-2.66.09-3.55.65-12.87-4.17-19.78-29.84-19.83-30.01-13.33-62.33,66.71-160.21,67.52-161.19l-1.84-1.5-1.84-1.5c-.21.25-20.78,25.28-39.38,57.86-25.14,44.01-34.93,80.12-29.09,107.42.32,1.23,8.1,30.1,24.44,33.81l1.28.29.64-.63.31.33c.3.32,4.4,4.46,11.94,4.46,6.14,0,14.57-2.75,25.08-12.54.76-.7,76.32-71.36,71.48-154.14"/><path class="cls-9" d="M1446.23-1.59c-17.56,29.15-5.99,57.45-5.87,57.73.34.68.65,1.23.91,1.69,0-.03,0-.06,0-.09l.06-.52c1.4-6.23,5.33-8.03,6.84-8.5,116.94-75.39,108.82-99.66,108.73-99.9l-.33-.61.11-.57c.64-8.75,3.12-13.98,3.82-15.29,1.57-5.74,6.21-7.95,9.54-8.54l-10.99-12.89.48,2.32c-55.48,11.31-112.72,84.44-113.3,85.17"/><path class="cls-10" d="M1571.88-76.39c-.53,0-1.17.08-1.85.2-3.33.59-7.96,2.8-9.54,8.54-.7,1.31-3.18,6.54-3.82,15.29l-.11.57.33.61c.1.24,8.21,24.52-108.73,99.9-1.51.47-5.43,2.27-6.84,8.5l-.06.52s0,.06,0,.09c-.27-.46-.57-1.02-.91-1.69-.12-.28-11.69-28.58,5.87-57.73.57-.74,57.81-73.86,113.3-85.17l-.48-2.32-.48-2.32c-24.08,4.91-50.96,21.05-79.88,47.97-21.44,19.96-36.08,38.76-36.39,39.18-18.94,31.4-6.86,60.97-6.27,62.36,1.67,3.33,3.56,6.36,6.06,6.36.24,0,.49-.03.75-.09,2.54-.6,3.14-3.72,3.18-6.36,1.03-4.17,3.48-4.77,3.53-4.79l.48-.08.41-.26c113.78-73.3,112.76-100.21,111.01-105.45.71-8.44,3.29-12.98,3.31-13.01l.26-.63c1.31-5.23,6.3-5.46,6.87-5.46l-.02-4.73Z"/><path class="cls-9" d="M1555.78-47.93l-.35.9-.89.4c-52.27,23.37-84.26,87.34-86,90.9-4.82,15.83-1.8,42.11-1.3,46.1,1.75,2.65,2.54,3.06,2.57,3.08-.15-.08-.62-.15-1.1.09-.09.05-.55.3-.62.7l4.64-.25c.27.97.52,1.71.74,2.25.28-.73.56-1.62.75-2.47-.47-6.25,5.53-12.43,6.23-13.12,58.3-45.83,90.02-94.71,90.33-95.2,10.63-14.28,6.9-22.62,6.74-22.97l-.22-.76c-.77-6.85,9.84-12.53,13.59-14.31l-14.69-14.09-.22,2.35c-13.1-1.13-20.12,16.22-20.19,16.4"/><path class="cls-10" d="M1593.69-48.67l-1.95-4.31c-.21.1-.52.24-.86.4-3.75,1.78-14.36,7.46-13.59,14.31l.23.76c.16.35,3.89,8.69-6.74,22.97-.31.49-32.03,49.37-90.33,95.2-.7.7-6.69,6.88-6.23,13.12-.2.85-.47,1.74-.75,2.47-.21-.55-.46-1.28-.74-2.25l-4.64.26c.07-.4.53-.66.62-.7.48-.24.96-.17,1.1-.09-.03-.02-.82-.43-2.57-3.08-.5-3.99-3.52-30.28,1.3-46.1,1.75-3.56,33.73-67.52,86-90.9l.89-.4.35-.9c.07-.18,7.09-17.53,20.19-16.4l.22-2.35.22-2.35c-14.9-1.34-22.86,14.41-24.67,18.49-54.6,24.96-87.24,92.26-87.56,92.94l-.12.32c-5.58,18.03-1.62,47.57-1.45,48.82l.07.51.28.44c1.73,2.7,3.78,5.4,6.13,5.62.93,2.34,2.25,4.19,4.38,4.19.04,0,.08,0,.12,0,3.09-.1,4.63-4.34,5.37-7.88l.08-.38-.05-.39c-.43-3.5,3.34-8.15,4.62-9.46,58.71-46.13,90.87-95.68,91.09-96.05,11.03-14.81,8.23-24.84,7.32-27.21.1-2.89,6.73-7.38,11.68-9.6"/><path class="cls-9" d="M1554.46,21.12c-3.46,21.42-13.06,31.83-13.47,32.26-12.42,12.35-11.25,33.41-11.24,33.63,0,12.21,13.79,25.44,13.93,25.57,6.97,8.26,8.9,8.41,9.16,8.41.82-1.22-1.06-9.83-4.23-18.32-6.44-14.94,3.9-28.91,4.34-29.5,3.57-4.24,15.6-13.56,16.11-13.95,42.11-31.24,41.98-87.61,41.98-88.17l1.6-.02-26.79-9.57.79,1.39c-24.49,13.8-32.12,57.83-32.19,58.27"/><path class="cls-10" d="M1612.64-28.97l-1.6.02c0,.56.14,56.93-41.98,88.17-.51.39-12.54,9.7-16.11,13.95-.44.59-10.78,14.56-4.34,29.5,3.17,8.49,5.05,17.1,4.23,18.32-.27,0-2.19-.15-9.17-8.41-.14-.13-13.92-13.36-13.93-25.57-.02-.21-1.18-21.28,11.24-33.63.4-.43,10-10.84,13.47-32.26.07-.44,7.7-44.47,32.19-58.27l-.79-1.39-.79-1.39c-25.81,14.54-33.46,58.65-33.78,60.53-3.29,20.4-12.55,30.5-12.61,30.56-13.39,13.32-12.19,35.12-12.14,35.95,0,13.49,14.31,27.2,14.8,27.65,5.48,6.5,9,9.42,11.51,9.42.54,0,1.03-.13,1.48-.4,3.79-2.19.62-13.3-2.74-22.3-5.73-13.29,3.83-26.27,3.87-26.33,3.3-3.92,15.44-13.32,15.54-13.39,43.42-32.21,43.25-90.17,43.24-90.75l-1.6.02Z"/><path class="cls-9" d="M1638.04,141.7c1.33,1.17,3.71,4.04,3.06,9.2-.52,7.56.27,28.4,10.19,32.32,1.96.69,8.54-1.41,15.44-19.13.18-.57,22.55-69.13,23.89-120.05,0-.22.55-20.73-7.25-34.3l2.06-1.17-24.03-4.76,1.93,1.38c-.47.65-46.81,65.73-25.29,136.51"/><path class="cls-10" d="M1687.49,7.39l-2.06,1.17-2.06,1.17c7.8,13.57,7.26,34.08,7.25,34.3-1.34,50.92-23.71,119.48-23.89,120.05-6.9,17.72-13.48,19.83-15.44,19.14-9.92-3.92-10.71-24.76-10.19-32.32.65-5.15-1.72-8.02-3.05-9.2-21.52-70.78,24.82-135.86,25.29-136.51l-1.93-1.38-1.93-1.38c-.49.67-48.51,68.03-25.76,141.37l.3.84.71.46c.22.15,2.13,1.52,1.65,5.34-.09,1.27-2.01,31.18,13.04,37.12.25.12,1.16.48,2.56.48.97,0,2.18-.17,3.57-.73,5.7-2.29,10.95-9.53,15.67-21.64.23-.7,22.81-69.9,24.17-121.5.03-.89.6-22.04-7.88-36.78"/><path class="cls-9" d="M1707.74,193.08c4.8,4.95,11.21,9.65,13.44,8.79.85-.31,1.07-1.92,1.12-2.85.41-7.17.9-14.38,1.39-21.63,2.89-42.61,5.87-86.67-6.61-127.79-2.98-9.83-8.12-24.1-18.35-34.43l1.14-1.12-19.24,4.77,1.55.41c-.34,1.27-33.38,127.24,25.56,173.85"/><path class="cls-10" d="M1720.14,48.67c-3.08-10.15-8.41-24.9-19.13-35.75l-1.14,1.12-1.14,1.12c10.22,10.34,15.37,24.6,18.35,34.43,12.48,41.13,9.5,85.19,6.61,127.79-.49,7.25-.98,14.47-1.39,21.63-.05.93-.27,2.54-1.12,2.85-2.23.86-8.64-3.84-13.44-8.79-58.94-46.62-25.9-172.59-25.56-173.86l-1.55-.41-1.55-.41c-.09.32-8.65,32.54-9.67,70.2-1.36,50.11,11.2,87.11,36.18,106.84,1.68,1.74,9.67,9.7,15.12,9.7.56,0,1.09-.08,1.59-.26,1.95-.72,3.03-2.63,3.21-5.66.41-7.15.9-14.36,1.39-21.6,2.9-42.89,5.9-87.25-6.75-128.93"/><path class="cls-9" d="M1789.69,179.9c5.35,7.4,14.62,17.38,19.73,18.37.17-1.17.67-2.23,1.8-2.78.95-.46,2.48-.62,4.34,1.27.1.11,1.01,1.09,1.84.86.58-.17,3.57-1.65,5.82-14.65.09-.44,7.4-37.02,1.36-76.41-.09-.64-8.47-61.05-30.04-110.01l2.18-.95-32.29,10.24,2.33.44c-.21,1.14-21.26,115.08,22.93,173.61"/><path class="cls-10" d="M1829.29,105.89c-.09-.61-8.54-61.66-30.39-111.23l-2.18.95-2.18.95c21.58,48.96,29.96,109.37,30.04,110.01,6.04,39.39-1.27,75.97-1.36,76.41-2.24,13-5.24,14.49-5.82,14.65-.83.23-1.73-.75-1.84-.86-1.86-1.89-3.39-1.73-4.34-1.27-1.13.55-1.63,1.61-1.8,2.78-5.12-.99-14.39-10.97-19.73-18.37-44.19-58.53-23.14-172.47-22.93-173.61l-2.34-.44-2.33-.44c-.06.29-5.54,29.49-5.37,65.66.16,33.53,5.35,80.12,29.13,111.63,2.6,3.6,15.2,20.35,24.53,20.35.75,0,1.48-.11,2.18-.34l1.88-.62-.05-.37c1.19.58,2.66.9,4.25.46,4.35-1.18,7.3-7.04,9.25-18.35.08-.37,7.56-37.74,1.39-77.95"/><path class="cls-9" d="M1765.43,113.57l.46.72c3.32,5.22,10.23,16.1,16.53,17.19.77.13,1.34.27,1.77.37.09.02.17.04.25.06.08-.11.16-.24.26-.39.27-.39.62-.9,1.1-1.55.89-1.21,1.41-3.63,1.88-5.76.35-1.64.69-3.2,1.2-4.48.96-2.39,2.06-4.78,3.18-7.2,1-2.17,2.01-4.36,2.92-6.58,7.99-19.23,11.23-42.61,9.65-69.5-.75-12.83-10.9-29.04-21.72-34.68l.75-1.41-31.59,12.31,1.58.28c-5.97,33.24-8.67,68.43,11.78,100.61"/><path class="cls-10" d="M1807.84,36.28c-.83-14.03-11.56-31.12-23.43-37.32l-.75,1.41-.74,1.41c10.81,5.64,20.96,21.85,21.72,34.68,1.59,26.88-1.66,50.26-9.65,69.5-.91,2.22-1.92,4.4-2.92,6.58-1.11,2.41-2.22,4.81-3.18,7.2-.51,1.28-.85,2.84-1.2,4.48-.46,2.13-.99,4.56-1.88,5.76-.48.65-.83,1.16-1.1,1.55-.1.15-.19.28-.26.39-.07-.02-.16-.04-.25-.06-.43-.1-1-.23-1.77-.37-6.3-1.09-13.21-11.97-16.53-17.19l-.46-.72c-20.45-32.17-17.75-67.36-11.78-100.61l-1.58-.28-1.58-.28c-5.79,32.25-8.87,69.69,12.23,102.87l.46.72c3.84,6.04,11,17.29,18.7,18.63.69.12,1.2.24,1.59.33.54.13.99.2,1.37.2,1.09,0,1.66-.55,2.53-1.84.25-.37.57-.84,1.03-1.45,1.3-1.76,1.88-4.42,2.43-6.98.33-1.51.64-2.93,1.05-3.97.94-2.34,2.02-4.68,3.11-7.04,1.02-2.21,2.05-4.44,2.98-6.69,8.17-19.68,11.49-43.53,9.88-70.9"/><path class="cls-9" d="M1841.24-24.87c22.95,37.85,46.89,65.66,71.24,82.8,9.84,6.91,20.74,10.7,32.27,14.72,3.57,1.24,7.16,2.49,10.72,3.84,8.88,3.37,20.82,7.91,29.15,2.74,1.4-1.86,7.3-8.84,15.98-6.7,5.02,1.33,10.66,1.8,11.84,1.01-.1-.07-.27-.75-1.26-2.11l3.23-3.37c1.29.83,2.95,1.3,3.34,1.1.02-.03,2.96-3.11-8.87-27.45-.35-.87-28.95-70.93-121.31-90.89-.41-.11-22.72-6.78-37.94-6.78v-2.37l-23.3,26.89c3.74,0,10.85.8,14.92,6.57"/><path class="cls-10" d="M2013.23,39.81c-.29-.75-7.42-18.57-26.39-39.14-17.47-18.94-48.69-43.77-98.08-54.43-.94-.28-23.21-6.94-39.14-6.94v4.73c15.22,0,37.54,6.67,37.94,6.78,92.35,19.96,120.95,90.01,121.31,90.89,11.83,24.34,8.89,27.43,8.87,27.45-.39.2-2.05-.27-3.34-1.1l-3.23,3.37c1,1.36,1.16,2.04,1.26,2.11-1.18.79-6.83.32-11.84-1.01-8.68-2.13-14.58,4.84-15.98,6.7-8.32,5.18-20.27.64-29.15-2.74-3.56-1.35-7.14-2.6-10.71-3.84-11.53-4.02-22.43-7.81-32.27-14.72-24.36-17.14-48.3-44.95-71.24-82.8-4.07-5.78-11.18-6.58-14.92-6.57-1.39,0-2.33.11-2.46.13l.62,4.69c.1,0,8.95-1.08,12.77,4.33,23.2,38.28,47.59,66.57,72.48,84.09,10.39,7.29,22.11,11.37,33.45,15.32,3.53,1.23,7.07,2.46,10.71,3.84,6.32,2.4,14.14,5.37,21.67,5.37,4.2,0,8.32-.92,12.04-3.39l.39-.26.26-.4c.05-.07,4.64-6.81,11.14-5.17,4.15,1.1,14.13,3.24,16.97-.88.48-.7.74-1.47.76-2.32,1.3.07,2.62-.22,3.74-1.19,2.73-2.38,4.32-8.29-7.64-32.9"/><path class="cls-9" d="M1494.74-78.86c-61.93,43.47-76.18,96.87-76.31,97.4-.86,3.84-.65,6.61.62,7.97,1.17,1.25,3.06,1,3.08.99l1.7-.25.14,1.71c.11,1.39.45,1.8.58,1.84,1.06.37,4.66-2.25,7.48-5.4,2.66-4.44,20.9-14.79,24.58-16.84,41.2-20.15,70.08-49.95,70.37-50.25,27.67-22.93,27.71-34.92,27.71-35.03v-.34s.12-.34.12-.34c2.65-6.29,9.01-7.24,13.37-6.75l-11.89-12.4-.06,1.59c-36.07-1.31-61.25,15.93-61.5,16.1"/><path class="cls-10" d="M1568.19-84.16c-4.37-.49-10.73.46-13.38,6.75l-.13.34v.34c0,.12-.03,12.11-27.7,35.03-.29.3-29.17,30.1-70.37,50.25-3.68,2.06-21.93,12.4-24.58,16.84-2.82,3.14-6.42,5.77-7.48,5.4-.12-.04-.47-.45-.58-1.84l-.14-1.71-1.7.25s-1.91.26-3.08-.99c-1.27-1.36-1.48-4.13-.62-7.97.14-.53,14.39-53.93,76.31-97.4.25-.18,25.43-17.41,61.49-16.1l.06-1.59.06-1.59c-37.23-1.49-62.41,15.94-63.46,16.68-62.95,44.19-77.44,98.68-77.59,99.27-1.13,5.06-.65,8.74,1.43,10.92,1.35,1.41,3.04,1.85,4.26,1.96.4,1.66,1.25,2.72,2.53,3.15.37.12.75.18,1.14.18,3.7,0,8.41-4.96,9.88-6.62l.23-.34c1.27-2.52,14.45-10.7,23.32-15.67,41.65-20.37,70.91-50.56,71.06-50.74,26.52-21.96,28.58-34.59,28.72-37.07,2.97-6.47,11.37-4.33,11.74-4.24l.83-3.08c-.65-.17-1.44-.3-2.27-.39"/><path class="cls-9" d="M1830.31,54.1c.27.43,23.52,36.85,49.06,54.23,10.95,6.04,24.43,11.58,26.9,9.9.14-.1.18-.38.12-.83l-.29-1.98,2.01.16s2.66.16,4.51-1.56c1.32-1.22,1.99-3.16,1.99-5.76-.08-1.09-9.56-120.36-73.54-145.21-1.7-.01-8.64-.14-11.98-1.47l.59-1.48-19.93,15.03,1.6.09c-.03.48-2.44,48.31,18.95,78.88"/><path class="cls-10" d="M1905.05,43.86c-13.85-44.37-35.67-73.38-63.1-83.89l-.58-.11c-2.21,0-8.52-.23-11.09-1.24l-.59,1.48-.59,1.48c3.34,1.32,10.27,1.45,11.98,1.47,63.98,24.85,73.45,144.12,73.54,145.21,0,2.6-.67,4.54-1.99,5.76-1.85,1.71-4.51,1.55-4.51,1.56l-2-.16.28,1.98c.07.45.03.73-.12.83-2.47,1.69-15.96-3.86-26.9-9.9-25.54-17.37-48.79-53.8-49.06-54.23-21.39-30.57-18.98-78.4-18.95-78.88l-1.6-.09-1.6-.09c-.11,2-2.51,49.4,19.48,80.82.23.37,23.83,37.35,50.05,55.17,4.96,2.74,19.8,10.57,27.29,10.57,1.29,0,2.35-.23,3.12-.75.49-.33,1.19-1,1.44-2.16,1.43-.18,3.5-.71,5.25-2.31,2.02-1.85,3.04-4.58,3.04-8.24-.02-.3-2.36-30.95-12.76-64.28"/><path class="cls-9" d="M1868.56,145.79c7.71,3.54,20.46,7.56,24.35,5.24.47-.28.95-.72,1.02-1.93.07-.55.59-4.08,3.1-5.95,1.27-.94,2.81-1.29,4.47-1.03l.48.08c.71-2.86.53-15.56-19.58-70.67-.22-.47-29.71-64.15-77.73-85.38l.97-2.16-24.03,13.67,2.35-.38c.19,1.15,19.14,114.64,84.61,148.51"/><path class="cls-10" d="M1886.81,69.75c-.3-.67-7.64-16.65-21.19-35.57-12.55-17.53-32.98-40.84-59.01-52.35l-.97,2.16-.97,2.16c48.03,21.24,77.51,84.92,77.73,85.39,20.12,55.11,20.3,67.81,19.58,70.67l-.48-.08c-1.66-.27-3.2.09-4.47,1.03-2.51,1.87-3.03,5.4-3.1,5.95-.07,1.2-.56,1.65-1.03,1.93-3.88,2.32-16.64-1.69-24.35-5.24-65.47-33.86-84.43-147.36-84.61-148.51l-2.35.37-2.35.38c.05.29,4.83,29.49,17.82,62.54,12.06,30.67,33.87,71.08,69.39,89.46,2.76,1.27,14.41,6.39,22.89,6.39,2.32,0,4.4-.38,6-1.33,2.03-1.21,3.18-3.18,3.31-5.54.07-.5.47-2.05,1.21-2.6.12-.08.25-.16.48-.17,1.26.65,2.92.8,4.31-.21,2.4-1.76,8.03-5.87-17.87-76.81"/><path class="cls-9" d="M1866.1-64.58c.4.52,50.94,67.71,99.88,77.05.33,0,13.2.73,21.02,5.61,4.17,1.55,15.64,4.78,21.03,1.93,1.48-.78,2.38-1.96,2.78-3.61.02-.1,1.91-8.3-2.11-21.36-3.73-12.12-13.45-31-38.56-52.16-.29-.14-50.76-29.6-100.51-26.27l-.11-1.59-13.9,11.45c2.46.38,6.55,2.13,10.47,8.96"/><path class="cls-10" d="M1972-59.71c-.51-.3-51.82-30.27-102.58-26.87l.11,1.59.11,1.59c49.74-3.34,100.22,26.13,100.51,26.27,25.11,21.16,34.83,40.04,38.56,52.16,4.03,13.06,2.14,21.27,2.11,21.36-.39,1.65-1.29,2.83-2.78,3.61-5.39,2.86-16.86-.37-21.03-1.93-7.82-4.88-20.69-5.61-21.02-5.61-48.94-9.34-99.48-76.53-99.88-77.05-3.93-6.83-8.01-8.58-10.47-8.96-1.33-.21-2.2-.02-2.29,0l.75,3.1c.06-.02,4.5-.79,9.33,7.59.13.17,13,17.38,31.85,35.52,17.47,16.81,43.82,37.9,70.32,42.95.13,0,12.72.72,19.83,5.23l.29.15c.48.18,8.89,3.33,16.43,3.33,2.71,0,5.32-.41,7.4-1.51,2.31-1.22,3.79-3.14,4.39-5.69.35-1.41,7.91-34.88-41.94-76.85"/><path class="cls-10" d="M1593.02-37.58s-23.13,9.91-32.71,52.16c0,0,29-56.37,39.57-32.95,10.53,23.4-5.89,39.16-5.89,39.16,0,0,23.14-24.47,20.72-51.52"/><path class="cls-10" d="M1795.58,2.2s-5.89,43.37,26.36,87.65c0,0-38.63-65.52-9.99-82.22,28.62-16.72,72.69,75.89,77.24,91.26,0,0-23.76-89-80.42-107.06"/><path class="cls-10" d="M1685.51,54.47s-5.06-21.95,13.46-20.5c18.52,1.45,12.57,36.53,12.57,36.53,0,0,11.64-21.37-8.98-43.68-20.63-22.26-23.31,27.65-17.04,27.65"/><path class="cls-6" d="M1688.51,4.09c-15.9,53.23-17.1,111.79,9.27,161.56-32.44-48.06-31.49-108.98-9.27-161.56"/><path class="cls-6" d="M1554.62-91.13c-59.07,5.81-105.88,45.88-130.49,98.89,23.52-53.78,70.97-94.34,130.49-98.89"/><path class="cls-6" d="M1900.86-160.99c0,3.65-7.55,6.62-7.74,10.2-.2,3.65,2.77,6.99,2.38,10.56-.41,3.49-.99,8.75-.25,12.16.83,3.82,4.46,6.36,4.64,10.42.18,3.76-.45,8.39-2.87,11.44-2.27,2.9-6.95,3.66-8.22,7.31-1.22,3.43,2.8,8.64,1.43,11.98-1.41,3.34-4.9,5.7-6.47,8.95-1.84,3.78,2.1,7.24,2.04,10.86-.07,3.96-3.9,8.7-5.98,11.98-1.93,3.07-.58,8.84-2.68,11.8-3.61,5.03-12.41-1.62-14.92,5.01-1.52,4.08,3.98,11.78-2.86,13.11-5.1,1.02-11.96-9.31-16.93-5.12-4.23,3.56,1.99,10.55,3.09,14.12,3.45,11.08-22.08,5.08-26.13,7.92-3.02,2.13-1.99,6.19-3.54,9.11-1.84,3.45-7.81,6.41-11.55,7.19-4.01.85-8.89-2.89-12.56-1.11-3.27,1.56-1.62,13.89-4.97,15.3-4.53,1.87-5.34,9.59-11.05,7.65-4.05-1.36-8.93-14.36-13.75-12.98-3.47.98-6.33,2.74-9.87,3.54-3.54.83-5.91,6.15-9.5,6.74-3.58.6-7.91-6.67-11.55-6.28-3.58.4-6.25,7.57-9.9,7.79-3.97.22-5.4,4.55-8.76,5.81-4.9,1.85-8.1-3.01-12.83-3.25-8.51-.47-19.17-7.99-27.01-3.58-2.87,1.6-6.18,2-9.03,3.65-2.66,1.54-5.48,5.46-8.96,4.88-5.42-.91-3.25-11.76-3.47-15.39-.2-2.6-.14-6.05-2.87-7.31-2.44-1.11-4.32.63-6.61,1.12-2.53.58-3.99-.13-6.38,0-4.86.26-9.36,4.32-14.33,3.32-5.62-1.14-13.7-5.86-17.33-10.35-2.67-3.32-.98-10.06-4.48-12.56-2.95-2.09-3.59-6.94-6.41-9.19-2.87-2.25-3.07-6.97-5.78-9.4-2.71-2.4-11.57,2.03-14.15-.53-2.55-2.56-1.84-8.08-4.25-10.77-2.42-2.7-11.74.35-14.02-2.47-2.24-2.83-7.34-4.01-9.45-6.94-2.11-2.94-3.63-6.81-5.55-9.89-2.38-3.74-3.99-11.58-2.51-15.59,1.23-3.27,8.29-7.48,4.86-11.49-3.77-4.36-12.25.85-16.77-.13-7.35-1.53-9-9.88-5.38-15.62,2.51-3.92,10.13-6.01,11.02-10.56,1.39-7.04-7.86-6.64-11.6-9.4-5.8-4.32-3.42-11.08-4.07-17.16-.68-6.15-8.11-8.75-8.85-14.38-1.68-12.8,23.27-21.97,18.47-35.06-2.19-5.99-22.78-16.7-10.95-24.38,4.45-2.87,13.95,1.8,17.71-2.43,4.75-5.29-9-10.33-11.52-12.91-4.57-4.72,2.64-10.98,6.5-14.27,3.56-3.07,12.7-3.09,14.78-7.41,1.61-3.25,3.14-3.12,4.88-6.28,2.69-4.85-4.59-9.22-6.18-12.98-3.63-8.48,10.12-3.32,13.26-7.68,2.11-2.94,1.25-8.15,3.54-10.95,2.38-2.96,9.85.98,12.81.85,5.8-.27,4.52-5.01,7.08-9.08,2.19-3.56,5.24-4.39,8.33-6.77,4.48-3.45.98-8.01-.22-13.07-1.48-6.26-.92-7.7,3.22-12.98,4.64-5.94,5.73-4.19,11.69-.8,2.11,1.16,4.7,3.25,7.03,3.89,3.47.96,11.51.65,14.15-2.09,3-3.09.85-8.24,1.26-12,.76-6.99,7.79-7.59,12.72-11.36,3.85-2.98,6.14-9.84,11.29-5.87,3.63,2.8,5.64,8.19,9.31,11.02,3.54,2.73,8.51,2.42,12.5.95,3.5-1.31,5.78-4.81,8.87-6.77,3.9-2.49,8.56-3.56,12.41-6.19,3.18-2.2,3.92-5.97,6.76-8.24,4.03-3.25,10.6-1.16,15.19-.44,3.81.58,10.44.27,13.3,3.3,3.07,3.18,2.6,15.54,9.34,11.75,3.74-2.09,6.78-14.29,11.89-9.8,3.36,2.94.85,15.11,5.69,16.45,6,1.67,7.72-7.84,9.59-11.46,5.06-9.93,9.27-1.76,16.39.71,3.45,1.2,3.4,11.92,6.77,13.31,4.27,1.76,7.65-4.49,11.1-5.75,6.72-2.44,7.11,5.88,11.94,8.51,3.18,1.78.38,13.49,3.48,15.43,3.38,2.14,7.05-.94,10.57-.2,4.68,1,5.1,6.01,8.19,8.95,3.34,3.21,8.35,1.58,11.62,4.5,2.72,2.4,7.37,2.98,9.97,5.52,2.55,2.58,7.43,3.38,9.87,6.05,2.42,2.72,6.32,4.74,8.58,7.57,4.57,5.66,10.97,6.39,6.05,14.03-2.26,3.47-11.1,10.35-5.74,14.25,4.1,2.96,12.79-3.56,15.73,1.16,3.05,4.94-7.92,10.5-5.53,15.47,2.8,5.72,14.71-1.8,17.58,3.32,3.14,5.68-11.91,10.73-9.99,16.21,1.21,3.41,5.96,5.39,6.97,8.88,1.01,3.45,13.86,4.07,14.67,7.64.8,3.52-5.83,8.82-5.24,12.38.63,3.56,9.27,6.32,9.67,9.93.4,3.58-7.03,8.15-6.83,11.8.2,3.58-5.81,7.3-5.81,10.95"/><path class="cls-9" d="M1667.37-149.47c0,2.87,2.37,5.23,5.28,5.23s5.24-2.36,5.24-5.23-2.33-5.24-5.24-5.24-5.28,2.36-5.28,5.24M1679.24-175.72c-2.93,0-5.28,2.36-5.28,5.23s2.36,5.23,5.28,5.23,5.24-2.33,5.24-5.23-2.35-5.23-5.24-5.23M1710.13-204.57c0,2.89,2.35,5.25,5.26,5.25s5.29-2.36,5.29-5.25-2.38-5.26-5.29-5.26-5.26,2.36-5.26,5.26M1678.28-83.07c2.91,0,5.26-2.34,5.26-5.23s-2.35-5.23-5.26-5.23-5.26,2.34-5.26,5.23,2.35,5.23,5.26,5.23M1681.1-130.89c-2.91,0-5.26,2.36-5.26,5.23s2.35,5.23,5.26,5.23,5.27-2.34,5.27-5.23-2.35-5.23-5.27-5.23M1707.41-233.87c-2.91,0-5.28,2.36-5.28,5.25s2.38,5.23,5.28,5.23,5.27-2.33,5.27-5.23-2.38-5.25-5.27-5.25M1696.98-213.93c0,2.89,2.32,5.25,5.26,5.25s5.26-2.36,5.26-5.25-2.35-5.23-5.26-5.23-5.26,2.33-5.26,5.23M1691.07-141.04c0-2.91-2.38-5.25-5.29-5.25s-5.24,2.34-5.24,5.25,2.33,5.21,5.24,5.21,5.29-2.34,5.29-5.21M1679.24-64.86c2.89,0,5.24-2.33,5.24-5.23s-2.35-5.24-5.24-5.24-5.28,2.36-5.28,5.24,2.36,5.23,5.28,5.23M1701.3-190.93c2.91,0,5.27-2.34,5.27-5.23s-2.35-5.25-5.27-5.25-5.26,2.36-5.26,5.25,2.33,5.23,5.26,5.23M1682.87-157.4c0,2.87,2.37,5.23,5.28,5.23s5.24-2.36,5.24-5.23-2.33-5.24-5.24-5.24-5.28,2.32-5.28,5.24M1689.93-182.62c0,2.89,2.35,5.25,5.26,5.25s5.28-2.36,5.28-5.25-2.37-5.23-5.28-5.23-5.26,2.34-5.26,5.23M1675.08-104.17c0-2.9-2.33-5.24-5.24-5.24s-5.29,2.34-5.29,5.24,2.38,5.25,5.29,5.25,5.24-2.36,5.24-5.25M1741.82-193.35c0-2.92-2.38-5.25-5.29-5.25s-5.26,2.33-5.26,5.25,2.35,5.21,5.26,5.21,5.29-2.31,5.29-5.21M1745.69-258.85c-2.92,0-5.26,2.36-5.26,5.25s2.34,5.23,5.26,5.23,5.26-2.34,5.26-5.23-2.35-5.25-5.26-5.25M1731.83-181.78c-2.91,0-5.26,2.32-5.26,5.24s2.35,5.23,5.26,5.23,5.29-2.36,5.29-5.23-2.38-5.24-5.29-5.24M1746.38-211.94c2.91,0,5.29-2.34,5.29-5.23s-2.37-5.25-5.29-5.25-5.28,2.36-5.28,5.25,2.37,5.23,5.28,5.23M1730.88-165.9c-2.91,0-5.26,2.34-5.26,5.23s2.35,5.26,5.26,5.26,5.28-2.36,5.28-5.26-2.37-5.23-5.28-5.23M1753.06-173.77c0-2.89-2.35-5.21-5.24-5.21s-5.29,2.32-5.29,5.21,2.38,5.26,5.29,5.26,5.24-2.36,5.24-5.26M1691.92-91.93c2.89,0,5.24-2.36,5.24-5.25s-2.35-5.21-5.24-5.21-5.28,2.32-5.28,5.21,2.35,5.25,5.28,5.25M1702.8-124.72c0-2.87-2.35-5.23-5.26-5.23s-5.26,2.36-5.26,5.23,2.35,5.24,5.26,5.24,5.26-2.36,5.26-5.24M1688.71-109.29c0-2.89-2.35-5.25-5.26-5.25s-5.29,2.36-5.29,5.25,2.38,5.21,5.29,5.21,5.26-2.32,5.26-5.21M1715.97-131.24c0-2.92-2.37-5.26-5.28-5.26s-5.26,2.34-5.26,5.26,2.35,5.21,5.26,5.21,5.28-2.31,5.28-5.21M1720.09-110.14c2.91,0,5.26-2.34,5.26-5.25s-2.35-5.21-5.26-5.21-5.29,2.31-5.29,5.21,2.38,5.25,5.29,5.25M1729.49-122.74c2.91,0,5.27-2.36,5.27-5.25s-2.35-5.23-5.27-5.23-5.28,2.34-5.28,5.23,2.37,5.25,5.28,5.25M1730.88-148.17c-2.91,0-5.26,2.36-5.26,5.24s2.35,5.23,5.26,5.23,5.28-2.33,5.28-5.23-2.37-5.24-5.28-5.24M1768.1-143.86c0-2.89-2.37-5.23-5.28-5.23s-5.24,2.34-5.24,5.23,2.33,5.23,5.24,5.23,5.28-2.34,5.28-5.23M1778.81-250.46c2.91,0,5.27-2.34,5.27-5.23s-2.36-5.26-5.27-5.26-5.26,2.36-5.26,5.26,2.35,5.23,5.26,5.23M1770.72-223.01c0,2.89,2.36,5.23,5.27,5.23s5.26-2.34,5.26-5.23-2.35-5.25-5.26-5.25-5.27,2.36-5.27,5.25M1778.81-234.8c2.91,0,5.27-2.36,5.27-5.25s-2.36-5.24-5.27-5.24-5.26,2.34-5.26,5.24,2.35,5.25,5.26,5.25M1770.81-194.4c-2.88,0-5.26,2.34-5.26,5.24s2.38,5.25,5.26,5.25,5.26-2.36,5.26-5.25-2.33-5.24-5.26-5.24M1758.69-187.77c0-2.87-2.32-5.23-5.24-5.23s-5.29,2.36-5.29,5.23,2.33,5.23,5.29,5.23,5.24-2.34,5.24-5.23M1778-203.86c0,2.9,2.36,5.26,5.27,5.26s5.29-2.36,5.29-5.26-2.38-5.25-5.29-5.25-5.27,2.36-5.27,5.25M1772.81-173.28c0-2.89-2.38-5.25-5.29-5.25s-5.26,2.36-5.26,5.25,2.34,5.21,5.26,5.21,5.29-2.34,5.29-5.21M1785.03-220.2c0,2.89,2.38,5.23,5.29,5.23s5.26-2.34,5.26-5.23-2.34-5.26-5.26-5.26-5.29,2.36-5.29,5.26M1804.27-179.82c0-2.89-2.35-5.23-5.26-5.23s-5.29,2.34-5.29,5.23,2.38,5.25,5.29,5.25,5.26-2.36,5.26-5.25M1794.3-154.97c2.92,0,5.27-2.34,5.27-5.23s-2.35-5.23-5.27-5.23-5.28,2.34-5.28,5.23,2.38,5.23,5.28,5.23M1794.3-229.69c2.92,0,5.27-2.34,5.27-5.23s-2.35-5.23-5.27-5.23-5.28,2.34-5.28,5.23,2.38,5.23,5.28,5.23M1792.9-271.67c-2.93,0-5.27,2.33-5.27,5.23s2.33,5.23,5.27,5.23,5.26-2.34,5.26-5.23-2.35-5.23-5.26-5.23M1795.69-256.49c-2.89,0-5.24,2.31-5.24,5.23s2.34,5.23,5.24,5.23,5.29-2.34,5.29-5.23-2.35-5.23-5.29-5.23M1703.65-115.01c-2.91,0-5.28,2.34-5.28,5.23s2.37,5.26,5.28,5.26,5.26-2.36,5.26-5.26-2.35-5.23-5.26-5.23M1710.68-173.63c2.91,0,5.28-2.36,5.28-5.25s-2.37-5.25-5.28-5.25-5.26,2.36-5.26,5.25,2.35,5.25,5.26,5.25M1715.39-142.82c2.91,0,5.29-2.36,5.29-5.25s-2.38-5.23-5.29-5.23-5.28,2.34-5.28,5.23,2.38,5.25,5.28,5.25M1700.36-148.63c-2.93,0-5.26,2.34-5.26,5.23s2.33,5.23,5.26,5.23,5.27-2.33,5.27-5.23-2.38-5.23-5.27-5.23M1700.83-171.52c-2.91,0-5.28,2.34-5.28,5.23s2.38,5.26,5.28,5.26,5.27-2.36,5.27-5.26-2.35-5.23-5.27-5.23M1743.11-148.43c2.91,0,5.26-2.36,5.26-5.25s-2.35-5.23-5.26-5.23-5.29,2.34-5.29,5.23,2.38,5.25,5.29,5.25M1725.83-191.04c0-2.89-2.36-5.23-5.26-5.23s-5.27,2.34-5.27,5.23,2.33,5.25,5.27,5.25,5.26-2.36,5.26-5.25M1716.8-170.11c-2.91,0-5.26,2.33-5.26,5.25s2.35,5.2,5.26,5.2,5.27-2.33,5.27-5.2-2.35-5.25-5.27-5.25M1713.4-239.35c0,2.89,2.35,5.21,5.26,5.21s5.28-2.32,5.28-5.21-2.37-5.25-5.28-5.25-5.26,2.36-5.26,5.25M1750.26-122.38c0-2.9-2.36-5.25-5.27-5.25s-5.29,2.36-5.29,5.25,2.37,5.23,5.29,5.23,5.27-2.34,5.27-5.23M1699.8-85.49c0,2.89,2.33,5.23,5.24,5.23s5.28-2.33,5.28-5.23-2.37-5.23-5.28-5.23-5.24,2.34-5.24,5.23M1723.36-225.7c-2.91,0-5.26,2.33-5.26,5.25s2.36,5.23,5.26,5.23,5.29-2.36,5.29-5.23-2.35-5.25-5.29-5.25M1740.38-229.33c0-2.9-2.35-5.21-5.26-5.21s-5.27,2.32-5.27,5.21,2.33,5.25,5.27,5.25,5.26-2.36,5.26-5.25M1727.04-209.25c0,2.9,2.35,5.26,5.26,5.26s5.26-2.36,5.26-5.26-2.32-5.23-5.26-5.23-5.26,2.34-5.26,5.23M1797.57-194.89c2.93,0,5.29-2.34,5.29-5.23s-2.35-5.25-5.29-5.25-5.24,2.36-5.24,5.25,2.33,5.23,5.24,5.23M1749.7-144.89c-2.91,0-5.29,2.34-5.29,5.23s2.38,5.24,5.29,5.24,5.26-2.34,5.26-5.24-2.38-5.23-5.26-5.23M1762.93-160.67c0-2.89-2.35-5.25-5.27-5.25s-5.28,2.36-5.28,5.25,2.38,5.23,5.28,5.23,5.27-2.34,5.27-5.23M1749.21-100.34c2.9,0,5.28-2.33,5.28-5.2s-2.38-5.26-5.28-5.26-5.27,2.34-5.27,5.26,2.35,5.2,5.27,5.2M1760.49-118.55c2.91,0,5.26-2.34,5.26-5.23s-2.35-5.23-5.26-5.23-5.29,2.33-5.29,5.23,2.37,5.23,5.29,5.23M1752.11-90.15c0-2.91-2.32-5.26-5.26-5.26s-5.26,2.34-5.26,5.26,2.38,5.21,5.26,5.21,5.26-2.34,5.26-5.21M1769.99-94.38c0-2.89-2.38-5.21-5.29-5.21s-5.26,2.31-5.26,5.21,2.35,5.25,5.26,5.25,5.29-2.36,5.29-5.25M1764.7-113.61c-2.91,0-5.26,2.36-5.26,5.25s2.35,5.21,5.26,5.21,5.29-2.34,5.29-5.21-2.38-5.25-5.29-5.25M1734.29-91.57c0-2.89-2.38-5.23-5.29-5.23s-5.26,2.34-5.26,5.23,2.36,5.25,5.26,5.25,5.29-2.36,5.29-5.25M1715.97-66.82c0-2.89-2.37-5.25-5.28-5.25s-5.26,2.36-5.26,5.25,2.35,5.26,5.26,5.26,5.28-2.36,5.28-5.26M1720.18-98.56c0-2.89-2.35-5.26-5.24-5.26s-5.28,2.36-5.28,5.26,2.35,5.23,5.28,5.23,5.24-2.34,5.24-5.23M1721.97-73.25c2.91,0,5.27-2.33,5.27-5.23s-2.36-5.26-5.27-5.26-5.28,2.36-5.28,5.26,2.38,5.23,5.28,5.23M1737.11-107.91c0-2.89-2.38-5.23-5.29-5.23s-5.26,2.33-5.26,5.23,2.35,5.25,5.26,5.25,5.29-2.36,5.29-5.25M1740.74-80.93c-2.91,0-5.24,2.36-5.24,5.25s2.33,5.21,5.24,5.21,5.29-2.31,5.29-5.21-2.35-5.25-5.29-5.25M1737.83-52.35c0,2.9,2.38,5.26,5.29,5.26s5.26-2.36,5.26-5.26-2.35-5.23-5.26-5.23-5.29,2.34-5.29,5.23M1760.02-217.31c2.89,0,5.27-2.33,5.27-5.25s-2.38-5.21-5.27-5.21-5.26,2.31-5.26,5.21,2.32,5.25,5.26,5.25M1800.4-95.89c2.91,0,5.28-2.36,5.28-5.25s-2.38-5.23-5.28-5.23-5.26,2.33-5.26,5.23,2.38,5.25,5.26,5.25M1774.57-126.48c2.91,0,5.27-2.36,5.27-5.26s-2.36-5.23-5.27-5.23-5.26,2.34-5.26,5.23,2.33,5.26,5.26,5.26M1821.18-102.53c0-2.91-2.38-5.25-5.29-5.25s-5.24,2.34-5.24,5.25,2.33,5.21,5.24,5.21,5.29-2.34,5.29-5.21M1814.28-123.18c-2.9,0-5.28,2.34-5.28,5.25s2.38,5.21,5.28,5.21,5.24-2.34,5.24-5.21-2.33-5.25-5.24-5.25M1802.86-84.31c0-2.92-2.35-5.25-5.29-5.25s-5.24,2.34-5.24,5.25,2.35,5.21,5.24,5.21,5.29-2.32,5.29-5.21M1811.68-128.35c2.91,0,5.26-2.36,5.26-5.25s-2.35-5.21-5.26-5.21-5.26,2.32-5.26,5.21,2.35,5.25,5.26,5.25M1783.26-97.07c2.91,0,5.29-2.34,5.29-5.23s-2.38-5.23-5.29-5.23-5.27,2.33-5.27,5.23,2.36,5.23,5.27,5.23M1785.48-116.33c0-2.87-2.38-5.2-5.29-5.2s-5.24,2.33-5.24,5.2,2.35,5.26,5.24,5.26,5.29-2.34,5.29-5.26M1799.24-111.78c2.9,0,5.28-2.34,5.28-5.25s-2.38-5.21-5.28-5.21-5.27,2.34-5.27,5.21,2.35,5.25,5.27,5.25M1794.78-125.54c2.88,0,5.26-2.36,5.26-5.26s-2.38-5.2-5.26-5.2-5.26,2.31-5.26,5.2,2.33,5.26,5.26,5.26M1790.63-143.86c0-2.89-2.33-5.23-5.26-5.23s-5.27,2.34-5.27,5.23,2.38,5.23,5.27,5.23,5.26-2.34,5.26-5.23M1810.38-147.59c0-2.91-2.37-5.25-5.29-5.25s-5.26,2.34-5.26,5.25,2.35,5.21,5.26,5.21,5.29-2.34,5.29-5.21M1700.34-274.7c-2.91,0-5.27,2.32-5.27,5.21s2.35,5.25,5.27,5.25,5.28-2.36,5.28-5.25-2.38-5.21-5.28-5.21M1686.72-197c2.94,0,5.29-2.36,5.29-5.24s-2.35-5.23-5.29-5.23-5.24,2.36-5.24,5.23,2.33,5.24,5.24,5.24M1710.82-276.7c0,2.89,2.35,5.23,5.26,5.23s5.27-2.34,5.27-5.23-2.35-5.26-5.27-5.26-5.26,2.36-5.26,5.26M1710.22-261.88c-2.91,0-5.26,2.36-5.26,5.26s2.35,5.21,5.26,5.21,5.26-2.31,5.26-5.21-2.33-5.26-5.26-5.26M1684.98-232.82c0,2.89,2.37,5.23,5.28,5.23s5.28-2.34,5.28-5.23-2.37-5.23-5.28-5.23-5.28,2.34-5.28,5.23M1681.48-219.04c0,2.89,2.33,5.25,5.24,5.25s5.29-2.36,5.29-5.25-2.38-5.26-5.29-5.26-5.24,2.36-5.24,5.26M1693.44-245.43c0,2.89,2.35,5.23,5.27,5.23s5.26-2.34,5.26-5.23-2.35-5.23-5.26-5.23-5.27,2.33-5.27,5.23M1750.36-290.37c-2.91,0-5.26,2.36-5.26,5.25s2.35,5.25,5.26,5.25,5.29-2.36,5.29-5.25-2.38-5.25-5.29-5.25M1747.32-242.02c-2.91,0-5.26,2.31-5.26,5.21s2.35,5.26,5.26,5.26,5.28-2.34,5.28-5.26-2.37-5.21-5.28-5.21M1750.64-208.4c-2.93,0-5.28,2.34-5.28,5.23s2.35,5.23,5.28,5.23,5.24-2.34,5.24-5.23-2.35-5.23-5.24-5.23M1730.16-253.47c-2.91,0-5.26,2.34-5.26,5.23s2.35,5.23,5.26,5.23,5.29-2.33,5.29-5.23-2.38-5.23-5.29-5.23M1724.3-269.09c-2.92,0-5.26,2.32-5.26,5.21s2.35,5.25,5.26,5.25,5.28-2.36,5.28-5.25-2.37-5.21-5.28-5.21M1740.05-274.97c-2.91,0-5.26,2.36-5.26,5.26s2.35,5.23,5.26,5.23,5.26-2.34,5.26-5.23-2.35-5.26-5.26-5.26M1671.72-238.3c-2.93,0-5.28,2.34-5.28,5.23s2.35,5.25,5.28,5.25,5.24-2.36,5.24-5.25-2.35-5.23-5.24-5.23M1682.27-48.96c2.91,0,5.26-2.36,5.26-5.24s-2.35-5.25-5.26-5.25-5.26,2.34-5.26,5.25,2.35,5.24,5.26,5.24M1671.94-32.17c2.91,0,5.27-2.32,5.27-5.24s-2.35-5.23-5.27-5.23-5.26,2.36-5.26,5.23,2.35,5.24,5.26,5.24M1666.3-47.58c2.91,0,5.28-2.34,5.28-5.21s-2.37-5.25-5.28-5.25-5.26,2.34-5.26,5.25,2.35,5.21,5.26,5.21M1663.72-80.71c2.89,0,5.27-2.36,5.27-5.25s-2.38-5.23-5.27-5.23-5.26,2.33-5.26,5.23,2.33,5.25,5.26,5.25M1697.54-55.03c2.91,0,5.26-2.34,5.26-5.24s-2.35-5.25-5.26-5.25-5.26,2.36-5.26,5.25,2.35,5.24,5.26,5.24M1692.37-71.85c2.91,0,5.28-2.36,5.28-5.23s-2.38-5.26-5.28-5.26-5.27,2.34-5.27,5.26,2.35,5.23,5.27,5.23M1673.02-186.37c0,2.9,2.35,5.25,5.26,5.25s5.26-2.36,5.26-5.25-2.35-5.25-5.26-5.25-5.26,2.36-5.26,5.25M1705.04-41.03c2.91,0,5.28-2.34,5.28-5.24s-2.37-5.23-5.28-5.23-5.24,2.34-5.24,5.23,2.33,5.24,5.24,5.24M1664.55-217.66c0,2.89,2.35,5.25,5.29,5.25s5.24-2.36,5.24-5.25-2.33-5.21-5.24-5.21-5.29,2.31-5.29,5.21M1665.13-168.24c-2.91,0-5.28,2.36-5.28,5.23s2.37,5.23,5.28,5.23,5.27-2.36,5.27-5.23-2.35-5.23-5.27-5.23M1665.13-130.22c2.91,0,5.27-2.36,5.27-5.25s-2.35-5.21-5.27-5.21-5.28,2.31-5.28,5.21,2.37,5.25,5.28,5.25M1676.51-201.77c0-2.89-2.38-5.25-5.28-5.25s-5.26,2.36-5.26,5.25,2.35,5.23,5.26,5.23,5.28-2.34,5.28-5.23M1810.74-196.96c-2.91,0-5.26,2.36-5.26,5.23s2.35,5.23,5.26,5.23,5.29-2.33,5.29-5.23-2.37-5.23-5.29-5.23M1874.63-216.15c2.91,0,5.27-2.33,5.27-5.21s-2.36-5.25-5.27-5.25-5.26,2.33-5.26,5.25,2.33,5.21,5.26,5.21M1761.88-294.61c2.91,0,5.29-2.36,5.29-5.21s-2.38-5.26-5.29-5.26-5.26,2.34-5.26,5.26,2.35,5.21,5.26,5.21M1758.39-278c-2.93,0-5.29,2.36-5.29,5.25s2.35,5.21,5.29,5.21,5.24-2.32,5.24-5.21-2.33-5.25-5.24-5.25M1875.57-243.67c-2.94,0-5.26,2.36-5.26,5.25s2.33,5.21,5.26,5.21,5.26-2.32,5.26-5.21-2.37-5.25-5.26-5.25M1890.13-212.41c1.54,0,2.93-.69,3.92-1.74-1.32-3.03-5.29-4.99-6.57-7.99-1.57.91-2.61,2.56-2.61,4.49,0,2.87,2.35,5.23,5.26,5.23M1875.96-184.72c0,2.89,2.33,5.25,5.23,5.25s5.29-2.36,5.29-5.25-2.38-5.26-5.29-5.26-5.23,2.36-5.23,5.26M1664.42-260.94c-2.91,0-5.26,2.34-5.26,5.23s2.35,5.23,5.26,5.23,5.27-2.34,5.27-5.23-2.35-5.23-5.27-5.23M1661.37-304.4c2.91,0,5.26-2.36,5.26-5.26s-2.35-5.23-5.26-5.23-5.28,2.34-5.28,5.23,2.37,5.26,5.28,5.26M1541.12-118.55c2.91,0,5.28-2.34,5.28-5.23s-2.38-5.23-5.28-5.23-5.27,2.32-5.27,5.23,2.35,5.23,5.27,5.23M1565.08-80.48c2.91,0,5.26-2.36,5.26-5.25s-2.36-5.21-5.26-5.21-5.26,2.32-5.26,5.21,2.35,5.25,5.26,5.25M1548.87-81.66c2.91,0,5.28-2.34,5.28-5.24s-2.38-5.25-5.28-5.25-5.26,2.36-5.26,5.25,2.35,5.24,5.26,5.24M1540.62-228.17c2.73,1.05,5.78-.31,6.81-2.98,1.08-2.71-.29-5.74-3-6.77-2.71-1.07-5.78.27-6.81,2.98-1.08,2.7.31,5.72,3,6.77M1660.66-288.28c2.91,0,5.28-2.36,5.28-5.25s-2.37-5.23-5.28-5.23-5.26,2.33-5.26,5.23,2.35,5.25,5.26,5.25M1588.46-172.34c0,2.87,2.35,5.21,5.28,5.21s5.26-2.34,5.26-5.21-2.38-5.25-5.26-5.25-5.28,2.34-5.28,5.25M1564.13-194.05c-2.71-1.05-5.75.31-6.81,3.01-1.03,2.72.32,5.72,3.02,6.77,2.71,1.02,5.76-.31,6.83-3.01,1.03-2.7-.31-5.72-3.05-6.77M1605.01-235.03c-2.94,0-5.27,2.36-5.27,5.25s2.33,5.23,5.27,5.23,5.26-2.33,5.26-5.23-2.35-5.25-5.26-5.25M1887.3-195.14c2.92,0,5.27-2.33,5.27-5.21s-2.35-5.25-5.27-5.25-5.26,2.33-5.26,5.25,2.36,5.21,5.26,5.21M1609.33-196.65c0-2.89-2.37-5.21-5.26-5.21s-5.26,2.32-5.26,5.21,2.33,5.25,5.26,5.25,5.26-2.34,5.26-5.25M1573.16-102.53c0-2.91-2.35-5.25-5.26-5.25s-5.28,2.34-5.28,5.25,2.37,5.21,5.28,5.21,5.26-2.34,5.26-5.21M1596.92-213.93c0,2.89,2.33,5.25,5.26,5.25s5.27-2.36,5.27-5.25-2.35-5.23-5.27-5.23-5.26,2.33-5.26,5.23M1606.42-174.57c2.91,0,5.27-2.36,5.27-5.25s-2.35-5.25-5.27-5.25-5.28,2.36-5.28,5.25,2.38,5.25,5.28,5.25M1623.88-95.76c0-2.9-2.37-5.26-5.26-5.26s-5.27,2.36-5.27,5.26,2.35,5.23,5.27,5.23,5.26-2.34,5.26-5.23M1879.9-169.53c0-2.89-2.38-5.26-5.27-5.26s-5.26,2.36-5.26,5.26,2.33,5.21,5.26,5.21,5.27-2.32,5.27-5.21M1613.92-85.11c-2.89,0-5.26,2.31-5.26,5.21s2.38,5.26,5.26,5.26,5.26-2.34,5.26-5.26-2.36-5.21-5.26-5.21M1582.46-82.13c2.91,0,5.28-2.34,5.28-5.23s-2.37-5.23-5.28-5.23-5.29,2.36-5.29,5.23,2.37,5.23,5.29,5.23M1579.63-127.41c2.91,0,5.29-2.36,5.29-5.24s-2.37-5.25-5.29-5.25-5.26,2.34-5.26,5.25,2.35,5.24,5.26,5.24M1560.15-169.09c-1.03,2.69.31,5.72,3.02,6.77,2.71,1.03,5.75-.31,6.81-3.01,1.05-2.7-.29-5.72-3.03-6.77-2.71-1.05-5.75.29-6.81,3.01M1843.88-30.48c-.85-.62-1.9-1-3.04-1-2.93,0-5.29,2.34-5.29,5.23s2.36,5.23,5.29,5.23c.85,0,1.66-.22,2.35-.58-1.36-3.78-2.48-7.33-1.32-8.49.4-.4,1.12-.48,2.01-.4M1598.26-9.51c-.83,0-1.61.22-2.28.53.81,1.6,1.65,3.16,3,4.1,1.23.89,1.72,2.87,2.08,5.03,1.48-.93,2.48-2.54,2.48-4.41,0-2.89-2.37-5.25-5.29-5.25M1646.41,5.74c-2.91,0-5.26,2.33-5.26,5.23,0,1.33.51,2.54,1.32,3.45,2.33-.82,4.71-1.8,6.56-1.14.47.13.78.67,1.05,1.45.99-.95,1.61-2.29,1.61-3.76,0-2.9-2.37-5.23-5.29-5.23M1693.51,6.81c-2.94,0-5.27,2.34-5.27,5.23s2.33,5.25,5.27,5.25,5.26-2.36,5.26-5.25-2.35-5.23-5.26-5.23M1570.7-39.61c-2.4,0-4.37,1.61-5.02,3.74,1.17.16,2.13.44,2.71,1.11,1.25,1.38,1.65,3.52,2.12,5.61.07,0,.11.02.18.02,2.93,0,5.26-2.34,5.26-5.23s-2.33-5.26-5.26-5.26M1549.36-75.32c-2.93,0-5.28,2.34-5.28,5.24s2.35,5.23,5.28,5.23,5.24-2.36,5.24-5.23-2.33-5.24-5.24-5.24M1545.62-254.04c.58.89,1.45,1.65,2.53,2.05,2.71,1.04,5.78-.29,6.81-2.99,1.05-2.71-.31-5.74-3-6.77-2.74-1.06-5.78.29-6.83,2.98-.47,1.2-.42,2.5-.02,3.61.18.4.36.76.52,1.11M1748.8,15.69c-2.91,0-5.28,2.32-5.28,5.21,0,1.85.97,3.45,2.4,4.38,1.97-1.8,3.79-4.23,6.07-4.74.71-.18,1.34-.4,1.99-.6-.47-2.43-2.6-4.26-5.17-4.26M1807.32-8.44c-2.93,0-5.29,2.36-5.29,5.23s2.35,5.23,5.29,5.23,5.26-2.31,5.26-5.23-2.37-5.23-5.26-5.23M1595.22-189.17c0-2.9-2.33-5.24-5.24-5.24s-5.29,2.34-5.29,5.24,2.35,5.25,5.29,5.25,5.24-2.36,5.24-5.25M1885.18-88.56c0,2.11,1.25,3.94,3.09,4.74.74-.94,1.44-1.89,1.88-2.98.78-1.89-.18-4.4-.94-6.83-2.31.55-4.03,2.6-4.03,5.08M1582.1-288.15c0-2.67-2.02-4.86-4.59-5.19-.07.07-.16.11-.25.2-2.24,2.22-1.75,6.55-3.22,9.39.8.49,1.75.8,2.78.8,2.91,0,5.28-2.32,5.28-5.21M1787.68,4.69c-2.91,0-5.27,2.33-5.27,5.23s2.35,5.23,5.27,5.23c.53,0,1-.09,1.48-.22.42-3.52.81-7.12,2.48-7.92.11-.05.25-.05.36-.09-.96-1.33-2.53-2.22-4.32-2.22M1823.71-16.41c2.94,0,5.26-2.36,5.26-5.24s-2.33-5.23-5.26-5.23-5.26,2.33-5.26,5.23,2.35,5.24,5.26,5.24M1770.57,4.34c-2.91,0-5.29,2.34-5.29,5.21s2.37,5.25,5.29,5.25,5.24-2.36,5.24-5.25-2.33-5.21-5.24-5.21M1830.25-298.34c2.89,0,5.27-2.32,5.27-5.21s-2.38-5.25-5.27-5.25-5.26,2.36-5.26,5.25,2.33,5.21,5.26,5.21M1875.1-249.99c2.92,0,5.26-2.36,5.26-5.25,0-1.16-.4-2.23-1.05-3.12-2.92.09-6.23.42-8.56.18-.58.83-.94,1.85-.94,2.94,0,2.9,2.38,5.25,5.29,5.25M1810.41-298.21c0,2.89,2.35,5.25,5.26,5.25s5.29-2.36,5.29-5.25-2.38-5.21-5.29-5.21-5.26,2.32-5.26,5.21M1883.57-119.93c2.92,0,5.26-2.36,5.26-5.26s-2.35-5.23-5.26-5.23-5.28,2.34-5.28,5.23,2.35,5.26,5.28,5.26M1807.23-308.14c2.91,0,5.26-2.36,5.26-5.25s-2.35-5.21-5.26-5.21-5.29,2.32-5.29,5.21,2.38,5.25,5.29,5.25M1832.28-49.05c2.89,0,5.26-2.34,5.26-5.21s-2.37-5.25-5.26-5.25-5.29,2.36-5.29,5.25,2.38,5.21,5.29,5.21M1691.67-342c2.89,0,5.26-2.34,5.26-5.23s-2.37-5.26-5.26-5.26-5.27,2.36-5.27,5.26,2.33,5.23,5.27,5.23M1669.59-333.83c2.91,0,5.26-2.34,5.26-5.25,0-1.56-.72-2.94-1.79-3.92-1.21,1.38-2.42,2.63-3.9,2.94-1.59.36-3.18.36-4.79.36,0,.2-.05.4-.05.63,0,2.91,2.35,5.25,5.27,5.25M1733.48-339.66c2.89,0,5.26-2.36,5.26-5.23,0-1.98-1.12-3.67-2.75-4.56-1.7,2.32-3.36,4.14-4.72,4.01-.83-.09-1.57-.94-2.31-2.13-.45.8-.76,1.69-.76,2.69,0,2.87,2.38,5.23,5.29,5.23M1761.88-318.18c2.91,0,5.29-2.34,5.29-5.23s-2.38-5.25-5.29-5.25-5.26,2.36-5.26,5.25,2.35,5.23,5.26,5.23M1773.16-328c2.91,0,5.27-2.33,5.27-5.21s-2.36-5.26-5.27-5.26-5.29,2.34-5.29,5.26,2.37,5.21,5.29,5.21M1748.98-329.87c2.91,0,5.26-2.34,5.26-5.23,0-1.98-1.11-3.67-2.75-4.56h-.09c-.23-.05-.41-.18-.58-.32-.58-.22-1.21-.35-1.84-.35-2.91,0-5.29,2.33-5.29,5.23s2.38,5.23,5.29,5.23M1810.74-174.79c-2.91,0-5.26,2.36-5.26,5.26s2.35,5.21,5.26,5.21,5.29-2.32,5.29-5.21-2.37-5.26-5.29-5.26M1810.03-223.36c2.91,0,5.29-2.36,5.29-5.25s-2.38-5.23-5.29-5.23-5.26,2.34-5.26,5.23,2.34,5.25,5.26,5.25M1630.38-51.99c2.91,0,5.27-2.36,5.27-5.25s-2.35-5.25-5.27-5.25-5.28,2.36-5.28,5.25,2.35,5.25,5.28,5.25M1659.13-151.81c0-2.89-2.37-5.23-5.28-5.23s-5.26,2.33-5.26,5.23,2.35,5.26,5.26,5.26,5.28-2.36,5.28-5.26M1811.21-239.04c2.92,0,5.26-2.34,5.26-5.23s-2.35-5.23-5.26-5.23-5.26,2.36-5.26,5.23,2.32,5.23,5.26,5.23M1826.62-193.13c0,2.9,2.35,5.25,5.26,5.25s5.29-2.36,5.29-5.25-2.38-5.23-5.29-5.23-5.26,2.34-5.26,5.23M1800.53-214.15c0,2.89,2.38,5.23,5.29,5.23s5.26-2.34,5.26-5.23-2.35-5.23-5.26-5.23-5.29,2.33-5.29,5.23M1828.61-239.22c-2.95,0-5.29,2.34-5.29,5.23s2.33,5.23,5.29,5.23,5.24-2.36,5.24-5.23-2.35-5.23-5.24-5.23M1643.15-104.17c0-2.9-2.35-5.26-5.27-5.26s-5.26,2.36-5.26,5.26,2.35,5.25,5.26,5.25,5.27-2.36,5.27-5.25M1632.26-94.02c-2.91,0-5.28,2.36-5.28,5.25s2.37,5.26,5.28,5.26,5.26-2.36,5.26-5.26-2.35-5.25-5.26-5.25M1646.32-62.99c2.91,0,5.28-2.34,5.28-5.23s-2.37-5.23-5.28-5.23-5.24,2.34-5.24,5.23,2.33,5.23,5.24,5.23M1647.76-90.73c-2.91,0-5.29,2.34-5.29,5.23s2.38,5.23,5.29,5.23,5.26-2.33,5.26-5.23-2.35-5.23-5.26-5.23M1649.15-141.64c-2.91,0-5.27,2.34-5.27,5.23s2.35,5.26,5.27,5.26,5.28-2.36,5.28-5.26-2.38-5.23-5.28-5.23M1647.76-124.83c-2.91,0-5.29,2.36-5.29,5.26s2.38,5.2,5.29,5.2,5.26-2.32,5.26-5.2-2.35-5.26-5.26-5.26M1663.72-114.37c2.89,0,5.27-2.32,5.27-5.2s-2.38-5.26-5.27-5.26-5.26,2.36-5.26,5.26,2.33,5.2,5.26,5.2M1789.71-185.87c0-2.92-2.35-5.25-5.28-5.25s-5.27,2.34-5.27,5.25,2.38,5.23,5.27,5.23,5.28-2.33,5.28-5.23M1813.48-156c0,2.89,2.35,5.21,5.26,5.21s5.26-2.31,5.26-5.21-2.37-5.26-5.26-5.26-5.26,2.36-5.26,5.26M1859.11-169.67c2.93,0,5.29-2.36,5.29-5.26s-2.35-5.23-5.29-5.23-5.26,2.34-5.26,5.23,2.35,5.26,5.26,5.26M1825.79-135.83c2.91,0,5.24-2.34,5.24-5.21s-2.33-5.25-5.24-5.25-5.29,2.34-5.29,5.25,2.35,5.21,5.29,5.21M1775.04-148.43c2.91,0,5.29-2.36,5.29-5.25s-2.37-5.23-5.29-5.23-5.26,2.34-5.26,5.23,2.35,5.25,5.26,5.25M1776.84-169.53c0,2.89,2.33,5.21,5.24,5.21s5.29-2.32,5.29-5.21-2.37-5.26-5.29-5.26-5.24,2.36-5.24,5.26M1821.54-185.99c-2.91,0-5.24,2.33-5.24,5.23s2.33,5.23,5.24,5.23,5.29-2.34,5.29-5.23-2.38-5.23-5.29-5.23M1855.85-137.23c2.91,0,5.26-2.33,5.26-5.23s-2.35-5.25-5.26-5.25-5.29,2.36-5.29,5.25,2.38,5.23,5.29,5.23M1831.16-171.98c-2.88,0-5.26,2.36-5.26,5.25s2.38,5.24,5.26,5.24,5.29-2.34,5.29-5.24-2.38-5.25-5.29-5.25M1855.48-161.14c0-2.89-2.37-5.23-5.28-5.23s-5.29,2.34-5.29,5.23,2.38,5.23,5.29,5.23,5.28-2.36,5.28-5.23M1591.86-230.93c-2.71-1.05-5.75.31-6.81,2.98-1.05,2.72.32,5.75,3.02,6.79,2.71,1.05,5.75-.29,6.81-3.01,1.05-2.71-.29-5.74-3.02-6.77M1843.17-127.41c2.91,0,5.24-2.36,5.24-5.24s-2.33-5.25-5.24-5.25-5.29,2.34-5.29,5.25,2.38,5.24,5.29,5.24M1841.29-172.47c2.91,0,5.26-2.36,5.26-5.25s-2.35-5.24-5.26-5.24-5.29,2.34-5.29,5.24,2.38,5.25,5.29,5.25M1609.71-136.77c2.89,0,5.26-2.36,5.26-5.25s-2.37-5.21-5.26-5.21-5.28,2.34-5.28,5.21,2.35,5.25,5.28,5.25M1597.95-126.03c2.91,0,5.29-2.31,5.29-5.21s-2.38-5.26-5.29-5.26-5.27,2.34-5.27,5.26,2.35,5.21,5.27,5.21M1605.12-156.49c0-2.89-2.38-5.23-5.29-5.23s-5.26,2.34-5.26,5.23,2.35,5.25,5.26,5.25,5.29-2.36,5.29-5.25M1618.73-165.35c0-2.89-2.38-5.25-5.28-5.25s-5.27,2.36-5.27,5.25,2.35,5.23,5.27,5.23,5.28-2.34,5.28-5.23M1624.26-157.04c-2.94,0-5.26,2.33-5.26,5.23s2.32,5.26,5.26,5.26,5.26-2.36,5.26-5.26-2.35-5.23-5.26-5.23M1634.14-119.02c2.91,0,5.24-2.34,5.24-5.23s-2.33-5.25-5.24-5.25-5.28,2.36-5.28,5.25,2.38,5.23,5.28,5.23M1575.9-203.86c-2.71-1.02-5.76.31-6.83,3.01-1.03,2.7.31,5.74,3.04,6.79,2.71,1.02,5.76-.31,6.81-3.03,1.04-2.67-.31-5.72-3.02-6.77M1577.29-184.14c-2.91,0-5.27,2.36-5.27,5.25s2.35,5.25,5.27,5.25,5.26-2.36,5.26-5.25-2.36-5.25-5.26-5.25M1576.23-161.14c0,2.87,2.37,5.23,5.28,5.23s5.28-2.36,5.28-5.23-2.37-5.23-5.28-5.23-5.28,2.34-5.28,5.23M1589.98-139.57c2.91,0,5.26-2.34,5.26-5.23s-2.35-5.23-5.26-5.23-5.29,2.32-5.29,5.23,2.38,5.23,5.29,5.23M1583.17-209.25c-1.05,2.7.31,5.74,3.02,6.77,2.71,1.02,5.76-.31,6.83-3.03,1.03-2.67-.34-5.7-3.04-6.77-2.71-1.02-5.78.31-6.81,3.02M1576.45-149.45c0-2.9-2.38-5.26-5.28-5.26s-5.24,2.36-5.24,5.26,2.33,5.21,5.24,5.21,5.28-2.36,5.28-5.21M1635.08-148.63c-2.91,0-5.28,2.34-5.28,5.23s2.38,5.23,5.28,5.23,5.26-2.33,5.26-5.23-2.35-5.23-5.26-5.23M1635.06-211.01c2.91,0,5.26-2.34,5.26-5.23s-2.35-5.25-5.26-5.25-5.26,2.36-5.26,5.25,2.33,5.23,5.26,5.23M1619.56-204.22c-2.93,0-5.26,2.36-5.26,5.25s2.33,5.23,5.26,5.23,5.26-2.33,5.26-5.23-2.35-5.25-5.26-5.25M1624.26-190.2c-2.94,0-5.26,2.34-5.26,5.23s2.32,5.23,5.26,5.23,5.26-2.32,5.26-5.23-2.35-5.23-5.26-5.23M1618.15-221.49c-2.91,0-5.29,2.36-5.29,5.25s2.37,5.23,5.29,5.23,5.28-2.34,5.28-5.23-2.37-5.25-5.28-5.25M1620.97-127.41c2.91,0,5.27-2.36,5.27-5.24s-2.35-5.25-5.27-5.25-5.29,2.34-5.29,5.25,2.38,5.24,5.29,5.24M1629.06-109.78c0-2.89-2.35-5.23-5.27-5.23s-5.28,2.34-5.28,5.23,2.37,5.26,5.28,5.26,5.27-2.36,5.27-5.26M1625.57-171.4c0,2.89,2.35,5.21,5.26,5.21s5.28-2.32,5.28-5.21-2.35-5.25-5.28-5.25-5.26,2.33-5.26,5.25M1630.83-78.12c-2.91,0-5.26,2.36-5.26,5.26s2.35,5.22,5.26,5.22,5.28-2.33,5.28-5.22-2.35-5.26-5.28-5.26M1640.71-191.62c-2.91,0-5.27,2.36-5.27,5.25s2.35,5.25,5.27,5.25,5.26-2.36,5.26-5.25-2.35-5.25-5.26-5.25M1651.02-168.06c2.91,0,5.29-2.34,5.29-5.21s-2.38-5.25-5.29-5.25-5.26,2.36-5.26,5.25,2.35,5.21,5.26,5.21M1636.47-205.15c-2.91,0-5.26,2.36-5.26,5.25s2.35,5.25,5.26,5.25,5.26-2.36,5.26-5.25-2.35-5.25-5.26-5.25M1645.96-160.21c0-2.89-2.35-5.23-5.26-5.23s-5.27,2.34-5.27,5.23,2.35,5.23,5.27,5.23,5.26-2.36,5.26-5.23M1631.21-231.42c0,2.89,2.35,5.23,5.26,5.23s5.26-2.34,5.26-5.23-2.35-5.23-5.26-5.23-5.26,2.34-5.26,5.23M1535-95.18c-2.89,0-5.27,2.36-5.27,5.25s2.38,5.24,5.27,5.24,5.28-2.34,5.28-5.24-2.35-5.25-5.28-5.25M1880.03-142.35c2.91,0,5.26-2.36,5.26-5.23s-2.35-5.25-5.26-5.25-5.29,2.34-5.29,5.25,2.38,5.23,5.29,5.23M1870.63-117.82c-2.92,0-5.27,2.34-5.27,5.23s2.35,5.26,5.27,5.26,5.29-2.36,5.29-5.26-2.38-5.23-5.29-5.23M1861.89-62.85c2.91,0,5.24-2.36,5.24-5.25s-2.33-5.21-5.24-5.21-5.29,2.32-5.29,5.21,2.38,5.25,5.29,5.25M1894.43-144.98c-1.81.82-3.07,2.63-3.07,4.74,0,2.42,1.68,4.45,3.94,5.03-.04-1.6-.09-3.21.11-4.9.2-1.64-.36-3.24-.98-4.87M1881.19-106.13c-2.9,0-5.23,2.31-5.23,5.21s2.33,5.25,5.23,5.25,5.29-2.31,5.29-5.25-2.38-5.21-5.29-5.21M1893.98-162.32c0-2.87-2.35-5.21-5.26-5.21s-5.29,2.34-5.29,5.21,2.37,5.25,5.29,5.25,5.26-2.36,5.26-5.25M1874.75-90.86c0-2.89-2.37-5.26-5.29-5.26s-5.29,2.36-5.29,5.26,2.38,5.23,5.29,5.23,5.29-2.34,5.29-5.23M1813.57-80.48c2.9,0,5.26-2.36,5.26-5.25s-2.36-5.21-5.26-5.21-5.29,2.32-5.29,5.21,2.38,5.25,5.29,5.25M1824.74-123.79c0,2.9,2.35,5.23,5.26,5.23s5.28-2.34,5.28-5.23-2.38-5.23-5.28-5.23-5.26,2.33-5.26,5.23M1858.93-46.11c0-2.9-2.33-5.25-5.24-5.25s-5.28,2.36-5.28,5.25,2.35,5.23,5.28,5.23,5.24-2.34,5.24-5.23M1828.61-69.89c0-2.87-2.34-5.21-5.24-5.21s-5.29,2.34-5.29,5.21,2.38,5.25,5.29,5.25,5.24-2.36,5.24-5.25M1852.89-60.29c0-2.89-2.37-5.23-5.26-5.23s-5.29,2.34-5.29,5.23,2.35,5.23,5.29,5.23,5.26-2.34,5.26-5.23M1843.62-74.11c0-2.9-2.38-5.26-5.29-5.26s-5.26,2.36-5.26,5.26,2.35,5.23,5.26,5.23,5.29-2.33,5.29-5.23M1797.57-322.39c2.92,0,5.29-2.36,5.29-5.23s-2.37-5.25-5.29-5.25-5.24,2.36-5.24,5.25,2.33,5.23,5.24,5.23M1733.35-323.41c0,2.89,2.37,5.23,5.29,5.23s5.28-2.34,5.28-5.23-2.37-5.25-5.28-5.25-5.29,2.36-5.29,5.25M1724.79-328.22c2.91,0,5.24-2.36,5.24-5.25s-2.33-5.21-5.24-5.21-5.28,2.32-5.28,5.21,2.37,5.25,5.28,5.25M1768.46-290.59c-2.91,0-5.28,2.33-5.28,5.23s2.38,5.23,5.28,5.23,5.29-2.33,5.29-5.23-2.37-5.23-5.29-5.23M1709.03-336.64c2.93,0,5.29-2.36,5.29-5.23s-2.35-5.23-5.29-5.23-5.24,2.34-5.24,5.23,2.35,5.23,5.24,5.23M1702.22-322.61c2.91,0,5.29-2.36,5.29-5.25s-2.38-5.23-5.29-5.23-5.26,2.33-5.26,5.23,2.35,5.25,5.26,5.25M1784.18-315.4c2.91,0,5.29-2.33,5.29-5.21s-2.37-5.25-5.29-5.25-5.24,2.34-5.24,5.25,2.33,5.21,5.24,5.21M1851.97-274.15c0,2.89,2.36,5.23,5.27,5.23s5.29-2.34,5.29-5.23-2.37-5.23-5.29-5.23-5.27,2.32-5.27,5.23M1890.76-182.09c0,2.89,2.35,5.25,5.26,5.25s5.26-2.36,5.26-5.25-2.35-5.21-5.26-5.21-5.26,2.34-5.26,5.21M1871.81-199.81c2.89,0,5.26-2.33,5.26-5.23s-2.37-5.23-5.26-5.23-5.26,2.36-5.26,5.23,2.33,5.23,5.26,5.23M1851.59-285.72c2.93,0,5.29-2.34,5.29-5.23s-2.35-5.26-5.29-5.26-5.24,2.36-5.24,5.26,2.36,5.23,5.24,5.23M1818.4-282.54c0,2.89,2.33,5.21,5.26,5.21s5.27-2.32,5.27-5.21-2.38-5.25-5.27-5.25-5.26,2.36-5.26,5.25M1831.8-287.93c0,2.89,2.35,5.23,5.26,5.23s5.26-2.34,5.26-5.23-2.38-5.23-5.26-5.23-5.26,2.33-5.26,5.23M1805.88-13.21c2.89,0,5.27-2.36,5.27-5.26s-2.38-5.23-5.27-5.23-5.26,2.34-5.26,5.23,2.33,5.26,5.26,5.26M1781.18-70.93c0-2.89-2.35-5.23-5.27-5.23s-5.26,2.33-5.26,5.23,2.33,5.23,5.26,5.23,5.27-2.36,5.27-5.23M1722.06-33.2c0-2.89-2.35-5.23-5.27-5.23s-5.26,2.34-5.26,5.23,2.35,5.25,5.26,5.25,5.27-2.36,5.27-5.25M1735.68-41.59c0-2.9-2.33-5.26-5.24-5.26s-5.28,2.36-5.28,5.26,2.35,5.23,5.28,5.23,5.24-2.36,5.24-5.23M1724.41-53.73c0-2.89-2.35-5.25-5.26-5.25s-5.27,2.36-5.27,5.25,2.36,5.21,5.27,5.21,5.26-2.34,5.26-5.21M1727.75-18.19c2.91,0,5.29-2.34,5.29-5.23s-2.38-5.23-5.29-5.23-5.26,2.36-5.26,5.23,2.36,5.23,5.26,5.23M1737.56-64.48c0-2.89-2.32-5.23-5.26-5.23s-5.26,2.34-5.26,5.23,2.35,5.23,5.26,5.23,5.26-2.33,5.26-5.23M1741.32-9.31c2.92,0,5.26-2.34,5.26-5.23s-2.34-5.25-5.26-5.25-5.28,2.36-5.28,5.25,2.35,5.23,5.28,5.23M1809.35-34.76c0-2.89-2.36-5.25-5.26-5.25s-5.27,2.36-5.27,5.25,2.35,5.23,5.27,5.23,5.26-2.34,5.26-5.23M1679.24-19.08c2.89,0,5.24-2.34,5.24-5.26s-2.35-5.21-5.24-5.21-5.28,2.34-5.28,5.21,2.36,5.26,5.28,5.26M1689.1-35.2c2.91,0,5.26-2.34,5.26-5.23s-2.35-5.23-5.26-5.23-5.28,2.34-5.28,5.23,2.37,5.23,5.28,5.23M1669.26-4.7c2.91,0,5.28-2.34,5.28-5.23s-2.38-5.23-5.28-5.23-5.29,2.33-5.29,5.23,2.38,5.23,5.29,5.23M1709.21-10.71c2.91,0,5.28-2.36,5.28-5.25s-2.37-5.26-5.28-5.26-5.28,2.36-5.28,5.26,2.37,5.25,5.28,5.25M1699.42-22.33c2.91,0,5.26-2.36,5.26-5.26s-2.35-5.23-5.26-5.23-5.27,2.34-5.27,5.23,2.36,5.26,5.27,5.26M1696.29-11.71c0-2.87-2.35-5.24-5.27-5.24s-5.28,2.36-5.28,5.24,2.37,5.23,5.28,5.23,5.27-2.32,5.27-5.23M1748.71-33.33c0-2.9-2.35-5.25-5.26-5.25s-5.27,2.36-5.27,5.25,2.35,5.23,5.27,5.23,5.26-2.34,5.26-5.23M1791.62-63.21c2.91,0,5.26-2.36,5.26-5.26s-2.35-5.23-5.26-5.23-5.29,2.34-5.29,5.23,2.35,5.26,5.29,5.26M1786.9-86.9c0-2.89-2.35-5.25-5.27-5.25s-5.28,2.36-5.28,5.25,2.38,5.25,5.28,5.25,5.27-2.36,5.27-5.25M1686.05-329.4c2.89,0,5.24-2.33,5.24-5.23s-2.35-5.21-5.24-5.21-5.28,2.32-5.28,5.21,2.35,5.23,5.28,5.23M1773.05-26.52c-2.91,0-5.26,2.34-5.26,5.23s2.35,5.23,5.26,5.23,5.27-2.34,5.27-5.23-2.33-5.23-5.27-5.23M1789.11-24.05c-2.91,0-5.28,2.34-5.28,5.23s2.37,5.26,5.28,5.26,5.27-2.36,5.27-5.26-2.36-5.23-5.27-5.23M1804.36-51.43c0-2.91-2.35-5.25-5.26-5.25s-5.29,2.34-5.29,5.25,2.38,5.23,5.29,5.23,5.26-2.36,5.26-5.23M1754.85-60.18c2.91,0,5.28-2.32,5.28-5.24s-2.37-5.23-5.28-5.23-5.27,2.34-5.27,5.23,2.35,5.24,5.27,5.24M1757.35-49.23c-2.91,0-5.24,2.34-5.24,5.26s2.33,5.21,5.24,5.21,5.29-2.32,5.29-5.21-2.37-5.26-5.29-5.26M1753.08,2.2c-2.91,0-5.26,2.36-5.26,5.26s2.35,5.2,5.26,5.2,5.27-2.34,5.27-5.2-2.35-5.26-5.27-5.26M1774.06-56.75c0-2.9-2.38-5.26-5.29-5.26s-5.29,2.36-5.29,5.26,2.37,5.23,5.29,5.23,5.29-2.33,5.29-5.23M1771.64-43.57c-2.91,0-5.29,2.36-5.29,5.25s2.38,5.25,5.29,5.25,5.27-2.36,5.27-5.25-2.36-5.25-5.27-5.25M1767.16-78.95c0-2.92-2.38-5.23-5.26-5.23s-5.27,2.31-5.27,5.23,2.33,5.23,5.27,5.23,5.26-2.36,5.26-5.23M1636.43-8.44c-2.91,0-5.27,2.36-5.27,5.23s2.35,5.23,5.27,5.23,5.29-2.31,5.29-5.23-2.37-5.23-5.29-5.23M1729.09-7.46c0-2.89-2.35-5.26-5.27-5.26s-5.26,2.36-5.26,5.26,2.37,5.25,5.26,5.25,5.27-2.36,5.27-5.25M1716.69,3.63c-2.91,0-5.26,2.34-5.26,5.23s2.35,5.23,5.26,5.23,5.28-2.34,5.28-5.23-2.37-5.23-5.28-5.23M1731.33,9.99c-2.91,0-5.29,2.36-5.29,5.25s2.38,5.23,5.29,5.23,5.24-2.33,5.24-5.23-2.33-5.25-5.24-5.25M1709.21,16.38c-2.91,0-5.28,2.34-5.28,5.23s2.37,5.26,5.28,5.26,5.28-2.36,5.28-5.26-2.37-5.23-5.28-5.23M1737.38-4.19c-2.91,0-5.29,2.34-5.29,5.24s2.37,5.25,5.29,5.25,5.28-2.34,5.28-5.25-2.37-5.24-5.28-5.24M1756.28-13.74c-2.91,0-5.26,2.32-5.26,5.21s2.35,5.25,5.26,5.25,5.29-2.36,5.29-5.25-2.38-5.21-5.29-5.21M1706.99-1.78c0-2.89-2.37-5.23-5.26-5.23s-5.29,2.34-5.29,5.23,2.36,5.23,5.29,5.23,5.26-2.34,5.26-5.23M1659.27-4.53c-2.91,0-5.28,2.34-5.28,5.21s2.37,5.25,5.28,5.25,5.26-2.36,5.26-5.25-2.35-5.21-5.26-5.21M1653.38-32.17c2.94,0,5.26-2.32,5.26-5.24s-2.32-5.23-5.26-5.23-5.26,2.36-5.26,5.23,2.37,5.24,5.26,5.24M1757.35-31.48c-2.91,0-5.24,2.34-5.24,5.23s2.33,5.25,5.24,5.25,5.29-2.36,5.29-5.25-2.37-5.23-5.29-5.23M1648.2-16.95c-2.91,0-5.27,2.36-5.27,5.24s2.35,5.23,5.27,5.23,5.26-2.32,5.26-5.23-2.35-5.24-5.26-5.24M1670.33,7.52c-2.91,0-5.28,2.34-5.28,5.23s2.37,5.25,5.28,5.25,5.27-2.36,5.27-5.25-2.35-5.23-5.27-5.23M1680.32-4.53c-2.91,0-5.28,2.34-5.28,5.21s2.37,5.25,5.28,5.25,5.26-2.36,5.26-5.25-2.35-5.21-5.26-5.21M1660.7-18.17c2.9,0,5.26-2.34,5.26-5.24s-2.36-5.25-5.26-5.25-5.29,2.36-5.29,5.25,2.38,5.24,5.29,5.24M1856.88-36.8c-2.92,0-5.24,2.34-5.24,5.21,0,1.69.78,3.16,1.99,4.09,1.2.45,2.37.85,3.45,1.16,2.8-.11,5.08-2.4,5.08-5.25s-2.38-5.21-5.29-5.21M1867.94-59.16c-2.91,0-5.26,2.34-5.26,5.26s2.35,5.21,5.26,5.21,5.28-2.32,5.28-5.21-2.37-5.26-5.28-5.26M1841.83-39.74c0-2.89-2.38-5.21-5.29-5.21s-5.24,2.32-5.24,5.21,2.33,5.25,5.24,5.25,5.29-2.36,5.29-5.25M1890.78-113.83c0,2.91,2.38,5.25,5.29,5.25.71,0,1.39-.13,2.01-.4.67-2.8,1.1-5.7,1.7-8.52-.94-.96-2.26-1.54-3.72-1.54-2.91,0-5.29,2.32-5.29,5.21M1877.21-83.62c-2.91,0-5.24,2.34-5.24,5.23s2.33,5.25,5.24,5.25,5.28-2.36,5.28-5.25-2.36-5.23-5.28-5.23M1681.08-315.15c2.94,0,5.29-2.34,5.29-5.23s-2.35-5.23-5.29-5.23-5.24,2.34-5.24,5.23,2.33,5.23,5.24,5.23M1789.02-52.5c0-2.89-2.36-5.23-5.26-5.23s-5.27,2.34-5.27,5.23,2.35,5.23,5.27,5.23,5.26-2.34,5.26-5.23M1824.69-35.83c0-2.89-2.35-5.25-5.26-5.25s-5.29,2.36-5.29,5.25,2.38,5.23,5.29,5.23,5.26-2.34,5.26-5.23M1786.96-30.59c2.92,0,5.29-2.34,5.29-5.23s-2.37-5.25-5.29-5.25-5.26,2.36-5.26,5.25,2.35,5.23,5.26,5.23M1773.05-10.22c-2.91,0-5.26,2.36-5.26,5.25s2.35,5.23,5.26,5.23,5.27-2.33,5.27-5.23-2.33-5.25-5.27-5.25M1788.75-8.8c-2.91,0-5.29,2.36-5.29,5.24s2.38,5.23,5.29,5.23,5.26-2.34,5.26-5.23-2.35-5.24-5.26-5.24M1815.18-46.55c2.88,0,5.24-2.34,5.24-5.24s-2.35-5.23-5.24-5.23-5.29,2.32-5.29,5.23,2.36,5.24,5.29,5.24M1824.43-11.65c-2.26,0-4.14,1.43-4.91,3.39,2.28-1.36,6.58.04,9.81-.05-.78-1.93-2.69-3.34-4.9-3.34M1629.19-322.39c2.91,0,5.26-2.36,5.26-5.23s-2.35-5.25-5.26-5.25-5.26,2.36-5.26,5.25,2.36,5.23,5.26,5.23M1627.56-307.92c2.91,0,5.26-2.33,5.26-5.23s-2.36-5.23-5.26-5.23-5.29,2.34-5.29,5.23,2.38,5.23,5.29,5.23M1625.57-281.16c0,2.89,2.35,5.23,5.26,5.23s5.28-2.34,5.28-5.23-2.37-5.25-5.28-5.25-5.26,2.36-5.26,5.25M1633.29-297.74c0-2.89-2.38-5.23-5.27-5.23s-5.26,2.34-5.26,5.23,2.33,5.23,5.26,5.23,5.27-2.33,5.27-5.23M1612.87-266.22c0,2.89,2.37,5.23,5.29,5.23s5.28-2.34,5.28-5.23-2.37-5.23-5.28-5.23-5.29,2.36-5.29,5.23M1607.94-281.16c0,2.89,2.38,5.23,5.29,5.23s5.26-2.34,5.26-5.23-2.35-5.25-5.26-5.25-5.29,2.36-5.29,5.25M1644.69-306.76c2.94,0,5.27-2.31,5.27-5.21s-2.33-5.26-5.27-5.26-5.26,2.34-5.26,5.26,2.37,5.21,5.26,5.21M1651.16-241.71c0,2.89,2.38,5.25,5.28,5.25s5.26-2.36,5.26-5.25-2.35-5.24-5.26-5.24-5.28,2.34-5.28,5.24M1660.66-270.07c2.91,0,5.28-2.36,5.28-5.25s-2.37-5.23-5.28-5.23-5.26,2.34-5.26,5.23,2.35,5.25,5.26,5.25M1608.99-306.76c2.91,0,5.27-2.31,5.27-5.21s-2.36-5.26-5.27-5.26-5.26,2.36-5.26,5.26,2.35,5.21,5.26,5.21M1663.26-319.58c2.91,0,5.26-2.34,5.26-5.25s-2.35-5.23-5.26-5.23-5.29,2.34-5.29,5.23,2.38,5.25,5.29,5.25M1643.88-261.07c0,2.89,2.35,5.23,5.27,5.23s5.28-2.34,5.28-5.23-2.38-5.26-5.28-5.26-5.27,2.36-5.27,5.26M1646.32-322.39c2.91,0,5.28-2.36,5.28-5.23s-2.37-5.25-5.28-5.25-5.24,2.36-5.24,5.25,2.33,5.23,5.24,5.23M1611.21-26.21c0-2.87-2.35-5.21-5.26-5.21s-5.27,2.34-5.27,5.21,2.33,5.25,5.27,5.25,5.26-2.34,5.26-5.25M1590.07-37.16c0-2.89-2.35-5.25-5.26-5.25s-5.26,2.36-5.26,5.25,2.33,5.25,5.26,5.25,5.26-2.36,5.26-5.25M1590.79-25.09c-1.57,0-2.94.67-3.9,1.71,2.4,2.2,2.82,6.23,5.02,8.61,2.38-.49,4.14-2.58,4.14-5.12,0-2.89-2.35-5.21-5.26-5.21M1593.25-288.06c2.91,0,5.29-2.36,5.29-5.25s-2.38-5.23-5.29-5.23-5.24,2.34-5.24,5.23,2.33,5.25,5.24,5.25M1570.09-68.68c0-2.9-2.33-5.26-5.24-5.26s-5.28,2.36-5.28,5.26,2.37,5.25,5.28,5.25,5.24-2.36,5.24-5.25M1613.6-15.16c-2.93,0-5.26,2.31-5.26,5.21s2.33,5.26,5.26,5.26,5.26-2.34,5.26-5.26-2.38-5.21-5.26-5.21M1622.88.78c-2.93,0-5.26,2.36-5.26,5.25s2.33,5.23,5.26,5.23,5.26-2.34,5.26-5.23-2.35-5.25-5.26-5.25M1572-51.41c0-2.89-2.35-5.25-5.26-5.25s-5.28,2.36-5.28,5.25,2.37,5.26,5.28,5.26,5.26-2.36,5.26-5.26M1565.55-262.86c2.91,0,5.26-2.32,5.26-5.23s-2.35-5.23-5.26-5.23-5.26,2.36-5.26,5.23,2.35,5.23,5.26,5.23M1566.26-255.49c-1.05,2.69.29,5.72,3.03,6.79,2.71,1.02,5.78-.31,6.81-3.03,1.05-2.69-.31-5.72-3-6.77-2.74-1.02-5.78.31-6.83,3.01M1551.82-243.8c0,2.89,2.37,5.23,5.28,5.23s5.26-2.34,5.26-5.23-2.35-5.23-5.26-5.23-5.28,2.33-5.28,5.23M1556.61-116.22c2.91,0,5.28-2.34,5.28-5.23s-2.38-5.25-5.28-5.25-5.26,2.36-5.26,5.25,2.35,5.23,5.26,5.23M1551.46-109.18c-2.91,0-5.28,2.34-5.28,5.23s2.37,5.25,5.28,5.25,5.26-2.36,5.26-5.25-2.35-5.23-5.26-5.23M1806.93-63.57c2.92,0,5.29-2.36,5.29-5.23s-2.37-5.26-5.29-5.26-5.26,2.34-5.26,5.26,2.35,5.23,5.26,5.23M1761.43-262.1c-2.91,0-5.29,2.34-5.29,5.21s2.37,5.25,5.29,5.25,5.26-2.33,5.26-5.25-2.35-5.21-5.26-5.21M1763.08-245.07c-2.95,0-5.28,2.34-5.28,5.23s2.33,5.25,5.28,5.25,5.24-2.36,5.24-5.25-2.37-5.23-5.24-5.23M1762.26-205.51c0,2.89,2.34,5.25,5.26,5.25s5.29-2.36,5.29-5.25-2.38-5.25-5.29-5.25-5.26,2.36-5.26,5.25M1750.36-317.45c-2.91,0-5.26,2.34-5.26,5.23s2.35,5.23,5.26,5.23,5.29-2.33,5.29-5.23-2.38-5.23-5.29-5.23M1726.54-282.1c0,2.9,2.37,5.26,5.29,5.26s5.24-2.36,5.24-5.26-2.33-5.23-5.24-5.23-5.29,2.34-5.29,5.23M1740.29-303.2c-2.91,0-5.29,2.32-5.29,5.21s2.38,5.25,5.29,5.25,5.26-2.34,5.26-5.25-2.35-5.21-5.26-5.21M1781.16-302.04c-2.93,0-5.26,2.36-5.26,5.25s2.33,5.21,5.26,5.21,5.27-2.34,5.27-5.21-2.38-5.25-5.27-5.25M1788.66-287.55c-2.92,0-5.26,2.34-5.26,5.23s2.35,5.23,5.26,5.23,5.28-2.34,5.28-5.23-2.37-5.23-5.28-5.23M1663.72-63.92c2.89,0,5.27-2.34,5.27-5.23s-2.38-5.23-5.27-5.23-5.26,2.36-5.26,5.23,2.33,5.23,5.26,5.23M1802.99-297.83c-2.91,0-5.28,2.34-5.28,5.23s2.37,5.25,5.28,5.25,5.29-2.36,5.29-5.25-2.37-5.23-5.29-5.23M1773.16-315.58c-2.92,0-5.26,2.34-5.26,5.23s2.34,5.24,5.26,5.24,5.29-2.34,5.29-5.24-2.38-5.23-5.29-5.23M1728.78-315.58c-2.91,0-5.29,2.34-5.29,5.23s2.38,5.24,5.29,5.24,5.27-2.34,5.27-5.24-2.36-5.23-5.27-5.23M1809.33-282.18c-2.91,0-5.26,2.36-5.26,5.23s2.35,5.23,5.26,5.23,5.27-2.34,5.27-5.23-2.33-5.23-5.27-5.23M1769.07-271.34c0,2.87,2.35,5.23,5.26,5.23s5.28-2.36,5.28-5.23-2.37-5.23-5.28-5.23-5.26,2.34-5.26,5.23M1716.46-294.92c0,2.9,2.33,5.23,5.26,5.23s5.26-2.34,5.26-5.23-2.35-5.25-5.26-5.25-5.26,2.36-5.26,5.25M1676.15-309.99c-2.91,0-5.26,2.34-5.26,5.26s2.35,5.23,5.26,5.23,5.28-2.36,5.28-5.23-2.37-5.26-5.28-5.26M1673.71-247.07c0,2.89,2.35,5.23,5.26,5.23s5.29-2.34,5.29-5.23-2.38-5.24-5.29-5.24-5.26,2.34-5.26,5.24M1687.19-252.8c2.91,0,5.27-2.36,5.27-5.25s-2.35-5.21-5.27-5.21-5.26,2.31-5.26,5.21,2.36,5.25,5.26,5.25M1674.54-263.08c2.86,0,5.24-2.36,5.24-5.25s-2.38-5.21-5.24-5.21-5.28,2.32-5.28,5.21,2.35,5.25,5.28,5.25M1658.46-183.56c0,2.89,2.33,5.25,5.26,5.25s5.27-2.36,5.27-5.25-2.38-5.26-5.27-5.26-5.26,2.36-5.26,5.26M1669.26-287.93c0,2.89,2.35,5.23,5.28,5.23s5.24-2.34,5.24-5.23-2.38-5.25-5.24-5.25-5.28,2.36-5.28,5.25M1708.58-309.99c-2.91,0-5.29,2.34-5.29,5.26s2.37,5.23,5.29,5.23,5.26-2.36,5.26-5.23-2.35-5.26-5.26-5.26M1683.34-279.29c0,2.89,2.35,5.23,5.26,5.23s5.29-2.34,5.29-5.23-2.37-5.25-5.29-5.25-5.26,2.36-5.26,5.25M1699.53-287.71c0,2.9,2.37,5.26,5.28,5.26s5.26-2.36,5.26-5.26-2.35-5.2-5.26-5.2-5.28,2.32-5.28,5.2M1710.82-320.38c0,2.89,2.37,5.23,5.26,5.23s5.29-2.34,5.29-5.23-2.38-5.23-5.29-5.23-5.26,2.34-5.26,5.23M1686.63-297.95c0,2.87,2.35,5.21,5.28,5.21s5.24-2.34,5.24-5.21-2.35-5.25-5.24-5.25-5.28,2.34-5.28,5.25M1695.9-318.38c-2.91,0-5.28,2.34-5.28,5.23s2.37,5.23,5.28,5.23,5.24-2.33,5.24-5.23-2.33-5.23-5.24-5.23M1848.19-93.89c0-2.89-2.35-5.25-5.26-5.25s-5.27,2.36-5.27,5.25,2.36,5.21,5.27,5.21,5.26-2.34,5.26-5.21M1870.51-155.06c0-2.89-2.35-5.26-5.29-5.26s-5.26,2.36-5.26,5.26,2.35,5.23,5.26,5.23,5.29-2.34,5.29-5.23M1870.18-128.84c2.9,0,5.24-2.31,5.24-5.21s-2.33-5.25-5.24-5.25-5.29,2.36-5.29,5.25,2.38,5.21,5.29,5.21M1858.42-128.08c-2.91,0-5.26,2.33-5.26,5.23s2.35,5.23,5.26,5.23,5.27-2.36,5.27-5.23-2.36-5.23-5.27-5.23M1861.24-243.44c-2.91,0-5.26,2.36-5.26,5.25s2.35,5.23,5.26,5.23,5.26-2.34,5.26-5.23-2.37-5.25-5.26-5.25M1858.19-108.22c-2.93,0-5.28,2.32-5.28,5.21s2.35,5.26,5.28,5.26,5.27-2.36,5.27-5.26-2.35-5.21-5.27-5.21M1866.17-194.16c-2.91,0-5.26,2.34-5.26,5.23s2.35,5.23,5.26,5.23,5.26-2.36,5.26-5.23-2.33-5.23-5.26-5.23M1844.2-150.17c0-2.89-2.37-5.25-5.26-5.25s-5.26,2.36-5.26,5.25,2.33,5.23,5.26,5.23,5.26-2.33,5.26-5.23M1835.73-106.98c0-2.89-2.35-5.23-5.24-5.23s-5.28,2.34-5.28,5.23,2.35,5.26,5.28,5.26,5.24-2.36,5.24-5.26M1854.57-255.47c0,2.89,2.35,5.25,5.26,5.25s5.27-2.36,5.27-5.25-2.35-5.23-5.27-5.23-5.26,2.34-5.26,5.23M1828.35-83.29c2.93,0,5.28-2.36,5.28-5.26s-2.35-5.21-5.28-5.21-5.24,2.33-5.24,5.21,2.35,5.26,5.24,5.26M1843.86-118.73c-2.93,0-5.28,2.31-5.28,5.21s2.35,5.26,5.28,5.26,5.27-2.36,5.27-5.26-2.38-5.21-5.27-5.21M1655.73-202.35c-2.91,0-5.27,2.36-5.27,5.25s2.35,5.23,5.27,5.23,5.28-2.34,5.28-5.23-2.38-5.25-5.28-5.25M1853.69-75.63c2.92,0,5.24-2.36,5.24-5.23s-2.33-5.24-5.24-5.24-5.28,2.32-5.28,5.24,2.35,5.23,5.28,5.23M1836.23-270.87c0,2.89,2.37,5.23,5.29,5.23s5.26-2.34,5.26-5.23-2.35-5.25-5.26-5.25-5.29,2.36-5.29,5.25M1859.83-227.77c-2.91,0-5.26,2.31-5.26,5.21s2.35,5.25,5.26,5.25,5.29-2.33,5.29-5.25-2.38-5.21-5.29-5.21M1827.41-271.9c-2.89,0-5.24,2.32-5.24,5.21s2.35,5.26,5.24,5.26,5.28-2.36,5.28-5.26-2.35-5.21-5.28-5.21M1811.21-266.31c-2.93,0-5.26,2.34-5.26,5.23s2.32,5.25,5.26,5.25,5.26-2.36,5.26-5.25-2.35-5.23-5.26-5.23M1833.43-207.38c0,2.89,2.35,5.25,5.26,5.25s5.28-2.36,5.28-5.25-2.37-5.21-5.28-5.21-5.26,2.32-5.26,5.21M1819.1-219.76c0,2.9,2.34,5.25,5.28,5.25s5.26-2.36,5.26-5.25-2.37-5.23-5.26-5.23-5.28,2.34-5.28,5.23M1812.99-204.35c0,2.89,2.37,5.25,5.28,5.25s5.26-2.36,5.26-5.25-2.37-5.21-5.26-5.21-5.28,2.34-5.28,5.21M1829.06-256.27c-2.91,0-5.29,2.34-5.29,5.23s2.38,5.23,5.29,5.23,5.29-2.34,5.29-5.23-2.38-5.23-5.29-5.23M1850.34-205.73c0,2.89,2.35,5.25,5.29,5.25s5.24-2.36,5.24-5.25-2.35-5.26-5.24-5.26-5.29,2.36-5.29,5.26M1844.91-191.73c0,2.89,2.38,5.23,5.29,5.23s5.28-2.33,5.28-5.23-2.37-5.23-5.28-5.23-5.29,2.32-5.29,5.23M1843.17-216.38c2.91,0,5.24-2.36,5.24-5.25s-2.33-5.21-5.24-5.21-5.29,2.34-5.29,5.21,2.38,5.25,5.29,5.25M1844.56-233.43c2.91,0,5.29-2.34,5.29-5.23s-2.38-5.23-5.29-5.23-5.26,2.32-5.26,5.23,2.35,5.23,5.26,5.23M1844.56-248.83c2.91,0,5.29-2.34,5.29-5.23s-2.38-5.23-5.29-5.23-5.26,2.34-5.26,5.23,2.35,5.23,5.26,5.23M1794.53-300.91c2.92,0,5.29-2.33,5.29-5.23s-2.38-5.25-5.29-5.25-5.26,2.36-5.26,5.25,2.35,5.23,5.26,5.23M1587.96-54.21c0-2.89-2.37-5.23-5.28-5.23s-5.24,2.34-5.24,5.23,2.33,5.25,5.24,5.25,5.28-2.36,5.28-5.25M1585.86-70.08c0-2.89-2.37-5.24-5.28-5.24s-5.26,2.34-5.26,5.24,2.35,5.23,5.26,5.23,5.28-2.36,5.28-5.23M1590.54-102.77c0-2.89-2.35-5.26-5.27-5.26s-5.28,2.36-5.28,5.26,2.38,5.23,5.28,5.23,5.27-2.36,5.27-5.23M1599.36-84.94c2.91,0,5.27-2.34,5.27-5.23s-2.35-5.24-5.27-5.24-5.26,2.34-5.26,5.24,2.36,5.23,5.26,5.23M1596.16-117.26c0-2.89-2.33-5.2-5.24-5.2s-5.29,2.32-5.29,5.2,2.38,5.26,5.29,5.26,5.24-2.36,5.24-5.26M1596.57-68.82c2.89,0,5.24-2.36,5.24-5.24s-2.35-5.23-5.24-5.23-5.29,2.34-5.29,5.23,2.38,5.24,5.29,5.24M1577.4-118.64c0-2.89-2.38-5.26-5.29-5.26s-5.26,2.36-5.26,5.26,2.35,5.23,5.26,5.23,5.29-2.34,5.29-5.23M1536.41-204.35c2.71,1.02,5.76-.31,6.81-2.98,1.05-2.72-.31-5.74-3.02-6.79-2.71-1.05-5.76.31-6.81,3.01-1.05,2.71.29,5.72,3.02,6.77M1527.26-151.77c1.05-2.71-.32-5.74-3.02-6.79-2.74-1.05-5.78.29-6.81,3.01-1.05,2.69.31,5.72,3,6.77,2.73,1.02,5.78-.29,6.83-2.98M1526.07-190.33c2.71,1.02,5.78-.31,6.8-3.03,1.03-2.7-.31-5.75-3-6.77-2.73-1.02-5.78.31-6.81,3.01-1.08,2.69.27,5.72,3,6.79M1536.66-113.14c-2.48,0-4.54,1.71-5.11,3.98-.02.13-.02.27-.06.4-.05.27-.09.56-.09.85,0,2.9,2.35,5.25,5.26,5.25s5.26-2.36,5.26-5.25-2.35-5.23-5.26-5.23M1555.23-150.3c2.91,0,5.26-2.34,5.26-5.25s-2.35-5.21-5.26-5.21-5.29,2.32-5.29,5.21,2.38,5.25,5.29,5.25M1553.21-140.81c0-2.92-2.37-5.26-5.28-5.26s-5.27,2.34-5.27,5.26,2.35,5.21,5.27,5.21,5.28-2.34,5.28-5.21M1562.75-130.22c2.89,0,5.24-2.36,5.24-5.25s-2.35-5.21-5.24-5.21-5.28,2.31-5.28,5.21,2.35,5.25,5.28,5.25M1635.08-36.14c2.91,0,5.26-2.36,5.26-5.23s-2.35-5.24-5.26-5.24-5.28,2.36-5.28,5.24,2.38,5.23,5.28,5.23M1626.44-22.98c-2.91,0-5.26,2.33-5.26,5.23s2.35,5.25,5.26,5.25,5.28-2.36,5.28-5.25-2.37-5.23-5.28-5.23M1640.37-20.29c2.9,0,5.26-2.36,5.26-5.25s-2.36-5.25-5.26-5.25-5.29,2.36-5.29,5.25,2.38,5.25,5.29,5.25M1659.13-101.86c0-2.87-2.37-5.2-5.28-5.2s-5.26,2.33-5.26,5.2,2.35,5.26,5.26,5.26,5.28-2.34,5.28-5.26M1597.73-52.25c2.91,0,5.28-2.31,5.28-5.23s-2.38-5.23-5.28-5.23-5.29,2.33-5.29,5.23,2.38,5.23,5.29,5.23M1649.39-47.58c2.91,0,5.26-2.34,5.26-5.21s-2.35-5.25-5.26-5.25-5.26,2.34-5.26,5.25,2.35,5.21,5.26,5.21M1620.28-27.72c2.89,0,5.26-2.36,5.26-5.25s-2.38-5.21-5.26-5.21-5.26,2.34-5.26,5.21,2.33,5.25,5.26,5.25M1608.39-104.17c0-2.9-2.35-5.26-5.26-5.26s-5.27,2.36-5.27,5.26,2.35,5.25,5.27,5.25,5.26-2.36,5.26-5.25M1600.77-36.36c2.91,0,5.29-2.36,5.29-5.25s-2.38-5.23-5.29-5.23-5.29,2.36-5.29,5.23,2.37,5.25,5.29,5.25M1616.38-118.64c0-2.89-2.35-5.26-5.26-5.26s-5.28,2.36-5.28,5.26,2.37,5.23,5.28,5.23,5.26-2.34,5.26-5.23M1613.92-59.25c2.93,0,5.28-2.33,5.28-5.23s-2.35-5.23-5.28-5.23-5.26,2.31-5.26,5.23,2.38,5.23,5.26,5.23M1614.88-43.37c2.91,0,5.24-2.34,5.24-5.23s-2.33-5.23-5.24-5.23-5.29,2.34-5.29,5.23,2.37,5.23,5.29,5.23M1590.69-245.67c-1.07,2.7.32,5.73,3.02,6.77,2.71,1.03,5.76-.31,6.81-2.98,1.05-2.71-.31-5.74-3.02-6.81-2.73-1.02-5.78.31-6.81,3.02M1615.46-232.58c0,2.9,2.38,5.23,5.28,5.23s5.24-2.34,5.24-5.23-2.33-5.25-5.24-5.25-5.28,2.36-5.28,5.25M1611.1-253.71c-2.91,0-5.26,2.34-5.26,5.23s2.35,5.25,5.26,5.25,5.26-2.36,5.26-5.25-2.32-5.23-5.26-5.23M1605.61-296.56c0,2.89,2.35,5.23,5.27,5.23s5.26-2.34,5.26-5.23-2.35-5.25-5.26-5.25-5.27,2.36-5.27,5.25M1550.97-227.1c-2.91,0-5.24,2.36-5.24,5.25s2.33,5.23,5.24,5.23,5.29-2.33,5.29-5.23-2.38-5.25-5.29-5.25M1592.69-278.35c0,2.89,2.35,5.21,5.27,5.21s5.29-2.32,5.29-5.21-2.38-5.25-5.29-5.25-5.27,2.36-5.27,5.25M1652.46-217.29c-2.93,0-5.28,2.34-5.28,5.23s2.35,5.25,5.28,5.25,5.24-2.36,5.24-5.25-2.33-5.23-5.24-5.23M1589.04-264.11c-2.71-1.02-5.76.31-6.81,3.03-1.03,2.67.31,5.72,3.03,6.77,2.71,1.02,5.75-.31,6.81-3.01,1.05-2.7-.29-5.72-3.02-6.79M1625.9-253.71c-2.91,0-5.26,2.34-5.26,5.23s2.35,5.25,5.26,5.25,5.28-2.36,5.28-5.25-2.37-5.23-5.28-5.23M1641.64-252.31c-2.94,0-5.26,2.34-5.26,5.24s2.33,5.23,5.26,5.23,5.26-2.34,5.26-5.23-2.35-5.24-5.26-5.24M1646.71-226.75c0,2.87,2.35,5.23,5.26,5.23s5.29-2.36,5.29-5.23-2.37-5.26-5.29-5.26-5.26,2.36-5.26,5.26M1646.57-284.99c-2.91,0-5.26,2.32-5.26,5.21s2.35,5.26,5.26,5.26,5.26-2.34,5.26-5.26-2.35-5.21-5.26-5.21M1630.02-265.04c0,2.9,2.38,5.21,5.28,5.21s5.24-2.31,5.24-5.21-2.33-5.25-5.24-5.25-5.28,2.36-5.28,5.25M1650.67-296.56c0-2.89-2.37-5.25-5.29-5.25s-5.26,2.36-5.26,5.25,2.35,5.23,5.26,5.23,5.29-2.34,5.29-5.23M1601.94-269.14c-2.91,0-5.26,2.36-5.26,5.25s2.35,5.23,5.26,5.23,5.28-2.34,5.28-5.23-2.37-5.25-5.28-5.25M1533.48-129.64c0-2.89-2.35-5.21-5.27-5.21s-5.28,2.31-5.28,5.21,2.37,5.26,5.28,5.26,5.27-2.34,5.27-5.26M1541.14-190.78c-2.71-1.04-5.78.32-6.83,2.99-1.03,2.71.31,5.74,3.04,6.78,2.69,1.05,5.76-.29,6.81-3,1.03-2.72-.31-5.74-3.02-6.77M1532.65-141.77c2.71,1.05,5.78-.29,6.81-3,1.05-2.69-.31-5.75-3.02-6.77-2.71-1.05-5.76.31-6.81,2.98-1.05,2.71.29,5.75,3.02,6.79M1549.58-193.73c2.91,0,5.27-2.33,5.27-5.23s-2.35-5.25-5.27-5.25-5.28,2.36-5.28,5.25,2.38,5.23,5.28,5.23M1577.08-275.57c-1.07,2.69.29,5.72,3,6.79,2.71,1.02,5.78-.32,6.81-3.03,1.08-2.67-.29-5.72-3-6.77-2.73-1.02-5.78.31-6.81,3.01M1543.96-166.95c-2.71-1.07-5.75.29-6.81,2.98-1.05,2.71.29,5.74,3.02,6.77,2.69,1.07,5.73-.29,6.81-2.99,1.03-2.71-.31-5.74-3.03-6.77M1556.26-176.57c0-2.9-2.38-5.21-5.29-5.21s-5.24,2.32-5.24,5.21,2.33,5.25,5.24,5.25,5.29-2.36,5.29-5.25M1570.5-220.92c-1.05,2.67.32,5.7,3,6.77,2.74,1.02,5.78-.31,6.83-3.03,1.05-2.69-.31-5.7-3.03-6.77-2.73-1.02-5.78.32-6.8,3.03M1574.71-240.06c-1.03,2.67.31,5.72,3.05,6.77,2.69,1.02,5.76-.32,6.81-3.03,1.03-2.67-.32-5.7-3.03-6.77-2.71-1.02-5.78.31-6.83,3.03M1567.9-237.01c-2.71-1.05-5.75.29-6.81,3.01-1.03,2.69.31,5.74,3.02,6.77,2.71,1.04,5.75-.31,6.81-2.98,1.05-2.72-.29-5.74-3.02-6.79M1533.34-168.6c1.05-2.69-.29-5.75-3.02-6.77-2.71-1.06-5.76.32-6.81,3.01-1.03,2.7.31,5.72,3.02,6.79,2.71,1.02,5.75-.31,6.81-3.03M1556.39-210.65c-1.03,2.69.32,5.72,3.02,6.77,2.71,1.04,5.78-.29,6.83-3.01,1.03-2.7-.31-5.74-3.05-6.77-2.68-1.05-5.75.31-6.81,3.01"/></g></g></g><rect class="cls-7" x="-.19" y="234.85" width="1966" height="199" transform="translate(1965.62 668.7) rotate(-180)"/><polygon class="cls-5" points="599.13 234.63 599.49 234.63 1483.13 234.63 1383.36 334.4 1482.86 433.9 599.76 433.9 598.86 433.9 499.36 334.4 599.13 234.63"/><rect class="cls-7" width="1966" height="199"/><polygon class="cls-5" points="1406.68 -.22 1406.32 -.22 522.68 -.22 622.45 99.55 522.95 199.05 1406.05 199.05 1406.95 199.05 1506.45 99.55 1406.68 -.22"/><rect class="cls-4" x="1132.1" y="26.99" width="98.08" height="133.24"/><path class="cls-9" d="M1151.09,59.48h39.48c6.58,0,11.63,1.63,15.16,4.89,3.52,3.26,5.28,7.3,5.28,12.11,0,4.04-1.26,7.5-3.77,10.38-1.68,1.93-4.13,3.45-7.36,4.56,4.9,1.18,8.51,3.21,10.83,6.08,2.31,2.87,3.47,6.48,3.47,10.83,0,3.54-.82,6.72-2.47,9.55-1.65,2.83-3.9,5.06-6.75,6.7-1.77,1.02-4.44,1.77-8.01,2.23-4.75.62-7.9.93-9.45.93h-36.41s0-68.26,0-68.26ZM1172.37,86.25h9.17c3.29,0,5.58-.57,6.87-1.7,1.29-1.13,1.93-2.77,1.93-4.91,0-1.99-.64-3.54-1.93-4.66-1.29-1.12-3.53-1.68-6.73-1.68h-9.31s0,12.94,0,12.94ZM1172.37,113.07h10.76c3.63,0,6.19-.64,7.68-1.93,1.49-1.29,2.24-3.02,2.24-5.19,0-2.02-.74-3.64-2.21-4.87-1.47-1.23-4.06-1.84-7.75-1.84h-10.71s0,13.83,0,13.83Z"/><text class="cls-18" transform="translate(795.54 137.36)"><tspan class="cls-1" x="0" y="0">R</tspan><tspan x="74.06" y="0">uta</tspan></text><text class="cls-18" transform="translate(795.54 366.36)"><tspan class="cls-1" x="0" y="0">R</tspan><tspan x="74.06" y="0">uta</tspan></text><text class="cls-19" transform="translate(1668.4 68.36)"><tspan class="cls-17" x="0" y="0">H</tspan><tspan class="cls-20" x="29.96" y="0">acia:</tspan><tspan class="cls-16" x="-51.84" y="48">F</tspan><tspan class="cls-20" x="-30.76" y="48">acultad de</tspan><tspan class="cls-14" x="-80" y="96">A</tspan><tspan class="cls-15" x="-51.44" y="96">r</tspan><tspan class="cls-21" x="-34.2" y="96">t</tspan><tspan x="-18.96" y="96">es Plasticas</tspan></text><text class="cls-19" transform="translate(196.4 298.36)"><tspan class="cls-17" x="0" y="0">H</tspan><tspan class="cls-20" x="29.96" y="0">acia:</tspan><tspan class="cls-16" x="-51.84" y="48">F</tspan><tspan class="cls-20" x="-30.76" y="48">acultad de</tspan><tspan class="cls-14" x="-80" y="96">A</tspan><tspan class="cls-15" x="-51.44" y="96">r</tspan><tspan class="cls-21" x="-34.2" y="96">t</tspan><tspan x="-18.96" y="96">es Plasticas</tspan></text><text class="cls-19" transform="translate(226.04 68.36)"><tspan x="0" y="0">De:</tspan><tspan class="cls-16" x="-78.48" y="48">F</tspan><tspan class="cls-20" x="-57.4" y="48">acultad de</tspan><tspan x="-66.96" y="96">Educacion</tspan></text><text class="cls-19" transform="translate(1691.04 298.36)"><tspan x="0" y="0">De:</tspan><tspan class="cls-16" x="-78.48" y="48">F</tspan><tspan class="cls-20" x="-57.4" y="48">acultad de</tspan><tspan x="-66.96" y="96">Educacion</tspan></text><polygon class="cls-11" points="1426.5 196.5 1426.95 196.05 1426.05 196.05 1426.5 196.5"/><polygon class="cls-11" points="542.5 196.5 542.95 196.05 542.05 196.05 542.5 196.5"/><rect class="cls-8" x="1131.83" y="265.48" width="98.08" height="133.24"/><path class="cls-9" d="M1192.58,354.97h-23.95s-3.33,11.27-3.33,11.27h-21.54s25.66-68.26,25.66-68.26h23.01s25.65,68.26,25.65,68.26h-22.09s-3.42-11.27-3.42-11.27ZM1188.2,340.21l-7.53-24.54-7.46,24.54h14.99Z"/></svg>