<?xml version="1.0" encoding="UTF-8"?><svg id="Layer_1" xmlns="http://www.w3.org/2000/svg" xmlns:xlink="http://www.w3.org/1999/xlink" viewBox="0 0 341.83 196.58"><defs><style>.cls-1{clip-path:url(#clippath);}.cls-2,.cls-3,.cls-4{stroke-width:0px;}.cls-2,.cls-5{fill:none;}.cls-6{isolation:isolate;}.cls-7{fill:#231f20;font-family:MyriadPro-Regular, 'Myriad Pro';font-size:12px;}.cls-3{fill:#15bff1;}.cls-4{fill:#fff;}.cls-5{stroke:#231f20;stroke-miterlimit:10;stroke-width:.25px;}</style><clipPath id="clippath"><rect class="cls-2" y="-490.92" width="666" height="383"/></clipPath></defs><g class="cls-1"><circle id="path932" class="cls-3" cx="113.52" cy="83.58" r="520.57"/><g id="path1036"><path class="cls-4" d="M113.52,582.23c-133.2,0-258.42-51.87-352.6-146.05-94.18-94.18-146.05-219.41-146.05-352.6,0-133.2,51.87-258.42,146.05-352.6,94.18-94.18,219.41-146.05,352.6-146.05,133.2,0,258.42,51.87,352.6,146.05,94.18,94.18,146.05,219.41,146.05,352.6,0,133.19-51.87,258.42-146.05,352.6-94.18,94.18-219.41,146.05-352.6,146.05ZM113.52-382.11c-124.39,0-241.33,48.44-329.29,136.4-87.96,87.96-136.4,204.9-136.4,329.29,0,124.39,48.44,241.33,136.4,329.29,87.96,87.96,204.9,136.4,329.29,136.4,124.39,0,241.33-48.44,329.29-136.4,87.96-87.96,136.4-204.9,136.4-329.29,0-124.39-48.44-241.33-136.4-329.29-87.96-87.96-204.9-136.4-329.29-136.4Z"/></g><g class="cls-6"><path class="cls-4" d="M127.59-226.88L77.27,15.34h1.71c33.26-35.82,84.44-58.85,139.88-58.85,91.26,0,139.02,69.08,139.02,153.52,0,128.79-90.41,284.02-290.84,284.02-108.32,0-162.9-46.06-162.9-125.38,0-26.44,4.26-53.73,10.23-81.88L-1.2-226.88H127.59ZM43.15,199.57c-1.71,12.79-5.97,29-4.27,48.62.85,31.56,21.32,47.76,52.88,47.76,75.06,0,131.35-85.29,131.35-162.9,0-41.79-21.32-74.2-62.26-74.2-49.47,0-98.94,46.06-115.14,127.94l-2.56,12.79Z"/></g></g><circle id="path932-2" class="cls-3" cx="116.57" cy="98.29" r="88.17"/><g id="path1036-2"><path class="cls-4" d="M116.57,182.75c-22.56,0-43.77-8.79-59.72-24.74-15.95-15.95-24.74-37.16-24.74-59.72,0-22.56,8.79-43.77,24.74-59.72,15.95-15.95,37.16-24.74,59.72-24.74,22.56,0,43.77,8.79,59.72,24.74,15.95,15.95,24.74,37.16,24.74,59.72,0,22.56-8.79,43.77-24.74,59.72-15.95,15.95-37.16,24.74-59.72,24.74ZM116.57,19.42c-21.07,0-40.88,8.2-55.77,23.1-14.9,14.9-23.1,34.7-23.1,55.77,0,21.07,8.2,40.88,23.1,55.77,14.9,14.9,34.7,23.1,55.77,23.1,21.07,0,40.88-8.2,55.77-23.1,14.9-14.9,23.1-34.7,23.1-55.77,0-21.07-8.2-40.88-23.1-55.77-14.9-14.9-34.7-23.1-55.77-23.1Z"/></g><g class="cls-6"><path class="cls-4" d="M118.95,45.71l-8.52,41.03h.29c5.63-6.07,14.3-9.97,23.69-9.97,15.46,0,23.55,11.7,23.55,26,0,21.81-15.31,48.1-49.26,48.1-18.35,0-27.59-7.8-27.59-21.24,0-4.48.72-9.1,1.73-13.87l14.3-70.06h21.81ZM104.65,117.94c-.29,2.17-1.01,4.91-.72,8.23.14,5.34,3.61,8.09,8.96,8.09,12.71,0,22.25-14.45,22.25-27.59,0-7.08-3.61-12.57-10.55-12.57-8.38,0-16.76,7.8-19.5,21.67l-.43,2.17Z"/></g><line class="cls-5" x1="103.86" y1="19.42" x2="304.49" y2="19.42"/><line class="cls-5" x1="103.86" y1="45.71" x2="304.49" y2="45.71"/><line class="cls-5" x1="103.86" y1="177.16" x2="304.49" y2="177.16"/><line class="cls-5" x1="103.86" y1="150.87" x2="304.49" y2="150.87"/><line class="cls-5" x1="103.86" y1="72" x2="260.09" y2="72"/><line class="cls-5" x1="103.86" y1="98.29" x2="260.09" y2="98.29"/><line class="cls-5" x1="103.86" y1="124.58" x2="260.09" y2="124.58"/><text class="cls-7" transform="translate(278.58 37.04)"><tspan x="0" y="0">1/6</tspan></text><text class="cls-7" transform="translate(278.58 168.63)"><tspan x="0" y="0">1/6</tspan></text><text class="cls-7" transform="translate(278.58 102.83)"><tspan x="0" y="0">4/6</tspan></text></svg>