<?xml version="1.0" encoding="UTF-8"?><svg id="Layer_1" xmlns="http://www.w3.org/2000/svg" viewBox="0 0 182.63 122.64"><defs><style>.cls-1{font-family:MyriadPro-Regular, 'Myriad Pro';font-size:8.23px;}.cls-1,.cls-2{fill:#231f20;}.cls-2{font-family:MyriadPro-Semibold, 'Myriad Pro';font-size:56.84px;font-weight:600;}.cls-3{letter-spacing:0em;}.cls-4{isolation:isolate;}.cls-5{fill:#15bff1;}.cls-5,.cls-6{stroke-width:0px;}.cls-6{fill:#fff;}.cls-7{fill:none;stroke:#231f20;stroke-miterlimit:10;stroke-width:.25px;}</style></defs><circle id="path932" class="cls-5" cx="62.44" cy="61.16" r="38.27"/><g id="path1036"><path class="cls-6" d="M62.44,97.82c-9.79,0-19-3.81-25.92-10.74-6.92-6.92-10.74-16.13-10.74-25.92,0-9.79,3.81-19,10.74-25.92,6.92-6.92,16.13-10.74,25.92-10.74,9.79,0,19,3.81,25.92,10.74,6.92,6.92,10.74,16.13,10.74,25.92,0,9.79-3.81,19-10.74,25.92-6.92,6.92-16.13,10.74-25.92,10.74ZM62.44,26.92c-9.15,0-17.74,3.56-24.21,10.03-6.47,6.47-10.03,15.06-10.03,24.21,0,9.15,3.56,17.74,10.03,24.21,6.47,6.47,15.06,10.03,24.21,10.03,9.15,0,17.74-3.56,24.21-10.03,6.47-6.47,10.03-15.06,10.03-24.21,0-9.15-3.56-17.74-10.03-24.21-6.47-6.47-15.06-10.03-24.21-10.03Z"/></g><g class="cls-4"><path class="cls-6" d="M63.47,38.33l-3.7,17.81h.13c2.45-2.63,6.21-4.33,10.28-4.33,6.71,0,10.22,5.08,10.22,11.29,0,9.47-6.65,20.88-21.38,20.88-7.96,0-11.98-3.39-11.98-9.22,0-1.94.31-3.95.75-6.02l6.21-30.41h9.47ZM57.27,69.69c-.13.94-.44,2.13-.31,3.57.06,2.32,1.57,3.51,3.89,3.51,5.52,0,9.66-6.27,9.66-11.98,0-3.07-1.57-5.46-4.58-5.46-3.64,0-7.27,3.39-8.47,9.41l-.19.94Z"/></g><line class="cls-7" x1="100.71" y1="3.75" x2="100.71" y2="118.57"/><line class="cls-7" x1="119.85" y1="3.75" x2="119.85" y2="118.57"/><line class="cls-7" x1="5.03" y1="3.75" x2="5.03" y2="118.57"/><line class="cls-7" x1="81.58" y1="22.89" x2="81.58" y2="99.43"/><line class="cls-7" x1="62.44" y1="22.89" x2="62.44" y2="99.43"/><line class="cls-7" x1="43.3" y1="22.89" x2="43.3" y2="99.43"/><line class="cls-7" x1="24.17" y1="3.75" x2="24.17" y2="118.57"/><line class="cls-7" x1="119.85" y1="99.43" x2="5.03" y2="99.43"/><line class="cls-7" x1="119.85" y1="118.57" x2="5.03" y2="118.57"/><line class="cls-7" x1="119.85" y1="3.75" x2="5.03" y2="3.75"/><line class="cls-7" x1="100.71" y1="80.3" x2="24.17" y2="80.3"/><line class="cls-7" x1="100.71" y1="61.16" x2="24.17" y2="61.16"/><line class="cls-7" x1="100.71" y1="42.02" x2="24.17" y2="42.02"/><line class="cls-7" x1="119.85" y1="22.89" x2="5.03" y2="22.89"/><text class="cls-2" transform="translate(115.68 80.35)"><tspan class="cls-3" x="0" y="0">E</tspan><tspan x="29.44" y="0">scue</tspan></text><text class="cls-1" transform="translate(105.03 63.63)"><tspan x="0" y="0">1/4</tspan></text><text class="cls-1" transform="translate(8.8 63.63)"><tspan x="0" y="0">1/4</tspan></text><text class="cls-1" transform="translate(56.92 15.6)"><tspan x="0" y="0">1/4</tspan></text><text class="cls-1" transform="translate(56.92 112.48)"><tspan x="0" y="0">1/4</tspan></text></svg>