<?xml version="1.0" encoding="UTF-8"?><svg id="Layer_1" xmlns="http://www.w3.org/2000/svg" xmlns:xlink="http://www.w3.org/1999/xlink" viewBox="0 0 196.1 122.64"><defs><style>.cls-1{clip-path:url(#clippath);}.cls-2,.cls-3,.cls-4{stroke-width:0px;}.cls-2,.cls-5{fill:none;}.cls-6{fill:#231f20;font-family:MyriadPro-Regular, 'Myriad Pro';font-size:5.76px;}.cls-7{isolation:isolate;}.cls-3{fill:#15bff1;}.cls-4{fill:#fff;}.cls-5{stroke:#231f20;stroke-miterlimit:10;stroke-width:.25px;}</style><clipPath id="clippath"><rect class="cls-2" width="213.26" height="122.64"/></clipPath></defs><g class="cls-1"><circle id="path932" class="cls-3" cx="36.35" cy="183.96" r="166.69"/><g id="path1036"><path class="cls-4" d="M36.35,343.64c-42.65,0-82.75-16.61-112.91-46.77-30.16-30.16-46.77-70.26-46.77-112.91,0-42.65,16.61-82.75,46.77-112.91C-46.4,40.9-6.3,24.29,36.35,24.29c42.65,0,82.75,16.61,112.91,46.77,30.16,30.16,46.77,70.26,46.77,112.91,0,42.65-16.61,82.75-46.77,112.91-30.16,30.16-70.26,46.77-112.91,46.77ZM36.35,34.84c-39.83,0-77.28,15.51-105.44,43.68-28.16,28.16-43.68,65.61-43.68,105.44,0,39.83,15.51,77.28,43.68,105.44,28.16,28.16,65.61,43.68,105.44,43.68,39.83,0,77.28-15.51,105.44-43.68,28.16-28.16,43.68-65.61,43.68-105.44,0-39.83-15.51-77.28-43.68-105.44-28.16-28.16-65.61-43.68-105.44-43.68Z"/></g><g class="cls-7"><path class="cls-4" d="M40.86,84.55l-16.11,77.56h.55c10.65-11.47,27.04-18.84,44.79-18.84,29.22,0,44.52,22.12,44.52,49.16,0,41.24-28.95,90.95-93.13,90.95-34.68,0-52.16-14.75-52.16-40.15,0-8.47,1.37-17.21,3.28-26.22L-.38,84.55h41.24ZM13.82,221.11c-.55,4.1-1.91,9.29-1.37,15.57.27,10.1,6.83,15.29,16.93,15.29,24.03,0,42.06-27.31,42.06-52.16,0-13.38-6.83-23.76-19.94-23.76-15.84,0-31.68,14.75-36.87,40.97l-.82,4.1Z"/></g></g><line class="cls-5" x1="36.35" y1="17.27" x2="161.07" y2="17.27"/><line class="cls-5" x1="36.35" y1="24.23" x2="161.07" y2="24.23"/><line class="cls-5" x1="36.35" y1="34.88" x2="161.07" y2="34.88"/><text class="cls-6" transform="translate(159.11 22.41)"><tspan x="0" y="0">1.3 cm</tspan></text><text class="cls-6" transform="translate(159.11 31.85)"><tspan x="0" y="0">1.9 cm</tspan></text></svg>