<?xml version="1.0" encoding="UTF-8"?><svg id="Layer_1" xmlns="http://www.w3.org/2000/svg" viewBox="0 0 124.33 122.64"><defs><style>.cls-1{isolation:isolate;}.cls-2{fill:#231f20;stroke-width:0px;}</style></defs><g id="path1036"><path class="cls-2" d="M62.45,120.98c-15.95,0-30.95-6.21-42.23-17.49C8.94,92.2,2.72,77.21,2.72,61.25c0-15.95,6.21-30.95,17.49-42.23C31.5,7.74,46.5,1.52,62.45,1.52c15.95,0,30.95,6.21,42.23,17.49,11.28,11.28,17.49,26.28,17.49,42.23,0,15.95-6.21,30.95-17.49,42.23-11.28,11.28-26.28,17.49-42.23,17.49ZM62.45,5.47c-14.9,0-28.91,5.8-39.44,16.34C12.47,32.34,6.67,46.35,6.67,61.25c0,14.9,5.8,28.91,16.34,39.44,10.54,10.54,24.54,16.34,39.44,16.34,14.9,0,28.91-5.8,39.44-16.34,10.54-10.54,16.34-24.54,16.34-39.44,0-14.9-5.8-28.91-16.34-39.44-10.54-10.54-24.54-16.34-39.44-16.34Z"/></g><g class="cls-1"><path class="cls-2" d="M64.14,24.06l-6.03,29.01h.2c3.98-4.29,10.11-7.05,16.75-7.05,10.93,0,16.65,8.27,16.65,18.39,0,15.43-10.83,34.02-34.84,34.02-12.97,0-19.51-5.52-19.51-15.02,0-3.17.51-6.44,1.23-9.81l10.11-49.55h15.43ZM54.02,75.14c-.2,1.53-.72,3.47-.51,5.82.1,3.78,2.55,5.72,6.33,5.72,8.99,0,15.73-10.22,15.73-19.51,0-5.01-2.55-8.89-7.46-8.89-5.93,0-11.85,5.52-13.79,15.32l-.31,1.53Z"/></g></svg>