<?xml version="1.0" encoding="UTF-8"?><svg id="Layer_1" xmlns="http://www.w3.org/2000/svg" viewBox="0 0 380.35 122.64"><defs><style>.cls-1{fill:#231f20;font-family:MyriadPro-Regular, 'Myriad Pro';font-size:12px;}.cls-2{fill:#015da5;}.cls-2,.cls-3{stroke-width:0px;}.cls-3{fill:#fff;}</style></defs><rect class="cls-2" x="5.85" y="3.84" width="132.23" height="99.17" rx="7.43" ry="7.43"/><path class="cls-3" d="M129.71,100.17H14.21c-3.04,0-5.51-2.47-5.51-5.51V12.19c0-3.04,2.47-5.51,5.51-5.51h115.5c3.04,0,5.51,2.47,5.51,5.51v82.47c0,3.04-2.47,5.51-5.51,5.51ZM14.21,10.88c-.72,0-1.31.59-1.31,1.31v82.47c0,.72.59,1.31,1.31,1.31h115.5c.72,0,1.31-.59,1.31-1.31V12.19c0-.72-.59-1.31-1.31-1.31H14.21Z"/><path class="cls-3" d="M39.2,46.81c-.72.36-2.48.8-4.73.8-6.12,0-9.33-3.54-9.33-8.2,0-5.33,4.17-8.63,9.64-8.63,2.19,0,3.86.41,4.6.82l-.82,2.99c-.84-.36-2.1-.7-3.62-.7-3.28,0-5.76,1.83-5.76,5.3,0,3.04,2.05,5.28,5.79,5.28,1.33,0,2.75-.27,3.59-.63l.63,2.97Z"/><path class="cls-3" d="M45.59,32.17c0,1.04-.77,1.88-2.07,1.88s-2.03-.84-2.03-1.88.77-1.86,2.05-1.86,2.03.82,2.05,1.86ZM41.61,47.31v-11.79h3.83v11.79h-3.83Z"/><path class="cls-3" d="M51.52,42.61c.12,1.42,1.78,2.15,3.59,2.15,1.35,0,2.46-.14,3.57-.53l.53,2.56c-1.35.55-2.92.82-4.63.82-4.24,0-6.73-2.39-6.73-6.08,0-2.68,1.81-6.29,6.36-6.29,4.24,0,5.69,3.28,5.69,5.98,0,.58-.07,1.16-.14,1.4h-8.24ZM56.31,40.01c0-.68-.39-2.29-2.29-2.29-1.74,0-2.43,1.37-2.56,2.29h4.85Z"/><path class="cls-3" d="M62.22,39.36c0-1.54-.05-2.82-.1-3.83h3.33l.17,1.71h.1c.43-.7,1.69-2,3.91-2,2.46,0,4.58,1.54,4.58,5.28v6.8h-3.83v-6.27c0-1.69-.65-2.75-2.1-2.75-1.18,0-1.83.82-2.1,1.49-.1.22-.12.55-.12.84v6.68h-3.83v-7.96Z"/><path class="cls-3" d="M86.98,46.97c-.77.36-2.15.63-3.71.63-4.07,0-6.68-2.41-6.68-6.08,0-3.38,2.43-6.29,7.21-6.29,1.04,0,2.22.17,3.16.51l-.63,2.8c-.51-.22-1.23-.41-2.36-.41-2.07,0-3.42,1.35-3.42,3.23,0,2.17,1.64,3.28,3.52,3.28,1.01,0,1.78-.19,2.43-.43l.48,2.77Z"/><path class="cls-3" d="M93.22,32.17c0,1.04-.77,1.88-2.07,1.88s-2.03-.84-2.03-1.88.77-1.86,2.05-1.86,2.03.82,2.05,1.86ZM89.25,47.31v-11.79h3.83v11.79h-3.83Z"/><path class="cls-3" d="M103.44,47.31l-.24-1.18h-.07c-.82.96-2.12,1.47-3.62,1.47-2.63,0-4.05-1.81-4.05-3.62,0-3.06,2.75-4.58,7.43-4.58v-.1c0-.53-.27-1.49-2.34-1.49-1.28,0-2.72.46-3.52.94l-.72-2.41c.89-.51,2.58-1.11,4.89-1.11,4.05,0,5.52,2.24,5.52,5.13v4.03c0,1.21.05,2.29.19,2.92h-3.47ZM103.01,41.79c-2.24-.02-3.74.48-3.74,1.81,0,.87.6,1.35,1.57,1.35,1.01,0,1.86-.7,2.1-1.47.05-.22.07-.46.07-.65v-1.04Z"/><path class="cls-3" d="M109.86,43.98c.75.46,2.34.96,3.5.96s1.69-.36,1.69-.94-.39-.87-1.86-1.28c-2.63-.72-3.71-2.1-3.69-3.57,0-2.27,1.98-3.93,5.11-3.93,1.49,0,2.87.34,3.62.72l-.65,2.6c-.55-.29-1.76-.72-2.87-.72-.92,0-1.49.31-1.49.92s.55.89,2.1,1.33c2.41.7,3.45,1.81,3.47,3.66,0,2.12-1.71,3.86-5.4,3.86-1.74,0-3.18-.39-4.22-.89l.7-2.72Z"/><path class="cls-3" d="M26.89,72.26c1.08.58,2.75,1.16,4.53,1.16s2.7-.67,2.7-1.76c0-.94-.8-1.52-2.92-2.15-2.87-.82-4.97-2.22-4.97-4.89,0-2.82,2.53-4.92,6.48-4.92,2.12,0,3.57.39,4.68.89l-.92,3.04c-.7-.31-2.03-.84-3.83-.84-1.66,0-2.48.7-2.48,1.52,0,1.06,1.04,1.49,3.28,2.19,3.11,1.01,4.63,2.46,4.63,4.94,0,2.63-2.05,5.09-6.94,5.09-2.03,0-4.05-.55-5.09-1.13l.84-3.13Z"/><path class="cls-3" d="M53.53,70.19c0,4.12-3.18,6.34-6.8,6.34s-6.63-2.29-6.63-6.1,2.6-6.27,6.89-6.27c3.88,0,6.53,2.53,6.53,6.03ZM44.1,70.36c0,2,1.04,3.47,2.75,3.47,1.54,0,2.68-1.25,2.68-3.5,0-1.78-.82-3.5-2.68-3.5s-2.75,1.74-2.75,3.52Z"/><path class="cls-3" d="M65.66,75.9c-.77.36-2.15.63-3.71.63-4.07,0-6.68-2.41-6.68-6.08,0-3.38,2.43-6.29,7.21-6.29,1.04,0,2.22.17,3.16.51l-.63,2.8c-.51-.22-1.23-.41-2.36-.41-2.07,0-3.42,1.35-3.42,3.23,0,2.17,1.64,3.28,3.52,3.28,1.01,0,1.78-.19,2.43-.43l.48,2.77Z"/><path class="cls-3" d="M71.9,61.1c0,1.04-.77,1.88-2.07,1.88s-2.03-.84-2.03-1.88.77-1.86,2.05-1.86,2.03.82,2.05,1.86ZM67.92,76.24v-11.79h3.83v11.79h-3.83Z"/><path class="cls-3" d="M82.12,76.24l-.24-1.18h-.07c-.82.96-2.12,1.47-3.62,1.47-2.63,0-4.05-1.81-4.05-3.62,0-3.06,2.75-4.58,7.43-4.58v-.1c0-.53-.27-1.49-2.34-1.49-1.28,0-2.72.46-3.52.94l-.72-2.41c.89-.51,2.58-1.11,4.89-1.11,4.05,0,5.52,2.24,5.52,5.13v4.03c0,1.21.05,2.29.19,2.92h-3.47ZM81.69,70.72c-2.24-.02-3.74.48-3.74,1.81,0,.87.6,1.35,1.57,1.35,1.01,0,1.86-.7,2.1-1.47.05-.22.07-.46.07-.65v-1.04Z"/><path class="cls-3" d="M88.53,58.98h3.83v17.26h-3.83v-17.26Z"/><path class="cls-3" d="M98.44,71.54c.12,1.42,1.78,2.15,3.59,2.15,1.35,0,2.46-.14,3.57-.53l.53,2.56c-1.35.55-2.92.82-4.63.82-4.24,0-6.73-2.39-6.73-6.08,0-2.68,1.81-6.29,6.36-6.29,4.24,0,5.69,3.28,5.69,5.98,0,.58-.07,1.16-.14,1.4h-8.24ZM103.24,68.94c0-.68-.39-2.29-2.29-2.29-1.74,0-2.43,1.37-2.56,2.29h4.85Z"/><path class="cls-3" d="M109.15,72.91c.75.46,2.34.96,3.5.96s1.69-.36,1.69-.94-.39-.87-1.86-1.28c-2.63-.72-3.71-2.1-3.69-3.57,0-2.27,1.98-3.93,5.11-3.93,1.49,0,2.87.34,3.62.72l-.65,2.6c-.55-.29-1.76-.72-2.87-.72-.92,0-1.49.31-1.49.92s.55.89,2.1,1.33c2.41.7,3.45,1.81,3.47,3.66,0,2.12-1.71,3.86-5.4,3.86-1.74,0-3.18-.39-4.22-.89l.7-2.72Z"/><rect class="cls-2" x="202.53" y="20.98" width="132.23" height="66.11" rx="8.48" ry="8.48"/><path class="cls-3" d="M325.84,83.11h-114.39c-3.04,0-5.51-2.47-5.51-5.51V30.47c0-3.04,2.47-5.51,5.51-5.51h114.39c3.04,0,5.51,2.47,5.51,5.51v47.13c0,3.04-2.47,5.51-5.51,5.51ZM211.45,29.16c-.72,0-1.31.59-1.31,1.31v47.13c0,.72.59,1.31,1.31,1.31h114.39c.72,0,1.31-.59,1.31-1.31V30.47c0-.72-.59-1.31-1.31-1.31h-114.39Z"/><path class="cls-3" d="M219.32,47.46h3.1v10.56h5.87v2.6h-8.98v-13.15Z"/><path class="cls-3" d="M233.62,57.12l-1.05,3.49h-3.26l4.39-13.15h4.18l4.61,13.15h-3.45l-1.15-3.49h-4.25ZM237.37,54.82l-.96-2.81c-.25-.76-.51-1.64-.74-2.38h-.04c-.2.74-.41,1.62-.64,2.38l-.88,2.81h3.26Z"/><path class="cls-3" d="M244.33,60.61v-13.15h3.84l2.97,4.72c.92,1.48,1.72,3.12,2.4,4.72h.04c-.21-1.87-.23-3.45-.23-5.31v-4.14h2.91v13.15h-3.38l-3.1-5.09c-.9-1.52-1.85-3.2-2.6-4.88l-.08.02c.1,1.87.12,3.69.12,5.66v4.29h-2.89Z"/><path class="cls-3" d="M262.33,57.12l-1.05,3.49h-3.26l4.39-13.15h4.18l4.61,13.15h-3.45l-1.15-3.49h-4.25ZM266.07,54.82l-.96-2.81c-.25-.76-.51-1.64-.74-2.38h-.04c-.2.74-.41,1.62-.64,2.38l-.88,2.81h3.26Z"/><path class="cls-3" d="M285.18,55.44c-.06-1.72-.1-3.67-.1-5.78h-.06c-.49,1.78-1.11,3.73-1.68,5.46l-1.78,5.27h-2.48l-1.52-5.23c-.49-1.72-.94-3.67-1.31-5.5h-.04c-.08,1.91-.16,4.06-.23,5.82l-.25,5.13h-2.93l.8-13.15h4.39l1.37,4.27c.43,1.46.86,3.18,1.17,4.74h.06c.43-1.54.92-3.38,1.41-4.76l1.5-4.25h4.29l.68,13.15h-3.1l-.2-5.17Z"/><path class="cls-3" d="M303.05,55.44c-.06-1.72-.1-3.67-.1-5.78h-.06c-.49,1.78-1.11,3.73-1.68,5.46l-1.78,5.27h-2.48l-1.52-5.23c-.49-1.72-.94-3.67-1.31-5.5h-.04c-.08,1.91-.16,4.06-.23,5.82l-.25,5.13h-2.93l.8-13.15h4.39l1.37,4.27c.43,1.46.86,3.18,1.17,4.74h.06c.43-1.54.92-3.38,1.41-4.76l1.5-4.25h4.29l.68,13.15h-3.1l-.2-5.17Z"/><path class="cls-3" d="M317.35,55.13h-5.46v2.97h6.09v2.52h-9.19v-13.15h8.9v2.52h-5.8v2.63h5.46v2.52Z"/><text class="cls-1" transform="translate(56.31 116.81)"><tspan x="0" y="0">60 cm</tspan></text><text class="cls-1" transform="translate(256.26 100.16)"><tspan x="0" y="0">60 cm</tspan></text><text class="cls-1" transform="translate(142.05 58.98)"><tspan x="0" y="0">45 cm</tspan></text><text class="cls-1" transform="translate(337.88 58.98)"><tspan x="0" y="0">30 cm</tspan></text></svg>