<?xml version="1.0" encoding="UTF-8"?><svg id="Layer_1" xmlns="http://www.w3.org/2000/svg" viewBox="0 0 1524 604.51"><defs><style>.cls-1{fill:#088543;}.cls-1,.cls-2,.cls-3{stroke-width:0px;}.cls-2{fill:#f37024;}.cls-3{fill:#fff;}</style></defs><rect class="cls-1" x="823.3" y="28.55" width="661.06" height="547.67" rx="83.36" ry="83.36"/><path class="cls-3" d="M915.36,164.49h86.7v211.49h135.31v69.09h-222.01V164.49Z"/><path class="cls-3" d="M1392.31,445.07h-233.88c2.68-23.09,10.81-44.82,24.4-65.17,13.59-20.35,39.07-44.37,76.46-72.06,22.84-16.97,37.45-29.86,43.83-38.66,6.38-8.8,9.57-17.16,9.57-25.07,0-8.55-3.16-15.85-9.47-21.92-6.32-6.06-14.26-9.09-23.83-9.09s-18.09,3.13-24.4,9.38c-6.32,6.25-10.56,17.29-12.73,33.11l-78.09-6.32c3.06-21.94,8.68-39.07,16.84-51.39,8.16-12.31,19.68-21.75,34.55-28.33,14.86-6.57,35.44-9.86,61.72-9.86s48.77,3.13,64.02,9.38c15.25,6.25,27.24,15.86,35.98,28.8,8.74,12.95,13.11,27.46,13.11,43.54,0,17.1-5.01,33.43-15.02,49-10.02,15.57-28.23,32.67-54.64,51.29-15.69,10.85-26.19,18.44-31.48,22.78-5.3,4.34-11.52,10.02-18.66,17.03h121.73v63.54Z"/><rect class="cls-2" x="42.15" y="28.42" width="661.06" height="547.67" rx="83.36" ry="83.36"/><path class="cls-3" d="M159.95,164.36h86.7v211.49h135.31v69.09h-222.01V164.36Z"/><path class="cls-3" d="M585.41,159.57v285.37h-78.85v-186.99c-12.76,9.7-25.1,17.54-37.03,23.54-11.93,6-26.89,11.74-44.88,17.22v-63.92c26.54-8.55,47.15-18.82,61.82-30.81,14.67-11.99,26.16-26.79,34.45-44.4h64.5Z"/></svg>