<?xml version="1.0" encoding="UTF-8"?><svg id="Layer_1" xmlns="http://www.w3.org/2000/svg" xmlns:xlink="http://www.w3.org/1999/xlink" viewBox="0 0 1966.77 534.42"><defs><style>.cls-1{clip-path:url(#clippath);}.cls-2{fill:none;}.cls-2,.cls-3,.cls-4,.cls-5,.cls-6{stroke-width:0px;}.cls-7{opacity:.1;}.cls-8{clip-path:url(#clippath-1);}.cls-9{letter-spacing:-.04em;}.cls-10{font-family:MyriadPro-BoldSemiExt, 'Myriad Pro';font-size:202px;font-weight:700;}.cls-10,.cls-5{fill:#fff;}.cls-11{isolation:isolate;}.cls-3{fill:#15bff1;}.cls-4{fill:#015da5;}.cls-6{fill:#00c1e7;}</style><clipPath id="clippath"><rect class="cls-2" x="0" y="0" width="1966.77" height="534.42"/></clipPath><clipPath id="clippath-1"><rect class="cls-2" x="1333.53" y="176.42" width="780.81" height="754.66"/></clipPath></defs><rect class="cls-4" x="0" y="0" width="1966.77" height="534.42"/><g class="cls-1"><g class="cls-7"><g class="cls-8"><path class="cls-3" d="M2113.63,539.49c-.17-9.77-8.87-27.94-40.92-28.73-11.18-.28-22.65-.96-33.74-1.62-3.9-.23-7.84-.47-11.8-.68,13.69-9.31,30.14-18.75,42.76-21.1l.95-.18.91-.33c9.04-3.31,14.25-9.51,14.05-16.67,4.1-1.96,6.96-4.77,8.55-8.44,1.54-3.56,2.95-10.68-4.5-18.97-1.37-1.89-4.33-5.4-9.5-9.05,2.52-8.88-5.53-14.76-9.86-17.92-1.07-.79-2.17-1.55-3.29-2.28,10.75-14.13,18.96-30.43,13.05-42.84-2.63-5.73-11.13-15.06-27.1-15.06-4.35,0-9.02.69-13.97,2.07,1.9-3.3,2.43-6.85,1.47-10.44-1.98-7.42-8.69-10.11-14.92-11.09.12-1.01.12-2.05,0-3.11-1.41-12.71-17.79-15-28.13-16.26-1.96-.47-5.72-1.14-11.26-1.14-9.27,0-22.45,1.82-39.57,8.51,13.05-24.76,16.51-42.93,10.89-55.96h0c-1.23-2.82-7.89-15.19-29.68-15.29-2.81-.89-5.57-.89-6.97-.89-2.3,0-5.31.13-9.19.4-2.4-.08-8.22.04-17.07,2.62,5.45-14.68,6.59-21.72,6.61-26.05.35-3.21.36-10.04-4.54-15.98-2.99-3.63-8.76-7.96-19.25-7.96-4.11,0-8.62.64-13.77,1.94-3.7.88-29.86,8.17-54.77,42.41-1.98-16.24-5.7-37.91-19.75-52.8-3.22-3.41-15.09-14.83-27.87-13.8-13.31,1.12-26.24,14.64-31.04,27.08l-.26.76c-.11.37-1.43,4.72-3.17,11.99-7.07-9.87-15.23-17.9-24.43-24.03l-.78-.47c-1.19-.66-11.96-6.46-24.25-6.46-4.53,0-8.77.78-12.62,2.33-1.54-.53-3.31-.9-5.29-.9-.83,0-1.96.07-3.26.35-7.07-8.09-17.07-17.01-26.74-17.01-1.86,0-3.67.3-5.38.89-.49-.05-1-.08-1.52-.08-15.34,0-18.42,19.64-19.43,26.36-.39,2.21-3.26,19.13-3.1,42.08-6.93-5.69-14.16-10.4-21.66-14.09l-.49-.23c-2.57-1.12-15.91-6.69-26.34-6.69-9.34,0-14.98,4.52-17.33,10.13-2.41.83-4.54,2.36-6.14,4.48-3.53,4.67-4.06,11.21-1.44,23.12-.44.37-.83.75-1.18,1.13-2.03.84-4.15,2.13-6.08,4.09-2.6,2.64-5.65,7.4-5.47,15.06l.05.79c.06.67,1.13,11.75,4.38,27.8-5.44-2.14-10.92-3.92-16.3-5.68-3.52-1.15-7.06-2.3-10.61-3.56-6.47-2.31-15.32-5.47-24.3-5.47-6.78,0-12.76,1.77-17.8,5.25l-1.77,1.12-1.23,1.93c-.41.59-1.21,1.32-1.68,1.57-1.52-.35-6.88-1.5-11.76-1.5-8.05,0-12.25,3.19-14.44,6.41-2.27,1.14-4.21,2.89-5.58,5.12-4.72,7.65-2.35,18.6,8.75,40.33.26.6.76,1.7,1.53,3.22l-2.03,3.55c-3.05,5.35-5.61,14.07-1,25.62,1.85,10.92,7,25.45,19.74,41.83-2.97-1.18-5.57-2.48-7.8-3.89-8.04-4.92-21.05-14.4-24.8-20.06l-1.12-1.7-1.64-1.21c-2.19-1.61-5.66-3.53-9.71-3.53-4.32,0-8.25,2.15-10.49,5.76-4.13,6.63-.44,13.99,1.34,17.52l.61,1.22.88,1.04c1.25,1.47,2.45,2.99,3.59,4.54-8.88,1.05-18.27,4.48-23.45,11.31-2.43,1.02-4.47,2.72-5.89,5-.61.97-1.17,2.15-1.54,3.55-1.26,1.44-2.26,3.18-2.84,5.22-.38,1.36-.84,3.92-.08,6.98-.19.74-.33,1.52-.44,2.35-1.19,9.49,3.84,20.78,15.37,34.52l.22.26c.54.61,9.87,10.95,26.95,22.23-8.27,2.95-16.22,6.48-23.78,10.55-12.99,5.83-41.86,20.99-40.78,40.15.28,6.85,5.06,17.94,19.75,23.4-3.12,2.33-5.15,5.47-5.8,9.2-2.17,12.52,12.49,19.83,18.75,22.95,8.49,4.23,17.86,6.28,28.66,6.28,7.08,0,14.01-.86,20.95-2.06.1.17.2.35.31.52,1.54,2.42,3.3,4.58,5.25,6.48-11.1,9.33-17.44,16.36-17.78,16.74-21.25,23.56-16.93,44.78-16.36,47.12l.43,1.4c3.11,8.14,6.64,17.36,16.08,17.36,1.7,0,3.37-.37,4.91-1.06-2.42,6.14-3.41,9.91-3.51,10.32l-.08.34c-1.74,7.82-.71,14.14,3.05,18.8,1.51,1.87,3.41,3.35,5.55,4.38,2.39,2.94,5.75,4.53,9.03,4.88,1.29,10.47,4.11,17.29,4.29,17.73l.31.68c1.7,3.4,5.7,11.35,14.22,11.35,3.29,0,7.19-1.37,9.84-4.89.04,12.06,1.36,22.27,1.61,24.14l.34,2.47,1.35,2.11c1.25,1.96,3.62,5.66,7.38,7.92,2.66,4.04,6.28,6.07,10.81,6.07,1.9,0,4.47-.4,6.97-2.07.39,2.25.94,4.43,1.64,6.55l.37.96c.77,1.77,8.02,17.33,23.57,17.33,6.93,0,13.64-3.2,19.95-9.52.31-.28.88-.78,1.65-1.48.21,4.74.77,9.25,1.68,13.5l.12.51c1.56,5.91,10.36,35.6,31.21,40.33l1.19.27c3.11,2.04,8.13,4.34,14.99,4.34,10.14,0,20.68-5.02,31.27-14.89.44-.4,7.69-7.14,17.54-18.74l.69,2.23.9.53c-.42,8.58-.33,37.16,18.89,44.82,1.2.48,3.23,1.09,5.86,1.09,9.67,0,17.97-7.13,24.73-21.21,5.94,10.72,13.39,19.71,22.31,26.9,5.59,5.69,13.72,12.18,21.63,12.18,6.67,0,14.12-4.75,14.71-15.19.03-.48.06-.97.08-1.45.66.47,1.32.93,1.98,1.38l.78.48c1.21.68,12.23,6.65,24.76,6.65,4.23,0,8.21-.68,11.86-2.01,1.61.59,3.49,1.01,5.6,1.01,2.82,0,6.67-.71,10.21-3.76,5.93,5.56,12.84,10.06,19.68,10.06,1.73,0,3.43-.26,5.03-.78.58.07,1.18.11,1.81.11,15.1,0,18.56-19.36,19.7-25.97.43-2.17,3.64-19.04,3.96-42,6.8,5.83,13.93,10.68,21.36,14.54l.49.24c2.62,1.21,16.26,7.24,26.78,7.24,8.96,0,14.49-4.35,16.91-9.77,2.48-.79,4.69-2.32,6.34-4.46,3.55-4.59,4.2-11.09,1.85-22.96.5-.39.92-.79,1.27-1.16,6.61-2.68,11.88-9.05,11.88-18.86l-.03-.83c-.05-.67-.9-11.76-3.8-27.86,5.46,2.28,10.97,4.2,16.38,6.08,3.44,1.2,6.91,2.4,10.4,3.72,6.62,2.52,15.68,5.97,24.93,5.97,6.44,0,12.19-1.65,17.09-4.89l1.78-1.08,1.28-1.9c.46-.62,1.36-1.41,1.64-1.56,1.67.43,7.3,1.77,12.44,1.77,7.83,0,11.89-3.31,13.92-6.12,2.35-1.12,4.37-2.88,5.8-5.14,4.77-7.56,2.6-18.52-8-40.4-.42-1.01-1.55-3.57-3.48-7.24,3.72-3.4,5.07-7.49,5.51-9.31.29-1.16,2.66-11.85-2.23-27.93-3.1-10.18-8.3-20.25-15.55-30.13,2.78,1.21,5.37,2.56,7.61,4.09,7.68,5.08,20.07,14.82,23.58,20.55l1.05,1.71,1.58,1.25c2.22,1.77,5.75,3.88,9.98,3.88s8.08-2.09,10.34-5.58c4.16-6.44.75-13.83-.89-17.38l-.54-1.18-.79-1.02c-3.12-4.03-5.84-8.19-7.89-12.04-2.15-4.04-3.44-8.87-4.77-13.99,2.18,1.1,4.4,2.3,6.71,3.56l1.58.86c10.91,6.04,15.9,6.82,19.03,6.82h0c4.8,0,8.94-2.17,11.36-5.96.59-.93,1.15-2.06,1.53-3.4,1.29-1.42,2.33-3.14,2.96-5.18.41-1.35.92-3.91.21-6.99.2-.73.36-1.51.49-2.34,1.39-9.46-3.41-20.84-14.66-34.81l-.21-.25c-.47-.55-8.52-9.87-23.46-20.65,6.58-2.5,12.96-5.36,19.09-8.57,13.69-5.92,44.21-21.39,43.5-41.44"/><path class="cls-5" d="M1901.7,487.52c5.78-.36,92.94-6.83,144.62-70.63,7.65-8.07,26.15-30.76,21.42-40.38-.28-.63-6.41-13.28-31.31-3.36-10.61,4.24-21.54,8.16-32.12,11.95-43.22,15.5-84.04,30.15-112.97,66.83-.94,1.2-1.98,2.68-3.11,4.28-5.16,7.35-12.16,17.25-21.19,17.14l10.87,19.22c2.07-1.86,10.06-7.93,23.79-5.04"/><path class="cls-6" d="M2072.06,374.53c-.31-.72-7.95-17.5-37.41-5.78-10.53,4.2-21.42,8.11-31.96,11.89-41.95,15.05-85.33,30.61-115.1,68.36-.99,1.25-2.08,2.8-3.26,4.49-4.77,6.8-11.26,16.12-18.33,15.03l-.36,2.34-.36,2.34c.6.09,1.19.14,1.77.14,9.04.11,16.03-9.79,21.19-17.14,1.13-1.6,2.16-3.08,3.11-4.28,28.93-36.68,69.75-51.33,112.97-66.83,10.57-3.8,21.51-7.72,32.12-11.95,24.9-9.92,31.03,2.73,31.31,3.36,4.73,9.62-13.77,32.31-21.42,40.38-51.67,63.8-138.84,70.28-144.62,70.63-13.72-2.88-21.72,3.18-23.79,5.04-.31.27-.49.46-.53.51l3.46,3.24c.27-.29,6.95-7,20.16-4.11l.31.07h.31c.93-.06,93.83-5.05,148.28-72.28,3-3.16,29.13-31.3,22.16-45.46"/><path class="cls-5" d="M2012.93,478.38c.88-.76,27.05-22.55,53.87-18.63,6.22.16,13.84-1.17,14.85-3.43.41-.93-.52-2.72-2.51-4.8l-.31-.42c-.07-.11-8.17-12.76-34.61-15.6-.25,0-23.32-.61-33.52,5.75l-.37.19c-1.35.54-33.32,13.13-65.29,6.19-.19-.03-30.25-4.61-66.59,26.88l-1.57-1.78,14.11,26.38.75-2.25c.62.2,63.14,20,121.19-18.49"/><path class="cls-6" d="M2082.75,448.43c-1.32-2-10.76-14.7-38.2-17.65-1-.04-24.64-.69-36.19,6.34-2.61,1-32.96,12.26-62.42,5.87-1.3-.23-32.46-5.13-70.63,27.96l1.56,1.78,1.57,1.78c36.34-31.49,66.4-26.91,66.59-26.88,31.97,6.93,63.94-5.65,65.29-6.19l.37-.19c10.21-6.36,33.27-5.76,33.52-5.75,26.43,2.85,34.53,15.49,34.61,15.6l.31.42c1.99,2.08,2.92,3.88,2.51,4.8-1.02,2.26-8.64,3.59-14.85,3.43-26.82-3.93-52.99,17.86-53.87,18.63-58.05,38.49-120.57,18.69-121.19,18.49l-.75,2.25-.75,2.25c.33.11,17.18,5.47,41.59,5.47s54.32-5.02,83.95-24.68c.25-.22,25.6-21.36,50.59-17.69,2.78.08,16.76.15,19.61-6.2,1.28-2.85.19-6.16-3.24-9.82"/><path class="cls-5" d="M1603.25,413.97c-23.68-37.33-48.2-64.63-72.98-81.29-9.93-6.68-20.85-10.24-32.4-14-3.65-1.19-7.3-2.38-10.94-3.67-8.92-3.18-20.97-7.47-29.2-2.12-1.36,1.89-7.11,9-15.83,7.02-5.02-1.21-10.66-1.57-11.85-.77.11.07.3.75,1.32,2.07l-3.14,3.45c-1.32-.81-2.98-1.24-3.38-1.02-.03.03-2.94,3.12,9.42,27.27.37.86,30.44,70.31,123.18,88.36.41.11,22.8,6.28,38.1,6.01l.05,2.36,22.69-27.37c-3.73.08-10.85-.59-15.04-6.28"/><path class="cls-6" d="M1620.02,415.41c-.09.01-8.91,1.24-12.84-4.09-23.94-37.75-48.91-65.52-74.24-82.55-10.48-7.05-22.23-10.88-33.59-14.58-3.6-1.17-7.21-2.35-10.91-3.67-9.93-3.54-23.53-8.38-33.77-1.28l-.39.27-.26.4c-.04.07-4.49,6.9-11.02,5.39-4.18-1.01-14.21-2.93-16.95,1.24-.46.71-.69,1.48-.7,2.32-1.32-.06-2.62.27-3.71,1.27-2.69,2.45-4.15,8.4,8.32,32.73.31.74,7.8,18.41,27.2,38.59,17.86,18.57,49.6,42.75,99.2,52.39.92.26,22.22,6.15,38.09,6.15.41,0,.81,0,1.21-.01l-.05-2.36-.05-2.36c-15.3.27-37.69-5.9-38.1-6.01-92.75-18.05-122.81-87.5-123.18-88.36-12.37-24.15-9.45-27.24-9.42-27.27.4-.22,2.06.22,3.38,1.02l3.15-3.45c-1.02-1.32-1.21-2-1.32-2.07,1.19-.8,6.83-.44,11.85.77,8.72,1.98,14.47-5.13,15.83-7.02,8.23-5.35,20.28-1.06,29.2,2.12,3.64,1.3,7.29,2.49,10.94,3.67,11.56,3.77,22.47,7.32,32.4,14,24.78,16.66,49.3,43.97,72.98,81.29,4.19,5.69,11.31,6.36,15.04,6.28,1.38-.03,2.31-.16,2.44-.17l-.72-4.67Z"/><path class="cls-5" d="M1694.83,210.03s-14.39-7.83-25.26-3.07c-.48.64-1.31,1.44-2.59,1.83-1.08.33-2.84.46-5.05-.85l-.38-.28s-1.38-1.16-2.52-.72c-.71.27-3.14,1.92-4.26,11.54-.25,1.33-21.96,115,43.97,169.58l-1.52,1.82,49.38-4.59-2.36-.24c.13-1.33,12.78-133.59-49.39-175.02"/><path class="cls-6" d="M1747.77,312.42c-6.1-51.69-23.49-88.46-50.45-106.42-.7-.39-17.23-9.44-30.42-3.02l-.97.53-.35.77c-.12.03-.46,0-1.04-.31-1.38-1.14-4.21-2.56-7.16-1.47-3.9,1.45-6.29,6.5-7.31,15.25-.23,1.17-22.49,117.56,45.62,173.94l1.52-1.82,1.52-1.82c-65.92-54.58-44.22-168.25-43.97-169.58,1.12-9.62,3.55-11.27,4.26-11.54,1.14-.44,2.52.72,2.52.72l.38.28c2.21,1.32,3.97,1.19,5.05.86,1.28-.39,2.1-1.19,2.58-1.83,10.87-4.76,25.25,3.07,25.26,3.07,62.16,41.42,49.52,173.69,49.39,175.02l2.37.24,2.36.24c.03-.34,3.39-34.33-1.18-73.1"/><path class="cls-5" d="M1933.13,424.46c.77-.5,62.02-39.91,88.99-69.39l.58-.46c2.05-1.17,4.11-2.92,4.52-3.81-.64-.45-3.63-1.84-15.63-1.32-7.94-.18-12.16-1.73-12.72-4.59-.63-3.25,3.27-5.39,7.58-7.22,2.44-.87,4.89-2.29,5.47-3.12-.58-.57-3.48-2.59-16.73-4.2l-.43-.09c-.26-.08-28.69-8.13-83.13,28.37-.33.22-29.47,19.09-40.94,38.4-.34.73-10.75,21.95-26.91,31.5l16.62,16.92.4-2.33c.39.06,39.26,6.3,72.33-18.65"/><path class="cls-6" d="M2031.88,349.47c-1.13-3.88-7.25-5.3-20.33-4.73-2.59-.06-5.37-.42-7.01-.85.7-.45,1.84-1.06,3.65-1.83,2.73-.96,9.04-3.67,8.56-8.03-.46-4.18-6.49-6.61-20.78-8.35-3.09-.87-32.35-7.6-86.96,29-1.23.79-30.37,19.66-42.5,40.12-.1.21-10.41,21.28-25.6,29.94l1.19,2.05,1.18,2.05c.18-.1.34-.22.51-.32,16.16-9.54,26.57-30.76,26.91-31.5,11.46-19.31,40.6-38.19,40.93-38.4,54.45-36.49,82.87-28.45,83.14-28.37l.43.09c13.25,1.61,16.16,3.62,16.73,4.2-.58.83-3.03,2.25-5.47,3.12-4.31,1.83-8.21,3.97-7.58,7.22.56,2.87,4.78,4.42,12.72,4.59,12-.52,14.99.88,15.63,1.32-.42.89-2.48,2.65-4.52,3.81l-.58.46c-26.97,29.48-88.23,68.9-88.99,69.39-33.08,24.95-71.94,18.71-72.33,18.65l-.4,2.33-.4,2.33c.57.1,5.47.89,13.05.89,14.83,0,39.91-3.05,62.82-20.33.62-.4,62.02-39.9,89.53-69.81,2.2-1.3,7.66-5,6.49-9.05"/><path class="cls-5" d="M1854.84,310.5c9.26-18.41,33.24-69.17,32.69-82.1v-.29s.04-.28.04-.28c0-.03.75-4.15-1.98-6.69-2.12-1.97-7.02-3.71-18.43-.8-.38.08-29.04,6.62-54.2,48.09-.21.35-20.55,33.61-29.95,67.69-.07.25-7.4,29.01-4.77,44.04l-2.34.41,18.53,8.86-.98-2.15c.27-.12,27.31-13.02,61.38-76.78"/><path class="cls-6" d="M1888.9,217.74c-4.33-4.09-12.04-4.75-22.81-2-1.25.26-30.87,6.87-57.19,50.24-.21.34-20.89,34.15-30.48,68.93-.31,1.22-7.66,30.03-4.85,46.06l2.34-.4,2.34-.4c-2.63-15.03,4.7-43.79,4.77-44.04,9.4-34.08,29.74-67.34,29.95-67.69,25.16-41.48,53.82-48.01,54.2-48.1,11.41-2.91,16.32-1.16,18.43.8,2.73,2.54,1.99,6.67,1.98,6.69l-.06.28v.29c.56,12.93-23.42,63.68-32.68,82.1-34.08,63.76-61.11,76.65-61.38,76.78l.98,2.15.98,2.16c1.15-.52,28.62-13.38,63.65-78.92,1.38-2.74,33.61-67.02,33.23-84.21.2-1.37.71-6.84-3.4-10.72"/><path class="cls-5" d="M1700.07,279.96c-.03-.12-4.69-19.92-7.32-25.98-.89-1.46-5.04-9.38-4.39-29.18-.26-2.5-1.85-10.04-5.99-11.34-3.69-1.15-9.59,2.71-16.61,10.9-.22.26-24.51,30.92-11.16,101.82.06.39,3.48,25.91,9.46,39.77.06.14,6.69,14.98,18.74,20.66l-1.02,2.14,21.99-12.29-2.35-.39c.08-.48,8.06-48.64-1.35-96.12"/><path class="cls-6" d="M1704.72,278.97c-.2-.84-4.9-20.77-7.69-27.04l-.21-.37c-.04-.07-4.36-6.8-3.72-26.88-.13-1.35-1.44-13.23-9.29-15.7-5.88-1.86-12.97,2.18-21.7,12.37-1.07,1.29-25.99,32.42-12.21,105.6.14,1.07,3.54,26.43,9.79,40.91.29.67,7.38,16.6,21.07,23.06l1.02-2.14,1.02-2.14c-12.05-5.68-18.68-20.52-18.74-20.66-5.98-13.87-9.4-39.39-9.46-39.77-13.34-70.9,10.95-101.56,11.16-101.82,7.02-8.19,12.92-12.05,16.61-10.9,4.13,1.3,5.73,8.84,5.99,11.34-.65,19.8,3.49,27.71,4.39,29.18,2.63,6.06,7.29,25.86,7.32,25.98,9.41,47.48,1.44,95.63,1.35,96.12l2.35.39,2.35.4c.08-.49,8.21-49.47-1.39-97.9"/><path class="cls-5" d="M1611.56,414.39c-.12-.5-12.2-49.99-66.36-71.95-.68-.4-45.16-27.49-72.19-14.38.01,0-7.56,4.68-7.85,11.1-.18,3.85,2.32,7.7,7.41,11.45.45.37,36.52,30.77,51.34,38.8.61.37,52.89,32.72,62.85,35.39,1.55.57,5.73,1.82,8.17,1.31.38-.05,6.13-.67,10.68,2.87l7.52-14.95-1.56.36Z"/><path class="cls-6" d="M1546.65,339.61c-1.88-1.16-46.44-28.3-75.18-14.34-.37.22-9.14,5.6-9.52,13.74-.23,4.98,2.69,9.75,8.62,14.11,1.49,1.26,36.69,30.92,51.72,39.05,2.17,1.34,53.22,32.93,63.48,35.67.6.23,6.01,2.19,9.67,1.43.05,0,4.9-.52,8.42,2.38l1.02-1.23,1.03-1.23c-.1-.08-.2-.13-.3-.21-4.55-3.53-10.3-2.92-10.68-2.87-2.43.51-6.62-.74-8.17-1.31-9.95-2.67-62.24-35.02-62.85-35.39-14.82-8.02-50.9-38.42-51.34-38.8-5.09-3.75-7.58-7.6-7.41-11.45.29-6.42,7.86-11.1,7.85-11.1,27.03-13.11,71.5,13.98,72.19,14.38,54.17,21.96,66.25,71.45,66.36,71.95l1.56-.36,1.56-.36c-.12-.51-12.52-51.58-68.04-74.06"/><path class="cls-5" d="M1553.26,499.92c-.44-.44-44.85-44.13-88.39-50.32-.55-.09-50.27-8.12-68.93-5.48-4.19.15-15.03,1.64-17.98,6.89-1.37,2.43-.91,5.67,1.37,9.63l1.06,1.84-1.72,1.25s-2.97,2.24-2.99,5.32c-.02,2.34,1.62,4.78,4.88,7.28.49.37,50.46,38,94.24,45.99.56.14,37.36,9.63,71.85-6.19l1,2.15,7.3-20.04-1.68,1.67Z"/><path class="cls-6" d="M1465.59,444.93c-2.07-.34-50.94-8.23-70.06-5.51-.69.02-16.85.64-21.72,9.29-2.01,3.57-1.84,7.81.5,12.61-1.44,1.51-3.35,4.17-3.39,7.65-.05,3.91,2.21,7.66,6.74,11.12,2.08,1.58,51.36,38.68,96.09,46.85.85.23,12.18,3.16,28.13,3.16,13.47,0,30.23-2.09,46.75-9.67l-1-2.15-1-2.15c-34.49,15.82-71.3,6.33-71.85,6.19-43.79-8-93.75-45.62-94.24-45.99-3.26-2.49-4.9-4.94-4.88-7.28.02-3.08,2.97-5.31,2.99-5.32l1.72-1.25-1.06-1.84c-2.28-3.96-2.74-7.2-1.37-9.63,2.95-5.25,13.79-6.74,17.98-6.89,18.66-2.64,68.38,5.38,68.93,5.48,43.54,6.18,87.95,49.87,88.39,50.32l1.68-1.67,1.68-1.67c-1.86-1.84-45.96-45.25-91.03-51.64"/><path class="cls-5" d="M1896.15,529.58c.73.23,53.6,17.1,99.36-14.49,1.52-1.31,41.92-35.57,71.66-41.22,2.73-1.05,4.86-2.76,4.82-3.34,0-.02-.74-2.6-13.33-5.38-18.34-4.01-36.38,4.19-53.81,12.12-7.64,3.48-15.55,7.08-23.27,9.51-21.9,6.88-46.97,11.53-78.89,14.64-.38.01-16.62.22-28.62,7.32l-1.21-2.03,10.39,24.4c1.61-1.29,5.46-3.26,12.91-1.52"/><path class="cls-6" d="M2059.68,460.54c-19.89-4.35-38.67,4.18-56.81,12.44-7.86,3.58-15.29,6.96-22.73,9.3-21.57,6.78-46.33,11.36-77.7,14.43-.71,0-17.68.21-30.8,7.97l1.22,2.03,1.22,2.03c11.99-7.1,28.24-7.3,28.62-7.32,31.92-3.11,56.99-7.76,78.89-14.64,7.72-2.43,15.63-6.03,23.27-9.51,17.43-7.93,35.47-16.13,53.81-12.12,12.6,2.78,13.34,5.35,13.34,5.38.04.59-2.09,2.29-4.82,3.34-29.74,5.65-70.14,39.91-71.66,41.22-45.77,31.59-98.63,14.72-99.37,14.49-7.44-1.75-11.3.23-12.91,1.52-.52.42-.81.76-.9.88l3.72,2.94s2.22-2.34,8.79-.8c.28.09,15.14,4.85,36.04,4.85,19.53,0,44.36-4.15,67.52-20.15.41-.35,41.33-35.05,69.83-40.34l.39-.1c1.41-.52,8.43-3.34,8.1-8.16-.28-4.15-5.54-7.14-17.05-9.68"/><path class="cls-5" d="M1895.54,463.66c.42.07,27.74,4.31,74.66-21.66,1.48-.86,36.92-21.31,59.23-17.97,1.6-.07,13.2-.32,33.99,4.84,1.19.35,2.48.63,3.45.75-.7-.7-1.93-1.77-4.12-3.37-22.68-16.64-53.12-15.02-74.65-10.72-8.68,1.74-17.37,4.77-25.78,7.71-16.13,5.63-32.79,11.45-50.64,8.76-.03.03-30.62.89-41.02,16.38l-6.87,7.47,18,13.86c.77-1.4,4.36-6.72,13.77-6.03"/><path class="cls-6" d="M2064.65,423.67c-23.62-17.33-55.01-15.7-77.19-11.28-8.89,1.78-17.7,4.86-26.21,7.83-15.76,5.5-32.05,11.18-49.37,8.6-1.33.03-32.57.9-43.75,17.59l-6.81,7.37,1.18,1.08,1.18,1.08.09-.1,6.87-7.47c10.4-15.49,40.99-16.35,41.02-16.38,17.85,2.69,34.52-3.13,50.64-8.76,8.41-2.94,17.11-5.97,25.78-7.71,21.53-4.3,51.97-5.92,74.65,10.72,2.19,1.6,3.42,2.68,4.12,3.37-.97-.13-2.25-.4-3.45-.75-20.79-5.15-32.38-4.91-33.99-4.84-22.31-3.34-57.75,17.11-59.23,17.97-46.92,25.97-74.24,21.74-74.66,21.66-9.41-.69-12.99,4.63-13.77,6.03-.1.17-.16.31-.18.35l2.93,1.31c.1-.21,2.52-5.09,10.62-4.52,1.14.21,28.58,4.55,76.65-22.05.36-.21,36.2-20.83,57.3-17.57l.17.03h.17c.12-.02,11.7-.6,33.13,4.71,6.91,2.06,7.83.19,8.14-.43.92-1.84-.66-3.89-6.06-7.84"/><path class="cls-5" d="M1902.78,577.32c4.58,1.64,88.04,30.62,161.64-8.09,10.32-4.43,36.69-18.23,36.15-29.37,0-.69-.52-15.43-28.18-16.12-11.43-.28-23.04-.97-34.27-1.64-45.95-2.75-89.36-5.35-130.73,17.06-1.36.74-2.92,1.7-4.61,2.75-7.63,4.71-17.95,11.05-25.93,7.14l2.53,23.66c2.18-.79,11.86-3.53,23.42,4.62"/><path class="cls-6" d="M2072.46,520.56c-11.38-.28-22.96-.97-34.16-1.64-44.38-2.66-90.28-5.41-132.46,17.44-1.4.76-3.02,1.76-4.77,2.84-7.25,4.47-17.18,10.6-23.59,6.59l-.85,1.35-.86,1.35c.34.22.7.38,1.06.56,7.98,3.91,18.3-2.43,25.93-7.13,1.7-1.05,3.25-2.01,4.61-2.75,41.37-22.41,84.78-19.81,130.73-17.06,11.23.67,22.84,1.37,34.27,1.64,27.67.69,28.17,15.42,28.18,16.12.54,11.14-25.83,24.94-36.15,29.37-73.59,38.71-157.06,9.73-161.64,8.09-11.55-8.16-21.24-5.41-23.42-4.62-.24.09-.42.16-.47.18l1.28,2.93c.38-.16,9.54-3.9,20.91,4.24l.37.2c.53.2,33.43,12.23,76.44,12.22,27.14,0,58.31-4.79,87.9-20.36,1.58-.68,38.73-16.78,37.97-32.32,0-.75-.36-18.46-31.31-19.23"/><path class="cls-5" d="M1945.68,273.31c-.08-.2-6.43-14.76-43.34-2.53-.46.22-62.59,29.61-84.8,134.02l-1.57-.33,36.42,26.63-1.18-1.08c1.11-1.19,110.37-119.85,94.48-156.71"/><path class="cls-6" d="M1948.65,272.12c-.27-.73-7.18-17.67-47.49-4.3-.66.3-16.32,7.54-34.95,28.03-17.13,18.83-40.03,52.91-51.81,108.29l1.57.33,1.57.33c22.22-104.41,84.34-133.8,84.8-134.02,36.92-12.23,43.26,2.33,43.34,2.53,15.89,36.86-93.37,155.52-94.48,156.71l1.18,1.08,1.18,1.08c4.57-4.94,111.77-121.39,95.09-160.06"/><path class="cls-5" d="M1869.17,322.35c.85-2.01,20.46-47.68,41.37-56.19-5.18.09-28.26,2.42-64.38,34.27-.32.28-30.02,26.43-50.14,91.12l-2.27-.7,18.55,9.55-1.56-1.78c.42-.36,42.36-37,58.43-76.27"/><path class="cls-6" d="M1927.26,263.65c-.38-2.58-2.24-3.11-15.33-2.19-2.86-.21-27.74-.88-68.89,35.41-1.25,1.08-30.99,27.15-51.56,93.28l2.27.7,2.27.7c20.12-64.69,49.82-90.84,50.14-91.12,36.12-31.85,59.2-34.18,64.38-34.27-20.91,8.51-40.52,54.18-41.37,56.19-16.07,39.27-58.01,75.91-58.43,76.27l1.56,1.78,1.56,1.78c1.76-1.52,43.21-37.72,59.71-78.02.2-.47,20.4-47.56,39.53-53.92,14.66-3.2,14.45-4.62,14.16-6.59"/><path class="cls-5" d="M1783.09,385.23c2.23-4.58,4.33-8.9,5.6-13.32,2.91-9.94,4.99-19.46,6.38-29.12,3.95-27.09,4.24-56.2.84-86.53-2.22-19.5-5.16-38.01-16.71-50.25-2.65-2.81-10.85-9.99-16.61-9.5-7.22.6-16.13,10.16-19.27,18.29-.21.73-26.77,89.01,1.92,149.6,1.09,1.65,9.51,14.93,7.9,24.81l32.01-2.79s.03-.06.04-.08l-2.18-.95.08-.17Z"/><path class="cls-6" d="M1800.64,255.73c-1.75-15.36-4.38-38.56-17.97-52.96-1.13-1.2-11.38-11.69-20.48-10.98-9.33.78-19.58,11.65-23.37,21.47-.28.9-27.41,91.05,2.18,153.31l.17.3c2.52,3.76,8.72,15.04,7.2,22.06l2.33.49,2.33.5c.05-.23.06-.47.1-.71,1.61-9.89-6.81-23.16-7.9-24.81-28.69-60.59-2.13-148.87-1.92-149.6,3.14-8.13,12.05-17.69,19.27-18.29,5.76-.49,13.96,6.7,16.61,9.5,11.55,12.24,14.49,30.75,16.71,50.25,3.39,30.33,3.11,59.44-.84,86.53-1.39,9.66-3.48,19.18-6.38,29.12-1.27,4.42-3.37,8.75-5.6,13.32l-.08.17,2.18.95,2.18.95c2.21-4.56,4.5-9.27,5.88-14.07,2.97-10.14,5.1-19.88,6.52-29.75,4.01-27.48,4.3-57,.86-87.73"/><path class="cls-5" d="M1650.53,208.17c-5.5-7.28-14.99-17.05-20.14-17.94-.14,1.15-.61,2.21-1.71,2.79-.93.5-2.45.7-4.39-1.13-.14-.14-1.07-1.1-1.87-.85-.57.18-3.52,1.71-5.5,14.76-.08.44-6.63,37.17.24,76.41.1.64,9.72,60.88,32.33,109.38l-2.16.99,32.07-10.91-2.35-.39c.19-1.15,18.85-115.48-26.53-173.11"/><path class="cls-6" d="M1685.75,316.32c-.86-33.52-7.01-80-31.45-111.02-2.89-3.83-17.77-22.78-27.16-19.43l-1.87.67.06.35c-1.19-.55-2.66-.84-4.24-.38-4.33,1.27-7.14,7.17-8.86,18.52-.07.38-6.78,37.9.24,77.96.1.61,9.81,61.48,32.71,110.59l2.16-.99,2.16-.99c-22.61-48.5-32.23-108.73-32.33-109.38-6.87-39.24-.32-75.98-.24-76.41,1.98-13.04,4.93-14.58,5.49-14.76.8-.24,1.73.71,1.87.85,1.93,1.83,3.46,1.63,4.39,1.13,1.1-.58,1.57-1.64,1.71-2.79,5.14.88,14.63,10.65,20.14,17.94,45.39,57.63,26.73,171.96,26.53,173.11l2.35.39,2.35.39c.05-.29,4.92-29.6,4-65.75"/><path class="cls-5" d="M1676.14,275.15l-.47-.75c-3.43-5.49-10.57-16.9-16.88-17.92-.78-.12-1.37-.25-1.81-.35-.07-.02-.14-.03-.2-.05-.07.11-.14.24-.24.39-.26.42-.59.97-1.06,1.67-.88,1.33-1.36,3.95-1.78,6.26-.31,1.73-.62,3.35-1.08,4.7-.92,2.59-1.99,5.17-3.07,7.78-.95,2.3-1.91,4.61-2.77,6.95-7.54,20.6-10.25,45.51-8.08,74.06,1.05,13.66,11.57,30.68,22.51,36.42l-.75,1.41,31.31-13.69-1.59-.23c5.25-35.43,7.18-72.87-14.04-106.65"/><path class="cls-6" d="M1678.86,273.46l-.46-.74c-4.24-6.78-11.34-18.13-19.1-19.39-.71-.11-1.22-.23-1.62-.31-2.13-.47-2.77-.02-3.88,1.8-.24.39-.55.9-1,1.57-1.24,1.88-1.76,4.71-2.26,7.45-.29,1.6-.57,3.12-.96,4.22-.9,2.53-1.95,5.06-3,7.62-.97,2.34-1.94,4.69-2.81,7.07-7.7,21.02-10.48,46.39-8.27,75.39,1.14,14.85,12.23,32.71,24.21,39l.75-1.41.75-1.41c-10.94-5.75-21.46-22.77-22.51-36.42-2.18-28.54.54-53.46,8.08-74.06.86-2.34,1.82-4.65,2.77-6.95,1.08-2.61,2.15-5.19,3.07-7.78.47-1.34.77-2.97,1.09-4.7.42-2.31.9-4.93,1.78-6.26.47-.7.8-1.25,1.06-1.67.09-.15.17-.28.24-.39.06.01.13.03.2.05.44.1,1.03.23,1.81.35,6.31,1.03,13.45,12.44,16.88,17.92l.47.75c21.22,33.78,19.29,71.22,14.04,106.65l1.59.23,1.59.23c5.08-34.31,7.33-74.06-14.5-108.8"/><path class="cls-5" d="M1611.91,335.25c-.3-.45-24.22-36.26-49.97-53.01-11.44-6-23.46-10.34-26.06-9.42,0,.05,0,.1.02.17l.48,2.93-2.98-.19s-2.35-.08-3.91,1.43c-1.12,1.09-1.66,2.84-1.6,5.2.1,1.03,12.04,119.44,75.94,142.92,1.95-.03,8.73,0,12.15,1.3l-.84,2.21,19.58-15.45-2.38-.08c.02-.48,1.44-48.1-20.42-78"/><path class="cls-6" d="M1615.82,332.56c-1-1.5-24.69-36.99-51.46-54.39-7.66-4.02-26.05-12.97-31.44-9.11-.51.36-1.21,1.03-1.57,2.12-1.5.27-3.45.94-5.12,2.54-2.14,2.04-3.18,4.98-3.08,8.91.03.31,3.02,30.99,14.15,64.18,14.86,44.31,37.44,73.03,65.32,83.06l.42.15h.44c3.01-.09,8.61.14,10.81.97l.84-2.21.84-2.21c-3.42-1.29-10.21-1.33-12.15-1.3-63.9-23.48-75.83-141.89-75.94-142.92-.06-2.36.48-4.11,1.6-5.2,1.56-1.51,3.92-1.43,3.91-1.43l2.98.19-.48-2.93c-.01-.07-.02-.12-.02-.17,2.6-.92,14.63,3.42,26.07,9.42,25.74,16.74,49.67,52.56,49.97,53.01,21.86,29.91,20.44,77.53,20.42,78l2.38.08,2.38.08c.07-2.02,1.51-49.71-21.27-80.86"/><path class="cls-5" d="M1572.38,243.92c-7.79-3.38-20.63-7.14-24.48-4.74-.46.29-.93.74-.98,1.94-.05.55-.48,4.09-2.95,6.02-1.25.97-2.8,1.35-4.47,1.12l-.48-.07c-.65,2.87-.2,15.57,21.06,70.27.23.47,31.01,63.51,79.48,83.75l-.92,2.18,23.76-14.16-2.34.42c-.21-1.14-21.52-114.2-87.69-146.73"/><path class="cls-6" d="M1645.63,327.65c-12.69-30.42-35.33-70.37-71.24-88.01-3.56-1.55-21.67-9.04-29.01-4.46-2,1.25-3.11,3.24-3.2,5.61-.09.78-.51,2.15-1.14,2.64-.11.08-.25.16-.48.18-1.27-.63-2.94-.74-4.3.3-2.37,1.81-7.91,6.03,19.47,76.43.32.66,7.98,16.48,21.92,35.11,12.91,17.26,33.82,40.15,60.09,51.12l.92-2.18.92-2.18c-48.47-20.24-79.25-83.28-79.48-83.75-21.27-54.7-21.72-67.39-21.06-70.27l.48.07c1.66.24,3.21-.15,4.46-1.12,2.47-1.93,2.9-5.47,2.95-6.02.05-1.2.52-1.65.98-1.94,3.85-2.4,16.69,1.35,24.48,4.74,66.16,32.52,87.48,145.59,87.69,146.73l2.34-.42,2.34-.42c-.05-.29-5.44-29.38-19.12-62.16"/><path class="cls-5" d="M1581.17,453.78c-.42-.52-53.04-67.93-102.82-76.4h0c-.41,0-13.42-.51-21.43-5.27-4.24-1.49-15.92-4.54-21.35-1.55-1.5.83-2.4,2.06-2.77,3.75-.07.34-6.67,33.89,42.8,74.08.29.14,52.1,29.07,102.39,24.62l.14,1.59,13.86-11.94c-2.5-.32-6.71-2-10.83-8.89"/><path class="cls-6" d="M1593.47,459.52c-.18.04-4.59.91-9.65-7.53-.13-.17-13.54-17.43-33.02-35.52-18.05-16.76-45.18-37.69-72.13-42.27-.13,0-12.92-.49-20.23-4.91l-.29-.14c-.66-.24-16.24-5.74-24.14-1.39-2.32,1.28-3.79,3.26-4.35,5.86-.32,1.44-7.24,35.68,44.13,77.38.49.28,45.9,25.65,93.47,25.65,3.67,0,7.35-.15,11.02-.48l-.14-1.59-.14-1.59c-50.29,4.45-102.1-24.48-102.39-24.62-49.47-40.2-42.88-73.74-42.8-74.08.36-1.7,1.27-2.93,2.77-3.75,5.43-2.99,17.1.06,21.35,1.55,8.01,4.77,21.01,5.27,21.43,5.27h0c49.78,8.47,102.4,75.88,102.82,76.4,4.12,6.89,8.32,8.57,10.83,8.89,1.33.17,2.19-.04,2.28-.06l-.81-3.09Z"/><path class="cls-5" d="M1557.33,513.39c-24.85-29.45-67.44-34.81-105.01-39.53l-7.28-.92c-9.2-1.18-19.01-2.11-29.99-2.83-10.68-.71-19.2-5.15-28.21-9.85l-1.42-.74c-7.03-3.65-10.32-4.56-11.73-4.76.07.16.15.34.25.55l1.35,2.71-2.97.65c-.72.16-1.63.61-1.84.9.05.01.23.47,1.06,1.26l2.05,1.96-2.3,1.66c-1.67,1.48-3.05,9.23,11.35,26.4.61.69,67.09,73.41,174.74,36.59l.77,2.24,1.01-17.79-1.82,1.52Z"/><path class="cls-6" d="M1386.83,460.25c9.01,4.7,17.53,9.14,28.21,9.85,10.98.73,20.79,1.65,30,2.83l7.28.92c37.58,4.72,80.17,10.08,105.01,39.53l1.82-1.52,1.82-1.52c-26.05-30.87-69.62-36.35-108.06-41.18l-7.27-.92c-9.3-1.19-19.21-2.13-30.29-2.86-9.68-.64-17.76-4.86-26.32-9.32l-1.53-.8c-12.6-6.55-15.97-5.86-17.74-4.14-.98.96-1.31,2.24-.98,3.84-1.19.64-2.44,1.67-2.9,3.28-.4,1.42-.1,2.88.92,4.34-.5.88-.96,2.08-1.16,3.66-.85,6.77,3.64,16.07,13.37,27.67.69.78,17.39,19.31,48.01,33.41,17.24,7.94,41.02,15.26,70.09,15.26,18.55,0,39.27-2.98,61.79-10.69l-.77-2.24-.77-2.24c-107.65,36.82-174.13-35.9-174.74-36.59-14.41-17.17-13.02-24.93-11.35-26.4l2.3-1.66-2.05-1.96c-.83-.79-1-1.24-1.06-1.26.21-.29,1.12-.73,1.84-.9l2.97-.65-1.35-2.71c-.1-.21-.19-.39-.25-.55,1.41.2,4.7,1.11,11.73,4.76l1.42.74Z"/><path class="cls-5" d="M1534.14,533.64c-4.46-1.47-84-26.68-152.88,10.67-9.67,4.31-34.31,17.6-33.59,27.87.02.64.81,14.22,26.91,14.32,10.83.04,21.83.46,32.47.86,43.57,1.67,84.72,3.23,123.45-18.42,1.28-.71,2.73-1.63,4.32-2.64,7.13-4.51,16.77-10.58,24.44-7.15l-2.83-21.68c-2.07.78-11.21,3.51-22.29-3.84"/><path class="cls-6" d="M1559.26,559.16c-7.67-3.44-17.31,2.64-24.44,7.15-1.58,1-3.04,1.93-4.32,2.64-38.73,21.65-79.88,20.09-123.46,18.42-10.64-.4-21.64-.82-32.47-.86-26.1-.1-26.89-13.68-26.91-14.32-.73-10.28,23.92-23.56,33.59-27.87,68.88-37.35,148.42-12.13,152.88-10.67,11.09,7.34,20.22,4.61,22.29,3.84.24-.09.41-.16.45-.18l-1.32-2.91c-.36.16-8.92,3.79-19.81-3.52l-.37-.18c-.83-.28-83.84-28.12-155.55,10.76-3.73,1.66-36.38,16.61-35.37,30.88.01.7.71,17.25,30.11,17.37,10.77.03,21.75.45,32.36.86,11.03.42,22.15.84,33.27.84,31.35,0,62.71-3.36,91.88-19.67,1.32-.73,2.83-1.69,4.47-2.72,6.76-4.27,16.02-10.13,22.15-6.57l.81-1.38-.25-1.89Z"/><path class="cls-5" d="M1476.52,452.52c-1.42-.08-33.09-2.05-51.6-13.68-.79-.49-18.38-11.3-26.85-21.26,3.59,4.27,6.89,8.94,9.54,13.53,3.21,5.53,4.96,11.55,6.66,17.37,1.78,6.1,3.45,11.87,6.68,17.18,5.82,9.6,14.84,18.63,26.82,26.86,27.11,18.57,61.71,25.14,108.9,20.7l.22,2.35,16.19-17.14-2.22.85c-.17-.45-18.53-45.03-94.34-46.75"/><path class="cls-6" d="M1476.72,447.8c-.32-.02-31.79-1.97-49.28-12.97-.21-.13-21.16-13.01-27.63-22.79l-.57-.6c-1.52-1.12-4.38-2.74-6.43-1.02-2.14,1.79-1.11,5.08,1.09,9.48l.31.47c3.5,4.13,6.71,8.66,9.28,13.11,2.93,5.04,4.52,10.52,6.21,16.33,1.78,6.13,3.63,12.47,7.18,18.31,6.16,10.17,15.65,19.69,28.19,28.31,26.85,18.39,57.85,22.93,84.47,22.93,9.95,0,19.29-.63,27.58-1.41l-.22-2.35-.22-2.35c-47.19,4.44-81.79-2.13-108.9-20.7-11.98-8.23-21-17.26-26.82-26.86-3.23-5.31-4.91-11.07-6.68-17.18-1.69-5.82-3.44-11.84-6.66-17.37-2.65-4.59-5.94-9.26-9.54-13.53,8.47,9.96,26.06,20.78,26.85,21.26,18.52,11.64,50.18,13.6,51.6,13.68,75.8,1.72,94.16,46.3,94.34,46.75l2.22-.85,2.22-.85c-.76-1.96-19.49-47.98-98.58-49.78"/><path class="cls-3" d="M1594.87,353.45s22.06,28.81,46.78,32.17c0,0,3.18-29.27-14.83-59.98,0,0,11.2,29.99,11.06,50.69,0,0-25.66-3.7-43.02-22.89"/><path class="cls-6" d="M1560.63,453.99s13.79-24.54-43.4-50.98c0,0,44.34,22.62,40.04,47.51-4.28,24.94.49,1.16.49,1.16,0,0-20.52,11.89-61.5-6.9,0,0,38.11,23.38,64.36,9.22"/><path class="cls-6" d="M1529.41,537.78s-38.5-12.73-109.11-1.05c0,0,67.32-8.08,85.82,8.33,0,0,6.34,10.33-.9,19.08l3.85.67"/><path class="cls-6" d="M1837.46,414.29s20.56-1.09,44.52-47.48c0,0-28.36,46.24-50.1,36.71-21.75-9.55.6-17.52.6-17.52,0,0-30.55,5.39-12.63,27.69"/><path class="cls-6" d="M1789.5,278.33s11.74,74.27-16.84,103.6c-28.58,29.32,0,0,0,0,0,0-35.65,4.88-34.64-55.74,0,0,9.09,62.76,33.32,41.47,24.21-21.28,18.17-89.32,18.17-89.32"/><path class="cls-3" d="M1554.02,266.63c6.02,53.12,34.93,101.06,82.39,126.54-48.3-24.61-77.44-73.02-82.39-126.54"/><path class="cls-3" d="M1857.21,451.87c42.98,11.95,87.75,4.53,124.25-20.61-34.73,31.08-80.94,38.63-124.25,20.61"/><path class="cls-3" d="M1901.33,555.15c0,3.65-7.55,6.62-7.74,10.2-.2,3.65,2.77,6.99,2.38,10.56-.41,3.49-.99,8.75-.25,12.16.83,3.82,4.46,6.36,4.64,10.42.18,3.76-.45,8.39-2.87,11.44-2.27,2.9-6.95,3.66-8.22,7.31-1.22,3.43,2.8,8.64,1.43,11.98-1.41,3.34-4.9,5.7-6.47,8.95-1.84,3.78,2.1,7.24,2.04,10.86-.07,3.96-3.9,8.7-5.98,11.98-1.93,3.07-.58,8.84-2.68,11.8-3.61,5.03-12.41-1.62-14.92,5.01-1.52,4.08,3.98,11.78-2.86,13.11-5.1,1.02-11.96-9.31-16.93-5.12-4.23,3.56,1.99,10.55,3.09,14.12,3.45,11.08-22.08,5.08-26.13,7.92-3.02,2.13-1.99,6.19-3.54,9.11-1.84,3.45-7.81,6.41-11.55,7.19-4.01.85-8.89-2.89-12.56-1.11-3.27,1.56-1.62,13.89-4.97,15.3-4.53,1.87-5.34,9.59-11.05,7.65-4.05-1.36-8.93-14.36-13.75-12.98-3.47.98-6.33,2.74-9.87,3.54-3.54.83-5.91,6.15-9.5,6.74-3.58.6-7.91-6.67-11.55-6.28-3.58.4-6.25,7.57-9.9,7.79-3.97.22-5.4,4.55-8.76,5.81-4.9,1.85-8.1-3.01-12.83-3.25-8.51-.47-19.17-7.99-27.01-3.58-2.87,1.6-6.18,2-9.03,3.65-2.66,1.54-5.48,5.46-8.96,4.88-5.42-.91-3.25-11.76-3.47-15.39-.2-2.6-.14-6.05-2.87-7.31-2.44-1.11-4.32.63-6.61,1.12-2.53.58-3.99-.13-6.38,0-4.86.26-9.36,4.32-14.33,3.32-5.62-1.14-13.7-5.86-17.33-10.35-2.67-3.32-.98-10.06-4.48-12.56-2.95-2.09-3.59-6.94-6.41-9.19-2.87-2.25-3.07-6.97-5.78-9.4-2.71-2.4-11.57,2.03-14.15-.53-2.55-2.56-1.84-8.08-4.25-10.77-2.42-2.7-11.74.35-14.02-2.47-2.24-2.83-7.34-4.01-9.45-6.94-2.11-2.94-3.63-6.81-5.55-9.89-2.38-3.74-3.99-11.58-2.51-15.59,1.23-3.27,8.29-7.48,4.86-11.49-3.77-4.36-12.25.85-16.77-.13-7.35-1.53-9-9.88-5.38-15.62,2.51-3.92,10.13-6.01,11.02-10.56,1.39-7.04-7.86-6.64-11.6-9.4-5.8-4.32-3.42-11.08-4.07-17.16-.68-6.15-8.11-8.75-8.85-14.38-1.68-12.8,23.27-21.97,18.47-35.06-2.19-5.99-22.78-16.7-10.95-24.38,4.45-2.87,13.95,1.8,17.71-2.43,4.75-5.29-9-10.33-11.52-12.91-4.57-4.72,2.64-10.98,6.5-14.27,3.56-3.07,12.7-3.09,14.78-7.41,1.61-3.25,3.14-3.12,4.88-6.28,2.69-4.85-4.59-9.22-6.18-12.98-3.63-8.48,10.12-3.32,13.26-7.68,2.11-2.94,1.25-8.15,3.54-10.95,2.38-2.96,9.85.98,12.81.85,5.8-.27,4.52-5.01,7.08-9.08,2.19-3.56,5.24-4.39,8.33-6.77,4.48-3.45.98-8.01-.22-13.07-1.48-6.26-.92-7.7,3.22-12.98,4.64-5.94,5.73-4.19,11.69-.8,2.11,1.16,4.7,3.25,7.03,3.89,3.47.96,11.51.65,14.15-2.09,3-3.09.85-8.24,1.26-12,.76-6.99,7.79-7.59,12.72-11.36,3.85-2.98,6.14-9.84,11.29-5.87,3.63,2.8,5.64,8.19,9.31,11.02,3.54,2.73,8.51,2.42,12.5.95,3.5-1.31,5.78-4.81,8.87-6.77,3.9-2.49,8.56-3.56,12.41-6.19,3.18-2.2,3.92-5.97,6.76-8.24,4.03-3.25,10.6-1.16,15.19-.44,3.81.58,10.44.27,13.3,3.3,3.07,3.18,2.6,15.54,9.34,11.75,3.74-2.09,6.78-14.29,11.89-9.8,3.36,2.94.85,15.11,5.69,16.45,6,1.67,7.72-7.84,9.59-11.46,5.06-9.93,9.27-1.76,16.39.71,3.45,1.2,3.4,11.92,6.77,13.31,4.27,1.76,7.65-4.49,11.1-5.75,6.72-2.44,7.11,5.88,11.94,8.51,3.18,1.78.38,13.49,3.48,15.43,3.38,2.14,7.05-.94,10.57-.2,4.68,1,5.1,6.01,8.19,8.95,3.34,3.21,8.35,1.58,11.62,4.5,2.72,2.4,7.37,2.98,9.97,5.52,2.55,2.58,7.43,3.38,9.87,6.05,2.42,2.72,6.32,4.74,8.58,7.57,4.57,5.66,10.97,6.39,6.05,14.03-2.26,3.47-11.1,10.35-5.74,14.25,4.1,2.96,12.79-3.56,15.73,1.16,3.05,4.94-7.92,10.5-5.53,15.47,2.8,5.72,14.71-1.8,17.58,3.32,3.14,5.68-11.91,10.73-9.99,16.21,1.21,3.41,5.96,5.39,6.97,8.88,1.01,3.45,13.86,4.07,14.67,7.64.8,3.52-5.83,8.82-5.24,12.38.63,3.56,9.27,6.32,9.67,9.93.4,3.58-7.03,8.15-6.83,11.8.2,3.58-5.81,7.3-5.81,10.95"/><path class="cls-5" d="M1667.85,566.66c0,2.87,2.37,5.23,5.28,5.23s5.24-2.36,5.24-5.23-2.33-5.24-5.24-5.24-5.28,2.36-5.28,5.24M1679.72,540.41c-2.93,0-5.28,2.36-5.28,5.23s2.36,5.23,5.28,5.23,5.24-2.33,5.24-5.23-2.35-5.23-5.24-5.23M1710.6,511.56c0,2.89,2.35,5.25,5.26,5.25s5.29-2.36,5.29-5.25-2.38-5.26-5.29-5.26-5.26,2.36-5.26,5.26M1678.76,633.07c2.91,0,5.26-2.34,5.26-5.23s-2.35-5.23-5.26-5.23-5.26,2.34-5.26,5.23,2.35,5.23,5.26,5.23M1681.58,585.25c-2.91,0-5.26,2.36-5.26,5.23s2.35,5.23,5.26,5.23,5.27-2.34,5.27-5.23-2.35-5.23-5.27-5.23M1707.89,482.26c-2.91,0-5.28,2.36-5.28,5.25s2.38,5.23,5.28,5.23,5.27-2.33,5.27-5.23-2.38-5.25-5.27-5.25M1697.46,502.21c0,2.89,2.32,5.25,5.26,5.25s5.26-2.36,5.26-5.25-2.35-5.23-5.26-5.23-5.26,2.33-5.26,5.23M1691.55,575.09c0-2.91-2.38-5.25-5.29-5.25s-5.24,2.34-5.24,5.25,2.33,5.21,5.24,5.21,5.29-2.34,5.29-5.21M1679.72,651.28c2.89,0,5.24-2.33,5.24-5.23s-2.35-5.24-5.24-5.24-5.28,2.36-5.28,5.24,2.36,5.23,5.28,5.23M1701.78,525.2c2.91,0,5.27-2.34,5.27-5.23s-2.35-5.25-5.27-5.25-5.26,2.36-5.26,5.25,2.33,5.23,5.26,5.23M1683.35,558.73c0,2.87,2.37,5.23,5.28,5.23s5.24-2.36,5.24-5.23-2.33-5.24-5.24-5.24-5.28,2.32-5.28,5.24M1690.4,533.51c0,2.89,2.35,5.25,5.26,5.25s5.28-2.36,5.28-5.25-2.37-5.23-5.28-5.23-5.26,2.34-5.26,5.23M1675.55,611.97c0-2.9-2.33-5.24-5.24-5.24s-5.29,2.34-5.29,5.24,2.38,5.25,5.29,5.25,5.24-2.36,5.24-5.25M1742.29,522.78c0-2.92-2.38-5.25-5.29-5.25s-5.26,2.33-5.26,5.25,2.35,5.21,5.26,5.21,5.29-2.31,5.29-5.21M1746.17,457.28c-2.92,0-5.26,2.36-5.26,5.25s2.34,5.23,5.26,5.23,5.26-2.34,5.26-5.23-2.35-5.25-5.26-5.25M1732.3,534.35c-2.91,0-5.26,2.32-5.26,5.24s2.35,5.23,5.26,5.23,5.29-2.36,5.29-5.23-2.38-5.24-5.29-5.24M1746.86,504.19c2.91,0,5.29-2.34,5.29-5.23s-2.37-5.25-5.29-5.25-5.28,2.36-5.28,5.25,2.37,5.23,5.28,5.23M1731.36,550.23c-2.91,0-5.26,2.34-5.26,5.23s2.35,5.26,5.26,5.26,5.28-2.36,5.28-5.26-2.37-5.23-5.28-5.23M1753.53,542.37c0-2.89-2.35-5.21-5.24-5.21s-5.29,2.32-5.29,5.21,2.38,5.26,5.29,5.26,5.24-2.36,5.24-5.26M1692.39,624.21c2.89,0,5.24-2.36,5.24-5.25s-2.35-5.21-5.24-5.21-5.28,2.32-5.28,5.21,2.35,5.25,5.28,5.25M1703.28,591.41c0-2.87-2.35-5.23-5.26-5.23s-5.26,2.36-5.26,5.23,2.35,5.24,5.26,5.24,5.26-2.36,5.26-5.24M1689.19,606.84c0-2.89-2.35-5.25-5.26-5.25s-5.29,2.36-5.29,5.25,2.38,5.21,5.29,5.21,5.26-2.32,5.26-5.21M1716.45,584.89c0-2.92-2.37-5.26-5.28-5.26s-5.26,2.34-5.26,5.26,2.35,5.21,5.26,5.21,5.28-2.31,5.28-5.21M1720.57,605.99c2.91,0,5.26-2.34,5.26-5.25s-2.35-5.21-5.26-5.21-5.29,2.31-5.29,5.21,2.38,5.25,5.29,5.25M1729.97,593.39c2.91,0,5.27-2.36,5.27-5.25s-2.35-5.23-5.27-5.23-5.28,2.34-5.28,5.23,2.37,5.25,5.28,5.25M1731.36,567.97c-2.91,0-5.26,2.36-5.26,5.24s2.35,5.23,5.26,5.23,5.28-2.33,5.28-5.23-2.37-5.24-5.28-5.24M1768.58,572.27c0-2.89-2.37-5.23-5.28-5.23s-5.24,2.34-5.24,5.23,2.33,5.23,5.24,5.23,5.28-2.34,5.28-5.23M1779.28,465.67c2.91,0,5.27-2.34,5.27-5.23s-2.36-5.26-5.27-5.26-5.26,2.36-5.26,5.26,2.35,5.23,5.26,5.23M1771.19,493.13c0,2.89,2.36,5.23,5.27,5.23s5.26-2.34,5.26-5.23-2.35-5.25-5.26-5.25-5.27,2.36-5.27,5.25M1779.28,481.33c2.91,0,5.27-2.36,5.27-5.25s-2.36-5.24-5.27-5.24-5.26,2.34-5.26,5.24,2.35,5.25,5.26,5.25M1771.29,521.73c-2.88,0-5.26,2.34-5.26,5.24s2.38,5.25,5.26,5.25,5.26-2.36,5.26-5.25-2.33-5.24-5.26-5.24M1759.17,528.37c0-2.87-2.32-5.23-5.24-5.23s-5.29,2.36-5.29,5.23,2.33,5.23,5.29,5.23,5.24-2.34,5.24-5.23M1778.48,512.27c0,2.9,2.36,5.26,5.27,5.26s5.29-2.36,5.29-5.26-2.38-5.25-5.29-5.25-5.27,2.36-5.27,5.25M1773.29,542.86c0-2.89-2.38-5.25-5.29-5.25s-5.26,2.36-5.26,5.25,2.34,5.21,5.26,5.21,5.29-2.34,5.29-5.21M1785.51,495.93c0,2.89,2.38,5.23,5.29,5.23s5.26-2.34,5.26-5.23-2.34-5.26-5.26-5.26-5.29,2.36-5.29,5.26M1804.75,536.31c0-2.89-2.35-5.23-5.26-5.23s-5.29,2.34-5.29,5.23,2.38,5.25,5.29,5.25,5.26-2.36,5.26-5.25M1794.78,561.16c2.92,0,5.27-2.34,5.27-5.23s-2.35-5.23-5.27-5.23-5.28,2.34-5.28,5.23,2.38,5.23,5.28,5.23M1794.78,486.45c2.92,0,5.27-2.34,5.27-5.23s-2.35-5.23-5.27-5.23-5.28,2.34-5.28,5.23,2.38,5.23,5.28,5.23M1793.37,444.46c-2.93,0-5.27,2.33-5.27,5.23s2.33,5.23,5.27,5.23,5.26-2.34,5.26-5.23-2.35-5.23-5.26-5.23M1796.17,459.64c-2.89,0-5.24,2.31-5.24,5.23s2.34,5.23,5.24,5.23,5.29-2.34,5.29-5.23-2.35-5.23-5.29-5.23M1704.13,601.12c-2.91,0-5.28,2.34-5.28,5.23s2.37,5.26,5.28,5.26,5.26-2.36,5.26-5.26-2.35-5.23-5.26-5.23M1711.16,542.5c2.91,0,5.28-2.36,5.28-5.25s-2.37-5.25-5.28-5.25-5.26,2.36-5.26,5.25,2.35,5.25,5.26,5.25M1715.86,573.31c2.91,0,5.29-2.36,5.29-5.25s-2.38-5.23-5.29-5.23-5.28,2.34-5.28,5.23,2.38,5.25,5.28,5.25M1700.84,567.51c-2.93,0-5.26,2.34-5.26,5.23s2.33,5.23,5.26,5.23,5.27-2.33,5.27-5.23-2.38-5.23-5.27-5.23M1701.31,544.62c-2.91,0-5.28,2.34-5.28,5.23s2.38,5.26,5.28,5.26,5.27-2.36,5.27-5.26-2.35-5.23-5.27-5.23M1743.59,567.71c2.91,0,5.26-2.36,5.26-5.25s-2.35-5.23-5.26-5.23-5.29,2.34-5.29,5.23,2.38,5.25,5.29,5.25M1726.3,525.09c0-2.89-2.36-5.23-5.26-5.23s-5.27,2.34-5.27,5.23,2.33,5.25,5.27,5.25,5.26-2.36,5.26-5.25M1717.28,546.02c-2.91,0-5.26,2.33-5.26,5.25s2.35,5.2,5.26,5.2,5.27-2.33,5.27-5.2-2.35-5.25-5.27-5.25M1713.87,476.78c0,2.89,2.35,5.21,5.26,5.21s5.28-2.32,5.28-5.21-2.37-5.25-5.28-5.25-5.26,2.36-5.26,5.25M1750.74,593.75c0-2.9-2.36-5.25-5.27-5.25s-5.29,2.36-5.29,5.25,2.37,5.23,5.29,5.23,5.27-2.34,5.27-5.23M1700.28,630.64c0,2.89,2.33,5.23,5.24,5.23s5.28-2.33,5.28-5.23-2.37-5.23-5.28-5.23-5.24,2.34-5.24,5.23M1723.84,490.43c-2.91,0-5.26,2.33-5.26,5.25s2.36,5.23,5.26,5.23,5.29-2.36,5.29-5.23-2.35-5.25-5.29-5.25M1740.86,486.8c0-2.9-2.35-5.21-5.26-5.21s-5.27,2.32-5.27,5.21,2.33,5.25,5.27,5.25,5.26-2.36,5.26-5.25M1727.51,506.88c0,2.9,2.35,5.26,5.26,5.26s5.26-2.36,5.26-5.26-2.32-5.23-5.26-5.23-5.26,2.34-5.26,5.23M1798.05,521.24c2.93,0,5.29-2.34,5.29-5.23s-2.35-5.25-5.29-5.25-5.24,2.36-5.24,5.25,2.33,5.23,5.24,5.23M1750.17,571.24c-2.91,0-5.29,2.34-5.29,5.23s2.38,5.24,5.29,5.24,5.26-2.34,5.26-5.24-2.38-5.23-5.26-5.23M1763.41,555.46c0-2.89-2.35-5.25-5.27-5.25s-5.28,2.36-5.28,5.25,2.38,5.23,5.28,5.23,5.27-2.34,5.27-5.23M1749.68,615.79c2.9,0,5.28-2.33,5.28-5.2s-2.38-5.26-5.28-5.26-5.27,2.34-5.27,5.26,2.35,5.2,5.27,5.2M1760.97,597.58c2.91,0,5.26-2.34,5.26-5.23s-2.35-5.23-5.26-5.23-5.29,2.33-5.29,5.23,2.37,5.23,5.29,5.23M1752.59,625.99c0-2.91-2.32-5.26-5.26-5.26s-5.26,2.34-5.26,5.26,2.38,5.21,5.26,5.21,5.26-2.34,5.26-5.21M1770.46,621.76c0-2.89-2.38-5.21-5.29-5.21s-5.26,2.31-5.26,5.21,2.35,5.25,5.26,5.25,5.29-2.36,5.29-5.25M1765.18,602.52c-2.91,0-5.26,2.36-5.26,5.25s2.35,5.21,5.26,5.21,5.29-2.34,5.29-5.21-2.38-5.25-5.29-5.25M1734.77,624.56c0-2.89-2.38-5.23-5.29-5.23s-5.26,2.34-5.26,5.23,2.36,5.25,5.26,5.25,5.29-2.36,5.29-5.25M1716.45,649.32c0-2.89-2.37-5.25-5.28-5.25s-5.26,2.36-5.26,5.25,2.35,5.26,5.26,5.26,5.28-2.36,5.28-5.26M1720.66,617.57c0-2.89-2.35-5.26-5.24-5.26s-5.28,2.36-5.28,5.26,2.35,5.23,5.28,5.23,5.24-2.34,5.24-5.23M1722.45,642.88c2.91,0,5.27-2.33,5.27-5.23s-2.36-5.26-5.27-5.26-5.28,2.36-5.28,5.26,2.38,5.23,5.28,5.23M1737.59,608.22c0-2.89-2.38-5.23-5.29-5.23s-5.26,2.33-5.26,5.23,2.35,5.25,5.26,5.25,5.29-2.36,5.29-5.25M1741.21,635.2c-2.91,0-5.24,2.36-5.24,5.25s2.33,5.21,5.24,5.21,5.29-2.31,5.29-5.21-2.35-5.25-5.29-5.25M1738.3,663.79c0,2.9,2.38,5.26,5.29,5.26s5.26-2.36,5.26-5.26-2.35-5.23-5.26-5.23-5.29,2.34-5.29,5.23M1760.49,498.82c2.89,0,5.27-2.33,5.27-5.25s-2.38-5.21-5.27-5.21-5.26,2.31-5.26,5.21,2.32,5.25,5.26,5.25M1800.87,620.24c2.91,0,5.28-2.36,5.28-5.25s-2.38-5.23-5.28-5.23-5.26,2.33-5.26,5.23,2.38,5.25,5.26,5.25M1775.05,589.66c2.91,0,5.27-2.36,5.27-5.26s-2.36-5.23-5.27-5.23-5.26,2.34-5.26,5.23,2.33,5.26,5.26,5.26M1821.66,613.61c0-2.91-2.38-5.25-5.29-5.25s-5.24,2.34-5.24,5.25,2.33,5.21,5.24,5.21,5.29-2.34,5.29-5.21M1814.75,592.95c-2.9,0-5.28,2.34-5.28,5.25s2.38,5.21,5.28,5.21,5.24-2.34,5.24-5.21-2.33-5.25-5.24-5.25M1803.34,631.82c0-2.92-2.35-5.25-5.29-5.25s-5.24,2.34-5.24,5.25,2.35,5.21,5.24,5.21,5.29-2.32,5.29-5.21M1812.16,587.79c2.91,0,5.26-2.36,5.26-5.25s-2.35-5.21-5.26-5.21-5.26,2.32-5.26,5.21,2.35,5.25,5.26,5.25M1783.74,619.06c2.91,0,5.29-2.34,5.29-5.23s-2.38-5.23-5.29-5.23-5.27,2.33-5.27,5.23,2.36,5.23,5.27,5.23M1785.96,599.8c0-2.87-2.38-5.2-5.29-5.2s-5.24,2.33-5.24,5.2,2.35,5.26,5.24,5.26,5.29-2.34,5.29-5.26M1799.71,604.35c2.9,0,5.28-2.34,5.28-5.25s-2.38-5.21-5.28-5.21-5.27,2.34-5.27,5.21,2.35,5.25,5.27,5.25M1795.25,590.59c2.88,0,5.26-2.36,5.26-5.26s-2.38-5.2-5.26-5.2-5.26,2.31-5.26,5.2,2.33,5.26,5.26,5.26M1791.11,572.27c0-2.89-2.33-5.23-5.26-5.23s-5.27,2.34-5.27,5.23,2.38,5.23,5.27,5.23,5.26-2.34,5.26-5.23M1810.86,568.55c0-2.91-2.37-5.25-5.29-5.25s-5.26,2.34-5.26,5.25,2.35,5.21,5.26,5.21,5.29-2.34,5.29-5.21M1700.82,441.43c-2.91,0-5.27,2.32-5.27,5.21s2.35,5.25,5.27,5.25,5.28-2.36,5.28-5.25-2.38-5.21-5.28-5.21M1687.2,519.13c2.94,0,5.29-2.36,5.29-5.24s-2.35-5.23-5.29-5.23-5.24,2.36-5.24,5.23,2.33,5.24,5.24,5.24M1711.3,439.43c0,2.89,2.35,5.23,5.26,5.23s5.27-2.34,5.27-5.23-2.35-5.26-5.27-5.26-5.26,2.36-5.26,5.26M1710.69,454.25c-2.91,0-5.26,2.36-5.26,5.26s2.35,5.21,5.26,5.21,5.26-2.31,5.26-5.21-2.33-5.26-5.26-5.26M1685.46,483.31c0,2.89,2.37,5.23,5.28,5.23s5.28-2.34,5.28-5.23-2.37-5.23-5.28-5.23-5.28,2.34-5.28,5.23M1681.96,497.09c0,2.89,2.33,5.25,5.24,5.25s5.29-2.36,5.29-5.25-2.38-5.26-5.29-5.26-5.24,2.36-5.24,5.26M1693.92,470.71c0,2.89,2.35,5.23,5.27,5.23s5.26-2.34,5.26-5.23-2.35-5.23-5.26-5.23-5.27,2.33-5.27,5.23M1750.84,425.76c-2.91,0-5.26,2.36-5.26,5.25s2.35,5.25,5.26,5.25,5.29-2.36,5.29-5.25-2.38-5.25-5.29-5.25M1747.8,474.11c-2.91,0-5.26,2.31-5.26,5.21s2.35,5.26,5.26,5.26,5.28-2.34,5.28-5.26-2.37-5.21-5.28-5.21M1751.11,507.73c-2.93,0-5.28,2.34-5.28,5.23s2.35,5.23,5.28,5.23,5.24-2.34,5.24-5.23-2.35-5.23-5.24-5.23M1730.64,462.67c-2.91,0-5.26,2.34-5.26,5.23s2.35,5.23,5.26,5.23,5.29-2.33,5.29-5.23-2.38-5.23-5.29-5.23M1724.78,447.04c-2.92,0-5.26,2.32-5.26,5.21s2.35,5.25,5.26,5.25,5.28-2.36,5.28-5.25-2.37-5.21-5.28-5.21M1740.52,441.16c-2.91,0-5.26,2.36-5.26,5.26s2.35,5.23,5.26,5.23,5.26-2.34,5.26-5.23-2.35-5.26-5.26-5.26M1672.19,477.83c-2.93,0-5.28,2.34-5.28,5.23s2.35,5.25,5.28,5.25,5.24-2.36,5.24-5.25-2.35-5.23-5.24-5.23M1682.74,667.17c2.91,0,5.26-2.36,5.26-5.24s-2.35-5.25-5.26-5.25-5.26,2.34-5.26,5.25,2.35,5.24,5.26,5.24M1672.42,683.96c2.91,0,5.27-2.32,5.27-5.24s-2.35-5.23-5.27-5.23-5.26,2.36-5.26,5.23,2.35,5.24,5.26,5.24M1666.78,668.55c2.91,0,5.28-2.34,5.28-5.21s-2.37-5.25-5.28-5.25-5.26,2.34-5.26,5.25,2.35,5.21,5.26,5.21M1664.2,635.43c2.89,0,5.27-2.36,5.27-5.25s-2.38-5.23-5.27-5.23-5.26,2.33-5.26,5.23,2.33,5.25,5.26,5.25M1698.02,661.1c2.91,0,5.26-2.34,5.26-5.24s-2.35-5.25-5.26-5.25-5.26,2.36-5.26,5.25,2.35,5.24,5.26,5.24M1692.85,644.29c2.91,0,5.28-2.36,5.28-5.23s-2.38-5.26-5.28-5.26-5.27,2.34-5.27,5.26,2.35,5.23,5.27,5.23M1673.49,529.77c0,2.9,2.35,5.25,5.26,5.25s5.26-2.36,5.26-5.25-2.35-5.25-5.26-5.25-5.26,2.36-5.26,5.25M1705.52,675.1c2.91,0,5.28-2.34,5.28-5.24s-2.37-5.23-5.28-5.23-5.24,2.34-5.24,5.23,2.33,5.24,5.24,5.24M1665.03,498.47c0,2.89,2.35,5.25,5.29,5.25s5.24-2.36,5.24-5.25-2.33-5.21-5.24-5.21-5.29,2.31-5.29,5.21M1665.61,547.89c-2.91,0-5.28,2.36-5.28,5.23s2.37,5.23,5.28,5.23,5.27-2.36,5.27-5.23-2.35-5.23-5.27-5.23M1665.61,585.91c2.91,0,5.27-2.36,5.27-5.25s-2.35-5.21-5.27-5.21-5.28,2.31-5.28,5.21,2.37,5.25,5.28,5.25M1676.99,514.36c0-2.89-2.38-5.25-5.28-5.25s-5.26,2.36-5.26,5.25,2.35,5.23,5.26,5.23,5.28-2.34,5.28-5.23M1811.22,519.17c-2.91,0-5.26,2.36-5.26,5.23s2.35,5.23,5.26,5.23,5.29-2.33,5.29-5.23-2.37-5.23-5.29-5.23M1875.11,499.98c2.91,0,5.27-2.33,5.27-5.21s-2.36-5.25-5.27-5.25-5.26,2.33-5.26,5.25,2.33,5.21,5.26,5.21M1762.35,421.53c2.91,0,5.29-2.36,5.29-5.21s-2.38-5.26-5.29-5.26-5.26,2.34-5.26,5.26,2.35,5.21,5.26,5.21M1758.86,438.14c-2.93,0-5.29,2.36-5.29,5.25s2.35,5.21,5.29,5.21,5.24-2.32,5.24-5.21-2.33-5.25-5.24-5.25M1876.05,472.46c-2.94,0-5.26,2.36-5.26,5.25s2.33,5.21,5.26,5.21,5.26-2.32,5.26-5.21-2.37-5.25-5.26-5.25M1890.61,503.72c1.54,0,2.93-.69,3.92-1.74-1.32-3.03-5.29-4.99-6.57-7.99-1.57.91-2.61,2.56-2.61,4.49,0,2.87,2.35,5.23,5.26,5.23M1876.43,531.42c0,2.89,2.33,5.25,5.23,5.25s5.29-2.36,5.29-5.25-2.38-5.26-5.29-5.26-5.23,2.36-5.23,5.26M1664.89,455.19c-2.91,0-5.26,2.34-5.26,5.23s2.35,5.23,5.26,5.23,5.27-2.34,5.27-5.23-2.35-5.23-5.27-5.23M1661.85,411.73c2.91,0,5.26-2.36,5.26-5.26s-2.35-5.23-5.26-5.23-5.28,2.34-5.28,5.23,2.37,5.26,5.28,5.26M1541.59,597.58c2.91,0,5.28-2.34,5.28-5.23s-2.38-5.23-5.28-5.23-5.27,2.32-5.27,5.23,2.35,5.23,5.27,5.23M1565.56,635.65c2.91,0,5.26-2.36,5.26-5.25s-2.36-5.21-5.26-5.21-5.26,2.32-5.26,5.21,2.35,5.25,5.26,5.25M1549.34,634.47c2.91,0,5.28-2.34,5.28-5.24s-2.38-5.25-5.28-5.25-5.26,2.36-5.26,5.25,2.35,5.24,5.26,5.24M1541.1,487.96c2.73,1.05,5.78-.31,6.81-2.98,1.08-2.71-.29-5.74-3-6.77-2.71-1.07-5.78.27-6.81,2.98-1.08,2.7.31,5.72,3,6.77M1661.13,427.85c2.91,0,5.28-2.36,5.28-5.25s-2.37-5.23-5.28-5.23-5.26,2.33-5.26,5.23,2.35,5.25,5.26,5.25M1588.93,543.79c0,2.87,2.35,5.21,5.28,5.21s5.26-2.34,5.26-5.21-2.38-5.25-5.26-5.25-5.28,2.34-5.28,5.25M1564.61,522.09c-2.71-1.05-5.75.31-6.81,3.01-1.03,2.72.32,5.72,3.02,6.77,2.71,1.02,5.76-.31,6.83-3.01,1.03-2.7-.31-5.72-3.05-6.77M1605.48,481.1c-2.94,0-5.27,2.36-5.27,5.25s2.33,5.23,5.27,5.23,5.26-2.33,5.26-5.23-2.35-5.25-5.26-5.25M1887.78,521c2.92,0,5.27-2.33,5.27-5.21s-2.35-5.25-5.27-5.25-5.26,2.33-5.26,5.25,2.36,5.21,5.26,5.21M1609.8,519.48c0-2.89-2.37-5.21-5.26-5.21s-5.26,2.32-5.26,5.21,2.33,5.25,5.26,5.25,5.26-2.34,5.26-5.25M1573.64,613.61c0-2.91-2.35-5.25-5.26-5.25s-5.28,2.34-5.28,5.25,2.37,5.21,5.28,5.21,5.26-2.34,5.26-5.21M1597.4,502.21c0,2.89,2.33,5.25,5.26,5.25s5.27-2.36,5.27-5.25-2.35-5.23-5.27-5.23-5.26,2.33-5.26,5.23M1606.89,541.57c2.91,0,5.27-2.36,5.27-5.25s-2.35-5.25-5.27-5.25-5.28,2.36-5.28,5.25,2.38,5.25,5.28,5.25M1624.36,620.38c0-2.9-2.37-5.26-5.26-5.26s-5.27,2.36-5.27,5.26,2.35,5.23,5.27,5.23,5.26-2.34,5.26-5.23M1880.38,546.6c0-2.89-2.38-5.26-5.27-5.26s-5.26,2.36-5.26,5.26,2.33,5.21,5.26,5.21,5.27-2.32,5.27-5.21M1614.4,631.02c-2.89,0-5.26,2.31-5.26,5.21s2.38,5.26,5.26,5.26,5.26-2.34,5.26-5.26-2.36-5.21-5.26-5.21M1582.93,634c2.91,0,5.28-2.34,5.28-5.23s-2.37-5.23-5.28-5.23-5.29,2.36-5.29,5.23,2.37,5.23,5.29,5.23M1580.11,588.72c2.91,0,5.29-2.36,5.29-5.24s-2.37-5.25-5.29-5.25-5.26,2.34-5.26,5.25,2.35,5.24,5.26,5.24M1560.63,547.05c-1.03,2.69.31,5.72,3.02,6.77,2.71,1.03,5.75-.31,6.81-3.01,1.05-2.7-.29-5.72-3.03-6.77-2.71-1.05-5.75.29-6.81,3.01M1844.36,685.65c-.85-.62-1.9-1-3.04-1-2.93,0-5.29,2.34-5.29,5.23s2.36,5.23,5.29,5.23c.85,0,1.66-.22,2.35-.58-1.36-3.78-2.48-7.33-1.32-8.49.4-.4,1.12-.48,2.01-.4M1598.74,706.62c-.83,0-1.61.22-2.28.53.81,1.6,1.65,3.16,3,4.1,1.23.89,1.72,2.87,2.08,5.03,1.48-.93,2.48-2.54,2.48-4.41,0-2.89-2.37-5.25-5.29-5.25M1646.89,721.87c-2.91,0-5.26,2.33-5.26,5.23,0,1.33.51,2.54,1.32,3.45,2.33-.82,4.71-1.8,6.56-1.14.47.13.78.67,1.05,1.45.99-.95,1.61-2.29,1.61-3.76,0-2.9-2.37-5.23-5.29-5.23M1693.99,722.94c-2.94,0-5.27,2.34-5.27,5.23s2.33,5.25,5.27,5.25,5.26-2.36,5.26-5.25-2.35-5.23-5.26-5.23M1571.18,676.52c-2.4,0-4.37,1.61-5.02,3.74,1.17.16,2.13.44,2.71,1.11,1.25,1.38,1.65,3.52,2.12,5.61.07,0,.11.02.18.02,2.93,0,5.26-2.34,5.26-5.23s-2.33-5.26-5.26-5.26M1549.83,640.81c-2.93,0-5.28,2.34-5.28,5.24s2.35,5.23,5.28,5.23,5.24-2.36,5.24-5.23-2.33-5.24-5.24-5.24M1546.1,462.09c.58.89,1.45,1.65,2.53,2.05,2.71,1.04,5.78-.29,6.81-2.99,1.05-2.71-.31-5.74-3-6.77-2.74-1.06-5.78.29-6.83,2.98-.47,1.2-.42,2.5-.02,3.61.18.4.36.76.52,1.11M1749.28,731.82c-2.91,0-5.28,2.32-5.28,5.21,0,1.85.97,3.45,2.4,4.38,1.97-1.8,3.79-4.23,6.07-4.74.71-.18,1.34-.4,1.99-.6-.47-2.43-2.6-4.26-5.17-4.26M1807.79,707.69c-2.93,0-5.29,2.36-5.29,5.23s2.35,5.23,5.29,5.23,5.26-2.31,5.26-5.23-2.37-5.23-5.26-5.23M1595.69,526.97c0-2.9-2.33-5.24-5.24-5.24s-5.29,2.34-5.29,5.24,2.35,5.25,5.29,5.25,5.24-2.36,5.24-5.25M1885.66,627.57c0,2.11,1.25,3.94,3.09,4.74.74-.94,1.44-1.89,1.88-2.98.78-1.89-.18-4.4-.94-6.83-2.31.55-4.03,2.6-4.03,5.08M1582.57,427.98c0-2.67-2.02-4.86-4.59-5.19-.07.07-.16.11-.25.2-2.24,2.22-1.75,6.55-3.22,9.39.8.49,1.75.8,2.78.8,2.91,0,5.28-2.32,5.28-5.21M1788.16,720.83c-2.91,0-5.27,2.33-5.27,5.23s2.35,5.23,5.27,5.23c.53,0,1-.09,1.48-.22.42-3.52.81-7.12,2.48-7.92.11-.05.25-.05.36-.09-.96-1.33-2.53-2.22-4.32-2.22M1824.18,699.73c2.94,0,5.26-2.36,5.26-5.24s-2.33-5.23-5.26-5.23-5.26,2.33-5.26,5.23,2.35,5.24,5.26,5.24M1771.05,720.47c-2.91,0-5.29,2.34-5.29,5.21s2.37,5.25,5.29,5.25,5.24-2.36,5.24-5.25-2.33-5.21-5.24-5.21M1830.72,417.79c2.89,0,5.27-2.32,5.27-5.21s-2.38-5.25-5.27-5.25-5.26,2.36-5.26,5.25,2.33,5.21,5.26,5.21M1875.58,466.14c2.92,0,5.26-2.36,5.26-5.25,0-1.16-.4-2.23-1.05-3.12-2.92.09-6.23.42-8.56.18-.58.83-.94,1.85-.94,2.94,0,2.9,2.38,5.25,5.29,5.25M1810.89,417.92c0,2.89,2.35,5.25,5.26,5.25s5.29-2.36,5.29-5.25-2.38-5.21-5.29-5.21-5.26,2.32-5.26,5.21M1884.04,596.2c2.92,0,5.26-2.36,5.26-5.26s-2.35-5.23-5.26-5.23-5.28,2.34-5.28,5.23,2.35,5.26,5.28,5.26M1807.71,407.99c2.91,0,5.26-2.36,5.26-5.25s-2.35-5.21-5.26-5.21-5.29,2.32-5.29,5.21,2.38,5.25,5.29,5.25M1832.76,667.08c2.89,0,5.26-2.34,5.26-5.21s-2.37-5.25-5.26-5.25-5.29,2.36-5.29,5.25,2.38,5.21,5.29,5.21M1692.15,374.13c2.89,0,5.26-2.34,5.26-5.23s-2.37-5.26-5.26-5.26-5.27,2.36-5.27,5.26,2.33,5.23,5.27,5.23M1670.07,382.3c2.91,0,5.26-2.34,5.26-5.25,0-1.56-.72-2.94-1.79-3.92-1.21,1.38-2.42,2.63-3.9,2.94-1.59.36-3.18.36-4.79.36,0,.2-.05.4-.05.63,0,2.91,2.35,5.25,5.27,5.25M1733.96,376.47c2.89,0,5.26-2.36,5.26-5.23,0-1.98-1.12-3.67-2.75-4.56-1.7,2.32-3.36,4.14-4.72,4.01-.83-.09-1.57-.94-2.31-2.13-.45.8-.76,1.69-.76,2.69,0,2.87,2.38,5.23,5.29,5.23M1762.35,397.95c2.91,0,5.29-2.34,5.29-5.23s-2.38-5.25-5.29-5.25-5.26,2.36-5.26,5.25,2.35,5.23,5.26,5.23M1773.64,388.13c2.91,0,5.27-2.33,5.27-5.21s-2.36-5.26-5.27-5.26-5.29,2.34-5.29,5.26,2.37,5.21,5.29,5.21M1749.46,386.26c2.91,0,5.26-2.34,5.26-5.23,0-1.98-1.11-3.67-2.75-4.56h-.09c-.23-.05-.41-.18-.58-.32-.58-.22-1.21-.35-1.84-.35-2.91,0-5.29,2.33-5.29,5.23s2.38,5.23,5.29,5.23M1811.22,541.34c-2.91,0-5.26,2.36-5.26,5.26s2.35,5.21,5.26,5.21,5.29-2.32,5.29-5.21-2.37-5.26-5.29-5.26M1810.5,492.77c2.91,0,5.29-2.36,5.29-5.25s-2.38-5.23-5.29-5.23-5.26,2.34-5.26,5.23,2.34,5.25,5.26,5.25M1630.86,664.15c2.91,0,5.27-2.36,5.27-5.25s-2.35-5.25-5.27-5.25-5.28,2.36-5.28,5.25,2.35,5.25,5.28,5.25M1659.61,564.32c0-2.89-2.37-5.23-5.28-5.23s-5.26,2.33-5.26,5.23,2.35,5.26,5.26,5.26,5.28-2.36,5.28-5.26M1811.69,477.1c2.92,0,5.26-2.34,5.26-5.23s-2.35-5.23-5.26-5.23-5.26,2.36-5.26,5.23,2.32,5.23,5.26,5.23M1827.1,523c0,2.9,2.35,5.25,5.26,5.25s5.29-2.36,5.29-5.25-2.38-5.23-5.29-5.23-5.26,2.34-5.26,5.23M1801,501.98c0,2.89,2.38,5.23,5.29,5.23s5.26-2.34,5.26-5.23-2.35-5.23-5.26-5.23-5.29,2.33-5.29,5.23M1829.09,476.92c-2.95,0-5.29,2.34-5.29,5.23s2.33,5.23,5.29,5.23,5.24-2.36,5.24-5.23-2.35-5.23-5.24-5.23M1643.62,611.97c0-2.9-2.35-5.26-5.27-5.26s-5.26,2.36-5.26,5.26,2.35,5.25,5.26,5.25,5.27-2.36,5.27-5.25M1632.74,622.11c-2.91,0-5.28,2.36-5.28,5.25s2.37,5.26,5.28,5.26,5.26-2.36,5.26-5.26-2.35-5.25-5.26-5.25M1646.8,653.15c2.91,0,5.28-2.34,5.28-5.23s-2.37-5.23-5.28-5.23-5.24,2.34-5.24,5.23,2.33,5.23,5.24,5.23M1648.23,625.41c-2.91,0-5.29,2.34-5.29,5.23s2.38,5.23,5.29,5.23,5.26-2.33,5.26-5.23-2.35-5.23-5.26-5.23M1649.62,574.49c-2.91,0-5.27,2.34-5.27,5.23s2.35,5.26,5.27,5.26,5.28-2.36,5.28-5.26-2.38-5.23-5.28-5.23M1648.23,591.3c-2.91,0-5.29,2.36-5.29,5.26s2.38,5.2,5.29,5.2,5.26-2.32,5.26-5.2-2.35-5.26-5.26-5.26M1664.2,601.76c2.89,0,5.27-2.32,5.27-5.2s-2.38-5.26-5.27-5.26-5.26,2.36-5.26,5.26,2.33,5.2,5.26,5.2M1790.19,530.26c0-2.92-2.35-5.25-5.28-5.25s-5.27,2.34-5.27,5.25,2.38,5.23,5.27,5.23,5.28-2.33,5.28-5.23M1813.95,560.14c0,2.89,2.35,5.21,5.26,5.21s5.26-2.31,5.26-5.21-2.37-5.26-5.26-5.26-5.26,2.36-5.26,5.26M1859.59,546.47c2.93,0,5.29-2.36,5.29-5.26s-2.35-5.23-5.29-5.23-5.26,2.34-5.26,5.23,2.35,5.26,5.26,5.26M1826.27,580.3c2.91,0,5.24-2.34,5.24-5.21s-2.33-5.25-5.24-5.25-5.29,2.34-5.29,5.25,2.35,5.21,5.29,5.21M1775.52,567.71c2.91,0,5.29-2.36,5.29-5.25s-2.37-5.23-5.29-5.23-5.26,2.34-5.26,5.23,2.35,5.25,5.26,5.25M1777.32,546.6c0,2.89,2.33,5.21,5.24,5.21s5.29-2.32,5.29-5.21-2.37-5.26-5.29-5.26-5.24,2.36-5.24,5.26M1822.01,530.15c-2.91,0-5.24,2.33-5.24,5.23s2.33,5.23,5.24,5.23,5.29-2.34,5.29-5.23-2.38-5.23-5.29-5.23M1856.32,578.9c2.91,0,5.26-2.33,5.26-5.23s-2.35-5.25-5.26-5.25-5.29,2.36-5.29,5.25,2.38,5.23,5.29,5.23M1831.64,544.15c-2.88,0-5.26,2.36-5.26,5.25s2.38,5.24,5.26,5.24,5.29-2.34,5.29-5.24-2.38-5.25-5.29-5.25M1855.96,554.99c0-2.89-2.37-5.23-5.28-5.23s-5.29,2.34-5.29,5.23,2.38,5.23,5.29,5.23,5.28-2.36,5.28-5.23M1592.34,485.2c-2.71-1.05-5.75.31-6.81,2.98-1.05,2.72.32,5.75,3.02,6.79,2.71,1.05,5.75-.29,6.81-3.01,1.05-2.71-.29-5.74-3.02-6.77M1843.65,588.72c2.91,0,5.24-2.36,5.24-5.24s-2.33-5.25-5.24-5.25-5.29,2.34-5.29,5.25,2.38,5.24,5.29,5.24M1841.77,543.66c2.91,0,5.26-2.36,5.26-5.25s-2.35-5.24-5.26-5.24-5.29,2.34-5.29,5.24,2.38,5.25,5.29,5.25M1610.18,579.37c2.89,0,5.26-2.36,5.26-5.25s-2.37-5.21-5.26-5.21-5.28,2.34-5.28,5.21,2.35,5.25,5.28,5.25M1598.43,590.1c2.91,0,5.29-2.31,5.29-5.21s-2.38-5.26-5.29-5.26-5.27,2.34-5.27,5.26,2.35,5.21,5.27,5.21M1605.6,559.65c0-2.89-2.38-5.23-5.29-5.23s-5.26,2.34-5.26,5.23,2.35,5.25,5.26,5.25,5.29-2.36,5.29-5.25M1619.21,550.78c0-2.89-2.38-5.25-5.28-5.25s-5.27,2.36-5.27,5.25,2.35,5.23,5.27,5.23,5.28-2.34,5.28-5.23M1624.74,559.09c-2.94,0-5.26,2.33-5.26,5.23s2.32,5.26,5.26,5.26,5.26-2.36,5.26-5.26-2.35-5.23-5.26-5.23M1634.62,597.11c2.91,0,5.24-2.34,5.24-5.23s-2.33-5.25-5.24-5.25-5.28,2.36-5.28,5.25,2.38,5.23,5.28,5.23M1576.37,512.27c-2.71-1.02-5.76.31-6.83,3.01-1.03,2.7.31,5.74,3.04,6.79,2.71,1.02,5.76-.31,6.81-3.03,1.04-2.67-.31-5.72-3.02-6.77M1577.76,532c-2.91,0-5.27,2.36-5.27,5.25s2.35,5.25,5.27,5.25,5.26-2.36,5.26-5.25-2.36-5.25-5.26-5.25M1576.71,554.99c0,2.87,2.37,5.23,5.28,5.23s5.28-2.36,5.28-5.23-2.37-5.23-5.28-5.23-5.28,2.34-5.28,5.23M1590.46,576.57c2.91,0,5.26-2.34,5.26-5.23s-2.35-5.23-5.26-5.23-5.29,2.32-5.29,5.23,2.38,5.23,5.29,5.23M1583.65,506.88c-1.05,2.7.31,5.74,3.02,6.77,2.71,1.02,5.76-.31,6.83-3.03,1.03-2.67-.34-5.7-3.04-6.77-2.71-1.02-5.78.31-6.81,3.02M1576.93,566.68c0-2.9-2.38-5.26-5.28-5.26s-5.24,2.36-5.24,5.26,2.33,5.21,5.24,5.21,5.28-2.36,5.28-5.21M1635.56,567.51c-2.91,0-5.28,2.34-5.28,5.23s2.38,5.23,5.28,5.23,5.26-2.33,5.26-5.23-2.35-5.23-5.26-5.23M1635.54,505.13c2.91,0,5.26-2.34,5.26-5.23s-2.35-5.25-5.26-5.25-5.26,2.36-5.26,5.25,2.33,5.23,5.26,5.23M1620.04,511.92c-2.93,0-5.26,2.36-5.26,5.25s2.33,5.23,5.26,5.23,5.26-2.33,5.26-5.23-2.35-5.25-5.26-5.25M1624.74,525.94c-2.94,0-5.26,2.34-5.26,5.23s2.32,5.23,5.26,5.23,5.26-2.32,5.26-5.23-2.35-5.23-5.26-5.23M1618.63,494.64c-2.91,0-5.29,2.36-5.29,5.25s2.37,5.23,5.29,5.23,5.28-2.34,5.28-5.23-2.37-5.25-5.28-5.25M1621.45,588.72c2.91,0,5.27-2.36,5.27-5.24s-2.35-5.25-5.27-5.25-5.29,2.34-5.29,5.25,2.38,5.24,5.29,5.24M1629.54,606.35c0-2.89-2.35-5.23-5.27-5.23s-5.28,2.34-5.28,5.23,2.37,5.26,5.28,5.26,5.27-2.36,5.27-5.26M1626.04,544.73c0,2.89,2.35,5.21,5.26,5.21s5.28-2.32,5.28-5.21-2.35-5.25-5.28-5.25-5.26,2.33-5.26,5.25M1631.3,638.01c-2.91,0-5.26,2.36-5.26,5.26s2.35,5.22,5.26,5.22,5.28-2.33,5.28-5.22-2.35-5.26-5.28-5.26M1641.18,524.51c-2.91,0-5.27,2.36-5.27,5.25s2.35,5.25,5.27,5.25,5.26-2.36,5.26-5.25-2.35-5.25-5.26-5.25M1651.5,548.07c2.91,0,5.29-2.34,5.29-5.21s-2.38-5.25-5.29-5.25-5.26,2.36-5.26,5.25,2.35,5.21,5.26,5.21M1636.95,510.98c-2.91,0-5.26,2.36-5.26,5.25s2.35,5.25,5.26,5.25,5.26-2.36,5.26-5.25-2.35-5.25-5.26-5.25M1646.44,555.93c0-2.89-2.35-5.23-5.26-5.23s-5.27,2.34-5.27,5.23,2.35,5.23,5.27,5.23,5.26-2.36,5.26-5.23M1631.69,484.71c0,2.89,2.35,5.23,5.26,5.23s5.26-2.34,5.26-5.23-2.35-5.23-5.26-5.23-5.26,2.34-5.26,5.23M1535.48,620.96c-2.89,0-5.27,2.36-5.27,5.25s2.38,5.24,5.27,5.24,5.28-2.34,5.28-5.24-2.35-5.25-5.28-5.25M1880.51,573.78c2.91,0,5.26-2.36,5.26-5.23s-2.35-5.25-5.26-5.25-5.29,2.34-5.29,5.25,2.38,5.23,5.29,5.23M1871.1,598.31c-2.92,0-5.27,2.34-5.27,5.23s2.35,5.26,5.27,5.26,5.29-2.36,5.29-5.26-2.38-5.23-5.29-5.23M1862.37,653.28c2.91,0,5.24-2.36,5.24-5.25s-2.33-5.21-5.24-5.21-5.29,2.32-5.29,5.21,2.38,5.25,5.29,5.25M1894.91,571.16c-1.81.82-3.07,2.63-3.07,4.74,0,2.42,1.68,4.45,3.94,5.03-.04-1.6-.09-3.21.11-4.9.2-1.64-.36-3.24-.98-4.87M1881.67,610c-2.9,0-5.23,2.31-5.23,5.21s2.33,5.25,5.23,5.25,5.29-2.31,5.29-5.25-2.38-5.21-5.29-5.21M1894.46,553.81c0-2.87-2.35-5.21-5.26-5.21s-5.29,2.34-5.29,5.21,2.37,5.25,5.29,5.25,5.26-2.36,5.26-5.25M1875.22,625.28c0-2.89-2.37-5.26-5.29-5.26s-5.29,2.36-5.29,5.26,2.38,5.23,5.29,5.23,5.29-2.34,5.29-5.23M1814.05,635.65c2.9,0,5.26-2.36,5.26-5.25s-2.36-5.21-5.26-5.21-5.29,2.32-5.29,5.21,2.38,5.25,5.29,5.25M1825.22,592.35c0,2.9,2.35,5.23,5.26,5.23s5.28-2.34,5.28-5.23-2.38-5.23-5.28-5.23-5.26,2.33-5.26,5.23M1859.41,670.02c0-2.9-2.33-5.25-5.24-5.25s-5.28,2.36-5.28,5.25,2.35,5.23,5.28,5.23,5.24-2.34,5.24-5.23M1829.09,646.25c0-2.87-2.34-5.21-5.24-5.21s-5.29,2.34-5.29,5.21,2.38,5.25,5.29,5.25,5.24-2.36,5.24-5.25M1853.36,655.84c0-2.89-2.37-5.23-5.26-5.23s-5.29,2.34-5.29,5.23,2.35,5.23,5.29,5.23,5.26-2.34,5.26-5.23M1844.1,642.02c0-2.9-2.38-5.26-5.29-5.26s-5.26,2.36-5.26,5.26,2.35,5.23,5.26,5.23,5.29-2.33,5.29-5.23M1798.05,393.74c2.92,0,5.29-2.36,5.29-5.23s-2.37-5.25-5.29-5.25-5.24,2.36-5.24,5.25,2.33,5.23,5.24,5.23M1733.83,392.72c0,2.89,2.37,5.23,5.29,5.23s5.28-2.34,5.28-5.23-2.37-5.25-5.28-5.25-5.29,2.36-5.29,5.25M1725.27,387.91c2.91,0,5.24-2.36,5.24-5.25s-2.33-5.21-5.24-5.21-5.28,2.32-5.28,5.21,2.37,5.25,5.28,5.25M1768.94,425.54c-2.91,0-5.28,2.33-5.28,5.23s2.38,5.23,5.28,5.23,5.29-2.33,5.29-5.23-2.37-5.23-5.29-5.23M1709.5,379.5c2.93,0,5.29-2.36,5.29-5.23s-2.35-5.23-5.29-5.23-5.24,2.34-5.24,5.23,2.35,5.23,5.24,5.23M1702.7,393.52c2.91,0,5.29-2.36,5.29-5.25s-2.38-5.23-5.29-5.23-5.26,2.33-5.26,5.23,2.35,5.25,5.26,5.25M1784.66,400.73c2.91,0,5.29-2.33,5.29-5.21s-2.37-5.25-5.29-5.25-5.24,2.34-5.24,5.25,2.33,5.21,5.24,5.21M1852.44,441.99c0,2.89,2.36,5.23,5.27,5.23s5.29-2.34,5.29-5.23-2.37-5.23-5.29-5.23-5.27,2.32-5.27,5.23M1891.24,534.04c0,2.89,2.35,5.25,5.26,5.25s5.26-2.36,5.26-5.25-2.35-5.21-5.26-5.21-5.26,2.34-5.26,5.21M1872.29,516.32c2.89,0,5.26-2.33,5.26-5.23s-2.37-5.23-5.26-5.23-5.26,2.36-5.26,5.23,2.33,5.23,5.26,5.23M1852.07,430.41c2.93,0,5.29-2.34,5.29-5.23s-2.35-5.26-5.29-5.26-5.24,2.36-5.24,5.26,2.36,5.23,5.24,5.23M1818.88,433.59c0,2.89,2.33,5.21,5.26,5.21s5.27-2.32,5.27-5.21-2.38-5.25-5.27-5.25-5.26,2.36-5.26,5.25M1832.27,428.21c0,2.89,2.35,5.23,5.26,5.23s5.26-2.34,5.26-5.23-2.38-5.23-5.26-5.23-5.26,2.33-5.26,5.23M1806.36,702.93c2.89,0,5.27-2.36,5.27-5.26s-2.38-5.23-5.27-5.23-5.26,2.34-5.26,5.23,2.33,5.26,5.26,5.26M1781.66,645.2c0-2.89-2.35-5.23-5.27-5.23s-5.26,2.33-5.26,5.23,2.33,5.23,5.26,5.23,5.27-2.36,5.27-5.23M1722.54,682.93c0-2.89-2.35-5.23-5.27-5.23s-5.26,2.34-5.26,5.23,2.35,5.25,5.26,5.25,5.27-2.36,5.27-5.25M1736.15,674.54c0-2.9-2.33-5.26-5.24-5.26s-5.28,2.36-5.28,5.26,2.35,5.23,5.28,5.23,5.24-2.36,5.24-5.23M1724.89,662.41c0-2.89-2.35-5.25-5.26-5.25s-5.27,2.36-5.27,5.25,2.36,5.21,5.27,5.21,5.26-2.34,5.26-5.21M1728.22,697.94c2.91,0,5.29-2.34,5.29-5.23s-2.38-5.23-5.29-5.23-5.26,2.36-5.26,5.23,2.36,5.23,5.26,5.23M1738.03,651.66c0-2.89-2.32-5.23-5.26-5.23s-5.26,2.34-5.26,5.23,2.35,5.23,5.26,5.23,5.26-2.33,5.26-5.23M1741.8,706.82c2.92,0,5.26-2.34,5.26-5.23s-2.34-5.25-5.26-5.25-5.28,2.36-5.28,5.25,2.35,5.23,5.28,5.23M1809.83,681.38c0-2.89-2.36-5.25-5.26-5.25s-5.27,2.36-5.27,5.25,2.35,5.23,5.27,5.23,5.26-2.34,5.26-5.23M1679.72,697.05c2.89,0,5.24-2.34,5.24-5.26s-2.35-5.21-5.24-5.21-5.28,2.34-5.28,5.21,2.36,5.26,5.28,5.26M1689.57,680.93c2.91,0,5.26-2.34,5.26-5.23s-2.35-5.23-5.26-5.23-5.28,2.34-5.28,5.23,2.37,5.23,5.28,5.23M1669.73,711.43c2.91,0,5.28-2.34,5.28-5.23s-2.38-5.23-5.28-5.23-5.29,2.33-5.29,5.23,2.38,5.23,5.29,5.23M1709.68,705.42c2.91,0,5.28-2.36,5.28-5.25s-2.37-5.26-5.28-5.26-5.28,2.36-5.28,5.26,2.37,5.25,5.28,5.25M1699.9,693.8c2.91,0,5.26-2.36,5.26-5.26s-2.35-5.23-5.26-5.23-5.27,2.34-5.27,5.23,2.36,5.26,5.27,5.26M1696.77,704.42c0-2.87-2.35-5.24-5.27-5.24s-5.28,2.36-5.28,5.24,2.37,5.23,5.28,5.23,5.27-2.32,5.27-5.23M1749.19,682.8c0-2.9-2.35-5.25-5.26-5.25s-5.27,2.36-5.27,5.25,2.35,5.23,5.27,5.23,5.26-2.34,5.26-5.23M1792.09,652.93c2.91,0,5.26-2.36,5.26-5.26s-2.35-5.23-5.26-5.23-5.29,2.34-5.29,5.23,2.35,5.26,5.29,5.26M1787.37,629.24c0-2.89-2.35-5.25-5.27-5.25s-5.28,2.36-5.28,5.25,2.38,5.25,5.28,5.25,5.27-2.36,5.27-5.25M1686.53,386.73c2.89,0,5.24-2.33,5.24-5.23s-2.35-5.21-5.24-5.21-5.28,2.32-5.28,5.21,2.35,5.23,5.28,5.23M1773.53,689.61c-2.91,0-5.26,2.34-5.26,5.23s2.35,5.23,5.26,5.23,5.27-2.34,5.27-5.23-2.33-5.23-5.27-5.23M1789.58,692.08c-2.91,0-5.28,2.34-5.28,5.23s2.37,5.26,5.28,5.26,5.27-2.36,5.27-5.26-2.36-5.23-5.27-5.23M1804.83,664.7c0-2.91-2.35-5.25-5.26-5.25s-5.29,2.34-5.29,5.25,2.38,5.23,5.29,5.23,5.26-2.36,5.26-5.23M1755.33,655.96c2.91,0,5.28-2.32,5.28-5.24s-2.37-5.23-5.28-5.23-5.27,2.34-5.27,5.23,2.35,5.24,5.27,5.24M1757.83,666.9c-2.91,0-5.24,2.34-5.24,5.26s2.33,5.21,5.24,5.21,5.29-2.32,5.29-5.21-2.37-5.26-5.29-5.26M1753.55,718.33c-2.91,0-5.26,2.36-5.26,5.26s2.35,5.2,5.26,5.2,5.27-2.34,5.27-5.2-2.35-5.26-5.27-5.26M1774.54,659.38c0-2.9-2.38-5.26-5.29-5.26s-5.29,2.36-5.29,5.26,2.37,5.23,5.29,5.23,5.29-2.33,5.29-5.23M1772.12,672.56c-2.91,0-5.29,2.36-5.29,5.25s2.38,5.25,5.29,5.25,5.27-2.36,5.27-5.25-2.36-5.25-5.27-5.25M1767.64,637.19c0-2.92-2.38-5.23-5.26-5.23s-5.27,2.31-5.27,5.23,2.33,5.23,5.27,5.23,5.26-2.36,5.26-5.23M1636.9,707.69c-2.91,0-5.27,2.36-5.27,5.23s2.35,5.23,5.27,5.23,5.29-2.31,5.29-5.23-2.37-5.23-5.29-5.23M1729.57,708.67c0-2.89-2.35-5.26-5.27-5.26s-5.26,2.36-5.26,5.26,2.37,5.25,5.26,5.25,5.27-2.36,5.27-5.25M1717.16,719.76c-2.91,0-5.26,2.34-5.26,5.23s2.35,5.23,5.26,5.23,5.28-2.34,5.28-5.23-2.37-5.23-5.28-5.23M1731.81,726.12c-2.91,0-5.29,2.36-5.29,5.25s2.38,5.23,5.29,5.23,5.24-2.33,5.24-5.23-2.33-5.25-5.24-5.25M1709.68,732.51c-2.91,0-5.28,2.34-5.28,5.23s2.37,5.26,5.28,5.26,5.28-2.36,5.28-5.26-2.37-5.23-5.28-5.23M1737.86,711.94c-2.91,0-5.29,2.34-5.29,5.24s2.37,5.25,5.29,5.25,5.28-2.34,5.28-5.25-2.37-5.24-5.28-5.24M1756.76,702.39c-2.91,0-5.26,2.32-5.26,5.21s2.35,5.25,5.26,5.25,5.29-2.36,5.29-5.25-2.38-5.21-5.29-5.21M1707.47,714.35c0-2.89-2.37-5.23-5.26-5.23s-5.29,2.34-5.29,5.23,2.36,5.23,5.29,5.23,5.26-2.34,5.26-5.23M1659.74,711.61c-2.91,0-5.28,2.34-5.28,5.21s2.37,5.25,5.28,5.25,5.26-2.36,5.26-5.25-2.35-5.21-5.26-5.21M1653.85,683.96c2.94,0,5.26-2.32,5.26-5.24s-2.32-5.23-5.26-5.23-5.26,2.36-5.26,5.23,2.37,5.24,5.26,5.24M1757.83,684.65c-2.91,0-5.24,2.34-5.24,5.23s2.33,5.25,5.24,5.25,5.29-2.36,5.29-5.25-2.37-5.23-5.29-5.23M1648.68,699.18c-2.91,0-5.27,2.36-5.27,5.24s2.35,5.23,5.27,5.23,5.26-2.32,5.26-5.23-2.35-5.24-5.26-5.24M1670.81,723.65c-2.91,0-5.28,2.34-5.28,5.23s2.37,5.25,5.28,5.25,5.27-2.36,5.27-5.25-2.35-5.23-5.27-5.23M1680.79,711.61c-2.91,0-5.28,2.34-5.28,5.21s2.37,5.25,5.28,5.25,5.26-2.36,5.26-5.25-2.35-5.21-5.26-5.21M1661.18,697.96c2.9,0,5.26-2.34,5.26-5.24s-2.36-5.25-5.26-5.25-5.29,2.36-5.29,5.25,2.38,5.24,5.29,5.24M1857.35,679.33c-2.92,0-5.24,2.34-5.24,5.21,0,1.69.78,3.16,1.99,4.09,1.2.45,2.37.85,3.45,1.16,2.8-.11,5.08-2.4,5.08-5.25s-2.38-5.21-5.29-5.21M1868.42,656.98c-2.91,0-5.26,2.34-5.26,5.26s2.35,5.21,5.26,5.21,5.28-2.32,5.28-5.21-2.37-5.26-5.28-5.26M1842.31,676.39c0-2.89-2.38-5.21-5.29-5.21s-5.24,2.32-5.24,5.21,2.33,5.25,5.24,5.25,5.29-2.36,5.29-5.25M1891.26,602.3c0,2.91,2.38,5.25,5.29,5.25.71,0,1.39-.13,2.01-.4.67-2.8,1.1-5.7,1.7-8.52-.94-.96-2.26-1.54-3.72-1.54-2.91,0-5.29,2.32-5.29,5.21M1877.69,632.51c-2.91,0-5.24,2.34-5.24,5.23s2.33,5.25,5.24,5.25,5.28-2.36,5.28-5.25-2.36-5.23-5.28-5.23M1681.55,400.98c2.94,0,5.29-2.34,5.29-5.23s-2.35-5.23-5.29-5.23-5.24,2.34-5.24,5.23,2.33,5.23,5.24,5.23M1789.5,663.63c0-2.89-2.36-5.23-5.26-5.23s-5.27,2.34-5.27,5.23,2.35,5.23,5.27,5.23,5.26-2.34,5.26-5.23M1825.17,680.31c0-2.89-2.35-5.25-5.26-5.25s-5.29,2.36-5.29,5.25,2.38,5.23,5.29,5.23,5.26-2.34,5.26-5.23M1787.44,685.54c2.92,0,5.29-2.34,5.29-5.23s-2.37-5.25-5.29-5.25-5.26,2.36-5.26,5.25,2.35,5.23,5.26,5.23M1773.53,705.91c-2.91,0-5.26,2.36-5.26,5.25s2.35,5.23,5.26,5.23,5.27-2.33,5.27-5.23-2.33-5.25-5.27-5.25M1789.23,707.33c-2.91,0-5.29,2.36-5.29,5.24s2.38,5.23,5.29,5.23,5.26-2.34,5.26-5.23-2.35-5.24-5.26-5.24M1815.66,669.58c2.88,0,5.24-2.34,5.24-5.24s-2.35-5.23-5.24-5.23-5.29,2.32-5.29,5.23,2.36,5.24,5.29,5.24M1824.91,704.48c-2.26,0-4.14,1.43-4.91,3.39,2.28-1.36,6.58.04,9.81-.05-.78-1.93-2.69-3.34-4.9-3.34M1629.67,393.74c2.91,0,5.26-2.36,5.26-5.23s-2.35-5.25-5.26-5.25-5.26,2.36-5.26,5.25,2.36,5.23,5.26,5.23M1628.04,408.21c2.91,0,5.26-2.33,5.26-5.23s-2.36-5.23-5.26-5.23-5.29,2.34-5.29,5.23,2.38,5.23,5.29,5.23M1626.04,434.97c0,2.89,2.35,5.23,5.26,5.23s5.28-2.34,5.28-5.23-2.37-5.25-5.28-5.25-5.26,2.36-5.26,5.25M1633.77,418.39c0-2.89-2.38-5.23-5.27-5.23s-5.26,2.34-5.26,5.23,2.33,5.23,5.26,5.23,5.27-2.33,5.27-5.23M1613.35,449.91c0,2.89,2.37,5.23,5.29,5.23s5.28-2.34,5.28-5.23-2.37-5.23-5.28-5.23-5.29,2.36-5.29,5.23M1608.42,434.97c0,2.89,2.38,5.23,5.29,5.23s5.26-2.34,5.26-5.23-2.35-5.25-5.26-5.25-5.29,2.36-5.29,5.25M1645.16,409.37c2.94,0,5.27-2.31,5.27-5.21s-2.33-5.26-5.27-5.26-5.26,2.34-5.26,5.26,2.37,5.21,5.26,5.21M1651.64,474.43c0,2.89,2.38,5.25,5.28,5.25s5.26-2.36,5.26-5.25-2.35-5.24-5.26-5.24-5.28,2.34-5.28,5.24M1661.13,446.06c2.91,0,5.28-2.36,5.28-5.25s-2.37-5.23-5.28-5.23-5.26,2.34-5.26,5.23,2.35,5.25,5.26,5.25M1609.47,409.37c2.91,0,5.27-2.31,5.27-5.21s-2.36-5.26-5.27-5.26-5.26,2.36-5.26,5.26,2.35,5.21,5.26,5.21M1663.73,396.55c2.91,0,5.26-2.34,5.26-5.25s-2.35-5.23-5.26-5.23-5.29,2.34-5.29,5.23,2.38,5.25,5.29,5.25M1644.36,455.06c0,2.89,2.35,5.23,5.27,5.23s5.28-2.34,5.28-5.23-2.38-5.26-5.28-5.26-5.27,2.36-5.27,5.26M1646.8,393.74c2.91,0,5.28-2.36,5.28-5.23s-2.37-5.25-5.28-5.25-5.24,2.36-5.24,5.25,2.33,5.23,5.24,5.23M1611.69,689.93c0-2.87-2.35-5.21-5.26-5.21s-5.27,2.34-5.27,5.21,2.33,5.25,5.27,5.25,5.26-2.34,5.26-5.25M1590.55,678.97c0-2.89-2.35-5.25-5.26-5.25s-5.26,2.36-5.26,5.25,2.33,5.25,5.26,5.25,5.26-2.36,5.26-5.25M1591.26,691.04c-1.57,0-2.94.67-3.9,1.71,2.4,2.2,2.82,6.23,5.02,8.61,2.38-.49,4.14-2.58,4.14-5.12,0-2.89-2.35-5.21-5.26-5.21M1593.72,428.07c2.91,0,5.29-2.36,5.29-5.25s-2.38-5.23-5.29-5.23-5.24,2.34-5.24,5.23,2.33,5.25,5.24,5.25M1570.57,647.45c0-2.9-2.33-5.26-5.24-5.26s-5.28,2.36-5.28,5.26,2.37,5.25,5.28,5.25,5.24-2.36,5.24-5.25M1614.08,700.97c-2.93,0-5.26,2.31-5.26,5.21s2.33,5.26,5.26,5.26,5.26-2.34,5.26-5.26-2.38-5.21-5.26-5.21M1623.35,716.91c-2.93,0-5.26,2.36-5.26,5.25s2.33,5.23,5.26,5.23,5.26-2.34,5.26-5.23-2.35-5.25-5.26-5.25M1572.47,664.72c0-2.89-2.35-5.25-5.26-5.25s-5.28,2.36-5.28,5.25,2.37,5.26,5.28,5.26,5.26-2.36,5.26-5.26M1566.03,453.27c2.91,0,5.26-2.32,5.26-5.23s-2.35-5.23-5.26-5.23-5.26,2.36-5.26,5.23,2.35,5.23,5.26,5.23M1566.74,460.64c-1.05,2.69.29,5.72,3.03,6.79,2.71,1.02,5.78-.31,6.81-3.03,1.05-2.69-.31-5.72-3-6.77-2.74-1.02-5.78.31-6.83,3.01M1552.3,472.33c0,2.89,2.37,5.23,5.28,5.23s5.26-2.34,5.26-5.23-2.35-5.23-5.26-5.23-5.28,2.33-5.28,5.23M1557.09,599.92c2.91,0,5.28-2.34,5.28-5.23s-2.38-5.25-5.28-5.25-5.26,2.36-5.26,5.25,2.35,5.23,5.26,5.23M1551.94,606.95c-2.91,0-5.28,2.34-5.28,5.23s2.37,5.25,5.28,5.25,5.26-2.36,5.26-5.25-2.35-5.23-5.26-5.23M1807.41,652.57c2.92,0,5.29-2.36,5.29-5.23s-2.37-5.26-5.29-5.26-5.26,2.34-5.26,5.26,2.35,5.23,5.26,5.23M1761.91,454.03c-2.91,0-5.29,2.34-5.29,5.21s2.37,5.25,5.29,5.25,5.26-2.33,5.26-5.25-2.35-5.21-5.26-5.21M1763.56,471.06c-2.95,0-5.28,2.34-5.28,5.23s2.33,5.25,5.28,5.25,5.24-2.36,5.24-5.25-2.37-5.23-5.24-5.23M1762.74,510.63c0,2.89,2.34,5.25,5.26,5.25s5.29-2.36,5.29-5.25-2.38-5.25-5.29-5.25-5.26,2.36-5.26,5.25M1750.84,398.69c-2.91,0-5.26,2.34-5.26,5.23s2.35,5.23,5.26,5.23,5.29-2.33,5.29-5.23-2.38-5.23-5.29-5.23M1727.02,434.04c0,2.9,2.37,5.26,5.29,5.26s5.24-2.36,5.24-5.26-2.33-5.23-5.24-5.23-5.29,2.34-5.29,5.23M1740.77,412.93c-2.91,0-5.29,2.32-5.29,5.21s2.38,5.25,5.29,5.25,5.26-2.34,5.26-5.25-2.35-5.21-5.26-5.21M1781.63,414.09c-2.93,0-5.26,2.36-5.26,5.25s2.33,5.21,5.26,5.21,5.27-2.34,5.27-5.21-2.38-5.25-5.27-5.25M1789.14,428.58c-2.92,0-5.26,2.34-5.26,5.23s2.35,5.23,5.26,5.23,5.28-2.34,5.28-5.23-2.37-5.23-5.28-5.23M1664.2,652.21c2.89,0,5.27-2.34,5.27-5.23s-2.38-5.23-5.27-5.23-5.26,2.36-5.26,5.23,2.33,5.23,5.26,5.23M1803.47,418.3c-2.91,0-5.28,2.34-5.28,5.23s2.37,5.25,5.28,5.25,5.29-2.36,5.29-5.25-2.37-5.23-5.29-5.23M1773.64,400.56c-2.92,0-5.26,2.34-5.26,5.23s2.34,5.24,5.26,5.24,5.29-2.34,5.29-5.24-2.38-5.23-5.29-5.23M1729.26,400.56c-2.91,0-5.29,2.34-5.29,5.23s2.38,5.24,5.29,5.24,5.27-2.34,5.27-5.24-2.36-5.23-5.27-5.23M1809.81,433.95c-2.91,0-5.26,2.36-5.26,5.23s2.35,5.23,5.26,5.23,5.27-2.34,5.27-5.23-2.33-5.23-5.27-5.23M1769.55,444.79c0,2.87,2.35,5.23,5.26,5.23s5.28-2.36,5.28-5.23-2.37-5.23-5.28-5.23-5.26,2.34-5.26,5.23M1716.94,421.22c0,2.9,2.33,5.23,5.26,5.23s5.26-2.34,5.26-5.23-2.35-5.25-5.26-5.25-5.26,2.36-5.26,5.25M1676.63,406.14c-2.91,0-5.26,2.34-5.26,5.26s2.35,5.23,5.26,5.23,5.28-2.36,5.28-5.23-2.37-5.26-5.28-5.26M1674.19,469.06c0,2.89,2.35,5.23,5.26,5.23s5.29-2.34,5.29-5.23-2.38-5.24-5.29-5.24-5.26,2.34-5.26,5.24M1687.67,463.33c2.91,0,5.27-2.36,5.27-5.25s-2.35-5.21-5.27-5.21-5.26,2.31-5.26,5.21,2.36,5.25,5.26,5.25M1675.02,453.05c2.86,0,5.24-2.36,5.24-5.25s-2.38-5.21-5.24-5.21-5.28,2.32-5.28,5.21,2.35,5.25,5.28,5.25M1658.94,532.58c0,2.89,2.33,5.25,5.26,5.25s5.27-2.36,5.27-5.25-2.38-5.26-5.27-5.26-5.26,2.36-5.26,5.26M1669.73,428.21c0,2.89,2.35,5.23,5.28,5.23s5.24-2.34,5.24-5.23-2.38-5.25-5.24-5.25-5.28,2.36-5.28,5.25M1709.06,406.14c-2.91,0-5.29,2.34-5.29,5.26s2.37,5.23,5.29,5.23,5.26-2.36,5.26-5.23-2.35-5.26-5.26-5.26M1683.82,436.84c0,2.89,2.35,5.23,5.26,5.23s5.29-2.34,5.29-5.23-2.37-5.25-5.29-5.25-5.26,2.36-5.26,5.25M1700.01,428.43c0,2.9,2.37,5.26,5.28,5.26s5.26-2.36,5.26-5.26-2.35-5.2-5.26-5.2-5.28,2.32-5.28,5.2M1711.3,395.75c0,2.89,2.37,5.23,5.26,5.23s5.29-2.34,5.29-5.23-2.38-5.23-5.29-5.23-5.26,2.34-5.26,5.23M1687.11,418.19c0,2.87,2.35,5.21,5.28,5.21s5.24-2.34,5.24-5.21-2.35-5.25-5.24-5.25-5.28,2.34-5.28,5.25M1696.38,397.75c-2.91,0-5.28,2.34-5.28,5.23s2.37,5.23,5.28,5.23,5.24-2.33,5.24-5.23-2.33-5.23-5.24-5.23M1848.66,622.25c0-2.89-2.35-5.25-5.26-5.25s-5.27,2.36-5.27,5.25,2.36,5.21,5.27,5.21,5.26-2.34,5.26-5.21M1870.99,561.07c0-2.89-2.35-5.26-5.29-5.26s-5.26,2.36-5.26,5.26,2.35,5.23,5.26,5.23,5.29-2.34,5.29-5.23M1870.66,587.29c2.9,0,5.24-2.31,5.24-5.21s-2.33-5.25-5.24-5.25-5.29,2.36-5.29,5.25,2.38,5.21,5.29,5.21M1858.89,588.05c-2.91,0-5.26,2.33-5.26,5.23s2.35,5.23,5.26,5.23,5.27-2.36,5.27-5.23-2.36-5.23-5.27-5.23M1861.72,472.69c-2.91,0-5.26,2.36-5.26,5.25s2.35,5.23,5.26,5.23,5.26-2.34,5.26-5.23-2.37-5.25-5.26-5.25M1858.67,607.91c-2.93,0-5.28,2.32-5.28,5.21s2.35,5.26,5.28,5.26,5.27-2.36,5.27-5.26-2.35-5.21-5.27-5.21M1866.65,521.98c-2.91,0-5.26,2.34-5.26,5.23s2.35,5.23,5.26,5.23,5.26-2.36,5.26-5.23-2.33-5.23-5.26-5.23M1844.67,565.97c0-2.89-2.37-5.25-5.26-5.25s-5.26,2.36-5.26,5.25,2.33,5.23,5.26,5.23,5.26-2.33,5.26-5.23M1836.21,609.16c0-2.89-2.35-5.23-5.24-5.23s-5.28,2.34-5.28,5.23,2.35,5.26,5.28,5.26,5.24-2.36,5.24-5.26M1855.04,460.67c0,2.89,2.35,5.25,5.26,5.25s5.27-2.36,5.27-5.25-2.35-5.23-5.27-5.23-5.26,2.34-5.26,5.23M1828.83,632.85c2.93,0,5.28-2.36,5.28-5.26s-2.35-5.21-5.28-5.21-5.24,2.33-5.24,5.21,2.35,5.26,5.24,5.26M1844.34,597.4c-2.93,0-5.28,2.31-5.28,5.21s2.35,5.26,5.28,5.26,5.27-2.36,5.27-5.26-2.38-5.21-5.27-5.21M1656.21,513.78c-2.91,0-5.27,2.36-5.27,5.25s2.35,5.23,5.27,5.23,5.28-2.34,5.28-5.23-2.38-5.25-5.28-5.25M1854.17,640.5c2.92,0,5.24-2.36,5.24-5.23s-2.33-5.24-5.24-5.24-5.28,2.32-5.28,5.24,2.35,5.23,5.28,5.23M1836.71,445.26c0,2.89,2.37,5.23,5.29,5.23s5.26-2.34,5.26-5.23-2.35-5.25-5.26-5.25-5.29,2.36-5.29,5.25M1860.31,488.36c-2.91,0-5.26,2.31-5.26,5.21s2.35,5.25,5.26,5.25,5.29-2.33,5.29-5.25-2.38-5.21-5.29-5.21M1827.88,444.24c-2.89,0-5.24,2.32-5.24,5.21s2.35,5.26,5.24,5.26,5.28-2.36,5.28-5.26-2.35-5.21-5.28-5.21M1811.69,449.82c-2.93,0-5.26,2.34-5.26,5.23s2.32,5.25,5.26,5.25,5.26-2.36,5.26-5.25-2.35-5.23-5.26-5.23M1833.91,508.75c0,2.89,2.35,5.25,5.26,5.25s5.28-2.36,5.28-5.25-2.37-5.21-5.28-5.21-5.26,2.32-5.26,5.21M1819.58,496.37c0,2.9,2.34,5.25,5.28,5.25s5.26-2.36,5.26-5.25-2.37-5.23-5.26-5.23-5.28,2.34-5.28,5.23M1813.46,511.78c0,2.89,2.37,5.25,5.28,5.25s5.26-2.36,5.26-5.25-2.37-5.21-5.26-5.21-5.28,2.34-5.28,5.21M1829.54,459.86c-2.91,0-5.29,2.34-5.29,5.23s2.38,5.23,5.29,5.23,5.29-2.34,5.29-5.23-2.38-5.23-5.29-5.23M1850.81,510.4c0,2.89,2.35,5.25,5.29,5.25s5.24-2.36,5.24-5.25-2.35-5.26-5.24-5.26-5.29,2.36-5.29,5.26M1845.39,524.4c0,2.89,2.38,5.23,5.29,5.23s5.28-2.33,5.28-5.23-2.37-5.23-5.28-5.23-5.29,2.32-5.29,5.23M1843.65,499.76c2.91,0,5.24-2.36,5.24-5.25s-2.33-5.21-5.24-5.21-5.29,2.34-5.29,5.21,2.38,5.25,5.29,5.25M1845.03,482.71c2.91,0,5.29-2.34,5.29-5.23s-2.38-5.23-5.29-5.23-5.26,2.32-5.26,5.23,2.35,5.23,5.26,5.23M1845.03,467.3c2.91,0,5.29-2.34,5.29-5.23s-2.38-5.23-5.29-5.23-5.26,2.34-5.26,5.23,2.35,5.23,5.26,5.23M1795,415.23c2.92,0,5.29-2.33,5.29-5.23s-2.38-5.25-5.29-5.25-5.26,2.36-5.26,5.25,2.35,5.23,5.26,5.23M1588.44,661.92c0-2.89-2.37-5.23-5.28-5.23s-5.24,2.34-5.24,5.23,2.33,5.25,5.24,5.25,5.28-2.36,5.28-5.25M1586.33,646.05c0-2.89-2.37-5.24-5.28-5.24s-5.26,2.34-5.26,5.24,2.35,5.23,5.26,5.23,5.28-2.36,5.28-5.23M1591.02,613.36c0-2.89-2.35-5.26-5.27-5.26s-5.28,2.36-5.28,5.26,2.38,5.23,5.28,5.23,5.27-2.36,5.27-5.23M1599.84,631.2c2.91,0,5.27-2.34,5.27-5.23s-2.35-5.24-5.27-5.24-5.26,2.34-5.26,5.24,2.36,5.23,5.26,5.23M1596.64,598.87c0-2.89-2.33-5.2-5.24-5.2s-5.29,2.32-5.29,5.2,2.38,5.26,5.29,5.26,5.24-2.36,5.24-5.26M1597.04,647.32c2.89,0,5.24-2.36,5.24-5.24s-2.35-5.23-5.24-5.23-5.29,2.34-5.29,5.23,2.38,5.24,5.29,5.24M1577.87,597.49c0-2.89-2.38-5.26-5.29-5.26s-5.26,2.36-5.26,5.26,2.35,5.23,5.26,5.23,5.29-2.34,5.29-5.23M1536.89,511.78c2.71,1.02,5.76-.31,6.81-2.98,1.05-2.72-.31-5.74-3.02-6.79-2.71-1.05-5.76.31-6.81,3.01-1.05,2.71.29,5.72,3.02,6.77M1527.73,564.36c1.05-2.71-.32-5.74-3.02-6.79-2.74-1.05-5.78.29-6.81,3.01-1.05,2.69.31,5.72,3,6.77,2.73,1.02,5.78-.29,6.83-2.98M1526.55,525.81c2.71,1.02,5.78-.31,6.8-3.03,1.03-2.7-.31-5.75-3-6.77-2.73-1.02-5.78.31-6.81,3.01-1.08,2.69.27,5.72,3,6.79M1537.14,602.99c-2.48,0-4.54,1.71-5.11,3.98-.02.13-.02.27-.06.4-.05.27-.09.56-.09.85,0,2.9,2.35,5.25,5.26,5.25s5.26-2.36,5.26-5.25-2.35-5.23-5.26-5.23M1555.7,565.83c2.91,0,5.26-2.34,5.26-5.25s-2.35-5.21-5.26-5.21-5.29,2.32-5.29,5.21,2.38,5.25,5.29,5.25M1553.69,575.32c0-2.92-2.37-5.26-5.28-5.26s-5.27,2.34-5.27,5.26,2.35,5.21,5.27,5.21,5.28-2.34,5.28-5.21M1563.22,585.91c2.89,0,5.24-2.36,5.24-5.25s-2.35-5.21-5.24-5.21-5.28,2.31-5.28,5.21,2.35,5.25,5.28,5.25M1635.56,680c2.91,0,5.26-2.36,5.26-5.23s-2.35-5.24-5.26-5.24-5.28,2.36-5.28,5.24,2.38,5.23,5.28,5.23M1626.91,693.15c-2.91,0-5.26,2.33-5.26,5.23s2.35,5.25,5.26,5.25,5.28-2.36,5.28-5.25-2.37-5.23-5.28-5.23M1640.85,695.85c2.9,0,5.26-2.36,5.26-5.25s-2.36-5.25-5.26-5.25-5.29,2.36-5.29,5.25,2.38,5.25,5.29,5.25M1659.61,614.27c0-2.87-2.37-5.2-5.28-5.2s-5.26,2.33-5.26,5.2,2.35,5.26,5.26,5.26,5.28-2.34,5.28-5.26M1598.21,663.88c2.91,0,5.28-2.31,5.28-5.23s-2.38-5.23-5.28-5.23-5.29,2.33-5.29,5.23,2.38,5.23,5.29,5.23M1649.87,668.55c2.91,0,5.26-2.34,5.26-5.21s-2.35-5.25-5.26-5.25-5.26,2.34-5.26,5.25,2.35,5.21,5.26,5.21M1620.75,688.41c2.89,0,5.26-2.36,5.26-5.25s-2.38-5.21-5.26-5.21-5.26,2.34-5.26,5.21,2.33,5.25,5.26,5.25M1608.86,611.97c0-2.9-2.35-5.26-5.26-5.26s-5.27,2.36-5.27,5.26,2.35,5.25,5.27,5.25,5.26-2.36,5.26-5.25M1601.25,679.77c2.91,0,5.29-2.36,5.29-5.25s-2.38-5.23-5.29-5.23-5.29,2.36-5.29,5.23,2.37,5.25,5.29,5.25M1616.86,597.49c0-2.89-2.35-5.26-5.26-5.26s-5.28,2.36-5.28,5.26,2.37,5.23,5.28,5.23,5.26-2.34,5.26-5.23M1614.4,656.89c2.93,0,5.28-2.33,5.28-5.23s-2.35-5.23-5.28-5.23-5.26,2.31-5.26,5.23,2.38,5.23,5.26,5.23M1615.36,672.76c2.91,0,5.24-2.34,5.24-5.23s-2.33-5.23-5.24-5.23-5.29,2.34-5.29,5.23,2.37,5.23,5.29,5.23M1591.17,470.46c-1.07,2.7.32,5.73,3.02,6.77,2.71,1.03,5.76-.31,6.81-2.98,1.05-2.71-.31-5.74-3.02-6.81-2.73-1.02-5.78.31-6.81,3.02M1615.94,483.55c0,2.9,2.38,5.23,5.28,5.23s5.24-2.34,5.24-5.23-2.33-5.25-5.24-5.25-5.28,2.36-5.28,5.25M1611.57,462.42c-2.91,0-5.26,2.34-5.26,5.23s2.35,5.25,5.26,5.25,5.26-2.36,5.26-5.25-2.32-5.23-5.26-5.23M1606.09,419.57c0,2.89,2.35,5.23,5.27,5.23s5.26-2.34,5.26-5.23-2.35-5.25-5.26-5.25-5.27,2.36-5.27,5.25M1551.44,489.03c-2.91,0-5.24,2.36-5.24,5.25s2.33,5.23,5.24,5.23,5.29-2.33,5.29-5.23-2.38-5.25-5.29-5.25M1593.16,437.78c0,2.89,2.35,5.21,5.27,5.21s5.29-2.32,5.29-5.21-2.38-5.25-5.29-5.25-5.27,2.36-5.27,5.25M1652.94,498.85c-2.93,0-5.28,2.34-5.28,5.23s2.35,5.25,5.28,5.25,5.24-2.36,5.24-5.25-2.33-5.23-5.24-5.23M1589.52,452.03c-2.71-1.02-5.76.31-6.81,3.03-1.03,2.67.31,5.72,3.03,6.77,2.71,1.02,5.75-.31,6.81-3.01,1.05-2.7-.29-5.72-3.02-6.79M1626.38,462.42c-2.91,0-5.26,2.34-5.26,5.23s2.35,5.25,5.26,5.25,5.28-2.36,5.28-5.25-2.37-5.23-5.28-5.23M1642.12,463.82c-2.94,0-5.26,2.34-5.26,5.24s2.33,5.23,5.26,5.23,5.26-2.34,5.26-5.23-2.35-5.24-5.26-5.24M1647.18,489.39c0,2.87,2.35,5.23,5.26,5.23s5.29-2.36,5.29-5.23-2.37-5.26-5.29-5.26-5.26,2.36-5.26,5.26M1647.05,431.15c-2.91,0-5.26,2.32-5.26,5.21s2.35,5.26,5.26,5.26,5.26-2.34,5.26-5.26-2.35-5.21-5.26-5.21M1630.5,451.09c0,2.9,2.38,5.21,5.28,5.21s5.24-2.31,5.24-5.21-2.33-5.25-5.24-5.25-5.28,2.36-5.28,5.25M1651.14,419.57c0-2.89-2.37-5.25-5.29-5.25s-5.26,2.36-5.26,5.25,2.35,5.23,5.26,5.23,5.29-2.34,5.29-5.23M1602.41,447c-2.91,0-5.26,2.36-5.26,5.25s2.35,5.23,5.26,5.23,5.28-2.34,5.28-5.23-2.37-5.25-5.28-5.25M1533.96,586.49c0-2.89-2.35-5.21-5.27-5.21s-5.28,2.31-5.28,5.21,2.37,5.26,5.28,5.26,5.27-2.34,5.27-5.26M1541.61,525.36c-2.71-1.04-5.78.32-6.83,2.99-1.03,2.71.31,5.74,3.04,6.78,2.69,1.05,5.76-.29,6.81-3,1.03-2.72-.31-5.74-3.02-6.77M1533.13,574.36c2.71,1.05,5.78-.29,6.81-3,1.05-2.69-.31-5.75-3.02-6.77-2.71-1.05-5.76.31-6.81,2.98-1.05,2.71.29,5.75,3.02,6.79M1550.05,522.4c2.91,0,5.27-2.33,5.27-5.23s-2.35-5.25-5.27-5.25-5.28,2.36-5.28,5.25,2.38,5.23,5.28,5.23M1577.56,440.56c-1.07,2.69.29,5.72,3,6.79,2.71,1.02,5.78-.32,6.81-3.03,1.08-2.67-.29-5.72-3-6.77-2.73-1.02-5.78.31-6.81,3.01M1544.43,549.18c-2.71-1.07-5.75.29-6.81,2.98-1.05,2.71.29,5.74,3.02,6.77,2.69,1.07,5.73-.29,6.81-2.99,1.03-2.71-.31-5.74-3.03-6.77M1556.73,539.57c0-2.9-2.38-5.21-5.29-5.21s-5.24,2.32-5.24,5.21,2.33,5.25,5.24,5.25,5.29-2.36,5.29-5.25M1570.97,495.22c-1.05,2.67.32,5.7,3,6.77,2.74,1.02,5.78-.31,6.83-3.03,1.05-2.69-.31-5.7-3.03-6.77-2.73-1.02-5.78.32-6.8,3.03M1575.19,476.07c-1.03,2.67.31,5.72,3.05,6.77,2.69,1.02,5.76-.32,6.81-3.03,1.03-2.67-.32-5.7-3.03-6.77-2.71-1.02-5.78.31-6.83,3.03M1568.38,479.12c-2.71-1.05-5.75.29-6.81,3.01-1.03,2.69.31,5.74,3.02,6.77,2.71,1.04,5.75-.31,6.81-2.98,1.05-2.72-.29-5.74-3.02-6.79M1533.82,547.53c1.05-2.69-.29-5.75-3.02-6.77-2.71-1.06-5.76.32-6.81,3.01-1.03,2.7.31,5.72,3.02,6.79,2.71,1.02,5.75-.31,6.81-3.03M1556.86,505.48c-1.03,2.69.32,5.72,3.02,6.77,2.71,1.04,5.78-.29,6.83-3.01,1.03-2.7-.31-5.74-3.05-6.77-2.68-1.05-5.75.31-6.81,3.01"/></g></g></g><text class="cls-10" transform="translate(630.69 215.94)"><tspan class="cls-9" x="0" y="0">F</tspan><tspan x="106.45" y="0">acultad de</tspan><tspan x="58.17" y="242.4">Educacin</tspan></text><circle id="path932" class="cls-3" cx="373.92" cy="267.22" r="178.29"/><g id="path1036"><path class="cls-5" d="M373.92,438c-45.62,0-88.51-17.76-120.76-50.02-32.26-32.26-50.02-75.14-50.02-120.76,0-45.62,17.76-88.51,50.02-120.76,32.26-32.26,75.14-50.02,120.76-50.02,45.62,0,88.51,17.76,120.76,50.02,32.26,32.26,50.02,75.14,50.02,120.76,0,45.62-17.76,88.51-50.02,120.76-32.26,32.26-75.14,50.02-120.76,50.02ZM373.92,107.73c-42.6,0-82.65,16.59-112.78,46.71-30.12,30.12-46.71,70.18-46.71,112.78,0,42.6,16.59,82.65,46.71,112.78,30.12,30.12,70.18,46.71,112.78,46.71,42.6,0,82.65-16.59,112.78-46.71,30.12-30.12,46.71-70.18,46.71-112.78,0-42.6-16.59-82.65-46.71-112.78-30.12-30.12-70.18-46.71-112.78-46.71Z"/></g><g class="cls-11"><path class="cls-5" d="M378.74,160.89l-17.23,82.96h.58c11.39-12.27,28.92-20.16,47.91-20.16,31.26,0,47.61,23.66,47.61,52.58,0,44.11-30.96,97.27-99.61,97.27-37.1,0-55.79-15.77-55.79-42.94,0-9.06,1.46-18.4,3.51-28.04l28.92-141.67h44.11ZM349.82,306.95c-.58,4.38-2.05,9.93-1.46,16.65.29,10.81,7.3,16.36,18.11,16.36,25.71,0,44.98-29.21,44.98-55.79,0-14.31-7.3-25.41-21.32-25.41-16.94,0-33.88,15.77-39.43,43.82l-.88,4.38Z"/></g></svg>