<?xml version="1.0" encoding="UTF-8"?><svg id="Layer_1" xmlns="http://www.w3.org/2000/svg" viewBox="0 0 190.5 122.64"><defs><style>.cls-1{fill:#231f20;font-family:MyriadPro-Regular, 'Myriad Pro';font-size:7.91px;}.cls-2{isolation:isolate;}.cls-3{fill:#15bff1;}.cls-3,.cls-4{stroke-width:0px;}.cls-4{fill:#fff;}.cls-5{fill:none;stroke:#231f20;stroke-miterlimit:10;stroke-width:.25px;}</style></defs><circle id="path932" class="cls-3" cx="60.75" cy="60.87" r="58.09"/><g id="path1036"><path class="cls-4" d="M60.75,116.51c-14.86,0-28.84-5.79-39.34-16.3-10.51-10.51-16.3-24.48-16.3-39.34,0-14.86,5.79-28.84,16.3-39.34C31.92,11.01,45.89,5.22,60.75,5.22c14.86,0,28.84,5.79,39.34,16.3,10.51,10.51,16.3,24.48,16.3,39.34,0,14.86-5.79,28.84-16.3,39.34-10.51,10.51-24.48,16.3-39.34,16.3ZM60.75,8.9c-13.88,0-26.93,5.41-36.74,15.22-9.81,9.81-15.22,22.86-15.22,36.74,0,13.88,5.41,26.93,15.22,36.74,9.81,9.81,22.86,15.22,36.74,15.22,13.88,0,26.93-5.41,36.74-15.22,9.81-9.81,15.22-22.86,15.22-36.74,0-13.88-5.41-26.93-15.22-36.74-9.81-9.81-22.86-15.22-36.74-15.22Z"/></g><g class="cls-2"><path class="cls-4" d="M62.32,26.22l-5.62,27.03h.19c3.71-4,9.42-6.57,15.61-6.57,10.18,0,15.51,7.71,15.51,17.13,0,14.37-10.09,31.69-32.45,31.69-12.09,0-18.18-5.14-18.18-13.99,0-2.95.48-6,1.14-9.14l9.42-46.16h14.37ZM52.9,73.81c-.19,1.43-.67,3.24-.48,5.42.1,3.52,2.38,5.33,5.9,5.33,8.38,0,14.66-9.52,14.66-18.18,0-4.66-2.38-8.28-6.95-8.28-5.52,0-11.04,5.14-12.85,14.28l-.29,1.43Z"/></g><line class="cls-5" x1="52.38" y1="8.9" x2="184.56" y2="8.9"/><line class="cls-5" x1="52.38" y1="26.22" x2="184.56" y2="26.22"/><line class="cls-5" x1="52.38" y1="112.83" x2="184.56" y2="112.83"/><line class="cls-5" x1="52.38" y1="95.51" x2="184.56" y2="95.51"/><line class="cls-5" x1="52.38" y1="43.54" x2="155.31" y2="43.54"/><line class="cls-5" x1="52.38" y1="60.87" x2="155.31" y2="60.87"/><line class="cls-5" x1="52.38" y1="78.19" x2="155.31" y2="78.19"/><text class="cls-1" transform="translate(167.49 20.51)"><tspan x="0" y="0">1/6</tspan></text><text class="cls-1" transform="translate(167.49 107.2)"><tspan x="0" y="0">1/6</tspan></text><text class="cls-1" transform="translate(167.49 63.86)"><tspan x="0" y="0">4/6</tspan></text></svg>